<?xml version="1.0" encoding="UTF-8"?>
<!DOCTYPE svg PUBLIC "-//W3C//DTD SVG 1.1//EN" "http://www.w3.org/Graphics/SVG/1.1/DTD/svg11.dtd">
<!-- Creator: CorelDRAW 2021 (64-Bit) -->
<svg xmlns="http://www.w3.org/2000/svg" xml:space="preserve" width="270px" height="30px" version="1.1" style="shape-rendering:geometricPrecision; text-rendering:geometricPrecision; image-rendering:optimizeQuality; fill-rule:evenodd; clip-rule:evenodd"
viewBox="0 0 40.31 4.48"
 xmlns:xlink="http://www.w3.org/1999/xlink"
 xmlns:xodm="http://www.corel.com/coreldraw/odm/2003">
 <defs>
  <style type="text/css">
   <![CDATA[
    .str0 {stroke:#373435;stroke-miterlimit:2.61313}
    .fil3 {fill:none}
    .fil1 {fill:#FEFEFE}
    .fil0 {fill:#373435;fill-rule:nonzero}
    .fil2 {fill:black;fill-rule:nonzero}
   ]]>
  </style>
 </defs>
 <g id="Layer_x0020_1">
  <metadata id="CorelCorpID_0Corel-Layer"/>
  <g>
   <path id="Oval" class="fil0" d="M33.83 1.41c0.04,0 0.08,0.03 0.08,0.08 0,0.04 -0.04,0.08 -0.08,0.08l0 -0.16zm-0.53 0l0.53 0 0 0.16 -0.53 0 0 -0.16zm0 0.16c-0.04,0 -0.07,-0.04 -0.07,-0.08 0,-0.05 0.03,-0.08 0.07,-0.08l0 0.16zm0.16 1.19c0.05,0 0.08,0.04 0.08,0.08 0,0.05 -0.03,0.08 -0.08,0.08l0 -0.16zm-0.5 0l0.5 0 0 0.16 -0.5 0 0 -0.16zm0 0.16c-0.04,0 -0.08,-0.03 -0.08,-0.08 0,-0.04 0.04,-0.08 0.08,-0.08l0 0.16zm0.87 -0.82c0.04,0 0.08,0.03 0.08,0.08 0,0.04 -0.04,0.08 -0.08,0.08l0 -0.16zm-0.87 0l0.87 0 0 0.16 -0.87 0 0 -0.16zm0 0.16c-0.05,0 -0.08,-0.04 -0.08,-0.08 0,-0.05 0.03,-0.08 0.08,-0.08l0 0.16zm1.91 0.8l0.16 0 0 0 -0.01 0.04 0 0.03 0 0.04 0 0.03 -0.01 0.03 -0.01 0.03 -0.01 0.04 -0.01 0.02 -0.01 0.03 -0.01 0.03 -0.01 0.03 -0.02 0.02 -0.01 0.03 -0.02 0.02 -0.02 0.03 -0.02 0.02 -0.02 0.02 -0.02 0.02 -0.03 0.01 -0.02 0.02 -0.03 0.01 -0.03 0.02 -0.02 0.01 -0.03 0.01 -0.03 0.01 -0.03 0.01 -0.03 0.01 -0.04 0 -0.03 0.01 -0.03 0 -0.04 0 -0.03 0 0 -0.15 0.03 0 0.03 0 0.02 -0.01 0.03 0 0.03 -0.01 0.02 0 0.02 -0.01 0.03 0 0.02 -0.01 0.02 -0.01 0.02 -0.01 0.02 -0.01 0.01 -0.01 0.02 -0.02 0.02 -0.01 0.01 -0.01 0.01 -0.02 0.02 -0.01 0.01 -0.02 0.01 -0.02 0.01 -0.02 0.01 -0.02 0.01 -0.02 0.01 -0.02 0.01 -0.02 0 -0.02 0.01 -0.03 0 -0.02 0.01 -0.03 0 -0.03 0 -0.03 0 -0.03 0 0zm0 0c0,-0.04 0.04,-0.07 0.08,-0.07 0.04,0 0.08,0.03 0.08,0.07l-0.16 0zm-0.47 -0.47l0 -0.15 0 0 0.03 0 0.04 0 0.03 0 0.03 0.01 0.04 0 0.03 0.01 0.03 0.01 0.03 0.01 0.03 0.01 0.02 0.01 0.03 0.01 0.03 0.02 0.02 0.02 0.03 0.01 0.02 0.02 0.02 0.02 0.02 0.02 0.02 0.03 0.02 0.02 0.01 0.02 0.02 0.03 0.01 0.03 0.01 0.02 0.01 0.03 0.01 0.03 0.01 0.03 0.01 0.04 0.01 0.03 0 0.03 0 0.03 0 0.04 0.01 0.03 -0.16 0 0 -0.03 0 -0.02 0 -0.03 -0.01 -0.03 0 -0.02 -0.01 -0.03 0 -0.02 -0.01 -0.02 -0.01 -0.03 -0.01 -0.02 -0.01 -0.02 -0.01 -0.01 -0.01 -0.02 -0.01 -0.02 -0.02 -0.01 -0.01 -0.02 -0.01 -0.01 -0.02 -0.02 -0.02 -0.01 -0.01 -0.01 -0.02 -0.01 -0.02 -0.01 -0.02 -0.01 -0.02 -0.01 -0.03 0 -0.02 -0.01 -0.02 -0.01 -0.03 0 -0.03 0 -0.02 -0.01 -0.03 0 -0.03 0 0 0zm0 0c-0.05,0 -0.08,-0.03 -0.08,-0.08 0,-0.04 0.03,-0.07 0.08,-0.07l0 0.15zm-0.48 0.47l-0.15 0 0 0 0 -0.03 0 -0.04 0.01 -0.03 0 -0.03 0.01 -0.03 0 -0.04 0.01 -0.03 0.01 -0.03 0.01 -0.03 0.01 -0.02 0.02 -0.03 0.01 -0.03 0.02 -0.02 0.02 -0.02 0.02 -0.03 0.02 -0.02 0.02 -0.02 0.02 -0.02 0.02 -0.01 0.03 -0.02 0.02 -0.02 0.03 -0.01 0.03 -0.01 0.03 -0.01 0.03 -0.01 0.03 -0.01 0.03 -0.01 0.03 0 0.03 -0.01 0.04 0 0.03 0 0.04 0 0 0.15 -0.03 0 -0.03 0 -0.03 0.01 -0.03 0 -0.02 0 -0.03 0.01 -0.02 0.01 -0.02 0 -0.02 0.01 -0.02 0.01 -0.02 0.01 -0.02 0.01 -0.02 0.01 -0.01 0.01 -0.02 0.02 -0.01 0.01 -0.02 0.02 -0.01 0.01 -0.01 0.02 -0.02 0.02 -0.01 0.01 -0.01 0.02 -0.01 0.02 0 0.03 -0.01 0.02 -0.01 0.02 0 0.03 -0.01 0.02 0 0.03 0 0.03 0 0.02 -0.01 0.03 0 0zm0 0c0,0.05 -0.03,0.08 -0.07,0.08 -0.05,0 -0.08,-0.03 -0.08,-0.08l0.15 0zm0.48 0.48l0 0.15 0 0 -0.04 0 -0.03 0 -0.04 0 -0.03 -0.01 -0.03 0 -0.03 -0.01 -0.03 -0.01 -0.03 -0.01 -0.03 -0.01 -0.03 -0.01 -0.03 -0.02 -0.02 -0.01 -0.03 -0.02 -0.02 -0.01 -0.02 -0.02 -0.02 -0.02 -0.02 -0.02 -0.02 -0.03 -0.02 -0.02 -0.02 -0.03 -0.01 -0.02 -0.02 -0.03 -0.01 -0.03 -0.01 -0.03 -0.01 -0.02 -0.01 -0.04 0 -0.03 -0.01 -0.03 0 -0.03 -0.01 -0.04 0 -0.03 0 -0.04 0.15 0 0.01 0.03 0 0.03 0 0.03 0 0.03 0.01 0.02 0 0.03 0.01 0.02 0.01 0.02 0 0.02 0.01 0.02 0.01 0.02 0.01 0.02 0.02 0.02 0.01 0.02 0.01 0.01 0.02 0.02 0.01 0.01 0.02 0.01 0.01 0.02 0.02 0.01 0.02 0.01 0.02 0.01 0.02 0.01 0.02 0.01 0.02 0 0.02 0.01 0.03 0 0.02 0.01 0.03 0 0.03 0.01 0.03 0 0.03 0 0 0zm0 0c0.04,0 0.08,0.03 0.08,0.07 0,0.05 -0.04,0.08 -0.08,0.08l0 -0.15zm0.7 0.12c0.03,0.03 0.03,0.08 0,0.11 -0.03,0.03 -0.08,0.03 -0.11,0l0.11 -0.11zm-0.23 -0.24l0.23 0.24 -0.11 0.11 -0.23 -0.24 0.11 -0.11zm-0.11 0.11c-0.03,-0.03 -0.03,-0.08 0,-0.11 0.03,-0.03 0.08,-0.03 0.11,0l-0.11 0.11zm-0.03 -1.44c0,0.05 -0.04,0.08 -0.08,0.08 -0.04,0 -0.08,-0.03 -0.08,-0.08l0.16 0zm-0.19 -0.84l0.16 -0.01 0 0 0 0.02 0 0.03 0 0.03 0.01 0.03 0 0.02 0 0.03 0 0.03 0 0.02 0 0.03 0 0.02 0.01 0.03 0 0.03 0 0.02 0 0.03 0 0.02 0 0.03 0 0.02 0 0.03 0 0.02 0 0.03 0 0.03 0.01 0.02 0 0.03 0 0.03 0 0.02 0 0.03 0 0.03 0 0.03 0 0.03 0 0.02 0 0.03 0 0.03 -0.16 0 0 -0.03 0 -0.03 0 -0.02 0 -0.03 0 -0.03 0 -0.03 0 -0.02 0 -0.03 0 -0.03 0 -0.02 0 -0.03 0 -0.03 0 -0.02 0 -0.03 0 -0.02 0 -0.03 -0.01 -0.02 0 -0.03 0 -0.02 0 -0.03 0 -0.02 0 -0.03 0 -0.02 0 -0.03 0 -0.03 -0.01 -0.02 0 -0.03 0 -0.03 0 -0.02 0 -0.03 0 -0.03 -0.01 -0.02 0 0zm0 0c0,-0.05 0.03,-0.08 0.08,-0.09 0.04,0 0.08,0.03 0.08,0.08l-0.16 0.01zm-0.33 -0.34l0.01 -0.16 0 0 0.02 0 0.03 0.01 0.02 0 0.02 0.01 0.03 0 0.02 0.01 0.02 0.01 0.02 0.01 0.02 0.01 0.02 0.01 0.02 0.01 0.02 0.01 0.02 0.02 0.02 0.01 0.01 0.02 0.02 0.01 0.02 0.02 0.01 0.02 0.02 0.01 0.01 0.02 0.01 0.02 0.01 0.02 0.01 0.02 0.01 0.02 0.01 0.02 0.01 0.03 0.01 0.02 0.01 0.02 0 0.02 0 0.03 0.01 0.02 0 0.03 -0.16 0.01 0 -0.02 0 -0.02 0 -0.02 -0.01 -0.01 0 -0.02 0 -0.01 -0.01 -0.02 -0.01 -0.01 0 -0.02 -0.01 -0.01 -0.01 -0.02 -0.01 -0.01 -0.01 -0.01 -0.01 -0.01 -0.01 -0.02 -0.01 -0.01 -0.01 -0.01 -0.01 -0.01 -0.02 -0.01 -0.01 -0.01 -0.01 -0.01 -0.02 -0.01 -0.01 0 -0.01 -0.01 -0.02 -0.01 -0.01 0 -0.02 -0.01 -0.02 0 -0.01 -0.01 -0.02 0 -0.02 0 -0.01 0 0 0zm0 0c-0.05,-0.01 -0.08,-0.04 -0.07,-0.09 0,-0.04 0.04,-0.07 0.08,-0.07l-0.01 0.16zm-0.82 -0.03l0 -0.16 0 0 0.03 0 0.03 0 0.03 0 0.03 0 0.03 0 0.02 0.01 0.03 0 0.03 0 0.02 0 0.03 0 0.03 0 0.02 0 0.03 0 0.02 0 0.03 0 0.02 0 0.03 0 0.02 0 0.03 0 0.02 0.01 0.03 0 0.02 0 0.03 0 0.02 0 0.03 0 0.02 0 0.03 0 0.02 0.01 0.03 0 0.02 0 0.02 0 0.03 0 -0.01 0.16 -0.03 -0.01 -0.02 0 -0.02 0 -0.03 0 -0.02 0 -0.03 0 -0.02 0 -0.03 -0.01 -0.02 0 -0.02 0 -0.03 0 -0.02 0 -0.03 0 -0.02 0 -0.03 0 -0.02 0 -0.03 0 -0.02 -0.01 -0.03 0 -0.02 0 -0.03 0 -0.02 0 -0.03 0 -0.03 0 -0.02 0 -0.03 0 -0.03 0 -0.02 0 -0.03 0 -0.03 0 -0.03 0 -0.03 0 0 0zm0 0c-0.04,0 -0.07,-0.04 -0.07,-0.08 0,-0.04 0.03,-0.08 0.07,-0.08l0 0.16zm-0.29 0l0 -0.15 0 0 0.01 0 0.01 0 0.01 0 0.01 0 0 0 0.01 0 0.01 0 0.01 0 0.01 0 0.01 0 0.01 0 0.01 0 0.01 0 0 0 0.01 0 0.01 -0.01 0.01 0 0.01 0 0.01 0 0.01 0 0.01 0 0.01 0 0.01 0 0.01 0 0.01 0 0.01 0 0 0 0.01 0 0.01 0 0.01 0 0.01 0 0.01 0 0 0.16 -0.01 0 -0.01 0 -0.01 0 -0.01 0 0 0 -0.01 0 -0.01 0 -0.01 0 -0.01 0 -0.01 0 -0.01 0 -0.01 0 -0.01 0 -0.01 0 -0.01 0 -0.01 0 0 0 -0.01 0 -0.01 0 -0.01 0 -0.01 0 -0.01 0 -0.01 0 -0.01 0 -0.01 0 0 0 -0.01 0 -0.01 0 -0.01 0 -0.01 0 -0.01 0 -0.01 0 0 0zm0 0c-0.04,0 -0.07,-0.03 -0.08,-0.07 0,-0.05 0.04,-0.08 0.08,-0.08l0 0.15zm-0.2 0.07l-0.1 -0.12 0 0 0.01 0 0.01 -0.01 0.01 -0.01 0.01 0 0 -0.01 0.01 0 0.01 -0.01 0.01 0 0.01 -0.01 0.01 0 0.01 -0.01 0.01 0 0.01 0 0 -0.01 0.01 0 0.01 0 0.01 -0.01 0.01 0 0.01 0 0.01 -0.01 0.01 0 0.01 0 0.01 0 0.01 0 0.01 -0.01 0.01 0 0.01 0 0.01 0 0.01 0 0.01 0 0.01 0 0.01 0 0 0.15 0 0 -0.01 0 -0.01 0 0 0 -0.01 0 -0.01 0.01 -0.01 0 0 0 -0.01 0 -0.01 0 0 0 -0.01 0 -0.01 0.01 0 0 -0.01 0 -0.01 0 0 0 -0.01 0.01 -0.01 0 0 0 -0.01 0.01 0 0 -0.01 0 -0.01 0 0 0.01 -0.01 0 -0.01 0.01 0 0 -0.01 0 0 0.01 -0.01 0 0 0 0 0zm0 0c-0.04,0.03 -0.09,0.02 -0.11,-0.01 -0.03,-0.03 -0.02,-0.08 0.01,-0.11l0.1 0.12zm-0.53 0.53l-0.13 -0.1 0 0 0.02 -0.02 0.02 -0.02 0.01 -0.01 0.02 -0.02 0.01 -0.02 0.02 -0.02 0.01 -0.02 0.02 -0.02 0.02 -0.02 0.01 -0.01 0.02 -0.02 0.01 -0.02 0.02 -0.02 0.02 -0.01 0.01 -0.02 0.02 -0.02 0.02 -0.01 0.01 -0.02 0.02 -0.02 0.02 -0.01 0.02 -0.02 0.01 -0.01 0.02 -0.02 0.02 -0.02 0.02 -0.01 0.02 -0.02 0.02 -0.02 0.02 -0.01 0.02 -0.02 0.02 -0.01 0.02 -0.02 0.02 -0.02 0.1 0.12 -0.02 0.02 -0.02 0.02 -0.02 0.01 -0.02 0.02 -0.02 0.01 -0.02 0.02 -0.02 0.01 -0.02 0.02 -0.02 0.02 -0.01 0.01 -0.02 0.02 -0.02 0.01 -0.01 0.02 -0.02 0.01 -0.01 0.02 -0.02 0.01 -0.02 0.02 -0.01 0.02 -0.02 0.01 -0.01 0.02 -0.02 0.01 -0.01 0.02 -0.02 0.02 -0.01 0.01 -0.02 0.02 -0.01 0.02 -0.02 0.02 -0.01 0.01 -0.02 0.02 -0.01 0.02 -0.02 0.02 -0.01 0.02 0 0zm0 0c-0.03,0.03 -0.08,0.04 -0.11,0.01 -0.04,-0.02 -0.04,-0.07 -0.02,-0.11l0.13 0.1zm-0.16 0.45l-0.15 -0.01 0 0 0 -0.01 0 -0.02 0 -0.02 0 -0.02 0.01 -0.02 0 -0.01 0 -0.02 0 -0.02 0.01 -0.02 0 -0.02 0 -0.01 0.01 -0.02 0 -0.02 0.01 -0.02 0 -0.01 0.01 -0.02 0 -0.02 0.01 -0.01 0.01 -0.02 0 -0.02 0.01 -0.01 0.01 -0.02 0.01 -0.02 0.01 -0.01 0 -0.02 0.01 -0.01 0.01 -0.02 0.01 -0.02 0.01 -0.01 0.01 -0.02 0.01 -0.01 0.01 -0.02 0.13 0.1 -0.01 0.01 -0.01 0.01 -0.01 0.02 -0.01 0.01 -0.01 0.01 0 0.01 -0.01 0.02 -0.01 0.01 0 0.01 -0.01 0.02 -0.01 0.01 0 0.01 -0.01 0.02 0 0.01 -0.01 0.02 -0.01 0.01 0 0.01 0 0.02 -0.01 0.01 0 0.02 -0.01 0.01 0 0.02 0 0.01 0 0.02 -0.01 0.01 0 0.02 0 0.01 0 0.02 0 0.01 0 0.02 -0.01 0.01 0 0.02 0 0zm0 0c0,0.04 -0.03,0.07 -0.07,0.07 -0.05,0 -0.08,-0.03 -0.08,-0.08l0.15 0.01zm0 0.24l-0.15 0 0 0 0 0 0 -0.01 0 -0.01 0 -0.01 0 0 0 -0.01 0 -0.01 0 -0.01 0 -0.01 0 0 0 -0.01 0 -0.01 0 -0.01 0 0 0 -0.01 0 -0.01 0 -0.01 0 -0.01 0 0 0 -0.01 0 -0.01 0 -0.01 0 -0.01 0 0 0 -0.01 0 -0.01 0 -0.01 0 0 0 -0.01 0 -0.01 0 -0.01 0 -0.01 0.15 0.01 0 0 0 0.01 0 0.01 0 0.01 0 0.01 0 0 0 0.01 0 0.01 0 0.01 0 0 0 0.01 0 0.01 0 0.01 0 0.01 0 0 0 0.01 0 0.01 0 0.01 0 0 0 0.01 0 0.01 0 0.01 0 0 0 0.01 0 0.01 0 0.01 0 0.01 0 0 0 0.01 0 0.01 0 0.01 0 0 0 0zm0 0c0,0.05 -0.03,0.08 -0.08,0.08 -0.04,0 -0.07,-0.03 -0.07,-0.08l0.15 0zm0.03 0.93l-0.15 0.01 0 0 -0.01 -0.02 0 -0.03 0 -0.03 0 -0.03 0 -0.03 0 -0.03 0 -0.03 -0.01 -0.03 0 -0.02 0 -0.03 0 -0.03 0 -0.03 0 -0.03 0 -0.03 0 -0.03 -0.01 -0.03 0 -0.03 0 -0.03 0 -0.03 0 -0.03 0 -0.03 0 -0.03 0 -0.03 0 -0.03 0 -0.03 0 -0.03 0 -0.03 0 -0.03 0 -0.03 0 -0.03 0 -0.03 0 -0.03 0.15 0 0 0.03 0 0.03 0 0.03 0 0.03 0 0.03 0 0.03 0 0.03 0 0.03 0 0.03 0.01 0.03 0 0.03 0 0.03 0 0.03 0 0.03 0 0.03 0 0.03 0 0.03 0 0.02 0 0.03 0 0.03 0 0.03 0.01 0.03 0 0.03 0 0.03 0 0.03 0 0.02 0 0.03 0 0.03 0.01 0.03 0 0.03 0 0.03 0 0.02 0 0zm0 0c0,0.05 -0.03,0.08 -0.07,0.09 -0.04,0 -0.08,-0.03 -0.08,-0.08l0.15 -0.01zm0.34 0.34l-0.01 0.16 0 0 -0.03 -0.01 -0.02 0 -0.02 0 -0.03 -0.01 -0.02 0 -0.02 -0.01 -0.02 -0.01 -0.02 -0.01 -0.03 -0.01 -0.02 -0.01 -0.02 -0.01 -0.01 -0.02 -0.02 -0.01 -0.02 -0.01 -0.02 -0.02 -0.01 -0.01 -0.02 -0.02 -0.01 -0.02 -0.02 -0.02 -0.01 -0.01 -0.02 -0.02 -0.01 -0.02 -0.01 -0.02 -0.01 -0.02 -0.01 -0.03 -0.01 -0.02 0 -0.02 -0.01 -0.02 0 -0.03 -0.01 -0.02 0 -0.02 0 -0.03 0.15 -0.01 0 0.02 0 0.02 0.01 0.01 0 0.02 0.01 0.02 0 0.01 0.01 0.02 0 0.01 0.01 0.02 0.01 0.01 0.01 0.01 0 0.02 0.01 0.01 0.01 0.01 0.01 0.01 0.02 0.02 0.01 0.01 0.01 0.01 0.01 0.01 0.01 0.01 0.02 0.01 0.01 0 0.02 0.01 0.01 0.01 0.02 0.01 0.01 0 0.02 0.01 0.01 0 0.02 0.01 0.01 0 0.02 0 0.02 0 0 0zm0 0c0.04,0.01 0.07,0.04 0.07,0.09 0,0.04 -0.04,0.07 -0.08,0.07l0.01 -0.16zm0.78 0.03l-0.01 0.15 -0.02 0 -0.02 0 -0.02 0 -0.02 0 -0.02 0 -0.03 0 -0.02 0 -0.03 0 -0.03 0 -0.02 0 -0.03 0 -0.03 0 -0.02 0 -0.03 0 -0.03 -0.01 -0.02 0 -0.03 0 -0.03 0 -0.03 0 -0.02 0 -0.03 0 -0.03 0 -0.02 0 -0.03 0 -0.02 0 -0.03 -0.01 -0.02 0 -0.02 0 -0.02 0 -0.02 0 -0.02 0 -0.02 0 0.01 -0.16 0.02 0 0.02 0 0.02 0.01 0.02 0 0.02 0 0.02 0 0.03 0 0.02 0 0.02 0 0.03 0 0.03 0 0.02 0.01 0.03 0 0.03 0 0.02 0 0.03 0 0.03 0 0.02 0 0.03 0 0.03 0 0.03 0 0.02 0 0.03 0 0.02 0 0.03 0 0.02 0 0.03 0.01 0.02 0 0.02 0 0.03 0 0.02 0 0.02 0zm0 0c0.04,0 0.07,0.03 0.07,0.08 0,0.04 -0.03,0.07 -0.08,0.07l0.01 -0.15zm0.72 -0.48c-0.02,-0.04 -0.02,-0.09 0.02,-0.11 0.03,-0.03 0.08,-0.02 0.11,0.01l-0.13 0.1zm0.24 0.32l-0.24 -0.32 0.13 -0.1 0.24 0.33 0 0.09 -0.13 0zm0.13 -0.09c0.02,0.04 0.02,0.08 -0.02,0.11 -0.03,0.03 -0.08,0.02 -0.11,-0.02l0.13 -0.09zm0.55 -0.79l0.09 0.13 -0.03 0.01 -0.02 0.02 -0.03 0.02 -0.02 0.02 -0.03 0.02 -0.02 0.01 -0.02 0.02 -0.02 0.02 -0.02 0.02 -0.02 0.01 -0.02 0.02 -0.02 0.02 -0.02 0.02 -0.01 0.02 -0.02 0.02 -0.02 0.02 -0.01 0.02 -0.02 0.02 -0.02 0.02 -0.02 0.02 -0.01 0.03 -0.02 0.02 -0.02 0.03 -0.01 0.03 -0.02 0.03 -0.02 0.03 -0.02 0.03 -0.02 0.03 -0.02 0.03 -0.02 0.04 -0.02 0.04 -0.03 0.04 -0.13 -0.08 0.02 -0.04 0.02 -0.04 0.03 -0.04 0.02 -0.03 0.02 -0.03 0.02 -0.04 0.02 -0.03 0.01 -0.03 0.02 -0.03 0.02 -0.02 0.02 -0.03 0.02 -0.03 0.02 -0.02 0.02 -0.03 0.01 -0.02 0.02 -0.02 0.02 -0.02 0.02 -0.03 0.02 -0.02 0.02 -0.02 0.02 -0.02 0.02 -0.02 0.02 -0.02 0.03 -0.02 0.02 -0.02 0.02 -0.02 0.03 -0.02 0.02 -0.02 0.03 -0.01 0.03 -0.02 0.03 -0.02 0.02 -0.02zm0 0c0.04,-0.03 0.09,-0.02 0.11,0.02 0.03,0.03 0.02,0.08 -0.02,0.11l-0.09 -0.13zm-5.69 -1.02c0.04,0 0.08,0.03 0.08,0.08 0,0.04 -0.04,0.08 -0.08,0.08l0 -0.16zm-0.53 0l0.53 0 0 0.16 -0.53 0 0 -0.16zm0 0.16c-0.04,0 -0.07,-0.04 -0.07,-0.08 0,-0.05 0.03,-0.08 0.07,-0.08l0 0.16zm0.16 1.19c0.05,0 0.08,0.04 0.08,0.08 0,0.05 -0.03,0.08 -0.08,0.08l0 -0.16zm-0.5 0l0.5 0 0 0.16 -0.5 0 0 -0.16zm0 0.16c-0.04,0 -0.08,-0.03 -0.08,-0.08 0,-0.04 0.04,-0.08 0.08,-0.08l0 0.16zm0.87 -0.82c0.04,0 0.08,0.03 0.08,0.08 0,0.04 -0.04,0.08 -0.08,0.08l0 -0.16zm-0.87 0l0.87 0 0 0.16 -0.87 0 0 -0.16zm0 0.16c-0.05,0 -0.08,-0.04 -0.08,-0.08 0,-0.05 0.03,-0.08 0.08,-0.08l0 0.16zm1.91 0.8l0.16 0 0 0 0 0.04 -0.01 0.03 0 0.04 0 0.03 -0.01 0.03 -0.01 0.03 -0.01 0.04 0 0.02 -0.02 0.03 -0.01 0.03 -0.01 0.03 -0.02 0.02 -0.01 0.03 -0.02 0.02 -0.02 0.03 -0.02 0.02 -0.02 0.02 -0.02 0.02 -0.03 0.01 -0.02 0.02 -0.03 0.01 -0.03 0.02 -0.02 0.01 -0.03 0.01 -0.03 0.01 -0.03 0.01 -0.03 0.01 -0.04 0 -0.03 0.01 -0.03 0 -0.04 0 -0.03 0 0 -0.15 0.03 0 0.03 0 0.02 -0.01 0.03 0 0.03 -0.01 0.02 0 0.02 -0.01 0.03 0 0.02 -0.01 0.02 -0.01 0.02 -0.01 0.02 -0.01 0.01 -0.01 0.02 -0.02 0.02 -0.01 0.01 -0.01 0.01 -0.02 0.02 -0.01 0.01 -0.02 0.01 -0.02 0.01 -0.02 0.01 -0.02 0.01 -0.02 0.01 -0.02 0.01 -0.02 0 -0.02 0.01 -0.03 0 -0.02 0.01 -0.03 0 -0.03 0 -0.03 0 -0.03 0 0zm0 0c0,-0.04 0.04,-0.07 0.08,-0.07 0.04,0 0.08,0.03 0.08,0.07l-0.16 0zm-0.47 -0.47l0 -0.15 0 0 0.03 0 0.04 0 0.03 0 0.03 0.01 0.04 0 0.03 0.01 0.03 0.01 0.03 0.01 0.03 0.01 0.02 0.01 0.03 0.01 0.03 0.02 0.02 0.02 0.03 0.01 0.02 0.02 0.02 0.02 0.02 0.02 0.02 0.03 0.02 0.02 0.01 0.02 0.02 0.03 0.01 0.03 0.01 0.02 0.02 0.03 0 0.03 0.01 0.03 0.01 0.04 0.01 0.03 0 0.03 0 0.03 0.01 0.04 0 0.03 -0.16 0 0 -0.03 0 -0.02 0 -0.03 -0.01 -0.03 0 -0.02 -0.01 -0.03 0 -0.02 -0.01 -0.02 -0.01 -0.03 -0.01 -0.02 -0.01 -0.02 -0.01 -0.01 -0.01 -0.02 -0.01 -0.02 -0.02 -0.01 -0.01 -0.02 -0.01 -0.01 -0.02 -0.02 -0.02 -0.01 -0.01 -0.01 -0.02 -0.01 -0.02 -0.01 -0.02 -0.01 -0.02 -0.01 -0.03 0 -0.02 -0.01 -0.02 -0.01 -0.03 0 -0.03 0 -0.02 -0.01 -0.03 0 -0.03 0 0 0zm0 0c-0.04,0 -0.08,-0.03 -0.08,-0.08 0,-0.04 0.04,-0.07 0.08,-0.07l0 0.15zm-0.47 0.47l-0.16 0 0 0 0 -0.03 0 -0.04 0.01 -0.03 0 -0.03 0.01 -0.03 0 -0.04 0.01 -0.03 0.01 -0.03 0.01 -0.03 0.01 -0.02 0.02 -0.03 0.01 -0.03 0.02 -0.02 0.02 -0.02 0.02 -0.03 0.02 -0.02 0.02 -0.02 0.02 -0.02 0.02 -0.01 0.03 -0.02 0.02 -0.02 0.03 -0.01 0.03 -0.01 0.03 -0.01 0.03 -0.01 0.03 -0.01 0.03 -0.01 0.03 0 0.03 -0.01 0.04 0 0.03 0 0.04 0 0 0.15 -0.03 0 -0.03 0 -0.03 0.01 -0.02 0 -0.03 0 -0.02 0.01 -0.03 0.01 -0.02 0 -0.02 0.01 -0.02 0.01 -0.02 0.01 -0.02 0.01 -0.02 0.01 -0.01 0.01 -0.02 0.02 -0.01 0.01 -0.02 0.02 -0.01 0.01 -0.01 0.02 -0.02 0.02 -0.01 0.01 -0.01 0.02 0 0.02 -0.01 0.03 -0.01 0.02 -0.01 0.02 0 0.03 -0.01 0.02 0 0.03 0 0.03 0 0.02 0 0.03 0 0zm0 0c0,0.05 -0.04,0.08 -0.08,0.08 -0.05,0 -0.08,-0.03 -0.08,-0.08l0.16 0zm0.47 0.48l0 0.15 0 0 -0.04 0 -0.03 0 -0.04 0 -0.03 -0.01 -0.03 0 -0.03 -0.01 -0.03 -0.01 -0.03 -0.01 -0.03 -0.01 -0.03 -0.01 -0.03 -0.02 -0.02 -0.01 -0.03 -0.02 -0.02 -0.01 -0.02 -0.02 -0.02 -0.02 -0.02 -0.02 -0.02 -0.03 -0.02 -0.02 -0.02 -0.03 -0.01 -0.02 -0.02 -0.03 -0.01 -0.03 -0.01 -0.03 -0.01 -0.02 -0.01 -0.04 0 -0.03 -0.01 -0.03 0 -0.03 -0.01 -0.04 0 -0.03 0 -0.04 0.16 0 0 0.03 0 0.03 0 0.03 0 0.03 0.01 0.02 0 0.03 0.01 0.02 0.01 0.02 0.01 0.02 0 0.02 0.01 0.02 0.01 0.02 0.02 0.02 0.01 0.02 0.01 0.01 0.02 0.02 0.01 0.01 0.02 0.01 0.01 0.02 0.02 0.01 0.02 0.01 0.02 0.01 0.02 0.01 0.02 0.01 0.02 0 0.03 0.01 0.02 0 0.03 0.01 0.02 0 0.03 0.01 0.03 0 0.03 0 0 0zm0 0c0.04,0 0.08,0.03 0.08,0.07 0,0.05 -0.04,0.08 -0.08,0.08l0 -0.15zm0.7 0.12c0.03,0.03 0.03,0.08 0,0.11 -0.03,0.03 -0.08,0.03 -0.11,0l0.11 -0.11zm-0.23 -0.24l0.23 0.24 -0.11 0.11 -0.23 -0.24 0.11 -0.11zm-0.11 0.11c-0.03,-0.03 -0.03,-0.08 0,-0.11 0.03,-0.03 0.08,-0.03 0.11,0l-0.11 0.11zm-0.03 -1.44c0,0.05 -0.04,0.08 -0.08,0.08 -0.04,0 -0.08,-0.03 -0.08,-0.08l0.16 0zm-0.18 -0.84l0.15 -0.01 0 0 0 0.02 0 0.03 0.01 0.03 0 0.03 0 0.02 0 0.03 0 0.03 0 0.02 0 0.03 0.01 0.02 0 0.03 0 0.03 0 0.02 0 0.03 0 0.02 0 0.03 0 0.02 0 0.03 0 0.02 0 0.03 0.01 0.03 0 0.02 0 0.03 0 0.03 0 0.02 0 0.03 0 0.03 0 0.03 0 0.03 0 0.02 0 0.03 0 0.03 -0.16 0 0 -0.03 0 -0.03 0 -0.02 0 -0.03 0 -0.03 0 -0.03 0 -0.02 0 -0.03 0 -0.03 0 -0.02 0 -0.03 0 -0.03 0 -0.02 0 -0.03 0 -0.02 0 -0.03 0 -0.02 -0.01 -0.03 0 -0.02 0 -0.03 0 -0.02 0 -0.03 0 -0.02 0 -0.03 0 -0.03 -0.01 -0.02 0 -0.03 0 -0.03 0 -0.02 0 -0.03 0 -0.03 0 -0.03 0 0.01zm0 -0.01c-0.01,-0.04 0.03,-0.07 0.07,-0.08 0.04,0 0.08,0.03 0.08,0.08l-0.15 0zm-0.34 -0.33l0.01 -0.16 0 0 0.02 0 0.03 0.01 0.02 0 0.02 0.01 0.03 0 0.02 0.01 0.02 0.01 0.02 0.01 0.02 0.01 0.02 0.01 0.02 0.01 0.02 0.01 0.02 0.02 0.02 0.01 0.01 0.02 0.02 0.01 0.02 0.02 0.01 0.02 0.02 0.01 0.01 0.02 0.01 0.02 0.01 0.02 0.01 0.02 0.01 0.02 0.01 0.02 0.01 0.03 0.01 0.02 0.01 0.02 0 0.02 0 0.03 0.01 0.02 0 0.03 -0.15 0.01 -0.01 -0.02 0 -0.02 0 -0.02 -0.01 -0.01 0 -0.02 0 -0.01 -0.01 -0.02 -0.01 -0.01 0 -0.02 -0.01 -0.01 -0.01 -0.02 -0.01 -0.01 -0.01 -0.01 -0.01 -0.01 -0.01 -0.02 -0.01 -0.01 -0.01 -0.01 -0.01 -0.01 -0.02 -0.01 -0.01 -0.01 -0.01 -0.01 -0.02 -0.01 -0.01 0 -0.01 -0.01 -0.02 -0.01 -0.01 0 -0.02 -0.01 -0.02 0 -0.01 -0.01 -0.02 0 -0.02 0 -0.01 0 0 0zm0 0c-0.04,-0.01 -0.08,-0.04 -0.07,-0.09 0,-0.04 0.04,-0.07 0.08,-0.07l-0.01 0.16zm-0.82 -0.03l0 -0.16 0 0 0.03 0 0.03 0 0.03 0 0.03 0 0.03 0 0.02 0.01 0.03 0 0.03 0 0.02 0 0.03 0 0.03 0 0.02 0 0.03 0 0.02 0 0.03 0 0.03 0 0.02 0 0.03 0 0.02 0 0.03 0.01 0.02 0 0.02 0 0.03 0 0.02 0 0.03 0 0.02 0 0.03 0 0.02 0.01 0.03 0 0.02 0 0.02 0 0.03 0 -0.01 0.16 -0.03 -0.01 -0.02 0 -0.02 0 -0.03 0 -0.02 0 -0.03 0 -0.02 0 -0.02 -0.01 -0.03 0 -0.02 0 -0.03 0 -0.02 0 -0.03 0 -0.02 0 -0.03 0 -0.02 0 -0.02 0 -0.03 -0.01 -0.03 0 -0.02 0 -0.03 0 -0.02 0 -0.03 0 -0.02 0 -0.03 0 -0.03 0 -0.03 0 -0.02 0 -0.03 0 -0.03 0 -0.03 0 -0.03 0 0 0zm0 0c-0.04,0 -0.07,-0.04 -0.07,-0.08 0,-0.04 0.03,-0.08 0.07,-0.08l0 0.16zm-0.29 0l0 -0.15 0 0 0.01 0 0.01 0 0.01 0 0.01 0 0 0 0.01 0 0.01 0 0.01 0 0.01 0 0.01 0 0.01 0 0.01 0 0.01 0 0.01 0 0 0 0.01 -0.01 0.01 0 0.01 0 0.01 0 0.01 0 0.01 0 0.01 0 0.01 0 0.01 0 0.01 0 0.01 0 0.01 0 0.01 0 0 0 0.01 0 0.01 0 0.01 0 0 0.16 -0.01 0 -0.01 0 -0.01 0 0 0 -0.01 0 -0.01 0 -0.01 0 -0.01 0 -0.01 0 -0.01 0 -0.01 0 -0.01 0 -0.01 0 -0.01 0 -0.01 0 -0.01 0 0 0 -0.01 0 -0.01 0 -0.01 0 -0.01 0 -0.01 0 -0.01 0 -0.01 0 -0.01 0 0 0 -0.01 0 -0.01 0 -0.01 0 -0.01 0 -0.01 0 -0.01 0 0 0zm0 0c-0.04,0 -0.07,-0.03 -0.07,-0.07 -0.01,-0.05 0.03,-0.08 0.07,-0.08l0 0.15zm-0.2 0.07l-0.1 -0.12 0 0 0.01 0 0.01 -0.01 0.01 -0.01 0.01 0 0 -0.01 0.01 0 0.01 -0.01 0.01 0 0.01 -0.01 0.01 0 0.01 -0.01 0.01 0 0.01 0 0 -0.01 0.01 0 0.01 0 0.01 -0.01 0.01 0 0.01 0 0.01 -0.01 0.01 0 0.01 0 0.01 0 0.01 0 0.01 -0.01 0.01 0 0.01 0 0.01 0 0.01 0 0.01 0 0.01 0 0.01 0 0 0.15 0 0 -0.01 0 -0.01 0 0 0 -0.01 0 -0.01 0.01 0 0 -0.01 0 -0.01 0 0 0 -0.01 0 -0.01 0 -0.01 0.01 0 0 -0.01 0 -0.01 0 0 0 -0.01 0.01 0 0 -0.01 0 -0.01 0 0 0.01 -0.01 0 -0.01 0 0 0.01 -0.01 0 0 0.01 -0.01 0 -0.01 0 0 0.01 -0.01 0 0 0 0 0zm0 0c-0.04,0.03 -0.09,0.02 -0.11,-0.01 -0.03,-0.03 -0.02,-0.08 0.01,-0.11l0.1 0.12zm-0.53 0.53l-0.12 -0.1 0 0 0.01 -0.02 0.02 -0.02 0.01 -0.01 0.02 -0.02 0.01 -0.02 0.02 -0.02 0.02 -0.02 0.01 -0.02 0.02 -0.02 0.01 -0.01 0.02 -0.02 0.01 -0.02 0.02 -0.02 0.02 -0.01 0.01 -0.02 0.02 -0.02 0.02 -0.01 0.01 -0.02 0.02 -0.02 0.02 -0.01 0.02 -0.02 0.01 -0.01 0.02 -0.02 0.02 -0.02 0.02 -0.01 0.02 -0.02 0.02 -0.02 0.02 -0.01 0.02 -0.02 0.02 -0.01 0.02 -0.02 0.02 -0.02 0.1 0.12 -0.02 0.02 -0.02 0.02 -0.02 0.01 -0.02 0.02 -0.02 0.01 -0.02 0.02 -0.02 0.01 -0.02 0.02 -0.01 0.02 -0.02 0.01 -0.02 0.02 -0.02 0.01 -0.01 0.02 -0.02 0.01 -0.01 0.02 -0.02 0.01 -0.02 0.02 -0.01 0.02 -0.02 0.01 -0.01 0.02 -0.02 0.01 -0.01 0.02 -0.02 0.02 -0.01 0.01 -0.02 0.02 -0.01 0.02 -0.02 0.02 -0.01 0.01 -0.02 0.02 -0.01 0.02 -0.02 0.02 -0.01 0.02 0 0zm0 0c-0.03,0.03 -0.08,0.04 -0.11,0.01 -0.04,-0.02 -0.04,-0.07 -0.01,-0.11l0.12 0.1zm-0.16 0.45l-0.15 -0.01 0 0 0 -0.01 0 -0.02 0 -0.02 0 -0.02 0.01 -0.02 0 -0.01 0 -0.02 0 -0.02 0.01 -0.02 0 -0.02 0 -0.01 0.01 -0.02 0 -0.02 0.01 -0.02 0 -0.01 0.01 -0.02 0 -0.02 0.01 -0.01 0.01 -0.02 0 -0.02 0.01 -0.01 0.01 -0.02 0.01 -0.02 0.01 -0.01 0 -0.02 0.01 -0.01 0.01 -0.02 0.01 -0.02 0.01 -0.01 0.01 -0.02 0.01 -0.01 0.02 -0.02 0.12 0.1 -0.01 0.01 -0.01 0.01 -0.01 0.02 -0.01 0.01 -0.01 0.01 0 0.01 -0.01 0.02 -0.01 0.01 0 0.01 -0.01 0.02 -0.01 0.01 0 0.01 -0.01 0.02 0 0.01 -0.01 0.02 0 0.01 -0.01 0.01 0 0.02 -0.01 0.01 0 0.02 -0.01 0.01 0 0.02 0 0.01 0 0.02 -0.01 0.01 0 0.02 0 0.01 0 0.02 0 0.01 0 0.02 0 0.01 -0.01 0.02 0 0zm0 0c0,0.04 -0.03,0.07 -0.07,0.07 -0.05,0 -0.08,-0.03 -0.08,-0.08l0.15 0.01zm0 0.24l-0.15 0 0 0 0 0 0 -0.01 0 -0.01 0 -0.01 0 0 0 -0.01 0 -0.01 0 -0.01 0 -0.01 0 0 0 -0.01 0 -0.01 0 -0.01 0 -0.01 0 0 0 -0.01 0 -0.01 0 -0.01 0 0 0 -0.01 0 -0.01 0 -0.01 0 -0.01 0 0 0 -0.01 0 -0.01 0 -0.01 0 0 0 -0.01 0 -0.01 0 -0.01 0 -0.01 0.15 0.01 0 0 0 0.01 0 0.01 0 0.01 0 0.01 0 0 0 0.01 0 0.01 0 0.01 0 0 0 0.01 0 0.01 0 0.01 0 0.01 0 0 0 0.01 0 0.01 0 0.01 0 0 0 0.01 0 0.01 0 0.01 0 0 0 0.01 0 0.01 0 0.01 0 0.01 0 0 0 0.01 0 0.01 0 0.01 0 0 0 0zm0 0c0,0.05 -0.03,0.08 -0.07,0.08 -0.05,0 -0.08,-0.03 -0.08,-0.08l0.15 0zm0.03 0.93l-0.15 0.01 0 0 -0.01 -0.03 0 -0.02 0 -0.03 0 -0.03 0 -0.03 0 -0.03 0 -0.03 -0.01 -0.03 0 -0.03 0 -0.02 0 -0.03 0 -0.03 0 -0.03 0 -0.03 0 -0.03 0 -0.03 -0.01 -0.03 0 -0.03 0 -0.03 0 -0.03 0 -0.03 0 -0.03 0 -0.03 0 -0.03 0 -0.03 0 -0.03 0 -0.03 0 -0.03 0 -0.03 0 -0.03 0 -0.03 0 -0.03 0.15 0 0 0.03 0 0.03 0 0.03 0 0.03 0 0.03 0 0.03 0 0.03 0 0.03 0.01 0.03 0 0.03 0 0.03 0 0.03 0 0.03 0 0.03 0 0.03 0 0.03 0 0.03 0 0.02 0 0.03 0 0.03 0.01 0.03 0 0.03 0 0.03 0 0.03 0 0.03 0 0.02 0 0.03 0 0.03 0.01 0.03 0 0.03 0 0.03 0 0.02 0 0zm0 0c0,0.05 -0.03,0.08 -0.07,0.09 -0.04,0 -0.08,-0.03 -0.08,-0.08l0.15 -0.01zm0.34 0.34l-0.01 0.16 0 0 -0.03 -0.01 -0.02 0 -0.02 0 -0.03 -0.01 -0.02 0 -0.02 -0.01 -0.02 -0.01 -0.02 -0.01 -0.02 -0.01 -0.02 -0.01 -0.02 -0.01 -0.02 -0.02 -0.02 -0.01 -0.02 -0.01 -0.02 -0.02 -0.01 -0.01 -0.02 -0.02 -0.01 -0.02 -0.02 -0.02 -0.01 -0.01 -0.01 -0.02 -0.02 -0.02 -0.01 -0.02 -0.01 -0.02 -0.01 -0.03 -0.01 -0.02 0 -0.02 -0.01 -0.02 0 -0.03 -0.01 -0.02 0 -0.02 0 -0.03 0.15 -0.01 0 0.02 0.01 0.02 0 0.01 0 0.02 0.01 0.02 0 0.01 0.01 0.02 0 0.01 0.01 0.02 0.01 0.01 0.01 0.01 0.01 0.02 0 0.01 0.01 0.01 0.02 0.01 0.01 0.02 0.01 0.01 0.01 0.01 0.01 0.01 0.02 0.01 0.01 0.01 0.01 0 0.02 0.01 0.01 0.01 0.02 0.01 0.01 0 0.02 0.01 0.01 0 0.02 0.01 0.01 0 0.02 0 0.02 0 0 0zm0 0c0.04,0.01 0.07,0.04 0.07,0.09 0,0.04 -0.04,0.07 -0.08,0.07l0.01 -0.16zm0.78 0.03l0 0.15 -0.03 0 -0.02 0 -0.02 0 -0.02 0 -0.02 0 -0.03 0 -0.02 0 -0.03 0 -0.02 0 -0.03 0 -0.03 0 -0.02 0 -0.03 0 -0.03 0 -0.03 -0.01 -0.02 0 -0.03 0 -0.03 0 -0.03 0 -0.02 0 -0.03 0 -0.03 0 -0.02 0 -0.03 0 -0.02 0 -0.02 -0.01 -0.03 0 -0.02 0 -0.02 0 -0.02 0 -0.02 0 -0.02 0 0.01 -0.16 0.02 0 0.02 0 0.02 0.01 0.02 0 0.02 0 0.02 0 0.03 0 0.02 0 0.02 0 0.03 0 0.03 0 0.02 0.01 0.03 0 0.03 0 0.02 0 0.03 0 0.03 0 0.02 0 0.03 0 0.03 0 0.03 0 0.02 0 0.03 0 0.02 0 0.03 0 0.02 0 0.03 0.01 0.02 0 0.02 0 0.03 0 0.02 0 0.02 0zm0 0c0.04,0 0.07,0.03 0.07,0.08 0,0.04 -0.03,0.07 -0.07,0.07l0 -0.15zm-3.56 -0.46c0,-0.04 0.03,-0.07 0.08,-0.07 0.04,0 0.08,0.03 0.08,0.07l-0.16 0zm0 0.15l0 -0.15 0.16 0 0 0.15 -0.16 0zm0.16 0c0,0.04 -0.04,0.08 -0.08,0.08 -0.05,0 -0.08,-0.04 -0.08,-0.08l0.16 0zm-0.16 -0.87c0,-0.04 0.03,-0.08 0.08,-0.08 0.04,0 0.08,0.04 0.08,0.08l-0.16 0zm0 0.15l0 -0.15 0.16 0 0 0.15 -0.16 0zm0.16 0c0,0.04 -0.04,0.07 -0.08,0.07 -0.05,0 -0.08,-0.03 -0.08,-0.07l0.16 0zm0.16 0.02c0.02,0.03 0.02,0.08 -0.01,0.11 -0.03,0.03 -0.08,0.02 -0.11,-0.01l0.12 -0.1zm-0.25 0.05l-0.01 -0.15 0 0 0.01 0 0.02 0 0.01 0 0.01 0 0.02 0 0.01 0 0.01 0.01 0.01 0 0.02 0 0.01 0.01 0.01 0 0.01 0 0.01 0.01 0.01 0 0.01 0.01 0.01 0 0 0.01 0.01 0 0.01 0.01 0 0 0.01 0.01 0 0 0.01 0 0.01 0.01 0 0 0 0 0.01 0.01 0 0 0 0 0 0.01 0 -0.01 0.01 0.01 -0.12 0.1 0 0 0 0 0 0 0 0 0 0 0 0 0 0 -0.01 -0.01 0 0 0 0 0 0 -0.01 0 0 -0.01 0 0 -0.01 0 0 0 -0.01 -0.01 0 0 -0.01 0 0 0 -0.01 -0.01 0 0 -0.01 0 -0.01 0 0 0 -0.01 0 0 -0.01 -0.01 0 -0.01 0 -0.01 0 0 0 -0.01 0 0 0zm0 0c-0.04,0.01 -0.08,-0.02 -0.08,-0.07 -0.01,-0.04 0.02,-0.08 0.07,-0.08l0.01 0.15zm-0.11 0.09l-0.15 0 0 0 0 -0.02 0 -0.01 0 -0.01 0 -0.01 0 -0.01 0.01 -0.01 0 -0.01 0 -0.01 0.01 -0.01 0 -0.01 0.01 -0.01 0 -0.01 0.01 -0.01 0.01 -0.01 0.01 -0.01 0 0 0.01 -0.01 0.01 -0.01 0.01 -0.01 0.01 0 0.01 -0.01 0.01 -0.01 0.01 0 0.01 -0.01 0.01 0 0.02 -0.01 0.01 0 0.01 0 0.02 -0.01 0.01 0 0.01 0 0.02 0 0.01 0.15 -0.01 0 -0.01 0.01 0 0 -0.01 0 -0.01 0 0 0 -0.01 0 -0.01 0.01 0 0 -0.01 0 0 0 0 0.01 -0.01 0 0 0 0 0 -0.01 0.01 0 0 0 0 -0.01 0.01 0 0 0 0 0 0 0 0.01 0 0 0 0 -0.01 0.01 0 0 0 0 0 0.01 0 0 0 0 0 0.01 0 0zm0 0c0,0.04 -0.03,0.07 -0.08,0.07 -0.04,0 -0.07,-0.03 -0.07,-0.07l0.15 0zm0.38 0.28l-0.16 0 0 0 0 -0.01 0 -0.01 0 0 0 0 -0.01 -0.01 0 0 0 0 -0.01 -0.01 -0.01 0 -0.01 -0.01 -0.01 0 -0.01 0 -0.01 -0.01 -0.02 0 -0.02 0 -0.01 -0.01 -0.02 0 -0.02 0 -0.02 -0.01 -0.02 0 -0.02 -0.01 -0.02 0 -0.02 -0.01 -0.02 -0.01 -0.02 -0.01 -0.01 -0.02 -0.02 -0.02 -0.02 -0.02 -0.01 -0.02 -0.01 -0.03 0 -0.03 0 -0.02 0.15 0 0 0.01 0 0 0.01 0.01 0 0 0 0 0 0.01 0.01 0 0 0 0.01 0.01 0.01 0 0.01 0 0.01 0.01 0.02 0 0.01 0.01 0.02 0 0.02 0 0.01 0 0.02 0.01 0.02 0 0.02 0.01 0.02 0 0.02 0.01 0.02 0.01 0.02 0.01 0.02 0.01 0.02 0.02 0.01 0.02 0.02 0.02 0.01 0.02 0.01 0.03 0 0.03 0.01 0.02 0 0zm0 0c0,0.05 -0.04,0.08 -0.08,0.08 -0.04,0 -0.08,-0.03 -0.08,-0.08l0.16 0zm-0.53 0.12l0.1 -0.11 0.01 0.01 0.01 0 0.02 0.01 0.01 0.01 0.01 0 0.01 0.01 0.01 0 0.01 0 0.01 0 0.02 0.01 0.01 0 0.01 0 0.01 0 0.02 0 0.01 -0.01 0.01 0 0.01 0 0.01 0 0.01 -0.01 0.01 0 0.01 -0.01 0 0 0.01 0 0.01 -0.01 0 0 0.01 -0.01 0 0 0 0 0 0 0 0 0 -0.01 0 0 0.16 0 -0.01 0.03 0 0.02 -0.01 0.01 0 0.02 -0.01 0.02 -0.02 0.01 -0.01 0.02 -0.01 0.01 -0.02 0.01 -0.01 0.01 -0.02 0.01 -0.02 0.01 -0.01 0.01 -0.02 0 -0.02 0.01 -0.02 0 -0.02 0.01 -0.02 0 -0.02 0 -0.02 0 -0.02 0 -0.02 0 -0.02 0 -0.02 -0.01 -0.02 0 -0.02 -0.01 -0.02 -0.01 -0.02 0 -0.02 -0.02 -0.02 -0.01 -0.02 -0.01 -0.02 -0.02zm0 0c-0.03,-0.03 -0.03,-0.08 -0.01,-0.11 0.03,-0.03 0.08,-0.03 0.11,0l-0.1 0.11zm0.25 -0.94l0 -0.16 0 0 0.05 0 0.04 0.01 0.05 0 0.04 0.01 0.04 0 0.04 0.01 0.04 0.01 0.04 0.02 0.04 0.01 0.04 0.02 0.03 0.01 0.04 0.02 0.03 0.03 0.03 0.02 0.03 0.02 0.03 0.03 0.02 0.03 0.03 0.03 0.02 0.03 0.02 0.03 0.02 0.03 0.02 0.04 0.01 0.03 0.02 0.04 0.01 0.04 0.01 0.04 0.01 0.04 0.01 0.04 0 0.05 0.01 0.04 0 0.05 0 0.04 -0.15 0 0 -0.04 -0.01 -0.04 0 -0.03 0 -0.04 -0.01 -0.04 -0.01 -0.03 -0.01 -0.04 -0.01 -0.03 -0.01 -0.03 -0.01 -0.03 -0.02 -0.02 -0.01 -0.03 -0.02 -0.02 -0.02 -0.03 -0.01 -0.02 -0.02 -0.02 -0.02 -0.02 -0.03 -0.02 -0.02 -0.02 -0.03 -0.01 -0.02 -0.02 -0.03 -0.01 -0.03 -0.02 -0.03 -0.01 -0.03 -0.01 -0.03 -0.01 -0.04 0 -0.03 -0.01 -0.04 -0.01 -0.04 0 -0.04 0 -0.04 0 0 0zm0 0c-0.04,0 -0.08,-0.04 -0.08,-0.08 0,-0.04 0.04,-0.08 0.08,-0.08l0 0.16zm-0.67 0.66l-0.15 0 0 0 0 -0.04 0 -0.04 0.01 -0.05 0 -0.04 0.01 -0.04 0.01 -0.04 0.02 -0.04 0.01 -0.03 0.01 -0.04 0.02 -0.04 0.02 -0.03 0.02 -0.04 0.03 -0.03 0.02 -0.03 0.02 -0.03 0.03 -0.03 0.03 -0.02 0.03 -0.03 0.03 -0.02 0.03 -0.02 0.04 -0.02 0.03 -0.02 0.04 -0.02 0.03 -0.02 0.04 -0.01 0.04 -0.01 0.04 -0.01 0.04 -0.01 0.04 -0.01 0.04 0 0.05 -0.01 0.04 0 0 0.16 -0.04 0 -0.03 0 -0.04 0 -0.03 0.01 -0.04 0.01 -0.03 0.01 -0.03 0.01 -0.03 0.01 -0.03 0.01 -0.03 0.01 -0.03 0.02 -0.02 0.02 -0.03 0.01 -0.02 0.02 -0.03 0.02 -0.02 0.02 -0.02 0.03 -0.02 0.02 -0.02 0.02 -0.02 0.03 -0.01 0.03 -0.02 0.02 -0.01 0.03 -0.02 0.03 -0.01 0.03 -0.01 0.04 -0.01 0.03 0 0.03 -0.01 0.04 0 0.03 -0.01 0.04 0 0.03 0 0zm0 0c0,0.05 -0.03,0.08 -0.07,0.08 -0.05,0 -0.08,-0.03 -0.08,-0.08l0.15 0zm0.67 0.67l0 0.16 0 0 -0.05 0 -0.04 -0.01 -0.05 0 -0.04 -0.01 -0.04 0 -0.04 -0.01 -0.04 -0.01 -0.04 -0.02 -0.04 -0.01 -0.04 -0.02 -0.03 -0.02 -0.04 -0.01 -0.03 -0.03 -0.03 -0.02 -0.03 -0.02 -0.03 -0.03 -0.02 -0.03 -0.03 -0.03 -0.02 -0.03 -0.02 -0.03 -0.02 -0.03 -0.02 -0.04 -0.01 -0.03 -0.02 -0.04 -0.01 -0.04 -0.01 -0.04 -0.01 -0.04 -0.01 -0.04 0 -0.05 -0.01 -0.04 0 -0.05 0 -0.05 0.15 0 0 0.05 0.01 0.04 0 0.03 0 0.04 0.01 0.04 0.01 0.03 0.01 0.03 0.01 0.04 0.01 0.03 0.01 0.03 0.02 0.02 0.01 0.03 0.02 0.02 0.02 0.03 0.01 0.02 0.02 0.02 0.03 0.02 0.02 0.02 0.02 0.02 0.03 0.01 0.02 0.02 0.03 0.01 0.03 0.02 0.03 0.01 0.03 0.01 0.03 0.01 0.04 0 0.03 0.01 0.04 0.01 0.04 0 0.04 0 0.04 0 0 0zm0 0c0.04,0 0.08,0.04 0.08,0.08 0,0.04 -0.04,0.08 -0.08,0.08l0 -0.16zm0.67 -0.67l0.15 0 0 0 0 0.05 0 0.04 -0.01 0.04 0 0.05 -0.01 0.04 -0.01 0.04 -0.01 0.04 -0.02 0.03 -0.01 0.04 -0.02 0.04 -0.02 0.03 -0.02 0.03 -0.02 0.04 -0.03 0.03 -0.02 0.03 -0.03 0.03 -0.03 0.02 -0.03 0.03 -0.03 0.02 -0.03 0.02 -0.04 0.02 -0.03 0.02 -0.04 0.02 -0.03 0.02 -0.04 0.01 -0.04 0.01 -0.04 0.01 -0.04 0.01 -0.04 0.01 -0.04 0 -0.05 0.01 -0.04 0 0 -0.16 0.04 0 0.03 0 0.04 -0.01 0.03 0 0.04 -0.01 0.03 -0.01 0.03 -0.01 0.03 -0.01 0.03 -0.01 0.03 -0.01 0.03 -0.02 0.02 -0.02 0.03 -0.01 0.02 -0.02 0.03 -0.02 0.02 -0.02 0.02 -0.03 0.02 -0.02 0.02 -0.02 0.02 -0.03 0.01 -0.03 0.02 -0.03 0.01 -0.02 0.02 -0.03 0.01 -0.03 0.01 -0.04 0.01 -0.03 0 -0.03 0.01 -0.04 0 -0.03 0.01 -0.04 0 -0.04 0 0zm0 0c0,-0.04 0.03,-0.07 0.07,-0.07 0.05,0 0.08,0.03 0.08,0.07l-0.15 0zm0.15 -0.81c-0.01,0.04 -0.05,0.07 -0.09,0.07 -0.04,-0.01 -0.07,-0.05 -0.07,-0.09l0.16 0.02zm-0.15 -0.13l0.15 0 0 0 0 0 0 0.01 0 0 0 0.01 0 0 0 0 0 0.01 0 0 0 0.01 0 0 0 0 0 0.01 0 0 0 0.01 0 0 0 0 0 0.01 0 0 0 0 0 0.01 0 0 0 0.01 0 0 0 0 0 0.01 0 0 0 0.01 0 0 0 0 0 0.01 0 0 0 0.01 -0.16 -0.02 0 0 0 -0.01 0 0 0 0 0 -0.01 0 0 0 0 0 -0.01 0 0 0 0 0 -0.01 0.01 0 0 0 0 -0.01 0 0 0 0 0 -0.01 0 0 0 -0.01 0 0 0 0 0 -0.01 0 0 0 0 0 -0.01 0 0 0 0 0 -0.01 0 0 0 0 0 -0.01 0 0 0 0zm0 0c0,-0.04 0.03,-0.08 0.07,-0.08 0.05,0 0.08,0.04 0.08,0.08l-0.15 0zm-1.44 -0.36l0.12 -0.1 -0.12 0 0.07 -0.08 0.07 -0.07 0.07 -0.07 0.07 -0.05 0.07 -0.05 0.07 -0.04 0.07 -0.03 0.07 -0.03 0.07 -0.02 0.07 -0.01 0.06 0 0.07 0 0.07 0.01 0.06 0.01 0.06 0.02 0.06 0.02 0.06 0.03 0.05 0.04 0.05 0.03 0.05 0.05 0.04 0.04 0.05 0.05 0.03 0.05 0.04 0.06 0.03 0.05 0.03 0.06 0.02 0.06 0.02 0.07 0.02 0.06 0.01 0.07 0.01 0.06 0 0.07 -0.15 0 -0.01 -0.06 0 -0.05 -0.01 -0.06 -0.02 -0.05 -0.01 -0.05 -0.02 -0.06 -0.03 -0.05 -0.02 -0.04 -0.03 -0.05 -0.04 -0.04 -0.03 -0.04 -0.04 -0.04 -0.04 -0.04 -0.04 -0.03 -0.04 -0.02 -0.05 -0.03 -0.04 -0.02 -0.05 -0.01 -0.05 -0.01 -0.05 -0.01 -0.05 0 -0.05 0.01 -0.06 0 -0.06 0.02 -0.05 0.02 -0.06 0.03 -0.06 0.03 -0.06 0.04 -0.06 0.05 -0.07 0.06 -0.06 0.06 -0.06 0.08 -0.12 0zm0.12 0c-0.03,0.03 -0.08,0.04 -0.11,0.01 -0.03,-0.03 -0.04,-0.08 -0.01,-0.11l0.12 0.1zm-1.44 0.36l-0.16 0 0 0 0.01 -0.07 0.01 -0.06 0.01 -0.07 0.01 -0.06 0.02 -0.07 0.03 -0.06 0.03 -0.06 0.03 -0.05 0.03 -0.06 0.04 -0.05 0.04 -0.05 0.05 -0.04 0.05 -0.05 0.05 -0.03 0.05 -0.04 0.06 -0.03 0.06 -0.02 0.06 -0.02 0.06 -0.01 0.07 -0.01 0.06 0 0.07 0 0.07 0.01 0.07 0.02 0.07 0.03 0.07 0.03 0.07 0.04 0.07 0.05 0.07 0.05 0.07 0.07 0.07 0.07 0.07 0.08 -0.12 0.1 -0.07 -0.08 -0.06 -0.06 -0.06 -0.06 -0.06 -0.05 -0.06 -0.04 -0.06 -0.03 -0.06 -0.03 -0.06 -0.02 -0.05 -0.02 -0.06 0 -0.05 -0.01 -0.05 0 -0.05 0.01 -0.05 0.01 -0.05 0.01 -0.05 0.02 -0.04 0.03 -0.05 0.02 -0.04 0.03 -0.04 0.04 -0.03 0.04 -0.04 0.04 -0.03 0.04 -0.03 0.05 -0.03 0.04 -0.02 0.05 -0.02 0.06 -0.02 0.05 -0.01 0.05 -0.01 0.06 -0.01 0.05 0 0.06 0 0zm0 0c0,0.04 -0.04,0.08 -0.08,0.08 -0.04,0 -0.08,-0.04 -0.08,-0.08l0.16 0zm1.38 1.72l0 0.15 -0.04 0 -0.05 -0.01 -0.04 -0.01 -0.05 -0.02 -0.04 -0.02 -0.06 -0.03 -0.05 -0.03 -0.06 -0.03 -0.06 -0.04 -0.06 -0.04 -0.06 -0.05 -0.06 -0.04 -0.07 -0.06 -0.06 -0.05 -0.07 -0.06 -0.06 -0.06 -0.06 -0.06 -0.06 -0.07 -0.07 -0.07 -0.05 -0.07 -0.06 -0.08 -0.05 -0.08 -0.05 -0.08 -0.05 -0.08 -0.04 -0.08 -0.04 -0.09 -0.03 -0.09 -0.03 -0.09 -0.03 -0.09 -0.01 -0.1 -0.01 -0.09 -0.01 -0.1 0.16 0 0 0.09 0.01 0.08 0.02 0.09 0.02 0.08 0.02 0.08 0.03 0.08 0.04 0.08 0.04 0.08 0.04 0.07 0.05 0.08 0.05 0.07 0.05 0.07 0.05 0.07 0.06 0.07 0.06 0.06 0.06 0.06 0.06 0.06 0.06 0.05 0.06 0.05 0.06 0.05 0.06 0.05 0.06 0.04 0.06 0.04 0.05 0.03 0.05 0.04 0.05 0.02 0.05 0.03 0.04 0.01 0.04 0.02 0.03 0.01 0.03 0 0.02 0.01zm0 0c0.04,0 0.07,0.03 0.07,0.07 0,0.05 -0.03,0.08 -0.07,0.08l0 -0.15zm13.52 -0.91c0,0.04 -0.03,0.08 -0.08,0.08 -0.04,0 -0.07,-0.04 -0.07,-0.08l0.15 0zm0 -1.49l0 1.49 -0.15 0 0 -1.49 0.15 0zm-0.15 0c0,-0.04 0.03,-0.07 0.07,-0.07 0.05,0 0.08,0.03 0.08,0.07l-0.15 0zm0.67 0.78c0.03,-0.03 0.08,-0.03 0.11,0 0.03,0.03 0.03,0.08 0,0.11l-0.11 -0.11zm-0.65 0.65l0.65 -0.65 0.11 0.11 -0.65 0.65 -0.11 0 0 -0.11zm0.11 0.11c-0.03,0.03 -0.08,0.03 -0.11,0 -0.03,-0.03 -0.03,-0.08 0,-0.11l0.11 0.11zm-0.66 -0.76l0.66 0.65 -0.11 0.11 -0.66 -0.65 0.11 -0.11zm-0.11 0.11c-0.03,-0.03 -0.03,-0.08 0,-0.11 0.03,-0.03 0.08,-0.03 0.11,0l-0.11 0.11zm2.11 0.68c0,-0.04 0.04,-0.07 0.08,-0.07 0.04,0 0.08,0.03 0.08,0.07l-0.16 0zm0 0.37l0 -0.37 0.16 0 0 0.37 0 0 -0.16 0zm0.16 0c0,0.05 -0.04,0.08 -0.08,0.08 -0.04,0 -0.08,-0.03 -0.08,-0.08l0.16 0zm-0.45 0.45l0 -0.15 0 0 0.02 0 0.01 -0.01 0.02 0 0.01 0 0.02 0 0.01 -0.01 0.01 0 0.02 -0.01 0.01 0 0.01 -0.01 0.01 -0.01 0.02 0 0.01 -0.01 0.01 -0.01 0.01 -0.01 0.01 -0.01 0.01 -0.01 0.01 -0.01 0.01 -0.01 0 -0.01 0.01 -0.01 0.01 -0.02 0.01 -0.01 0 -0.01 0.01 -0.02 0 -0.01 0.01 -0.01 0 -0.02 0 -0.01 0 -0.02 0 -0.01 0 -0.02 0.16 0 0 0.03 0 0.02 -0.01 0.02 0 0.02 0 0.03 -0.01 0.02 -0.01 0.02 -0.01 0.02 0 0.02 -0.01 0.02 -0.02 0.02 -0.01 0.01 -0.01 0.02 -0.01 0.02 -0.02 0.02 -0.01 0.01 -0.02 0.02 -0.01 0.01 -0.02 0.01 -0.02 0.02 -0.02 0.01 -0.01 0.01 -0.02 0.01 -0.02 0.01 -0.02 0 -0.02 0.01 -0.03 0.01 -0.02 0 -0.02 0.01 -0.02 0 -0.02 0 -0.03 0 0 0zm0 0c-0.04,0 -0.08,-0.03 -0.08,-0.08 0,-0.04 0.04,-0.07 0.08,-0.07l0 0.15zm-2.22 -0.15l2.22 0 0 0.15 -2.22 0 0 0 0 -0.15zm0 0.15c-0.04,0 -0.07,-0.03 -0.07,-0.08 0,-0.04 0.03,-0.07 0.07,-0.07l0 0.15zm-0.44 -0.45l0.15 0 0 0 0 0.02 0 0.01 0.01 0.02 0 0.01 0 0.02 0 0.01 0.01 0.01 0 0.02 0.01 0.01 0.01 0.01 0 0.02 0.01 0.01 0.01 0.01 0.01 0.01 0.01 0.01 0.01 0.01 0.01 0.01 0.01 0.01 0.01 0.01 0.01 0.01 0.01 0 0.01 0.01 0.02 0.01 0.01 0 0.01 0.01 0.02 0 0.01 0.01 0.01 0 0.02 0 0.01 0 0.02 0.01 0.01 0 0 0.15 -0.02 0 -0.02 0 -0.02 0 -0.03 -0.01 -0.02 0 -0.02 -0.01 -0.02 -0.01 -0.02 0 -0.02 -0.01 -0.02 -0.01 -0.02 -0.01 -0.02 -0.01 -0.01 -0.02 -0.02 -0.01 -0.02 -0.01 -0.01 -0.02 -0.02 -0.02 -0.01 -0.01 -0.01 -0.02 -0.02 -0.02 -0.01 -0.01 -0.01 -0.02 -0.01 -0.02 -0.01 -0.02 -0.01 -0.02 0 -0.02 -0.01 -0.02 0 -0.03 -0.01 -0.02 0 -0.02 0 -0.02 0 -0.03 0 0zm0 0c0,-0.04 0.03,-0.07 0.07,-0.07 0.05,0 0.08,0.03 0.08,0.07l-0.15 0zm0.15 -0.37l0 0.37 -0.15 0 0 -0.37 0.15 0zm-0.15 0c0,-0.04 0.03,-0.07 0.07,-0.07 0.05,0 0.08,0.03 0.08,0.07l-0.15 0zm-34.52 -1.38l0 -0.16 0 0 0.04 0.01 0.05 0 0.04 0 0.05 0.01 0.04 0.01 0.04 0.01 0.05 0.02 0.04 0.02 0.04 0.01 0.03 0.02 0.04 0.03 0.04 0.02 0.03 0.02 0.04 0.03 0.03 0.03 0.03 0.03 0.03 0.03 0.03 0.03 0.03 0.04 0.02 0.03 0.03 0.04 0.02 0.04 0.02 0.03 0.01 0.04 0.02 0.04 0.02 0.05 0.01 0.04 0.01 0.04 0.01 0.05 0 0.04 0 0.05 0.01 0.04 -0.16 0 0 -0.03 0 -0.04 -0.01 -0.04 0 -0.04 -0.01 -0.03 -0.01 -0.04 -0.01 -0.03 -0.02 -0.04 -0.01 -0.03 -0.02 -0.03 -0.02 -0.03 -0.02 -0.03 -0.02 -0.03 -0.02 -0.03 -0.02 -0.03 -0.03 -0.02 -0.02 -0.03 -0.03 -0.02 -0.03 -0.02 -0.03 -0.02 -0.03 -0.02 -0.03 -0.02 -0.03 -0.02 -0.03 -0.01 -0.04 -0.02 -0.03 -0.01 -0.04 -0.01 -0.03 -0.01 -0.04 0 -0.04 -0.01 -0.04 0 -0.03 0 0 0zm0 0c-0.05,0 -0.08,-0.03 -0.08,-0.08 0,-0.04 0.03,-0.08 0.08,-0.08l0 0.16zm-0.75 0.74l-0.15 0 0 0 0 -0.04 0 -0.05 0.01 -0.04 0 -0.05 0.01 -0.04 0.02 -0.04 0.01 -0.05 0.02 -0.04 0.01 -0.04 0.02 -0.03 0.03 -0.04 0.02 -0.04 0.02 -0.03 0.03 -0.04 0.03 -0.03 0.03 -0.03 0.03 -0.03 0.03 -0.03 0.04 -0.03 0.03 -0.02 0.04 -0.03 0.04 -0.02 0.04 -0.02 0.04 -0.01 0.04 -0.02 0.04 -0.02 0.04 -0.01 0.04 -0.01 0.05 -0.01 0.04 0 0.05 0 0.05 -0.01 0 0.16 -0.04 0 -0.04 0 -0.04 0.01 -0.03 0 -0.04 0.01 -0.04 0.01 -0.03 0.01 -0.03 0.02 -0.04 0.01 -0.03 0.02 -0.03 0.02 -0.03 0.02 -0.03 0.02 -0.03 0.02 -0.02 0.02 -0.03 0.03 -0.03 0.02 -0.02 0.03 -0.02 0.03 -0.02 0.03 -0.02 0.03 -0.02 0.03 -0.02 0.03 -0.01 0.03 -0.01 0.04 -0.02 0.03 -0.01 0.04 0 0.03 -0.01 0.04 -0.01 0.04 0 0.04 0 0.03 0 0zm0 0c0,0.05 -0.03,0.08 -0.08,0.08 -0.04,0 -0.07,-0.03 -0.07,-0.08l0.15 0zm0.75 0.75l0 0.15 0 0 -0.05 0 -0.05 0 -0.04 -0.01 -0.05 0 -0.04 -0.01 -0.04 -0.02 -0.04 -0.01 -0.04 -0.02 -0.04 -0.01 -0.04 -0.02 -0.04 -0.03 -0.04 -0.02 -0.03 -0.02 -0.04 -0.03 -0.03 -0.03 -0.03 -0.03 -0.03 -0.03 -0.03 -0.03 -0.03 -0.04 -0.02 -0.03 -0.02 -0.04 -0.03 -0.04 -0.02 -0.04 -0.01 -0.04 -0.02 -0.04 -0.01 -0.04 -0.02 -0.04 -0.01 -0.04 0 -0.05 -0.01 -0.04 0 -0.05 0 -0.05 0.15 0 0 0.04 0 0.04 0.01 0.04 0.01 0.03 0 0.04 0.01 0.04 0.02 0.03 0.01 0.03 0.01 0.04 0.02 0.03 0.02 0.03 0.02 0.03 0.02 0.03 0.02 0.03 0.02 0.02 0.03 0.03 0.03 0.03 0.02 0.02 0.03 0.02 0.03 0.02 0.03 0.02 0.03 0.02 0.03 0.02 0.04 0.01 0.03 0.01 0.03 0.02 0.04 0.01 0.04 0 0.03 0.01 0.04 0.01 0.04 0 0.04 0 0 0zm0 0c0.04,0 0.07,0.03 0.07,0.08 0,0.04 -0.03,0.07 -0.07,0.07l0 -0.15zm0.74 -0.75l0.16 0 0 0 -0.01 0.05 0 0.05 0 0.04 -0.01 0.05 -0.01 0.04 -0.01 0.04 -0.02 0.04 -0.02 0.04 -0.01 0.04 -0.02 0.04 -0.02 0.04 -0.03 0.04 -0.02 0.03 -0.03 0.04 -0.03 0.03 -0.03 0.03 -0.03 0.03 -0.03 0.03 -0.04 0.03 -0.03 0.02 -0.04 0.02 -0.04 0.03 -0.03 0.02 -0.04 0.01 -0.04 0.02 -0.05 0.01 -0.04 0.02 -0.04 0.01 -0.05 0 -0.04 0.01 -0.05 0 -0.04 0 0 -0.15 0.03 0 0.04 0 0.04 -0.01 0.04 -0.01 0.03 0 0.04 -0.01 0.03 -0.02 0.04 -0.01 0.03 -0.01 0.03 -0.02 0.03 -0.02 0.03 -0.02 0.03 -0.02 0.03 -0.02 0.03 -0.02 0.02 -0.03 0.03 -0.03 0.02 -0.02 0.02 -0.03 0.02 -0.03 0.02 -0.03 0.02 -0.03 0.02 -0.03 0.01 -0.04 0.02 -0.03 0.01 -0.03 0.01 -0.04 0.01 -0.04 0 -0.03 0.01 -0.04 0 -0.04 0 -0.04 0 0zm0 0c0,-0.04 0.04,-0.07 0.08,-0.07 0.04,0 0.08,0.03 0.08,0.07l-0.16 0zm-0.22 0.64c-0.03,-0.03 -0.03,-0.08 0,-0.11 0.03,-0.03 0.08,-0.03 0.11,0l-0.11 0.11zm0.69 0.69l-0.69 -0.69 0.11 -0.11 0.69 0.69 -0.11 0.11zm0.11 -0.11c0.03,0.03 0.03,0.08 0,0.11 -0.03,0.03 -0.08,0.03 -0.11,0l0.11 -0.11z"/>
  </g>
  <g>
   <path id="Oval_0" class="fil1" d="M10.24 1.5c-0.22,0.24 -0.36,0.56 -0.36,0.91 0,0.72 0.58,1.3 1.3,1.3 0.72,0 1.31,-0.58 1.31,-1.3 0,-0.49 -0.27,-0.91 -0.66,-1.14 -0.01,0.29 -0.14,0.55 -0.34,0.73 0.01,-0.06 0.02,-0.12 0.02,-0.18 0,-0.57 -0.46,-1.02 -1.02,-1.02 0.01,0.26 -0.08,0.51 -0.25,0.7zm-2.79 -0.01l-0.26 -0.14c-0.03,-0.02 -0.04,-0.05 -0.02,-0.07 0,-0.01 0.01,-0.02 0.02,-0.03l0.26 -0.14c0.01,0 0.01,-0.01 0.02,-0.02l0.14 -0.26c0.02,-0.03 0.05,-0.04 0.07,-0.02 0.01,0 0.02,0.01 0.03,0.02l0.14 0.26c0,0.01 0.01,0.02 0.02,0.02l0.26 0.14c0.03,0.02 0.04,0.05 0.02,0.08 0,0.01 -0.01,0.01 -0.02,0.02l-0.26 0.14c-0.01,0.01 -0.02,0.01 -0.02,0.02l-0.14 0.26c-0.02,0.03 -0.05,0.04 -0.08,0.02 -0.01,0 -0.01,-0.01 -0.02,-0.02l-0.14 -0.26c-0.01,-0.01 -0.01,-0.01 -0.02,-0.02zm-1.46 1.43l-0.67 -0.37c-0.07,-0.03 -0.09,-0.11 -0.06,-0.18 0.01,-0.02 0.03,-0.04 0.06,-0.05l0.67 -0.37c0.02,-0.01 0.04,-0.03 0.05,-0.05l0.37 -0.67c0.03,-0.07 0.11,-0.09 0.18,-0.06 0.02,0.01 0.04,0.03 0.05,0.06l0.37 0.67c0.01,0.02 0.03,0.04 0.06,0.05l0.66 0.37c0.07,0.03 0.09,0.11 0.06,0.18 -0.01,0.02 -0.03,0.04 -0.06,0.05l-0.66 0.37c-0.03,0.01 -0.05,0.03 -0.06,0.06l-0.37 0.66c-0.03,0.07 -0.11,0.09 -0.18,0.06 -0.02,-0.01 -0.04,-0.03 -0.05,-0.06l-0.37 -0.66c-0.01,-0.03 -0.03,-0.05 -0.05,-0.06zm8.72 -1.81l0.7 0 -0.7 0zm1.2 0l0.71 0 -0.71 0zm-1.45 -0.26c0.14,0 0.25,0.12 0.25,0.26 0,0.14 -0.11,0.25 -0.25,0.25 -0.14,0 -0.25,-0.11 -0.25,-0.25 0,-0.14 0.11,-0.26 0.25,-0.26zm2.41 0c-0.14,0 -0.25,0.12 -0.25,0.26 0,0.14 0.11,0.25 0.25,0.25 0.14,0 0.25,-0.11 0.25,-0.25 0,-0.14 -0.11,-0.26 -0.25,-0.26zm-1.38 0.01l0.34 0c0.05,0 0.08,0.03 0.08,0.08l0 0.34c0,0.04 -0.03,0.08 -0.08,0.08l-0.34 0c-0.04,0 -0.08,-0.04 -0.08,-0.08l0 -0.34c0,-0.05 0.04,-0.08 0.08,-0.08zm-1.2 1.2l0.34 0c0.04,0 0.08,0.04 0.08,0.08l0 0.34c0,0.05 -0.04,0.08 -0.08,0.08l-0.34 0c-0.05,0 -0.08,-0.03 -0.08,-0.08l0 -0.34c0,-0.04 0.03,-0.08 0.08,-0.08zm2.75 0l-0.34 0c-0.04,0 -0.08,0.04 -0.08,0.08l0 0.34c0,0.05 0.04,0.08 0.08,0.08l0.34 0c0.04,0 0.08,-0.03 0.08,-0.08l0 -0.34c0,-0.04 -0.04,-0.08 -0.08,-0.08zm-2.55 0c0.09,-0.46 0.46,-0.83 0.92,-0.93l-0.92 0.93zm1.42 -0.93c0.47,0.1 0.83,0.47 0.93,0.93l-0.93 -0.93zm-0.12 0.99l0.73 1.32c0.03,0.05 0.03,0.12 -0.01,0.17 -0.04,0.05 -0.1,0.06 -0.16,0.05l-0.69 -0.22 -0.68 0.22c-0.06,0.01 -0.12,0 -0.16,-0.05 -0.04,-0.05 -0.05,-0.12 -0.02,-0.17l0.73 -1.32c0.03,-0.05 0.08,-0.08 0.13,-0.08 0.06,0 0.11,0.03 0.13,0.08zm3.55 -1.32l1.08 0c0.36,0 0.65,0.3 0.65,0.65l0 0.44c-0.12,0.03 -0.23,0.09 -0.33,0.18l-0.73 0.74c-0.11,0.1 -0.18,0.25 -0.19,0.39l-0.04 0.35c0,0.06 0,0.11 0.02,0.16l-0.46 0c-0.36,0 -0.65,-0.29 -0.65,-0.65l0 -1.61c0,-0.35 0.29,-0.65 0.65,-0.65zm0.73 2.42c0,-0.08 0.04,-0.17 0.11,-0.24l0.74 -0.74c0.15,-0.15 0.41,-0.15 0.57,0 0.15,0.16 0.15,0.42 0,0.57l-0.74 0.74c-0.07,0.07 -0.17,0.11 -0.24,0.11l-0.36 0.05c-0.08,0 -0.13,-0.05 -0.12,-0.13l0.04 -0.36zm-0.88 -1.64l1.08 0c0.08,0 0.15,0.07 0.15,0.15 0,0.08 -0.07,0.14 -0.15,0.14l-1.08 0c-0.08,0 -0.15,-0.06 -0.15,-0.14 0,-0.08 0.07,-0.15 0.15,-0.15zm0 0.53l0.67 0c0.08,0 0.15,0.07 0.15,0.15 0,0.08 -0.07,0.14 -0.15,0.14l-0.67 0c-0.08,0 -0.15,-0.06 -0.15,-0.14 0,-0.08 0.07,-0.15 0.15,-0.15zm0 0.53l0.26 0c0.08,0 0.14,0.07 0.14,0.15 0,0.08 -0.06,0.14 -0.14,0.14l-0.26 0c-0.08,0 -0.15,-0.06 -0.15,-0.14 0,-0.08 0.07,-0.15 0.15,-0.15z"/>
   <path id="_1" class="fil2" d="M9.95 2.41l-0.15 0 0 0 0 -0.04 0 -0.03 0 -0.04 0.01 -0.03 0 -0.03 0 -0.04 0.01 -0.03 0.01 -0.03 0 -0.04 0.01 -0.03 0.01 -0.03 0.01 -0.03 0.01 -0.04 0.01 -0.03 0.01 -0.03 0.01 -0.03 0.02 -0.03 0.01 -0.03 0.01 -0.03 0.02 -0.03 0.01 -0.03 0.02 -0.02 0.02 -0.03 0.02 -0.03 0.01 -0.03 0.02 -0.02 0.02 -0.03 0.02 -0.02 0.02 -0.03 0.02 -0.02 0.02 -0.03 0.03 -0.02 0.11 0.11 -0.02 0.02 -0.02 0.02 -0.02 0.02 -0.02 0.02 -0.02 0.03 -0.01 0.02 -0.02 0.02 -0.02 0.03 -0.01 0.02 -0.02 0.02 -0.01 0.03 -0.01 0.03 -0.02 0.02 -0.01 0.03 -0.01 0.02 -0.01 0.03 -0.01 0.03 -0.01 0.03 -0.01 0.02 -0.01 0.03 -0.01 0.03 -0.01 0.03 -0.01 0.03 0 0.03 -0.01 0.03 0 0.03 -0.01 0.03 0 0.03 0 0.03 0 0.03 0 0.03 -0.01 0.03 0 0zm0 0c0,0.04 -0.03,0.08 -0.07,0.08 -0.05,0 -0.08,-0.04 -0.08,-0.08l0.15 0zm1.23 1.23l0 0.15 0 0 -0.07 0 -0.07 0 -0.07 -0.01 -0.07 -0.02 -0.06 -0.01 -0.07 -0.02 -0.06 -0.02 -0.07 -0.03 -0.06 -0.02 -0.06 -0.03 -0.05 -0.04 -0.06 -0.03 -0.05 -0.04 -0.06 -0.04 -0.05 -0.05 -0.05 -0.04 -0.04 -0.05 -0.04 -0.05 -0.05 -0.05 -0.03 -0.06 -0.04 -0.05 -0.03 -0.06 -0.03 -0.06 -0.03 -0.06 -0.03 -0.07 -0.02 -0.06 -0.02 -0.07 -0.01 -0.06 -0.01 -0.07 -0.01 -0.07 -0.01 -0.07 0 -0.07 0.15 0 0.01 0.06 0 0.06 0.01 0.07 0.01 0.06 0.01 0.06 0.02 0.05 0.02 0.06 0.02 0.06 0.03 0.05 0.02 0.05 0.03 0.06 0.03 0.05 0.04 0.04 0.04 0.05 0.03 0.04 0.04 0.05 0.05 0.04 0.04 0.04 0.05 0.03 0.05 0.04 0.05 0.03 0.05 0.03 0.05 0.03 0.06 0.02 0.05 0.02 0.06 0.02 0.06 0.02 0.06 0.01 0.06 0.01 0.06 0.01 0.06 0.01 0.06 0 0 0zm0 0c0.05,0 0.08,0.03 0.08,0.07 0,0.05 -0.03,0.08 -0.08,0.08l0 -0.15zm1.23 -1.23l0.16 0 0 0 0 0.07 -0.01 0.07 -0.01 0.07 -0.01 0.07 -0.02 0.06 -0.01 0.07 -0.03 0.06 -0.02 0.07 -0.03 0.06 -0.03 0.06 -0.03 0.06 -0.04 0.05 -0.04 0.06 -0.04 0.05 -0.04 0.05 -0.05 0.05 -0.05 0.04 -0.05 0.05 -0.05 0.04 -0.05 0.04 -0.06 0.03 -0.06 0.04 -0.06 0.03 -0.06 0.02 -0.06 0.03 -0.07 0.02 -0.06 0.02 -0.07 0.01 -0.07 0.02 -0.07 0.01 -0.07 0 -0.07 0 0 -0.15 0.07 0 0.06 -0.01 0.06 -0.01 0.06 -0.01 0.06 -0.01 0.06 -0.02 0.06 -0.02 0.05 -0.02 0.06 -0.02 0.05 -0.03 0.05 -0.03 0.05 -0.03 0.05 -0.04 0.04 -0.03 0.05 -0.04 0.04 -0.04 0.04 -0.05 0.04 -0.04 0.04 -0.05 0.03 -0.04 0.03 -0.05 0.03 -0.06 0.03 -0.05 0.03 -0.05 0.02 -0.06 0.02 -0.06 0.01 -0.05 0.02 -0.06 0.01 -0.06 0.01 -0.07 0 -0.06 0 -0.06 0 0zm0 0c0,-0.04 0.04,-0.08 0.08,-0.08 0.04,0 0.08,0.04 0.08,0.08l-0.16 0zm-0.51 -1.14l-0.15 0 0.12 -0.07 0.03 0.03 0.04 0.02 0.04 0.03 0.04 0.02 0.03 0.03 0.04 0.03 0.03 0.03 0.03 0.03 0.03 0.03 0.03 0.03 0.03 0.04 0.03 0.03 0.03 0.04 0.02 0.04 0.03 0.03 0.02 0.04 0.03 0.04 0.02 0.04 0.02 0.04 0.02 0.04 0.01 0.05 0.02 0.04 0.01 0.04 0.02 0.05 0.01 0.04 0.01 0.05 0.01 0.04 0 0.05 0.01 0.05 0 0.04 0.01 0.05 0 0.05 -0.16 0 0 -0.04 0 -0.05 0 -0.04 -0.01 -0.04 -0.01 -0.04 0 -0.04 -0.01 -0.04 -0.01 -0.04 -0.01 -0.04 -0.02 -0.04 -0.01 -0.04 -0.02 -0.04 -0.01 -0.03 -0.02 -0.04 -0.02 -0.03 -0.02 -0.04 -0.02 -0.03 -0.02 -0.04 -0.03 -0.03 -0.02 -0.03 -0.03 -0.03 -0.02 -0.03 -0.03 -0.03 -0.03 -0.03 -0.03 -0.03 -0.03 -0.02 -0.03 -0.03 -0.03 -0.02 -0.03 -0.03 -0.03 -0.02 -0.04 -0.02 -0.03 -0.02 0.11 -0.07zm-0.11 0.07c-0.04,-0.02 -0.05,-0.07 -0.03,-0.11 0.02,-0.03 0.07,-0.05 0.11,-0.03l-0.08 0.14zm-0.37 0.65l0.15 0.02 -0.13 -0.07 0.02 -0.01 0.01 -0.02 0.02 -0.02 0.02 -0.01 0.01 -0.02 0.02 -0.02 0.01 -0.02 0.02 -0.02 0.01 -0.02 0.01 -0.01 0.02 -0.02 0.01 -0.02 0.01 -0.02 0.01 -0.03 0.01 -0.02 0.01 -0.02 0.01 -0.02 0.01 -0.02 0.01 -0.02 0.01 -0.02 0 -0.03 0.01 -0.02 0.01 -0.02 0 -0.03 0.01 -0.02 0 -0.02 0.01 -0.03 0 -0.02 0 -0.03 0.01 -0.02 0 -0.03 0 -0.02 0.15 0 0 0.03 0 0.03 0 0.03 0 0.03 -0.01 0.03 0 0.02 -0.01 0.03 0 0.03 -0.01 0.03 -0.01 0.02 -0.01 0.03 -0.01 0.03 -0.01 0.02 -0.01 0.03 -0.01 0.02 -0.01 0.03 -0.01 0.02 -0.01 0.03 -0.02 0.02 -0.01 0.03 -0.01 0.02 -0.02 0.02 -0.01 0.02 -0.02 0.03 -0.02 0.02 -0.01 0.02 -0.02 0.02 -0.02 0.02 -0.02 0.02 -0.02 0.02 -0.02 0.02 -0.02 0.02 -0.12 -0.07zm0.12 0.07c-0.03,0.03 -0.08,0.02 -0.11,-0.01 -0.02,-0.03 -0.02,-0.08 0.01,-0.11l0.1 0.12zm-0.11 -0.24l0.16 0 0 0 0 0 0 0.01 0 0.01 0 0 0 0.01 -0.01 0 0 0.01 0 0.01 0 0 0 0.01 0 0.01 0 0 0 0.01 0 0 0 0.01 0 0.01 0 0 0 0.01 0 0.01 0 0 0 0.01 0 0 0 0.01 0 0.01 -0.01 0 0 0.01 0 0 0 0.01 0 0 0 0.01 0 0.01 0 0 -0.15 -0.02 0 -0.01 0 0 0 -0.01 0 -0.01 0 0 0 -0.01 0 0 0 -0.01 0 0 0 -0.01 0 0 0 -0.01 0.01 0 0 -0.01 0 0 0 -0.01 0 0 0 -0.01 0 0 0 -0.01 0 0 0 -0.01 0 0 0 -0.01 0 -0.01 0 0 0 -0.01 0 0 0 -0.01 0 0 0 -0.01 0 0 0 0zm0 0c0,-0.04 0.04,-0.08 0.08,-0.08 0.04,0 0.08,0.04 0.08,0.08l-0.16 0zm-0.86 -1.02l-0.16 0 0.08 -0.08 0.06 0.01 0.05 0 0.06 0.01 0.05 0.01 0.05 0.01 0.05 0.01 0.06 0.02 0.05 0.02 0.04 0.02 0.05 0.03 0.05 0.02 0.04 0.03 0.04 0.03 0.05 0.03 0.04 0.04 0.03 0.03 0.04 0.04 0.03 0.04 0.04 0.04 0.03 0.05 0.03 0.04 0.02 0.05 0.03 0.04 0.02 0.05 0.02 0.05 0.02 0.05 0.01 0.05 0.01 0.06 0.01 0.05 0.01 0.06 0 0.05 0.01 0.06 -0.16 0 0 -0.05 0 -0.05 -0.01 -0.05 -0.01 -0.04 -0.01 -0.05 -0.01 -0.04 -0.02 -0.05 -0.01 -0.04 -0.02 -0.04 -0.02 -0.04 -0.03 -0.04 -0.02 -0.04 -0.03 -0.03 -0.02 -0.04 -0.03 -0.03 -0.04 -0.04 -0.03 -0.03 -0.03 -0.03 -0.04 -0.02 -0.03 -0.03 -0.04 -0.03 -0.04 -0.02 -0.04 -0.02 -0.04 -0.02 -0.05 -0.01 -0.04 -0.02 -0.05 -0.01 -0.04 -0.01 -0.05 -0.01 -0.04 -0.01 -0.05 0 -0.05 0 0.08 -0.08zm-0.08 0.08c-0.04,0 -0.08,-0.04 -0.08,-0.08 0,-0.04 0.04,-0.08 0.08,-0.08l0 0.16zm-0.19 0.68l-0.11 -0.11 -0.01 0 0.02 -0.02 0.01 -0.01 0.02 -0.02 0.01 -0.02 0.01 -0.02 0.01 -0.01 0.01 -0.02 0.02 -0.02 0.01 -0.02 0.01 -0.02 0.01 -0.02 0.01 -0.02 0.01 -0.02 0 -0.02 0.01 -0.02 0.01 -0.02 0.01 -0.02 0 -0.02 0.01 -0.02 0 -0.02 0.01 -0.02 0 -0.03 0.01 -0.02 0 -0.02 0 -0.02 0.01 -0.02 0 -0.02 0 -0.03 0 -0.02 0 -0.02 0 -0.02 0 -0.03 0.16 0 0 0.03 0 0.02 0 0.03 0 0.02 -0.01 0.03 0 0.02 0 0.03 -0.01 0.02 0 0.03 0 0.02 -0.01 0.03 -0.01 0.02 0 0.03 -0.01 0.02 -0.01 0.03 0 0.02 -0.01 0.02 -0.01 0.03 -0.01 0.02 -0.01 0.03 -0.01 0.02 -0.02 0.02 -0.01 0.02 -0.01 0.03 -0.01 0.02 -0.02 0.02 -0.01 0.02 -0.02 0.02 -0.01 0.02 -0.02 0.02 -0.01 0.02 -0.02 0.02 0 0.01zm0 -0.01c-0.03,0.04 -0.08,0.04 -0.11,0.01 -0.03,-0.03 -0.03,-0.08 -0.01,-0.11l0.12 0.1zm-3.08 -0.27l0.27 0.14 -0.08 0.14 -0.26 -0.14 0 0 0.07 -0.14zm-0.07 0.14c-0.04,-0.02 -0.05,-0.07 -0.03,-0.11 0.02,-0.04 0.07,-0.05 0.1,-0.03l-0.07 0.14zm-0.05 -0.18l0.13 0.07 0 0 0.01 0 0 0 0 0 0 0 0 0 0 0 0 0 0 -0.01 0 0 0 0 0 0 0 0 0 0 0 0 0 -0.01 0 0 0 0 0 0 0 0 0 0 -0.01 0 0 0 0 0 0 0 0 0 0 -0.01 0 0 0 0 0 0 0 0 0 0 0 0 -0.08 0.14 -0.01 -0.01 0 0 -0.01 -0.01 0 0 -0.01 0 0 -0.01 -0.01 0 0 -0.01 0 0 -0.01 -0.01 0 0 0 -0.01 -0.01 0 0 -0.01 0 0 0 -0.01 0 -0.01 -0.01 -0.01 0 0 0 -0.01 0 0 0 -0.01 0 0 0 -0.01 0 -0.01 0.01 -0.01 0 0 0 -0.01 0 -0.01 0 0 0.01 0 0 -0.01 0 0zm0 0c0.02,-0.04 0.07,-0.05 0.1,-0.03 0.04,0.02 0.06,0.07 0.03,0.1l-0.13 -0.07zm0.05 -0.05l0.07 0.13 0 0 0 0 0 0 0.01 0 0 0 0 0 0 0 0 0 0 0 0 0 0 0 0 0 0 0 0 0 0 0 0 0 0 0 0 0 0 0 0 0 0 -0.01 0 0 0 0.01 0 0 0 0 0 -0.01 0 0 0 0 0 0.01 0 0 0.01 -0.01 -0.01 0 0 0 -0.13 -0.07 0 0 0 0 0 -0.01 0 0 0 0 0.01 0 0 0 0 -0.01 0 0 0 0 0 0 0 0 0.01 -0.01 0 0 0 0 0 0 0 0 0 0 0 0 0.01 -0.01 0 0 0 0 0 0 0 0 0.01 -0.01 0 0 0 0 0 0 0 0 0.01 0 0 0 0 0 0 0zm0 0c0.04,-0.02 0.09,-0.01 0.11,0.03 0.02,0.04 0,0.08 -0.04,0.1l-0.07 -0.13zm0.34 -0.01l-0.27 0.14 -0.07 -0.13 0.26 -0.15 0.08 0.14 0 0zm-0.08 -0.14c0.04,-0.02 0.09,0 0.11,0.03 0.02,0.04 0,0.09 -0.03,0.11l-0.08 -0.14zm-0.01 0.01l0.14 0.08 0 0 -0.01 0 0.01 0 0 0 -0.01 0.01 0 0 0 0.01 0 -0.01 0 0 -0.01 0.01 0 0 0 0 0 0 0 0 0 0 0 0 -0.01 0.01 0 0 0 0 0 0 0 0 0 0 -0.01 0.01 0.01 0 -0.01 0 0 0 0 0 0 0 -0.01 0 0 0 0 0.01 0 0 0 0 -0.08 -0.14 0 0 0 0 0 0.01 0 0 0 -0.01 0 0.01 0 -0.01 0 0.01 -0.01 0 0.01 -0.01 0 0.01 0 0 0 0 -0.01 0 0.01 -0.01 0 0 -0.01 0.01 0 0 0 0 0 0 0.01 0 0 0 0 0 -0.01 0 0 0 0.01 -0.01 0 0.01 -0.01 0 0 0.01 0 -0.01 0 0 0 0 0 0zm0 0c0.02,-0.04 0.07,-0.05 0.11,-0.03 0.04,0.03 0.05,0.07 0.03,0.11l-0.14 -0.08zm0.28 -0.18l-0.14 0.26 -0.14 -0.08 0.14 -0.26 0 0 0.14 0.08zm-0.14 -0.08c0.03,-0.04 0.07,-0.05 0.11,-0.03 0.04,0.02 0.05,0.07 0.03,0.11l-0.14 -0.08zm0.18 -0.05l-0.07 0.14 0 0 0 0 0 0 0 0 0 0 0 0 0 0 0 0 0.01 0 0 0 0 0 0 0 0 0 0 0 0 0 0.01 0 0 0 0 0 0 0 0 0 0 0 0 0 0 0 0 0 0 -0.01 0.01 0 0 0 0 0 0 0 0 0 0 0 0 0 0 0 -0.14 -0.08 0.01 0 0 -0.01 0.01 -0.01 0 0 0 0 0.01 -0.01 0 0 0.01 -0.01 0 0 0.01 0 0 -0.01 0.01 0 0 0 0.01 -0.01 0 0 0.01 0 0.01 0 0.01 0 0 0 0.01 0 0 -0.01 0.01 0 0 0 0.01 0.01 0.01 0 0.01 0 0 0 0.01 0 0.01 0 0 0 0 0.01 0.01 0 0 0zm0 0c0.04,0.02 0.05,0.07 0.03,0.11 -0.02,0.03 -0.07,0.05 -0.1,0.03l0.07 -0.14zm0.05 0.05l-0.13 0.08 0 0 0 0 0 0 0 0 0 0 0 0 0 0 0 0 0 0 0 0 0 0 0 0 0 0 0 0 0 0 0 0 0.01 0.01 -0.01 0 0 -0.01 0 0 0.01 0.01 0 0 0 0 -0.01 -0.01 0 0 0.01 0.01 0 0 0 0 -0.01 0 0 -0.01 0.01 0.01 0 0 0 0 0.07 -0.14 0 0 0 0 0.01 0.01 0 0 0 0 0 0 0 0 0.01 0 0 0 0 0 0 0 0 0 0.01 0.01 0 0.01 0 -0.01 0 0 0 0 0.01 0.01 0 0 0 0 0 0 0 0 0 0.01 0.01 0 0 0 -0.01 0 0.01 0 0 0 0 0 0 0.01 0 0 0 0 0 0zm0 0c0.02,0.04 0.01,0.09 -0.03,0.11 -0.04,0.02 -0.08,0 -0.1,-0.03l0.13 -0.08zm0.01 0.34l-0.14 -0.26 0.13 -0.08 0.15 0.26 -0.14 0.08 0 0zm0.14 -0.08c0.02,0.04 0,0.09 -0.03,0.11 -0.04,0.02 -0.09,0.01 -0.11,-0.03l0.14 -0.08zm-0.01 -0.01l-0.08 0.14 0 0 0 0 0 0 -0.01 -0.01 0 0 0 0 0 0 0 0 0 0 -0.01 0 0.01 0 -0.01 -0.01 0 0 0 0 -0.01 0 0.01 0 -0.01 0 0 -0.01 0 0.01 0 -0.01 0 0 0 0 -0.01 -0.01 0.01 0.01 -0.01 -0.01 0 0 0 0 0 0 0 0 0 0 -0.01 -0.01 0 0 0 0 0.14 -0.08 0 0 0 0 -0.01 0 0.01 0 0 0 -0.01 0 0.01 0 -0.01 0 0 0 0.01 0 -0.01 0 0 0 0 0 0 0 0.01 0 -0.01 0 0 -0.01 0 0.01 0 0 0 0 0 0 0 -0.01 0 0.01 0 0 0 -0.01 0 0.01 0 -0.01 0 0.01 0 0 0 -0.01 0 0 0 0 0 0zm0 0c0.04,0.02 0.05,0.07 0.03,0.11 -0.02,0.04 -0.07,0.05 -0.11,0.03l0.08 -0.14zm0.18 0.28l-0.26 -0.14 0.08 -0.14 0.26 0.15 0 0 -0.08 0.13zm0.08 -0.13c0.04,0.02 0.05,0.06 0.03,0.1 -0.02,0.04 -0.07,0.05 -0.11,0.03l0.08 -0.13zm0.05 0.17l-0.14 -0.07 0 0 0 0 0 0 0 0 0 0.01 0 -0.01 0 0.01 0 0 0 0 0 0 0 0 0 0 0 0 0 0 0 0 0 0.01 0 0 0 0 0 0 0 0 0 0 0 0 0.01 0.01 -0.01 0 0.01 0 0 0 0 0 0 0 0 0 0 0 0 0 0 0 0 0 0.08 -0.13 0 0 0.01 0 0.01 0.01 0 0 0 0.01 0.01 0 0 0.01 0.01 0 0 0.01 0 0 0.01 0 0 0.01 0 0.01 0.01 0 0 0.01 0 0 0 0.01 0 0.01 0 0 0 0.01 0.01 0.01 0 0 0 0.01 -0.01 0 0 0.01 0 0.01 0 0 0 0.01 0 0.01 0 0 -0.01 0.01 0 0 0 0zm0 0c-0.02,0.04 -0.07,0.05 -0.11,0.03 -0.03,-0.02 -0.05,-0.06 -0.03,-0.1l0.14 0.07zm-0.05 0.06l-0.08 -0.14 0 0 0 0 0 0 0 0 0 0 0 0 0 0 0 0 0 0 0 0 0 0 0 0 0 0.01 0 0 0 -0.01 0 0 0 0 -0.01 0.01 0.01 0 0 -0.01 0 0 -0.01 0.01 0.01 -0.01 0 0.01 -0.01 0 0.01 0 0 -0.01 0 0 0 0.01 -0.01 0 0 0 0.01 -0.01 -0.01 0.01 0.14 0.07 0 0.01 0 0 0 -0.01 -0.01 0.01 0 0.01 0 0 0 0 0 0 0 0 -0.01 0.01 0.01 -0.01 -0.01 0.01 0 0 0 0 0 0 -0.01 0.01 0 0 0 0 0.01 0 -0.01 0 0 0 0 0 -0.01 0 0 0.01 0 0 0 0 0 0 0 0 0 0 -0.01 0 0 0 0 0.01 0 0zm0 0c-0.04,0.02 -0.09,0 -0.11,-0.04 -0.02,-0.03 0,-0.08 0.03,-0.1l0.08 0.14zm-0.34 0l0.26 -0.14 0.08 0.14 -0.26 0.14 -0.08 -0.14 0 0zm0.08 0.14c-0.04,0.02 -0.09,0.01 -0.11,-0.03 -0.02,-0.04 0,-0.09 0.03,-0.11l0.08 0.14zm0.01 -0.01l-0.14 -0.08 0 0 0 0 0 0 0 0 0.01 0 0 -0.01 0 0 0 0 0 0 0 0 0 0 0.01 -0.01 0 0 0 0 0 0 0 0 0 -0.01 0.01 0 -0.01 0 0.01 0 0 0 0 0 0.01 -0.01 -0.01 0.01 0.01 -0.01 0 0 0 0 0 0 0 0 0 0 0.01 -0.01 0 0 0 0 0.08 0.14 0 0 0 0 0 0 0 0 0 0 0 0 0 0 0 0 0 -0.01 0 0.01 0 -0.01 0 0.01 0 0 0 -0.01 0 0.01 0 -0.01 0.01 0 -0.01 0.01 0 -0.01 0 0 0 0 0.01 0 -0.01 0 0 0 0 0 0.01 0 0 0 0 0 0 0 0 0 0 0 0 0 0 0zm0 0c-0.02,0.04 -0.07,0.05 -0.11,0.03 -0.04,-0.02 -0.05,-0.07 -0.03,-0.11l0.14 0.08zm-0.28 0.19l0.14 -0.27 0.14 0.08 -0.15 0.26 -0.13 -0.07 0 0zm0.13 0.07c-0.02,0.04 -0.06,0.05 -0.1,0.03 -0.04,-0.02 -0.05,-0.07 -0.03,-0.1l0.13 0.07zm-0.17 0.05l0.07 -0.14 0 0.01 0 0 0 -0.01 0 0 0 0 0 0 -0.01 0 0 0 0 0 0 0 0 0 0 0 0 0 0 0 -0.01 0 0.01 0 -0.01 0 0 0 0 0 0 0 0 0.01 0 0 -0.01 0 0.01 0 -0.01 0 0 0 0 0 0 0 0 0 0 0 0 0 0 0 0 0.01 0.13 0.07 0 0.01 0 0 -0.01 0.01 0 0 0 0.01 -0.01 0 0 0 -0.01 0.01 -0.01 0 0 0.01 -0.01 0 0 0 -0.01 0.01 0 0 -0.01 0 0 0 -0.01 0 0 0 -0.01 0.01 -0.01 0 0 0 -0.01 0 -0.01 0 0 0 -0.01 0 -0.01 0 0 -0.01 -0.01 0 0 0 -0.01 0 -0.01 -0.01 0 0 0 0zm0 0c-0.04,-0.02 -0.05,-0.07 -0.03,-0.1 0.02,-0.04 0.06,-0.06 0.1,-0.03l-0.07 0.13zm-0.06 -0.05l0.14 -0.07 0 0 0 0 0 0 0 0 0 -0.01 0 0 0 0 0 0 0 0.01 0 0 0 -0.01 0 0 0 0 0 0 0 0 0 0 0 0 0 0 -0.01 0 0 0 0.01 0 0 0 -0.01 0 0 0 0.01 0 -0.01 0 0 0 0 0 0 -0.01 0 0 0.01 0.01 -0.01 0 0 -0.01 -0.07 0.14 0 0 -0.01 0 0.01 0 -0.01 0 0 0 0 0 -0.01 -0.01 0 0 0 0 0 0 -0.01 0 0 0 0 -0.01 0 0 0 0 -0.01 0 0.01 0 -0.01 -0.01 0 0 0 0 0 0 0 0 -0.01 -0.01 0 0 0 0 0 0 0 0 0 0 0 -0.01 0 0 0 0 -0.01 0 0 0zm0 0c-0.02,-0.04 0,-0.09 0.04,-0.11 0.03,-0.02 0.08,0 0.1,0.04l-0.14 0.07zm0 -0.34l0.14 0.27 -0.14 0.07 -0.14 -0.26 0.14 -0.08 0 0zm-0.14 0.08c-0.02,-0.04 0,-0.09 0.03,-0.11 0.04,-0.02 0.09,0 0.11,0.03l-0.14 0.08zm0.01 0.01l0.08 -0.14 0 0 0 0 0 0 0 0.01 0 0 0.01 0 0 0 0 0 0 0 0.01 0.01 -0.01 -0.01 0.01 0.01 0 0 0 0 0 0 0 0 0 0 0.01 0.01 0 0 0 0 0 0 0 0 0 0 0.01 0.01 0 0 0 0 0 0 0 0 0 0.01 0.01 0 0 0 -0.01 0 0.01 0 -0.14 0.08 0 0 0 0 0 -0.01 0 0.01 0.01 0.01 0 -0.01 -0.01 0 0 0 0 0 0.01 0 0 0 -0.01 0 0 0 0 0 0 0 0.01 0.01 0 0 -0.01 -0.01 0.01 0.01 0 0 0 -0.01 0 0.01 -0.01 -0.01 0.01 0.01 0 0 0 0 0 0 0 0 0 0 0 0 0 0 0 0 0 0zm0 0c-0.04,-0.02 -0.05,-0.07 -0.03,-0.11 0.02,-0.03 0.07,-0.05 0.11,-0.03l-0.08 0.14zm-2.06 0.93l0.67 0.36 -0.07 0.14 -0.67 -0.37 0.07 -0.13zm-0.07 0.13c-0.04,-0.02 -0.05,-0.07 -0.03,-0.1 0.02,-0.04 0.07,-0.05 0.1,-0.03l-0.07 0.13zm-0.09 -0.29l0.14 0.08 0 0 0 0 0 0 0 0.01 0 0 -0.01 0 0 0 0 0.01 0 0 0 0 0 0 0 0.01 0 0 0 0 0 0.01 0 0 0.01 0 0 0 0 0.01 0 0 0 0 0 0 0 0.01 0 0 0.01 0 0 0 0 0.01 0 0 0 0 0.01 0 0 0 0 0 0 0.01 -0.07 0.13 -0.01 0 -0.01 -0.01 -0.01 -0.01 -0.01 0 -0.01 -0.01 0 -0.01 -0.01 0 -0.01 -0.01 0 -0.01 -0.01 -0.01 0 -0.01 -0.01 -0.01 0 -0.01 -0.01 -0.01 0 -0.01 0 0 -0.01 -0.01 0 -0.01 0 -0.02 0 -0.01 0 -0.01 0 -0.01 0 -0.01 0 -0.01 0 -0.01 0 -0.01 0 -0.01 0.01 -0.01 0 -0.01 0 -0.01 0.01 -0.01 0 -0.01 0 0zm0 0c0.02,-0.04 0.07,-0.05 0.11,-0.03 0.04,0.02 0.05,0.07 0.03,0.11l-0.14 -0.08zm0.09 -0.08l0.07 0.13 0 0 0 0 0 0.01 0 0 0 0 0 0 0 0 0 0 0 0 -0.01 0 0 0 0 0 0 0 0 0 0 0 0 0 0 0.01 0 -0.01 0 0 0 0.01 0 0 0 0 0 0 -0.01 0 0 0 0 0 0 0 0 0 0 0 0 0 0 0.01 0 0 0 0 -0.14 -0.08 0.01 0 0 0 0 -0.01 0 0 0 0 0 0 0.01 -0.01 0 -0.01 0 0 0 0 0.01 0 0 -0.01 0 0 0 0 0.01 0 0 -0.01 0 0 0 0 0.01 0 0 -0.01 0 0 0.01 0 0 0 0 0 0.01 -0.01 0 0 0 0 0.01 0 0 -0.01 0 0 0 0 0.01 0 0 0zm0 0c0.04,-0.02 0.08,-0.01 0.1,0.03 0.02,0.04 0.01,0.08 -0.03,0.1l-0.07 -0.13zm0.74 -0.23l-0.67 0.36 -0.07 -0.13 0.67 -0.37 0.07 0.14 0 0zm-0.07 -0.14c0.04,-0.02 0.08,-0.01 0.1,0.03 0.02,0.04 0.01,0.09 -0.03,0.11l-0.07 -0.14zm0.02 -0.02l0.14 0.07 0 0 -0.01 0.01 0 0 0 0 0 0.01 0 0 0 0 -0.01 0.01 0 0 0 0 0 0 -0.01 0.01 0 0 0 0 0 0.01 -0.01 0 0 0 0 0 0 0.01 -0.01 0 0 0 0 0 -0.01 0.01 0 0 0 0 0 0 -0.01 0.01 0 0 0 0 -0.01 0 0 0 0 0 -0.01 0.01 -0.07 -0.14 0 0 0 0 0 0 0 0 0 0 0.01 0 -0.01 0 0 0 0.01 0 0 -0.01 0 0.01 0 -0.01 0 0 0 0 0 0 0 0 0 0 0 0 0 0 0 0 0.01 0 -0.01 0 0.01 0 0 -0.01 0 0 0 0.01 0 -0.01 0 0 0 0 0 0 0 0 0 0 0 0zm0 0c0.02,-0.04 0.07,-0.05 0.11,-0.03 0.03,0.02 0.05,0.07 0.03,0.1l-0.14 -0.07zm0.5 -0.6l-0.36 0.67 -0.14 -0.07 0.37 -0.67 0 0 0.13 0.07zm-0.13 -0.07c0.02,-0.04 0.07,-0.05 0.1,-0.03 0.04,0.02 0.05,0.07 0.03,0.1l-0.13 -0.07zm0.29 -0.09l-0.08 0.14 0 0 0 0 0 0 -0.01 0 0 0 0 -0.01 0 0 -0.01 0 0 0 0 0 0 0 -0.01 0 0 0 0 0 -0.01 0 0 0 0 0.01 0 0 -0.01 0 0 0 0 0 0 0 -0.01 0 0 0 0 0.01 0 0 -0.01 0 0 0 0 0 0 0.01 0 0 0 0 -0.01 0 -0.13 -0.07 0 -0.01 0.01 -0.01 0.01 -0.01 0 -0.01 0.01 0 0.01 -0.01 0.01 -0.01 0 -0.01 0.01 0 0.01 -0.01 0.01 0 0.01 -0.01 0.01 0 0.01 -0.01 0.01 0 0.01 0 0.01 -0.01 0 0 0.01 0 0.02 0 0.01 0 0.01 0 0.01 0 0.01 0 0.01 0 0.01 0 0.01 0 0.01 0.01 0.01 0 0.01 0 0.01 0.01 0.01 0 0 0zm0 0c0.04,0.02 0.05,0.07 0.03,0.11 -0.02,0.04 -0.07,0.05 -0.11,0.03l0.08 -0.14zm0.08 0.09l-0.13 0.07 0 0 0 0 -0.01 0 0 0 0 0 0 0 0 0 0 0 0 0 0 -0.01 0 0 0 0 0 0 0 0 0 0 0 0 0 0 -0.01 0 0.01 0 0 0 -0.01 0 0 0 0 0 0 -0.01 0 0 0 0 0 0 0 0 0 0 0 0 -0.01 0 0 0 0 0 0.08 -0.14 0 0.01 0.01 0 0 0 0 0 0 0 0.01 0 0 0.01 0 0 0.01 0 0 0 0 0.01 0 0 0.01 0 0 0 0 0.01 0.01 0 0 0 0 0 0 0.01 0.01 0 0 0 0 0.01 0 0 0.01 0 0 0.01 0 0 0 0 0 0 0.01 0.01 0 0 0 0 0 0.01 0 0zm0 0c0.02,0.04 0.01,0.08 -0.03,0.1 -0.04,0.02 -0.08,0.01 -0.1,-0.03l0.13 -0.07zm0.23 0.74l-0.36 -0.67 0.13 -0.07 0.37 0.67 -0.14 0.07 0 0zm0.14 -0.07c0.02,0.04 0.01,0.08 -0.03,0.1 -0.04,0.02 -0.09,0.01 -0.11,-0.03l0.14 -0.07zm0.02 0.02l-0.07 0.14 0 0 -0.01 -0.01 0 0 0 0 -0.01 0 0 0 0 0 0 -0.01 -0.01 0 0 0 0 0 -0.01 -0.01 0 0 0 0 -0.01 0 0 -0.01 0 0 0 0 -0.01 0 0 -0.01 0 0 0 0 -0.01 -0.01 0 0 0 0 0 0 -0.01 -0.01 0 0 0 0 0 -0.01 0 0 0 0 -0.01 -0.01 0.14 -0.07 0 0 0 0 0 0 0 0 0 0 0 0.01 0 -0.01 0 0 0.01 0.01 0 0 0 0 0 0 0 0 0 0 0 0 0 0 0 0 0 0 0 0 0 0 0 0.01 0 -0.01 0 0.01 0.01 0 0 0 0 0 0 0 0 0 0 0 0 0 0 0 0 0 0 0zm0 0c0.04,0.02 0.05,0.07 0.03,0.11 -0.02,0.03 -0.07,0.05 -0.1,0.03l0.07 -0.14zm0.6 0.5l-0.67 -0.36 0.07 -0.14 0.67 0.37 0 0 -0.07 0.13zm0.07 -0.13c0.04,0.02 0.05,0.07 0.03,0.1 -0.02,0.04 -0.07,0.05 -0.1,0.03l0.07 -0.13zm0.09 0.29l-0.14 -0.08 0 0 0 0 0 0 0 -0.01 0 0 0.01 0 0 0 0 -0.01 0 0 0 0 0 0 0 -0.01 0 0 0 0 0 -0.01 0 0 0 0 -0.01 0 0 -0.01 0 0 0 0 0 0 0 -0.01 0 0 -0.01 0 0 0 0 -0.01 0 0 0 0 -0.01 0 0 0 0 0 0 -0.01 0.07 -0.13 0.01 0 0.01 0.01 0.01 0.01 0.01 0 0 0.01 0.01 0.01 0.01 0.01 0.01 0 0 0.01 0.01 0.01 0 0.01 0.01 0.01 0 0.01 0.01 0.01 0 0.01 0 0.01 0.01 0.01 0 0.01 0 0 0 0.02 0 0.01 0 0.01 0 0.01 0 0.01 0 0.01 0 0.01 0 0.01 -0.01 0.01 0 0.01 0 0.01 -0.01 0.01 0 0.01 0 0zm0 0c-0.02,0.04 -0.07,0.05 -0.11,0.03 -0.04,-0.02 -0.05,-0.07 -0.03,-0.11l0.14 0.08zm-0.09 0.08l-0.07 -0.13 0 0 0 0 0 -0.01 0 0 0 0 0 0 0 0 0 0 0.01 0 0 0 0 0 0 0 0 0 0 0 0 0 0 0 0 0 0 0 0 0 0 -0.01 0 0 0 0 0 0 0.01 0 0 0 0 0 0 0 0 0 0 0 0 0 0 -0.01 0 0 0 0 0.14 0.08 -0.01 0 0 0.01 0 0 0 0 0 0 0 0.01 -0.01 0 0 0.01 0 0 0 0 -0.01 0 0 0.01 0 0 0 0 -0.01 0 0 0.01 0 0 0 0 -0.01 0.01 0 0 0 0 -0.01 0 0 0 0 0.01 -0.01 0 0 0 0 0 -0.01 0.01 0 0 0 0 0 0 -0.01 0 0 0zm0 0c-0.04,0.02 -0.08,0.01 -0.1,-0.03 -0.02,-0.04 -0.01,-0.08 0.03,-0.1l0.07 0.13zm-0.74 0.23l0.67 -0.36 0.07 0.13 -0.67 0.37 -0.07 -0.14 0 0zm0.07 0.14c-0.04,0.02 -0.08,0.01 -0.1,-0.03 -0.02,-0.04 -0.01,-0.09 0.03,-0.11l0.07 0.14zm-0.02 0.02l-0.14 -0.07 0 0 0.01 -0.01 0 0 0 0 0 -0.01 0 0 0 0 0.01 0 0 -0.01 0 0 0 0 0.01 -0.01 0 0 0 0 0 -0.01 0.01 0 0 0 0 0 0 -0.01 0.01 0 0 0 0 0 0.01 -0.01 0 0 0 0 0.01 0 0 -0.01 0 0 0 0 0.01 0 0 0 0 0 0.01 -0.01 0.07 0.14 0 0 0 0 0 0 0 0 0 0 0 0 0 0 0 0 -0.01 0 0 0.01 0 0 0 0 0 0 0 0 0 0 0 0 0 0 0 0 0 0 0 0 0 0 0 0 0 0 -0.01 0.01 0 0 0 0 0 0 0 0 0 0 0 0 0 0 0 0 0 0zm0 0c-0.02,0.04 -0.07,0.05 -0.11,0.03 -0.03,-0.02 -0.05,-0.07 -0.03,-0.1l0.14 0.07zm-0.5 0.6l0.36 -0.67 0.14 0.07 -0.37 0.67 0 0 -0.13 -0.07zm0.13 0.07c-0.02,0.04 -0.07,0.05 -0.1,0.03 -0.04,-0.02 -0.05,-0.07 -0.03,-0.1l0.13 0.07zm-0.29 0.09l0.08 -0.14 0 0 0 0 0 0 0.01 0 0 0.01 0 0 0 0 0.01 0 0 0 0 0 0 0 0.01 0 0 0 0 0 0.01 0 0 0 0 0 0 -0.01 0.01 0 0 0 0 0 0 0 0.01 0 0 0 0 0 0 -0.01 0.01 0 0 0 0 0 0 -0.01 0 0 0 0 0.01 0 0.13 0.07 0 0.01 -0.01 0.01 -0.01 0.01 0 0.01 -0.01 0.01 -0.01 0 0 0.01 -0.01 0.01 -0.01 0 -0.01 0.01 -0.01 0 -0.01 0.01 -0.01 0 -0.01 0.01 0 0 -0.01 0 -0.02 0.01 0 0 -0.02 0 -0.01 0 0 0 -0.02 0 -0.01 0 -0.01 0 -0.01 0 -0.01 0 -0.01 0 -0.01 -0.01 -0.01 0 -0.01 0 -0.01 -0.01 -0.01 0 0 0zm0 0c-0.04,-0.02 -0.05,-0.07 -0.03,-0.11 0.02,-0.04 0.07,-0.05 0.11,-0.03l-0.08 0.14zm-0.08 -0.09l0.13 -0.07 0 0 0 0 0.01 0 0 0 0 0 0 0 0 0 0 0 0 0.01 0 0 0 0 0 0 0 0 0 0 0 0 0 0 0 0 0 0 0 0 0.01 0 0 0 0 0 0 0 0 0.01 0 0 0 0 0 0 0 0 0 0 0 0 0.01 0 0 0 0 0 -0.08 0.14 0 -0.01 0 0 -0.01 0 0 0 0 0 0 0 -0.01 -0.01 -0.01 0 0 0 0 0 0 -0.01 -0.01 0 0 0 0 0 0 -0.01 -0.01 0 0 0 0 0 0 -0.01 -0.01 0 0 0 0 -0.01 0 0 -0.01 0 0 -0.01 0 0 0 0 -0.01 -0.01 0 0 0 0 0 0 0 -0.01 0 0zm0 0c-0.02,-0.04 -0.01,-0.08 0.03,-0.1 0.04,-0.02 0.08,-0.01 0.1,0.03l-0.13 0.07zm-0.23 -0.74l0.36 0.67 -0.13 0.07 -0.37 -0.67 0.14 -0.07 0 0zm-0.14 0.07c-0.02,-0.04 -0.01,-0.08 0.03,-0.1 0.04,-0.02 0.09,-0.01 0.11,0.03l-0.14 0.07zm-0.02 -0.02l0.07 -0.14 0 0 0.01 0.01 0 0 0 0 0.01 0 0 0 0 0 0.01 0.01 0 0 0 0 0 0 0.01 0.01 0 0 0 0 0.01 0 0 0.01 0 0 0 0 0.01 0 0 0.01 0 0 0 0 0.01 0.01 0 0 0 0 0 0.01 0.01 0 0 0 0 0 0 0.01 0 0 0 0 0.01 0.01 -0.14 0.07 0 0 0 0 0 0 0 0 0 0 0 0 0 0 0 0 0 -0.01 -0.01 0 0.01 0 -0.01 0 0 0 0 0 0 0 0 0 0 0 0 0 0 0 0 0 0 0 0 0 0 -0.01 -0.01 0 0 0 0.01 0 -0.01 0 0 0 0 0 0 0 0 0 0 0 0 0zm0 0c-0.04,-0.02 -0.05,-0.07 -0.03,-0.11 0.02,-0.03 0.07,-0.05 0.1,-0.03l-0.07 0.14zm8.76 -1.8c-0.04,0 -0.07,-0.04 -0.07,-0.08 0,-0.05 0.03,-0.08 0.07,-0.08l0 0.16zm0.7 0l-0.7 0 0 -0.16 0.7 0 0 0.16zm0 -0.16c0.05,0 0.08,0.03 0.08,0.08 0,0.04 -0.03,0.08 -0.08,0.08l0 -0.16zm0.5 0.16c-0.04,0 -0.07,-0.04 -0.07,-0.08 0,-0.05 0.03,-0.08 0.07,-0.08l0 0.16zm0.71 0l-0.71 0 0 -0.16 0.71 0 0 0.16zm0 -0.16c0.04,0 0.07,0.03 0.07,0.08 0,0.04 -0.03,0.08 -0.07,0.08l0 -0.16zm-1.83 0.08l-0.15 0 0 0 0 -0.01 0 -0.01 -0.01 -0.01 0 -0.01 0 -0.01 0 0 0 -0.01 -0.01 -0.01 0 -0.01 0 -0.01 -0.01 0 0 -0.01 -0.01 -0.01 0 0 -0.01 -0.01 0 -0.01 -0.01 0 -0.01 -0.01 0 0 -0.01 -0.01 -0.01 0 0 -0.01 -0.01 0 -0.01 0 -0.01 -0.01 -0.01 0 0 0 -0.01 0 -0.01 -0.01 -0.01 0 -0.01 0 -0.01 0 0 -0.15 0.02 0 0.02 0 0.01 0 0.02 0 0.01 0.01 0.02 0 0.02 0.01 0.01 0 0.01 0.01 0.02 0.01 0.01 0 0.02 0.01 0.01 0.01 0.01 0.01 0.01 0.01 0.02 0.01 0.01 0.02 0.01 0.01 0.01 0.01 0.01 0.01 0 0.02 0.01 0.01 0.01 0.01 0.01 0.02 0 0.01 0.01 0.02 0 0.01 0.01 0.02 0 0.02 0 0.01 0 0.02 0 0.02 0 0zm0 0c0,0.04 -0.03,0.08 -0.08,0.08 -0.04,0 -0.07,-0.04 -0.07,-0.08l0.15 0zm-0.33 0.33l0 -0.16 0 0 0.01 0 0.01 0 0.01 0 0.01 0 0.01 0 0 -0.01 0.01 0 0.01 0 0.01 0 0.01 -0.01 0 0 0.01 -0.01 0.01 0 0 -0.01 0.01 0 0.01 -0.01 0 0 0.01 -0.01 0 -0.01 0.01 0 0 -0.01 0.01 -0.01 0 -0.01 0 0 0.01 -0.01 0 -0.01 0 -0.01 0 -0.01 0 -0.01 0.01 0 0 -0.01 0 -0.01 0.15 0 0 0.01 0 0.02 0 0.02 0 0.01 -0.01 0.02 0 0.02 -0.01 0.01 0 0.02 -0.01 0.01 -0.01 0.01 -0.01 0.02 0 0.01 -0.01 0.02 -0.01 0.01 -0.01 0.01 -0.01 0.01 -0.02 0.01 -0.01 0.01 -0.01 0.01 -0.01 0.01 -0.02 0.01 -0.01 0.01 -0.02 0.01 -0.01 0 -0.01 0.01 -0.02 0 -0.02 0.01 -0.01 0 -0.02 0 -0.01 0.01 -0.02 0 -0.02 0 0 0zm0 0c-0.04,0 -0.08,-0.04 -0.08,-0.08 0,-0.04 0.04,-0.08 0.08,-0.08l0 0.16zm-0.33 -0.33l0.16 0 0 0 0 0.01 0 0.01 0 0 0 0.01 0 0.01 0 0.01 0.01 0.01 0 0.01 0 0 0.01 0.01 0 0.01 0.01 0.01 0 0 0.01 0.01 0 0.01 0.01 0 0 0.01 0.01 0 0.01 0.01 0 0 0.01 0.01 0.01 0 0.01 0.01 0 0 0.01 0 0.01 0 0.01 0.01 0.01 0 0.01 0 0 0 0.01 0 0.01 0 0 0.16 -0.01 0 -0.02 0 -0.02 -0.01 -0.01 0 -0.02 0 -0.02 -0.01 -0.01 0 -0.02 -0.01 -0.01 0 -0.02 -0.01 -0.01 -0.01 -0.01 -0.01 -0.02 -0.01 -0.01 -0.01 -0.01 -0.01 -0.01 -0.01 -0.01 -0.01 -0.01 -0.01 -0.01 -0.01 -0.01 -0.02 -0.01 -0.01 -0.01 -0.02 -0.01 -0.01 0 -0.01 -0.01 -0.02 0 -0.01 -0.01 -0.02 0 -0.02 0 -0.01 -0.01 -0.02 0 -0.02 0 -0.01 0 0zm0 0c0,-0.05 0.04,-0.08 0.08,-0.08 0.04,0 0.08,0.03 0.08,0.08l-0.16 0zm0.33 -0.33l0 0.15 0 0 -0.01 0 -0.01 0 0 0 -0.01 0.01 -0.01 0 -0.01 0 -0.01 0 -0.01 0.01 0 0 -0.01 0 -0.01 0.01 -0.01 0 0 0.01 -0.01 0 -0.01 0.01 0 0 -0.01 0.01 0 0.01 -0.01 0 0 0.01 -0.01 0.01 0 0 -0.01 0.01 0 0.01 0 0.01 -0.01 0.01 0 0 0 0.01 0 0.01 0 0.01 0 0.01 0 0.01 -0.16 0 0 -0.02 0 -0.02 0.01 -0.01 0 -0.02 0 -0.02 0.01 -0.01 0 -0.02 0.01 -0.01 0 -0.02 0.01 -0.01 0.01 -0.01 0.01 -0.02 0.01 -0.01 0.01 -0.01 0.01 -0.01 0.01 -0.02 0.01 -0.01 0.01 -0.01 0.01 -0.01 0.02 -0.01 0.01 0 0.01 -0.01 0.02 -0.01 0.01 -0.01 0.02 0 0.01 -0.01 0.02 0 0.02 -0.01 0.01 0 0.02 0 0.02 0 0.01 0 0 0zm0 0c0.04,0 0.08,0.03 0.08,0.07 0,0.05 -0.04,0.08 -0.08,0.08l0 -0.15zm2.23 0.33l-0.15 0 0 0 0 -0.02 0 -0.02 0 -0.01 0.01 -0.02 0 -0.02 0 -0.01 0.01 -0.02 0 -0.01 0.01 -0.02 0.01 -0.01 0.01 -0.01 0 -0.02 0.01 -0.01 0.01 -0.01 0.01 -0.01 0.02 -0.02 0.01 -0.01 0.01 -0.01 0.01 -0.01 0.01 -0.01 0.02 0 0.01 -0.01 0.02 -0.01 0.01 -0.01 0.02 0 0.01 -0.01 0.02 0 0.01 -0.01 0.02 0 0.02 0 0.01 0 0.02 0 0 0.15 -0.01 0 -0.01 0 -0.01 0 -0.01 0.01 0 0 -0.01 0 -0.01 0 -0.01 0.01 -0.01 0 0 0 -0.01 0.01 -0.01 0 -0.01 0.01 0 0 -0.01 0.01 -0.01 0 0 0.01 -0.01 0.01 0 0 -0.01 0.01 0 0.01 -0.01 0 0 0.01 0 0.01 -0.01 0.01 0 0.01 0 0 0 0.01 0 0.01 -0.01 0.01 0 0.01 0 0.01 0 0zm0 0c0,0.04 -0.03,0.08 -0.07,0.08 -0.05,0 -0.08,-0.04 -0.08,-0.08l0.15 0zm0.18 0.17l0 0.16 0 0 -0.02 0 -0.01 0 -0.02 -0.01 -0.02 0 -0.01 0 -0.02 -0.01 -0.01 0 -0.02 -0.01 -0.01 0 -0.02 -0.01 -0.01 -0.01 -0.02 -0.01 -0.01 -0.01 -0.01 -0.01 -0.01 -0.01 -0.01 -0.01 -0.02 -0.01 -0.01 -0.01 -0.01 -0.01 -0.01 -0.02 0 -0.01 -0.01 -0.02 -0.01 -0.01 -0.01 -0.01 0 -0.02 -0.01 -0.01 0 -0.02 0 -0.02 -0.01 -0.01 0 -0.02 0 -0.02 0 -0.01 0.15 0 0 0.01 0 0.01 0.01 0 0 0.01 0 0.01 0 0.01 0 0.01 0.01 0.01 0 0 0 0.01 0.01 0.01 0 0.01 0.01 0 0 0.01 0.01 0.01 0 0 0.01 0.01 0.01 0 0 0.01 0.01 0 0.01 0.01 0.01 0 0 0.01 0.01 0 0.01 0 0.01 0 0.01 0.01 0 0 0.01 0 0.01 0 0.01 0 0.01 0 0 0zm0 0c0.04,0 0.08,0.04 0.08,0.08 0,0.04 -0.04,0.08 -0.08,0.08l0 -0.16zm0.17 -0.17l0.16 0 0 0 0 0.01 0 0.02 0 0.02 -0.01 0.01 0 0.02 -0.01 0.02 0 0.01 -0.01 0.02 0 0.01 -0.01 0.02 -0.01 0.01 -0.01 0.01 -0.01 0.01 -0.01 0.02 -0.01 0.01 -0.01 0.01 -0.01 0.01 -0.01 0.01 -0.01 0.01 -0.02 0.01 -0.01 0.01 -0.01 0.01 -0.02 0.01 -0.01 0 -0.02 0.01 -0.01 0 -0.02 0.01 -0.02 0 -0.01 0 -0.02 0.01 -0.01 0 -0.02 0 0 -0.16 0.01 0 0.01 0 0.01 0 0 0 0.01 0 0.01 -0.01 0.01 0 0.01 0 0 0 0.01 -0.01 0.01 0 0.01 -0.01 0 0 0.01 -0.01 0.01 0 0 -0.01 0.01 0 0 -0.01 0.01 -0.01 0 0 0.01 -0.01 0 -0.01 0.01 -0.01 0 0 0 -0.01 0.01 -0.01 0 -0.01 0 -0.01 0 -0.01 0 0 0 -0.01 0 -0.01 0 0zm0 0c0,-0.05 0.04,-0.08 0.08,-0.08 0.04,0 0.08,0.03 0.08,0.08l-0.16 0zm-0.17 -0.18l0 -0.15 0 0 0.02 0 0.01 0 0.02 0 0.01 0 0.02 0.01 0.02 0 0.01 0.01 0.02 0 0.01 0.01 0.02 0.01 0.01 0.01 0.01 0 0.02 0.01 0.01 0.01 0.01 0.01 0.01 0.01 0.01 0.02 0.01 0.01 0.01 0.01 0.01 0.01 0.01 0.02 0.01 0.01 0.01 0.01 0 0.02 0.01 0.01 0 0.02 0.01 0.02 0 0.01 0.01 0.02 0 0.01 0 0.02 0 0.02 -0.16 0 0 -0.01 0 -0.01 0 -0.01 0 -0.01 0 -0.01 0 0 -0.01 -0.01 0 -0.01 0 -0.01 -0.01 -0.01 0 0 -0.01 -0.01 0 -0.01 -0.01 0 0 -0.01 -0.01 -0.01 0 0 -0.01 -0.01 -0.01 0 0 -0.01 -0.01 0 -0.01 -0.01 -0.01 0 0 0 -0.01 -0.01 -0.01 0 -0.01 0 -0.01 0 0 -0.01 -0.01 0 -0.01 0 -0.01 0 0 0zm0 0c-0.04,0 -0.08,-0.03 -0.08,-0.08 0,-0.04 0.04,-0.07 0.08,-0.07l0 0.15zm-1.04 0l-0.34 0 0 -0.15 0.34 0 0 0 0 0.15zm0 -0.15c0.05,0 0.08,0.03 0.08,0.08 0,0.04 -0.03,0.07 -0.08,0.07l0 -0.15zm0.16 0.16l-0.15 0 0 0 0 0 0 0 0 0 0 0 0 0 0 0 0 0 0 0 0 0 0 0 0 0 0 0 0 0 0 0 0 -0.01 0 0.01 0 0 0 -0.01 -0.01 0 0.01 0 0 0 0 0 0 0 0 0 0 0 -0.01 0 0 0 0 0 0 0 0.01 0 -0.01 0 0 0 0 -0.15 0.01 0 0.01 0 0.01 0 0.01 0 0 0 0.01 0.01 0.01 0 0 0 0.01 0 0.01 0.01 0.01 0 0 0.01 0.01 0 0 0.01 0.01 0 0.01 0.01 0 0 0.01 0.01 0 0 0.01 0.01 0 0.01 0 0 0.01 0.01 0 0.01 0 0 0 0.01 0.01 0.01 0 0.01 0 0 0 0.01 0 0.01 0 0.01 0 0zm0 0c0,0.04 -0.03,0.08 -0.08,0.08 -0.04,0 -0.07,-0.04 -0.07,-0.08l0.15 0zm-0.15 0.34l0 -0.34 0.15 0 0 0.34 0 0 -0.15 0zm0.15 0c0,0.04 -0.03,0.08 -0.08,0.08 -0.04,0 -0.07,-0.04 -0.07,-0.08l0.15 0zm-0.16 0.16l0 -0.16 0 0 0 0 0.01 0 -0.01 0 0 0 0 0 0.01 0 0 0 0 0 -0.01 0 0 0 0.01 0 0 0 0 0 0 0 0 0 0 0 0 0 0 0 0 0 0 0 0 0 0 0 0 0 0 0 0 0 0 0 0 0 0 0 0 0 0 0 0 0 0 0 0.15 0 0 0 0 0.01 0 0.01 0 0.01 0 0.01 -0.01 0.01 0 0 0 0.01 0 0.01 -0.01 0 0 0.01 0 0.01 -0.01 0 0 0.01 -0.01 0 0 0.01 -0.01 0 -0.01 0.01 0 0 -0.01 0.01 0 0 -0.01 0.01 -0.01 0 -0.01 0 0 0.01 -0.01 0 -0.01 0 0 0 -0.01 0 -0.01 0.01 -0.01 0 -0.01 0 0 0zm0 0c-0.04,0 -0.07,-0.04 -0.07,-0.08 0,-0.04 0.03,-0.08 0.07,-0.08l0 0.16zm-0.34 -0.16l0.34 0 0 0.16 -0.34 0 0 0 0 -0.16zm0 0.16c-0.04,0 -0.07,-0.04 -0.07,-0.08 0,-0.04 0.03,-0.08 0.07,-0.08l0 0.16zm-0.15 -0.16l0.15 0 0 0 0 0 0 0 0 0 0 0 0 0 0 0 0 0 0 0 0 0 0 0 0 0 0 0 0 0 0 0 0 0 0 0 0 0 0 0 0 0 0 0 0 0 0 0 0 0 0 0 0 0 0 0 0 0 0.01 0 -0.01 0 0 0 0 0 0 0 0 0.16 0 0 -0.01 0 -0.01 -0.01 -0.01 0 -0.01 0 0 0 -0.01 0 -0.01 -0.01 -0.01 0 0 0 -0.01 -0.01 0 0 -0.01 -0.01 -0.01 0 0 -0.01 -0.01 0 0 -0.01 -0.01 0 0 -0.01 -0.01 0 0 -0.01 0 -0.01 -0.01 0 0 -0.01 0 -0.01 -0.01 0 0 -0.01 0 -0.01 0 -0.01 0 -0.01 0 -0.01 0 0 0 0zm0 0c0,-0.05 0.03,-0.08 0.07,-0.08 0.05,0 0.08,0.03 0.08,0.08l-0.15 0zm0.15 -0.34l0 0.34 -0.15 0 0 -0.34 0 0 0.15 0zm-0.15 0c0,-0.05 0.03,-0.08 0.07,-0.08 0.05,0 0.08,0.03 0.08,0.08l-0.15 0zm0.15 -0.16l0 0.15 0 0 0 0 0 0 0 0 0 0 0 0 0 0 0 0 0 0 0 0 0 0 0 0 0 0 0 0 0 0 0 0.01 0 0 0 0 0 0 0 0 0 0 0 0 0 0 0 0 0 0 0 0 0 0 0 0 0 0 0 0 0 0 0 0 0 0 -0.15 0 0 -0.01 0 -0.01 0 -0.01 0 0 0 -0.01 0 -0.01 0.01 -0.01 0 0 0 -0.01 0.01 -0.01 0 0 0 -0.01 0.01 -0.01 0 0 0.01 -0.01 0 0 0.01 -0.01 0 0 0.01 -0.01 0.01 0 0 -0.01 0.01 0 0.01 -0.01 0 0 0.01 0 0.01 0 0 -0.01 0.01 0 0.01 0 0.01 0 0.01 0 0 0 0 0zm0 0c0.05,0 0.08,0.03 0.08,0.08 0,0.04 -0.03,0.07 -0.08,0.07l0 -0.15zm-0.86 1.36l-0.34 0 0 -0.16 0.34 0 0 0 0 0.16zm0 -0.16c0.04,0 0.08,0.04 0.08,0.08 0,0.04 -0.04,0.08 -0.08,0.08l0 -0.16zm0.16 0.16l-0.16 0 0 0 0 0 0 0 0 0 0 0 0 0 0 0 0 0 0 0 0 0 0 0 0 0 0 0 0 0 0 0 0 0 0 0 0 0 0 0 0 0 0 0 0 0 0 0 0 0 0 0 0 0 0 0 0 0 0 0 0 0 0 0 0 0 0 0 0 -0.16 0.01 0 0 0 0.01 0 0.01 0.01 0.01 0 0.01 0 0 0 0.01 0 0.01 0.01 0.01 0 0 0.01 0.01 0 0 0 0.01 0.01 0.01 0 0 0.01 0.01 0 0 0.01 0.01 0.01 0 0 0 0.01 0.01 0.01 0 0 0 0.01 0.01 0.01 0 0 0 0.01 0 0.01 0.01 0.01 0 0.01 0 0 0 0.01 0 0zm0 0c0,0.04 -0.04,0.08 -0.08,0.08 -0.04,0 -0.08,-0.04 -0.08,-0.08l0.16 0zm-0.16 0.34l0 -0.34 0.16 0 0 0.34 0 0 -0.16 0zm0.16 0c0,0.04 -0.04,0.08 -0.08,0.08 -0.04,0 -0.08,-0.04 -0.08,-0.08l0.16 0zm-0.16 0.16l0 -0.16 0 0 0 0 0 0 0 0 0 0 0 0 0 0 0 0 0 0 0 0 0 0 0 0 0 0 0 0 0 0 0 0 0 0 0 0 0 0 0 0 0 0 0 0 0 0 0 0 0 0 0 0 0 0 0 0 0 0 0 0 0 0 0 0 0 0 0.16 0 0 0.01 0 0.01 0 0.01 -0.01 0 0 0.01 0 0.01 0 0 -0.01 0.01 0 0.01 0 0.01 -0.01 0 0 0.01 0 0 -0.01 0.01 0 0.01 -0.01 0 0 0.01 -0.01 0 -0.01 0.01 0 0 -0.01 0.01 0 0 -0.01 0 -0.01 0.01 -0.01 0 0 0 -0.01 0 -0.01 0.01 -0.01 0 -0.01 0 0 0 -0.01 0 0 0zm0 0c-0.04,0 -0.08,-0.04 -0.08,-0.08 0,-0.04 0.04,-0.08 0.08,-0.08l0 0.16zm-0.34 -0.16l0.34 0 0 0.16 -0.34 0 0 0 0 -0.16zm0 0.16c-0.04,0 -0.08,-0.04 -0.08,-0.08 0,-0.04 0.04,-0.08 0.08,-0.08l0 0.16zm-0.16 -0.16l0.16 0 0 0 0 0 0 0 0 0 0 0 0 0 0 0 0 0 0 0 0 0 0 0 0 0 0 0 0 0 0 0 0 0 0 0 0 0 0 0 0 0 0 0 0 0 0 0 0 0 0 0 0 0 0 0 0 0 0 0 0 0 0 0 0 0 0 0 0 0.16 -0.01 0 -0.01 0 0 0 -0.01 0 -0.01 -0.01 -0.01 0 0 0 -0.01 0 -0.01 -0.01 -0.01 0 0 0 -0.01 -0.01 -0.01 0 0 -0.01 -0.01 0 0 -0.01 -0.01 0 0 -0.01 -0.01 0 0 -0.01 -0.01 -0.01 0 0 0 -0.01 -0.01 -0.01 0 -0.01 0 0 0 -0.01 -0.01 -0.01 0 0 0 -0.01 0 -0.01 0 -0.01 0 0zm0 0c0,-0.04 0.04,-0.08 0.08,-0.08 0.04,0 0.08,0.04 0.08,0.08l-0.16 0zm0.16 -0.34l0 0.34 -0.16 0 0 -0.34 0 0 0.16 0zm-0.16 0c0,-0.04 0.04,-0.08 0.08,-0.08 0.04,0 0.08,0.04 0.08,0.08l-0.16 0zm0.16 -0.16l0 0.16 0 0 0 0 0 0 0 0 0 0 0 0 0 0 0 0 0 0 0 0 0 0 0 0 0 0 0 0 0 0 0 0 0 0 0 0 0 0 0 0 0 0 0 0 0 0 0 0 0 0 0 0 0 0 0 0 0 0 0 0 0 0 0 0 0 0 -0.16 0 0 -0.01 0 0 0 -0.01 0 -0.01 0.01 -0.01 0 -0.01 0 0 0 -0.01 0.01 -0.01 0 -0.01 0 0 0.01 -0.01 0 0 0.01 -0.01 0 -0.01 0.01 0 0 -0.01 0.01 0 0 -0.01 0.01 0 0.01 0 0 -0.01 0.01 0 0.01 -0.01 0.01 0 0 0 0.01 0 0.01 0 0.01 -0.01 0 0 0.01 0 0.01 0 0 0zm0 0c0.04,0 0.08,0.04 0.08,0.08 0,0.04 -0.04,0.08 -0.08,0.08l0 -0.16zm2.41 0l0.34 0 0 0.16 -0.34 0 0 0 0 -0.16zm0 0.16c-0.04,0 -0.08,-0.04 -0.08,-0.08 0,-0.04 0.04,-0.08 0.08,-0.08l0 0.16zm0 0l-0.16 0 0 0 0 -0.01 0 0 0 -0.01 0 -0.01 0.01 -0.01 0 -0.01 0 0 0 -0.01 0.01 -0.01 0 0 0.01 -0.01 0 -0.01 0 0 0.01 -0.01 0 -0.01 0.01 0 0 -0.01 0.01 0 0.01 -0.01 0 0 0.01 0 0 -0.01 0.01 0 0.01 -0.01 0.01 0 0 0 0.01 0 0.01 0 0.01 -0.01 0.01 0 0 0 0.01 0 0 0.16 0 0 0 0 0 0 0 0 0 0 0 0 0 0 0 0 0 0 0 0 0 0 0 0 0 0 0 0 0 0 0 0 0 0 0 0 0 0 0 0 0 0 0 0 0 0 0 0 0 0 0 0 0 0 0 0 0 0 0 0 0 0 0 0 0 0zm0 0c0,0.04 -0.04,0.08 -0.08,0.08 -0.04,0 -0.08,-0.04 -0.08,-0.08l0.16 0zm-0.16 0.34l0 -0.34 0.16 0 0 0.34 0 0 -0.16 0zm0.16 0c0,0.04 -0.04,0.08 -0.08,0.08 -0.04,0 -0.08,-0.04 -0.08,-0.08l0.16 0zm0 0l0 0.16 0 0 -0.01 0 0 0 -0.01 0 -0.01 0 -0.01 -0.01 -0.01 0 0 0 -0.01 0 -0.01 -0.01 -0.01 0 0 0 -0.01 -0.01 0 0 -0.01 -0.01 -0.01 0 0 -0.01 -0.01 0 0 -0.01 -0.01 0 0 -0.01 -0.01 -0.01 0 0 0 -0.01 -0.01 -0.01 0 -0.01 0 0 0 -0.01 -0.01 -0.01 0 0 0 -0.01 0 -0.01 0 -0.01 0.16 0 0 0 0 0 0 0 0 0 0 0 0 0 0 0 0 0 0 0 0 0 0 0 0 0 0 0 0 0 0 0 0 0 0 0 0 0 0 0 0 0 0 0 0 0 0 0 0 0 0 0 0 0 0 0 0 0 0 0 0 0 0 0 0 0 0 0zm0 0c0.04,0 0.08,0.04 0.08,0.08 0,0.04 -0.04,0.08 -0.08,0.08l0 -0.16zm0.34 0.16l-0.34 0 0 -0.16 0.34 0 0 0 0 0.16zm0 -0.16c0.04,0 0.08,0.04 0.08,0.08 0,0.04 -0.04,0.08 -0.08,0.08l0 -0.16zm0 0l0.16 0 0 0 0 0.01 0 0.01 0 0.01 -0.01 0 0 0.01 0 0.01 0 0 0 0.01 -0.01 0.01 0 0.01 0 0 -0.01 0.01 0 0.01 -0.01 0 0 0.01 -0.01 0 0 0.01 -0.01 0 -0.01 0.01 0 0 -0.01 0.01 0 0 -0.01 0 -0.01 0.01 -0.01 0 0 0 -0.01 0 -0.01 0.01 -0.01 0 -0.01 0 0 0 -0.01 0 0 -0.16 0 0 0 0 0 0 0 0 0 0 0 0 0 0 0 0 0 0 0 0 0 0 0 0 0 0 0 0 0 0 0 0 0 0 0 0 0 0 0 0 0 0 0 0 0 0 0 0 0 0 0 0 0 0 0 0 0 0 0 0 0 0 0 0 0 0zm0 0c0,-0.04 0.04,-0.08 0.08,-0.08 0.04,0 0.08,0.04 0.08,0.08l-0.16 0zm0.16 -0.34l0 0.34 -0.16 0 0 -0.34 0 0 0.16 0zm-0.16 0c0,-0.04 0.04,-0.08 0.08,-0.08 0.04,0 0.08,0.04 0.08,0.08l-0.16 0zm0 0l0 -0.16 0 0 0.01 0 0 0 0.01 0 0.01 0.01 0.01 0 0.01 0 0 0 0.01 0 0.01 0.01 0.01 0 0 0.01 0.01 0 0 0 0.01 0.01 0.01 0 0 0.01 0.01 0 0 0.01 0.01 0.01 0 0 0 0.01 0.01 0 0 0.01 0.01 0.01 0 0.01 0 0 0 0.01 0 0.01 0.01 0.01 0 0.01 0 0 0 0.01 -0.16 0 0 0 0 0 0 0 0 0 0 0 0 0 0 0 0 0 0 0 0 0 0 0 0 0 0 0 0 0 0 0 0 0 0 0 0 0 0 0 0 0 0 0 0 0 0 0 0 0 0 0 0 0 0 0 0 0 0 0 0 0 0 0 0 0 0 0zm0 0c-0.04,0 -0.08,-0.04 -0.08,-0.08 0,-0.04 0.04,-0.08 0.08,-0.08l0 0.16zm-2.48 -0.06c-0.01,0.04 -0.05,0.06 -0.09,0.06 -0.04,-0.01 -0.07,-0.05 -0.06,-0.1l0.15 0.04zm0.84 -1.02l0.03 0.15 -0.04 0.01 -0.04 0.01 -0.04 0.01 -0.04 0.02 -0.04 0.01 -0.03 0.02 -0.04 0.01 -0.04 0.02 -0.03 0.02 -0.03 0.02 -0.04 0.03 -0.03 0.02 -0.03 0.02 -0.03 0.03 -0.03 0.03 -0.03 0.02 -0.03 0.03 -0.03 0.03 -0.02 0.03 -0.03 0.04 -0.02 0.03 -0.02 0.03 -0.02 0.04 -0.02 0.03 -0.02 0.04 -0.02 0.03 -0.02 0.04 -0.01 0.04 -0.02 0.04 -0.01 0.04 -0.01 0.04 -0.01 0.04 -0.15 -0.04 0.01 -0.04 0.01 -0.05 0.02 -0.04 0.01 -0.05 0.02 -0.04 0.02 -0.04 0.02 -0.04 0.02 -0.04 0.02 -0.04 0.03 -0.04 0.02 -0.04 0.03 -0.04 0.03 -0.03 0.03 -0.04 0.03 -0.03 0.03 -0.03 0.03 -0.04 0.04 -0.03 0.03 -0.03 0.04 -0.02 0.03 -0.03 0.04 -0.03 0.04 -0.02 0.04 -0.02 0.04 -0.02 0.04 -0.02 0.04 -0.02 0.05 -0.02 0.04 -0.02 0.05 -0.01 0.04 -0.01 0.05 -0.01zm0 0c0.04,-0.01 0.08,0.02 0.09,0.06 0.01,0.04 -0.02,0.08 -0.06,0.09l-0.03 -0.15zm0.5 0.15c-0.04,-0.01 -0.07,-0.05 -0.06,-0.09 0.01,-0.04 0.05,-0.07 0.09,-0.06l-0.03 0.15zm1.02 0.83l-0.15 0.04 -0.01 -0.04 -0.01 -0.04 -0.02 -0.04 -0.01 -0.04 -0.01 -0.04 -0.02 -0.04 -0.02 -0.03 -0.02 -0.04 -0.02 -0.03 -0.02 -0.04 -0.02 -0.03 -0.02 -0.03 -0.03 -0.04 -0.02 -0.03 -0.03 -0.03 -0.03 -0.03 -0.03 -0.02 -0.03 -0.03 -0.03 -0.03 -0.03 -0.02 -0.03 -0.02 -0.04 -0.03 -0.03 -0.02 -0.04 -0.02 -0.03 -0.02 -0.04 -0.01 -0.04 -0.02 -0.03 -0.01 -0.04 -0.02 -0.04 -0.01 -0.04 -0.01 -0.04 -0.01 0.03 -0.15 0.05 0.01 0.04 0.01 0.05 0.01 0.04 0.02 0.04 0.02 0.05 0.01 0.04 0.02 0.04 0.03 0.04 0.02 0.04 0.02 0.04 0.03 0.03 0.03 0.04 0.02 0.03 0.03 0.04 0.03 0.03 0.03 0.03 0.04 0.03 0.03 0.03 0.04 0.03 0.03 0.03 0.04 0.02 0.04 0.03 0.04 0.02 0.04 0.02 0.04 0.02 0.04 0.02 0.04 0.02 0.04 0.01 0.05 0.02 0.04 0.01 0.05 0.01 0.04zm0 0c0.01,0.05 -0.02,0.09 -0.06,0.1 -0.04,0 -0.08,-0.02 -0.09,-0.06l0.15 -0.04zm-0.46 1.44l-0.73 -1.32 0.13 -0.08 0.73 1.32 0 0 -0.13 0.08zm0.13 -0.08c0.02,0.04 0.01,0.09 -0.03,0.11 -0.03,0.02 -0.08,0.01 -0.1,-0.03l0.13 -0.08zm-0.02 0.26l-0.12 -0.1 0 0 0 0 0 -0.01 0 0 0.01 0 0 0 0 -0.01 0 0 0 0 0 0 0 -0.01 0 0 0 0 0.01 0 0 -0.01 0 0 0 0 0 0 0 -0.01 0 0 0 0 0 0 0 -0.01 0 0 -0.01 0 0 0 0 -0.01 0 0 0 0 0 0 0 -0.01 0 0 0 0 0.13 -0.08 0.01 0.01 0 0.01 0 0.01 0.01 0 0 0.01 0 0.01 0 0.01 0.01 0.01 0 0 0 0.01 0 0.01 0 0.01 0 0.01 0 0.01 0 0 0 0.01 0 0.01 0 0.01 0 0.01 0 0.01 -0.01 0 0 0.01 0 0.01 -0.01 0.01 0 0.01 0 0 -0.01 0.01 0 0.01 0 0.01 -0.01 0 0 0.01 -0.01 0.01 0 0zm0 0c-0.03,0.03 -0.08,0.03 -0.11,0.01 -0.03,-0.03 -0.04,-0.08 -0.01,-0.11l0.12 0.1zm-0.24 0.07l0.04 -0.15 0 0 0.01 0 0 0 0 0 0 0 0.01 0 0 0 0 0 0 0 0.01 0 0 0 0 0 0.01 0 0 0 0 0 0 0 0 0 0.01 0 0 0 0 0 0 0 0.01 0 0 0 0 -0.01 0 0 0.01 0 0 0 0 0 0 0 0 -0.01 0.01 0 0 0 0 0 0.12 0.1 -0.01 0 0 0.01 -0.01 0.01 0 0 -0.01 0.01 -0.01 0 0 0.01 -0.01 0 -0.01 0.01 0 0 -0.01 0.01 -0.01 0 -0.01 0 -0.01 0.01 0 0 -0.01 0 -0.01 0 -0.01 0 0 0.01 -0.01 0 -0.01 0 -0.01 0 -0.01 0 -0.01 0 -0.01 0 0 0 -0.01 0 -0.01 0 -0.01 0 -0.01 -0.01 -0.01 0 0 0 0 0zm0 0c-0.04,-0.01 -0.07,-0.06 -0.05,-0.1 0.01,-0.04 0.05,-0.06 0.09,-0.05l-0.04 0.15zm-0.64 -0.36l0.68 0.21 -0.04 0.15 -0.69 -0.22 0 -0.14 0.05 0zm-0.05 0.14c-0.04,-0.01 -0.06,-0.05 -0.05,-0.09 0.01,-0.04 0.06,-0.07 0.1,-0.05l-0.05 0.14zm-0.68 0.07l0.68 -0.21 0.05 0.14 -0.69 0.22 0 0 -0.04 -0.15zm0.04 0.15c-0.04,0.01 -0.08,-0.01 -0.09,-0.05 -0.02,-0.04 0.01,-0.09 0.05,-0.1l0.04 0.15zm-0.24 -0.07l0.12 -0.1 0 0 0 0 0 0 0 0 0.01 0.01 0 0 0 0 0 0 0.01 0 0 0 0 0.01 0 0 0 0 0.01 0 0 0 0 0 0 0 0.01 0 0 0 0 0 0 0 0.01 0 0 0 0 0 0 0 0.01 0 0 0 0 0 0 0 0.01 0 0 0 0 0 0.01 0 0.04 0.15 -0.01 0 0 0 -0.01 0.01 -0.01 0 -0.01 0 -0.01 0 -0.01 0 -0.01 0 0 0 -0.01 0 -0.01 0 -0.01 0 -0.01 0 0 -0.01 -0.01 0 -0.01 0 -0.01 0 -0.01 0 -0.01 -0.01 0 0 -0.01 0 -0.01 -0.01 0 0 -0.01 -0.01 -0.01 0 0 -0.01 -0.01 0 -0.01 -0.01 0 0 -0.01 -0.01 -0.01 -0.01 0 0 0 0zm0 0c-0.03,-0.04 -0.02,-0.09 0.01,-0.11 0.03,-0.03 0.08,-0.02 0.11,0.01l-0.12 0.1zm-0.02 -0.26l0.13 0.08 0 0 0 0 0 0 0 0.01 0 0 0 0 -0.01 0 0 0.01 0 0 0 0 0 0 0 0.01 0 0 0 0 0 0 0 0.01 0 0 0 0 0 0 0 0.01 0 0 0 0 0.01 0 0 0.01 0 0 0 0 0 0 0 0.01 0 0 0 0 0 0 0.01 0.01 0 0 -0.12 0.1 -0.01 -0.01 0 -0.01 -0.01 0 0 -0.01 -0.01 -0.01 0 -0.01 0 0 -0.01 -0.01 0 -0.01 0 -0.01 0 -0.01 -0.01 0 0 -0.01 0 -0.01 0 -0.01 0 -0.01 0 -0.01 0 0 0 -0.01 0 -0.01 0 -0.01 0 -0.01 0 -0.01 0 0 0 -0.01 0.01 -0.01 0 -0.01 0 -0.01 0 0 0.01 -0.01 0 -0.01 0.01 -0.01 0 0zm0 0c0.02,-0.03 0.06,-0.05 0.1,-0.03 0.04,0.02 0.05,0.07 0.03,0.11l-0.13 -0.08zm0.86 -1.24l-0.73 1.32 -0.13 -0.08 0.73 -1.32 0.13 0.08 0 0zm-0.13 -0.08c0.02,-0.03 0.06,-0.05 0.1,-0.03 0.04,0.02 0.05,0.07 0.03,0.11l-0.13 -0.08zm0.19 -0.11l0 0.15 0 0 0 0 0 0 0 0 -0.01 0 0 0 0 0 0 0 -0.01 0 0 0 0 0.01 0 0 0 0 -0.01 0 0 0 0 0 0 0 -0.01 0 0 0 0 0 0 0.01 0 0 0 0 -0.01 0 0 0 0 0 0 0.01 0 0 0 0 0 0 -0.01 0 0 0.01 0 0 -0.13 -0.08 0 0 0 -0.01 0.01 -0.01 0 0 0.01 -0.01 0 0 0.01 -0.01 0 -0.01 0.01 0 0 0 0.01 -0.01 0 -0.01 0.01 0 0.01 0 0 -0.01 0.01 0 0 -0.01 0.01 0 0.01 0 0.01 -0.01 0 0 0.01 0 0.01 0 0 -0.01 0.01 0 0.01 0 0.01 0 0 0 0.01 0 0.01 0 0.01 0 0 0 0 0zm0 0c0.05,0 0.08,0.03 0.08,0.07 0,0.05 -0.03,0.08 -0.08,0.08l0 -0.15zm0.2 0.11l-0.13 0.08 0 0 0 0 -0.01 -0.01 0 0 0 0 0 0 0 0 0 -0.01 0 0 -0.01 0 0 0 0 0 0 0 0 -0.01 -0.01 0 0 0 0 0 0 0 0 0 -0.01 0 0 0 0 0 0 0 0 -0.01 0 0 -0.01 0 0 0 0 0 -0.01 0 0 0 0 0 0 0 -0.01 0 0 -0.15 0.01 0 0.01 0 0.01 0 0.01 0 0 0 0.01 0 0.01 0 0 0 0.01 0.01 0.01 0 0.01 0 0 0 0.01 0.01 0.01 0 0 0 0.01 0.01 0.01 0 0 0.01 0.01 0 0 0 0.01 0.01 0.01 0.01 0 0 0.01 0 0 0.01 0.01 0.01 0 0 0.01 0.01 0 0 0.01 0.01 0 0.01 0 0 0 0zm0 0c0.02,0.04 0.01,0.09 -0.03,0.11 -0.04,0.02 -0.08,0.01 -0.1,-0.03l0.13 -0.08zm4.56 -1.2l-1.08 0 0 -0.16 1.08 0 0 0 0 0.16zm0 -0.16c0.04,0 0.08,0.04 0.08,0.08 0,0.04 -0.04,0.08 -0.08,0.08l0 -0.16zm0.73 0.73l-0.16 0 0 0 0 -0.03 0 -0.02 0 -0.03 -0.01 -0.03 0 -0.03 -0.01 -0.03 -0.01 -0.02 -0.01 -0.03 -0.01 -0.02 -0.02 -0.03 -0.01 -0.02 -0.01 -0.03 -0.02 -0.02 -0.02 -0.02 -0.02 -0.02 -0.02 -0.02 -0.02 -0.02 -0.02 -0.02 -0.02 -0.02 -0.02 -0.01 -0.02 -0.02 -0.03 -0.01 -0.02 -0.01 -0.03 -0.02 -0.02 -0.01 -0.03 0 -0.03 -0.01 -0.03 -0.01 -0.02 0 -0.03 -0.01 -0.03 0 -0.03 0 0 -0.16 0.04 0.01 0.03 0 0.04 0 0.04 0.01 0.03 0.01 0.04 0.01 0.03 0.01 0.03 0.01 0.03 0.02 0.04 0.01 0.03 0.02 0.03 0.02 0.03 0.02 0.02 0.02 0.03 0.02 0.02 0.03 0.03 0.02 0.02 0.03 0.02 0.03 0.02 0.03 0.02 0.03 0.02 0.03 0.02 0.03 0.01 0.03 0.01 0.03 0.02 0.04 0.01 0.03 0 0.04 0.01 0.03 0 0.04 0.01 0.04 0 0.03 0 0zm0 0c0,0.05 -0.04,0.08 -0.08,0.08 -0.04,0 -0.08,-0.03 -0.08,-0.08l0.16 0zm-0.16 0.44l0 -0.44 0.16 0 0 0.44 -0.06 0.08 -0.1 -0.08zm0.16 0c0,0.05 -0.04,0.08 -0.08,0.08 -0.04,0 -0.08,-0.03 -0.08,-0.08l0.16 0zm-0.35 0.24l-0.11 -0.11 0 0 0.01 -0.01 0.01 -0.01 0.01 -0.01 0.01 -0.01 0.01 -0.01 0.01 -0.01 0.01 -0.01 0.01 0 0.01 -0.01 0.01 -0.01 0.01 -0.01 0.02 0 0.01 -0.01 0.01 -0.01 0.01 0 0.01 -0.01 0.01 -0.01 0.01 0 0.02 -0.01 0.01 0 0.01 -0.01 0.01 0 0.01 -0.01 0.02 0 0.01 -0.01 0.01 0 0.01 -0.01 0.02 0 0.01 0 0.01 -0.01 0.01 0 0.02 0 0.03 0.15 -0.01 0 -0.01 0.01 -0.01 0 -0.01 0 -0.01 0 -0.01 0.01 -0.01 0 -0.01 0 -0.01 0.01 -0.01 0 -0.01 0 -0.01 0.01 -0.01 0 -0.01 0.01 -0.01 0 -0.01 0.01 0 0 -0.01 0.01 -0.01 0 -0.01 0.01 -0.01 0 -0.01 0.01 -0.01 0 -0.01 0.01 0 0.01 -0.01 0 -0.01 0.01 -0.01 0.01 -0.01 0 0 0.01 -0.01 0.01 -0.01 0.01 0 0zm0 0c-0.03,0.03 -0.08,0.03 -0.11,0 -0.03,-0.03 -0.03,-0.08 0,-0.11l0.11 0.11zm-0.85 0.62l0.74 -0.73 0.11 0.11 -0.74 0.73 -0.11 -0.11zm0.11 0.11c-0.03,0.03 -0.08,0.03 -0.11,0 -0.03,-0.03 -0.03,-0.08 0,-0.11l0.11 0.11zm-0.16 0.35l-0.16 -0.02 0 0.01 0.01 -0.02 0 -0.01 0 -0.02 0 -0.01 0 -0.02 0.01 -0.02 0 -0.01 0 -0.02 0.01 -0.01 0 -0.02 0.01 -0.01 0 -0.02 0.01 -0.01 0.01 -0.01 0 -0.02 0.01 -0.01 0.01 -0.02 0 -0.01 0.01 -0.02 0.01 -0.01 0.01 -0.01 0 -0.02 0.01 -0.01 0.01 -0.01 0.01 -0.01 0.01 -0.02 0.01 -0.01 0.01 -0.01 0.01 -0.01 0.01 -0.01 0.01 -0.02 0.01 -0.01 0.11 0.11 -0.01 0.01 0 0.01 -0.01 0.01 -0.01 0.01 -0.01 0.01 -0.01 0.01 0 0.01 -0.01 0.01 -0.01 0.01 -0.01 0.01 0 0.01 -0.01 0.01 0 0.01 -0.01 0.01 -0.01 0.01 0 0.01 -0.01 0.01 0 0.02 -0.01 0.01 0 0.01 0 0.01 -0.01 0.01 0 0.01 -0.01 0.02 0 0.01 0 0.01 0 0.01 -0.01 0.01 0 0.01 0 0.01 0 0.02 0 0.01 0 0zm0 0c0,0.04 -0.04,0.07 -0.08,0.07 -0.05,0 -0.08,-0.04 -0.08,-0.08l0.16 0.01zm-0.19 0.33l0.03 -0.35 0.16 0.02 -0.04 0.35 0 0 -0.15 -0.02zm0.15 0.02c-0.01,0.04 -0.04,0.07 -0.09,0.07 -0.04,-0.01 -0.07,-0.05 -0.06,-0.09l0.15 0.02zm-0.06 0.23l0 -0.15 -0.07 0.1 0 -0.01 -0.01 0 0 -0.01 0 0 0 -0.01 0 0 -0.01 -0.01 0 -0.01 0 0 0 -0.01 0 0 0 -0.01 0 -0.01 0 0 0 -0.01 0 -0.01 -0.01 0 0 -0.01 0 0 0 -0.01 0 -0.01 0 0 0 -0.01 0 -0.01 0 0 0 -0.01 0 -0.01 0 0 0 -0.01 0 -0.01 0 0 0.01 -0.01 0.15 0.02 0 0 0 0.01 0 0 0 0.01 0 0 0 0.01 0 0 0 0 0 0.01 0 0 0 0.01 0 0 0 0 0 0.01 0 0 0 0.01 0 0 0 0.01 0 0 0 0 0 0.01 0 0 0 0.01 0 0 0.01 0 0 0.01 0 0 0 0.01 0 0 0 0 0 0.01 0 0 -0.07 0.1zm0.07 -0.1c0.02,0.04 0,0.08 -0.04,0.1 -0.04,0.01 -0.09,-0.01 -0.1,-0.05l0.14 -0.05zm-0.53 -0.05l0.46 0 0 0.15 -0.46 0 0 0 0 -0.15zm0 0.15c-0.04,0 -0.08,-0.03 -0.08,-0.08 0,-0.04 0.04,-0.07 0.08,-0.07l0 0.15zm-0.73 -0.73l0.16 0 0 0 0 0.03 0 0.03 0 0.03 0.01 0.03 0.01 0.03 0 0.02 0.01 0.03 0.01 0.03 0.01 0.02 0.02 0.03 0.01 0.02 0.02 0.02 0.01 0.03 0.02 0.02 0.02 0.02 0.02 0.02 0.02 0.02 0.02 0.02 0.02 0.01 0.02 0.02 0.02 0.01 0.03 0.02 0.02 0.01 0.03 0.01 0.03 0.01 0.02 0.01 0.03 0.01 0.03 0.01 0.02 0 0.03 0 0.03 0.01 0.03 0 0 0.15 -0.03 0 -0.04 0 -0.04 -0.01 -0.03 0 -0.04 -0.01 -0.03 -0.01 -0.04 -0.01 -0.03 -0.02 -0.03 -0.01 -0.04 -0.02 -0.03 -0.01 -0.03 -0.02 -0.02 -0.02 -0.03 -0.02 -0.03 -0.03 -0.02 -0.02 -0.03 -0.03 -0.02 -0.02 -0.02 -0.03 -0.02 -0.03 -0.02 -0.03 -0.02 -0.03 -0.02 -0.03 -0.01 -0.03 -0.01 -0.04 -0.02 -0.03 0 -0.04 -0.01 -0.03 -0.01 -0.04 0 -0.03 -0.01 -0.04 0 -0.04 0 0zm0 0c0,-0.04 0.04,-0.08 0.08,-0.08 0.04,0 0.08,0.04 0.08,0.08l-0.16 0zm0.16 -1.61l0 1.61 -0.16 0 0 -1.61 0 0 0.16 0zm-0.16 0c0,-0.04 0.04,-0.07 0.08,-0.07 0.04,0 0.08,0.03 0.08,0.07l-0.16 0zm0.73 -0.73l0 0.16 0 0 -0.03 0 -0.03 0 -0.03 0.01 -0.02 0 -0.03 0.01 -0.03 0.01 -0.02 0 -0.03 0.01 -0.03 0.02 -0.02 0.01 -0.03 0.01 -0.02 0.02 -0.02 0.01 -0.02 0.02 -0.02 0.02 -0.02 0.02 -0.02 0.02 -0.02 0.02 -0.02 0.02 -0.01 0.02 -0.02 0.03 -0.01 0.02 -0.02 0.03 -0.01 0.02 -0.01 0.03 -0.01 0.02 0 0.03 -0.01 0.03 -0.01 0.03 0 0.03 0 0.02 0 0.03 -0.16 0 0 -0.03 0.01 -0.04 0 -0.04 0.01 -0.03 0.01 -0.04 0 -0.03 0.02 -0.04 0.01 -0.03 0.01 -0.03 0.02 -0.03 0.02 -0.03 0.02 -0.03 0.02 -0.03 0.02 -0.03 0.02 -0.03 0.03 -0.02 0.02 -0.03 0.03 -0.02 0.03 -0.02 0.02 -0.02 0.03 -0.02 0.03 -0.02 0.04 -0.01 0.03 -0.02 0.03 -0.01 0.04 -0.01 0.03 -0.01 0.04 -0.01 0.03 -0.01 0.04 0 0.03 0 0.04 -0.01 0 0zm0 0c0.05,0 0.08,0.04 0.08,0.08 0,0.04 -0.03,0.08 -0.08,0.08l0 -0.16zm0.79 2.21l0.1 0.11 0 0 0 0 -0.01 0.01 0 0 -0.01 0.01 0 0 -0.01 0.01 0 0.01 0 0 -0.01 0.01 0 0 -0.01 0.01 0 0.01 0 0 -0.01 0.01 0 0 0 0.01 0 0.01 -0.01 0 0 0.01 0 0.01 0 0 -0.01 0.01 0 0 0 0.01 0 0.01 0 0 0 0.01 0 0 -0.01 0.01 0 0 0 0.01 0 0 -0.15 0 0 -0.01 0 -0.01 0 -0.01 0 -0.01 0 -0.01 0.01 -0.01 0 -0.01 0 -0.01 0 -0.01 0.01 -0.01 0 -0.01 0 -0.01 0.01 -0.01 0 -0.01 0 0 0.01 -0.01 0 -0.01 0.01 -0.01 0 -0.01 0.01 -0.01 0 -0.01 0.01 -0.01 0 -0.01 0.01 -0.01 0 0 0.01 -0.01 0.01 -0.01 0.01 -0.01 0 -0.01 0.01 -0.01 0.01 -0.01 0.01 0 0 0zm0 0c0.03,-0.03 0.07,-0.03 0.1,0 0.04,0.03 0.04,0.08 0,0.11l-0.1 -0.11zm0.84 -0.63l-0.74 0.74 -0.1 -0.11 0.73 -0.74 0.11 0.11zm-0.11 -0.11c0.03,-0.03 0.08,-0.03 0.11,0 0.03,0.03 0.03,0.08 0,0.11l-0.11 -0.11zm0.68 0l-0.11 0.11 0 0 -0.01 -0.01 -0.01 -0.01 -0.02 -0.01 -0.01 -0.01 -0.01 -0.01 -0.02 -0.01 -0.01 -0.01 -0.02 0 -0.01 -0.01 -0.02 0 -0.01 -0.01 -0.02 0 -0.01 0 -0.02 0 -0.01 -0.01 -0.02 0 -0.01 0 -0.02 0.01 -0.01 0 -0.02 0 -0.02 0 -0.01 0.01 -0.02 0 -0.01 0.01 -0.02 0 -0.01 0.01 -0.01 0.01 -0.02 0.01 -0.01 0.01 -0.01 0.01 -0.02 0.01 -0.01 0.01 -0.11 -0.11 0.02 -0.02 0.02 -0.01 0.02 -0.02 0.02 -0.01 0.02 -0.01 0.02 -0.02 0.02 -0.01 0.02 -0.01 0.02 0 0.03 -0.01 0.02 -0.01 0.02 0 0.02 -0.01 0.03 0 0.02 0 0.02 0 0.02 0 0.03 0 0.02 0 0.02 0.01 0.03 0 0.02 0.01 0.02 0.01 0.02 0 0.02 0.01 0.02 0.01 0.03 0.02 0.02 0.01 0.02 0.01 0.01 0.02 0.02 0.01 0.02 0.02 0 0zm0 0c0.03,0.03 0.03,0.08 0,0.11 -0.03,0.03 -0.08,0.03 -0.11,0l0.11 -0.11zm0 0.68l-0.11 -0.11 0 0 0.01 -0.01 0.01 -0.02 0.01 -0.01 0.01 -0.01 0.01 -0.02 0.01 -0.01 0.01 -0.01 0 -0.02 0.01 -0.01 0 -0.02 0.01 -0.01 0 -0.02 0 -0.02 0 -0.01 0.01 -0.02 0 -0.01 0 -0.02 -0.01 -0.01 0 -0.02 0 -0.01 0 -0.02 -0.01 -0.01 0 -0.02 -0.01 -0.01 0 -0.02 -0.01 -0.01 -0.01 -0.02 -0.01 -0.01 -0.01 -0.01 -0.01 -0.02 -0.01 -0.01 -0.01 -0.01 0.11 -0.11 0.02 0.02 0.01 0.02 0.02 0.01 0.01 0.02 0.01 0.02 0.02 0.02 0.01 0.03 0.01 0.02 0 0.02 0.01 0.02 0.01 0.02 0 0.03 0.01 0.02 0 0.02 0 0.03 0 0.02 0 0.02 0 0.02 0 0.03 -0.01 0.02 0 0.02 -0.01 0.02 -0.01 0.03 0 0.02 -0.01 0.02 -0.01 0.02 -0.02 0.02 -0.01 0.02 -0.01 0.02 -0.02 0.02 -0.01 0.02 -0.02 0.02 0 0zm0 0c-0.03,0.03 -0.08,0.03 -0.11,0 -0.03,-0.03 -0.03,-0.08 0,-0.11l0.11 0.11zm-0.85 0.63l0.74 -0.74 0.11 0.11 -0.74 0.73 0 0 -0.11 -0.1zm0.11 0.1c-0.03,0.03 -0.08,0.03 -0.11,0 -0.03,-0.03 -0.03,-0.07 0,-0.1l0.11 0.1zm-0.28 0.14l-0.02 -0.15 0.01 0 0 0 0.01 0 0 0 0.01 -0.01 0 0 0.01 0 0 0 0.01 0 0 0 0.01 0 0.01 -0.01 0 0 0.01 0 0.01 0 0 -0.01 0.01 0 0 0 0.01 0 0.01 -0.01 0 0 0.01 0 0.01 -0.01 0 0 0.01 -0.01 0 0 0.01 0 0.01 -0.01 0 0 0.01 -0.01 0 0 0.01 -0.01 0 0 0.11 0.1 0 0.01 -0.01 0.01 -0.01 0.01 -0.01 0.01 -0.01 0 -0.01 0.01 -0.01 0.01 0 0 -0.01 0.01 -0.01 0 -0.01 0.01 -0.01 0 -0.01 0.01 -0.01 0 -0.01 0.01 -0.01 0 -0.01 0.01 -0.01 0 -0.01 0 0 0.01 -0.01 0 -0.01 0 -0.01 0.01 -0.01 0 -0.01 0 -0.01 0 -0.01 0.01 -0.01 0 -0.01 0 -0.01 0 -0.01 0 -0.01 0 0.01 0zm-0.01 0c-0.04,0 -0.07,-0.03 -0.08,-0.07 0,-0.04 0.03,-0.08 0.08,-0.08l0 0.15zm-0.37 -0.11l0.36 -0.04 0.02 0.15 -0.36 0.04 0 0 -0.02 -0.15zm0.02 0.15c-0.05,0.01 -0.08,-0.02 -0.09,-0.07 0,-0.04 0.03,-0.08 0.07,-0.08l0.02 0.15zm-0.21 -0.21l0.15 0.02 0 0 0 0 0 0 0 0.01 0 0 0 0 0 0 0 0.01 0 0 0.01 0 0 0 0 0 0 0 0 0.01 0 0 0 0 0 0 0 0 0 0 0 0 0 0 0.01 0 0 0.01 0 0 0 0 0 0 0 0 0.01 0 0 0 0 0 0 0 0.01 0 0 0 0.02 0.15 -0.01 0 -0.01 0 -0.02 0 -0.01 0 -0.01 0 -0.01 0 -0.01 0 -0.01 -0.01 -0.01 0 -0.01 -0.01 -0.01 0 -0.01 0 -0.01 -0.01 -0.01 -0.01 0 0 -0.01 -0.01 -0.01 -0.01 0 -0.01 -0.01 -0.01 -0.01 -0.01 0 0 -0.01 -0.02 0 -0.01 0 0 -0.01 -0.02 0 -0.01 0 -0.01 0 -0.01 0 -0.01 0 -0.01 0 -0.01 0 -0.01 0 0zm0 0c0,-0.04 0.04,-0.07 0.08,-0.07 0.05,0.01 0.08,0.04 0.07,0.09l-0.15 -0.02zm0.19 -0.34l-0.04 0.36 -0.15 -0.02 0.04 -0.36 0.15 0.01 0 0.01zm-0.15 -0.02c0,-0.04 0.04,-0.07 0.08,-0.07 0.05,0.01 0.08,0.05 0.07,0.09l-0.15 -0.02zm0.28 -1.55l-1.08 0 0 -0.15 1.08 0 0 0 0 0.15zm0 -0.15c0.04,0 0.08,0.03 0.08,0.07 0,0.05 -0.04,0.08 -0.08,0.08l0 -0.15zm0.22 0.22l-0.15 0 0 0 0 -0.01 0 0 0 0 0 0 0 -0.01 0 0 0 0 -0.01 -0.01 0 0 0 0 0 -0.01 0 0 0 0 -0.01 0 0 -0.01 0 0 0 0 -0.01 0 0 -0.01 0 0 0 0 -0.01 0 0 0 0 0 -0.01 0 0 -0.01 0 0 0 0 -0.01 0 0 0 0 0 -0.01 0 0 -0.15 0.01 0 0.01 0 0.02 0 0.01 0 0.01 0 0.01 0.01 0.01 0 0.01 0 0.01 0.01 0.01 0 0.01 0.01 0.01 0 0 0.01 0.01 0.01 0.01 0 0.01 0.01 0.01 0.01 0 0.01 0.01 0.01 0.01 0 0 0.01 0.01 0.01 0 0.01 0.01 0.01 0 0.01 0 0.01 0.01 0.01 0 0.01 0 0.01 0 0.02 0 0.01 0 0.01 0 0zm0 0c0,0.04 -0.03,0.08 -0.07,0.08 -0.05,0 -0.08,-0.04 -0.08,-0.08l0.15 0zm-0.22 0.22l0 -0.15 0 0 0.01 0 0 0 0 -0.01 0.01 0 0 0 0 0 0 0 0.01 0 0 0 0 0 0.01 0 0 -0.01 0 0 0 0 0.01 0 0 0 0 -0.01 0 0 0.01 0 0 0 0 -0.01 0 0 0 0 0 -0.01 0.01 0 0 0 0 0 0 -0.01 0 0 0 0 0 -0.01 0 0 0.15 0 0 0.01 0 0.01 0 0.01 0 0.01 0 0.01 -0.01 0.01 0 0.02 0 0.01 -0.01 0 0 0.01 -0.01 0.01 0 0.01 -0.01 0.01 -0.01 0.01 0 0.01 -0.01 0.01 -0.01 0 -0.01 0.01 0 0.01 -0.01 0 -0.01 0.01 -0.01 0 -0.01 0.01 -0.01 0 -0.01 0.01 -0.01 0 -0.01 0 -0.01 0.01 -0.01 0 -0.02 0 -0.01 0 -0.01 0 0 0zm0 0c-0.04,0 -0.08,-0.03 -0.08,-0.08 0,-0.04 0.04,-0.07 0.08,-0.07l0 0.15zm-1.08 -0.15l1.08 0 0 0.15 -1.08 0 0 0 0 -0.15zm0 0.15c-0.04,0 -0.08,-0.03 -0.08,-0.08 0,-0.04 0.04,-0.07 0.08,-0.07l0 0.15zm-0.22 -0.22l0.15 0 0 0 0 0 0 0.01 0 0 0 0 0 0.01 0 0 0.01 0 0 0 0 0.01 0 0 0 0 0 0.01 0 0 0.01 0 0 0 0 0.01 0 0 0.01 0 0 0 0 0 0 0.01 0.01 0 0 0 0 0 0.01 0 0 0 0 0 0.01 0 0 0 0 0.01 0 0 0.01 0 0 0.15 -0.01 0 -0.01 0 -0.02 0 -0.01 0 -0.01 -0.01 -0.01 0 -0.01 0 -0.01 -0.01 -0.01 0 -0.01 -0.01 -0.01 0 -0.01 -0.01 0 0 -0.01 -0.01 -0.01 -0.01 -0.01 0 -0.01 -0.01 0 -0.01 -0.01 -0.01 -0.01 -0.01 0 -0.01 -0.01 -0.01 0 -0.01 -0.01 0 0 -0.01 0 -0.02 -0.01 -0.01 0 -0.01 0 -0.01 0 -0.01 0 -0.01 0 -0.01 0 0zm0 0c0,-0.04 0.03,-0.08 0.07,-0.08 0.05,0 0.08,0.04 0.08,0.08l-0.15 0zm0.22 -0.22l0 0.15 0 0 -0.01 0 0 0 0 0 0 0 -0.01 0 0 0 0 0.01 -0.01 0 0 0 0 0 -0.01 0 0 0 0 0 0 0.01 -0.01 0 0 0 0 0 0 0.01 -0.01 0 0 0 0 0 0 0.01 0 0 0 0 0 0.01 -0.01 0 0 0 0 0.01 0 0 0 0 0 0 0 0.01 -0.15 0 0 -0.01 0 -0.01 0 -0.02 0 -0.01 0 -0.01 0.01 -0.01 0 -0.01 0 -0.01 0.01 -0.01 0 -0.01 0.01 -0.01 0 -0.01 0.01 0 0.01 -0.01 0 -0.01 0.01 -0.01 0.01 -0.01 0.01 0 0.01 -0.01 0 -0.01 0.01 0 0.01 -0.01 0.01 0 0.01 -0.01 0.01 0 0.01 0 0.01 -0.01 0.01 0 0.01 0 0.02 0 0.01 0 0.01 0 0 0zm0 0c0.04,0 0.08,0.03 0.08,0.07 0,0.05 -0.04,0.08 -0.08,0.08l0 -0.15zm0.67 0.68l-0.67 0 0 -0.15 0.67 0 0 0 0 0.15zm0 -0.15c0.04,0 0.08,0.03 0.08,0.07 0,0.05 -0.04,0.08 -0.08,0.08l0 -0.15zm0.22 0.22l-0.15 0 0 0 0 -0.01 0 0 0 0 0 0 0 -0.01 0 0 -0.01 0 0 -0.01 0 0 0 0 0 -0.01 0 0 -0.01 0 0 0 0 -0.01 0 0 0 0 -0.01 0 0 -0.01 0 0 0 0 -0.01 0 0 0 0 0 -0.01 0 0 -0.01 0 0 -0.01 0 0 0 0 0 -0.01 0 0 0 0 -0.15 0.01 0 0.01 0 0.02 0 0.01 0 0.01 0 0.01 0.01 0.01 0 0.01 0 0.01 0.01 0.01 0 0.01 0.01 0.01 0 0 0.01 0.01 0.01 0.01 0 0.01 0.01 0.01 0.01 0 0.01 0.01 0.01 0.01 0 0 0.01 0.01 0.01 0 0.01 0.01 0.01 0 0.01 0 0.01 0.01 0.01 0 0.01 0 0.01 0 0.02 0 0.01 0 0.01 0 0zm0 0c0,0.04 -0.03,0.08 -0.07,0.08 -0.05,0 -0.08,-0.04 -0.08,-0.08l0.15 0zm-0.22 0.22l0 -0.15 0 0 0 0 0.01 0 0 -0.01 0 0 0.01 0 0 0 0 0 0.01 0 0 0 0 0 0.01 0 0 -0.01 0 0 0 0 0.01 0 0 0 0 -0.01 0 0 0.01 0 0 0 0 -0.01 0 0 0 0 0 -0.01 0 0 0.01 0 0 -0.01 0 0 0 0 0 0 0 -0.01 0 0 0.15 0 0 0.01 0 0.01 0 0.01 0 0.01 0 0.01 -0.01 0.01 0 0.01 0 0.01 -0.01 0.01 0 0.01 -0.01 0.01 0 0.01 -0.01 0.01 -0.01 0.01 0 0.01 -0.01 0.01 -0.01 0 -0.01 0.01 -0.01 0.01 0 0 -0.01 0.01 -0.01 0 -0.01 0.01 -0.01 0 -0.01 0.01 -0.01 0 -0.01 0 -0.01 0.01 -0.01 0 -0.02 0 -0.01 0 -0.01 0 0 0zm0 0c-0.04,0 -0.08,-0.03 -0.08,-0.08 0,-0.04 0.04,-0.07 0.08,-0.07l0 0.15zm-0.67 -0.15l0.67 0 0 0.15 -0.67 0 0 0 0 -0.15zm0 0.15c-0.04,0 -0.08,-0.03 -0.08,-0.08 0,-0.04 0.04,-0.07 0.08,-0.07l0 0.15zm-0.22 -0.22l0.15 0 0 0 0 0 0 0.01 0 0 0 0 0 0.01 0 0 0.01 0 0 0 0 0.01 0 0 0 0 0 0.01 0 0 0.01 0 0 0 0 0 0 0.01 0.01 0 0 0 0 0 0 0.01 0.01 0 0 0 0 0 0.01 0 0 0 0 0 0.01 0 0 0 0 0 0 0.01 0.01 0 0 0.15 -0.01 0 -0.01 0 -0.02 0 -0.01 0 -0.01 -0.01 -0.01 0 -0.01 0 -0.01 -0.01 -0.01 0 -0.01 -0.01 -0.01 0 -0.01 -0.01 0 0 -0.01 -0.01 -0.01 -0.01 -0.01 0 -0.01 -0.01 0 -0.01 -0.01 -0.01 -0.01 -0.01 0 -0.01 -0.01 -0.01 0 -0.01 -0.01 -0.01 0 0 0 -0.02 -0.01 -0.01 0 -0.01 0 -0.01 0 -0.01 0 -0.01 0 -0.01 0 0zm0 0c0,-0.04 0.03,-0.08 0.07,-0.08 0.05,0 0.08,0.04 0.08,0.08l-0.15 0zm0.22 -0.22l0 0.15 0 0 -0.01 0 0 0 0 0 -0.01 0 0 0 0 0 0 0.01 -0.01 0 0 0 0 0 -0.01 0 0 0 0 0 0 0.01 -0.01 0 0 0 0 0 0 0.01 -0.01 0 0 0 0 0 0 0.01 0 0 0 0 0 0 -0.01 0.01 0 0 0 0.01 0 0 0 0 0 0 0 0.01 -0.15 0 0 -0.01 0 -0.01 0 -0.02 0 -0.01 0 -0.01 0.01 -0.01 0 -0.01 0 -0.01 0.01 -0.01 0 -0.01 0.01 -0.01 0 -0.01 0.01 0 0.01 -0.01 0 -0.01 0.01 -0.01 0.01 -0.01 0.01 0 0.01 -0.01 0 -0.01 0.01 0 0.01 -0.01 0.01 0 0.01 -0.01 0.01 0 0.01 0 0.01 -0.01 0.01 0 0.01 0 0.02 0 0.01 0 0.01 0 0 0zm0 0c0.04,0 0.08,0.03 0.08,0.07 0,0.05 -0.04,0.08 -0.08,0.08l0 -0.15zm0.26 0.68l-0.26 0 0 -0.15 0.26 0 0 0 0 0.15zm0 -0.15c0.04,0 0.08,0.03 0.08,0.07 0,0.05 -0.04,0.08 -0.08,0.08l0 -0.15zm0.22 0.22l-0.15 0 0 0 0 -0.01 0 0 0 0 0 -0.01 0 0 -0.01 0 0 0 0 -0.01 0 0 0 0 0 -0.01 0 0 -0.01 0 0 0 0 -0.01 0 0 -0.01 0 0 0 0 -0.01 0 0 -0.01 0 0 0 0 0 0 0 -0.01 -0.01 0 0 0 0 -0.01 0 0 0 0 0 -0.01 0 0 0 0 -0.15 0.01 0 0.01 0 0.01 0 0.02 0 0.01 0 0.01 0.01 0.01 0 0.01 0 0.01 0.01 0.01 0 0 0.01 0.01 0 0.01 0.01 0.01 0.01 0.01 0 0.01 0.01 0 0.01 0.01 0.01 0.01 0.01 0 0 0.01 0.01 0.01 0.01 0 0.01 0 0.01 0.01 0.01 0 0.01 0.01 0.01 0 0.01 0 0.01 0 0.02 0 0.01 0 0.01 0 0zm0 0c0,0.04 -0.03,0.08 -0.08,0.08 -0.04,0 -0.07,-0.04 -0.07,-0.08l0.15 0zm-0.22 0.22l0 -0.16 0 0 0 0 0.01 0 0 0 0 0 0.01 0 0 0 0 0 0.01 0 0 0 0 0 0 0 0.01 -0.01 0 0 0 0 0 0 0.01 0 0 -0.01 0 0 0 0 0.01 0 0 -0.01 0 0 0 0 0 -0.01 0 0 0 0 0.01 -0.01 0 0 0 0 0 0 0 -0.01 0 0 0.15 0 0 0.01 0 0.01 0 0.01 0 0.01 0 0.01 -0.01 0.01 0 0.01 -0.01 0.01 0 0.01 0 0.01 -0.01 0.01 -0.01 0.01 0 0.01 -0.01 0.01 -0.01 0.01 0 0 -0.01 0.01 -0.01 0.01 -0.01 0.01 -0.01 0 0 0.01 -0.01 0 -0.01 0.01 -0.01 0 -0.01 0.01 -0.01 0 -0.01 0 -0.01 0.01 -0.02 0 -0.01 0 -0.01 0 -0.01 0 0 0zm0 0c-0.04,0 -0.08,-0.03 -0.08,-0.08 0,-0.04 0.04,-0.08 0.08,-0.08l0 0.16zm-0.26 -0.16l0.26 0 0 0.16 -0.26 0 0 0 0 -0.16zm0 0.16c-0.04,0 -0.08,-0.03 -0.08,-0.08 0,-0.04 0.04,-0.08 0.08,-0.08l0 0.16zm-0.22 -0.22l0.15 0 0 0 0 0 0 0.01 0 0 0 0 0 0 0 0.01 0.01 0 0 0 0 0.01 0 0 0 0 0 0.01 0 0 0.01 0 0 0 0 0 0 0.01 0.01 0 0 0 0 0 0 0.01 0.01 0 0 0 0 0 0.01 0 0 0 0 0 0.01 0 0 0 0 0 0 0 0.01 0 0 0.16 -0.01 0 -0.01 0 -0.02 0 -0.01 0 -0.01 -0.01 -0.01 0 -0.01 0 -0.01 -0.01 -0.01 0 -0.01 -0.01 -0.01 0 -0.01 -0.01 0 0 -0.01 -0.01 -0.01 -0.01 -0.01 0 -0.01 -0.01 0 -0.01 -0.01 -0.01 -0.01 -0.01 0 -0.01 -0.01 -0.01 0 -0.01 -0.01 -0.01 0 -0.01 0 -0.01 -0.01 -0.01 0 -0.01 0 -0.01 0 -0.01 0 -0.01 0 -0.01 0 0zm0 0c0,-0.04 0.03,-0.08 0.07,-0.08 0.05,0 0.08,0.04 0.08,0.08l-0.15 0zm0.22 -0.22l0 0.15 0 0 -0.01 0 0 0 0 0 0 0 -0.01 0 0 0 0 0 -0.01 0.01 0 0 0 0 -0.01 0 0 0 0 0 0 0.01 -0.01 0 0 0 0 0 0 0.01 -0.01 0 0 0 0 0 0 0.01 0 0 0 0 0 0.01 -0.01 0 0 0 0 0 0 0.01 0 0 0 0 0 0.01 -0.15 0 0 -0.01 0 -0.01 0 -0.02 0 -0.01 0 -0.01 0.01 -0.01 0 -0.01 0 -0.01 0.01 -0.01 0 -0.01 0.01 -0.01 0 -0.01 0.01 0 0.01 -0.01 0 -0.01 0.01 -0.01 0.01 -0.01 0.01 0 0.01 -0.01 0 -0.01 0.01 0 0.01 -0.01 0.01 0 0.01 -0.01 0.01 0 0.01 0 0.01 -0.01 0.01 0 0.01 0 0.02 0 0.01 0 0.01 0 0 0zm0 0c0.04,0 0.08,0.03 0.08,0.07 0,0.05 -0.04,0.08 -0.08,0.08l0 -0.15z"/>
  </g>
 </g>
 <g id="Layer_x0020_1_1">
 </g>
</svg>
