<?xml version="1.0" encoding="UTF-8"?>
<!DOCTYPE svg PUBLIC "-//W3C//DTD SVG 1.1//EN" "http://www.w3.org/Graphics/SVG/1.1/DTD/svg11.dtd">
<!-- Creator: CorelDRAW 2021 (64-Bit) -->
<?xml-stylesheet href="sanoito-icon.css" type="text/css"?>
<svg xmlns="http://www.w3.org/2000/svg" xml:space="preserve" width="798px" height="64px" version="1.1" style="shape-rendering:geometricPrecision; text-rendering:geometricPrecision; image-rendering:optimizeQuality; fill-rule:evenodd; clip-rule:evenodd"
viewBox="0 0 490.47 39.06"
 xmlns:xlink="http://www.w3.org/1999/xlink"
 xmlns:xodm="http://www.corel.com/coreldraw/odm/2003">
 <g id="Layer_x0020_1">
  <metadata id="CorelCorpID_0Corel-Layer"/>
  <line id="Oval" class="fil0 str0" x1="416.64" y1="9.72" x2="409.94" y2= "9.72" />
  <line id="Oval_0" class="fil0 str0" x1="411.98" y1="26.96" x2="405.58" y2= "26.96" />
  <line id="Oval_1" class="fil0 str0" x1="416.64" y1="18.5" x2="405.54" y2= "18.5" />
  <path id="Oval_2" class="fil1 str0" d="M423.88 36.79c4.48,0 7.01,-2.52 7.01,-7.01 0,-4.48 -2.53,-7 -7.01,-7 -4.49,0 -7.01,2.52 -7.01,7 0,4.49 2.52,7.01 7.01,7.01z"/>
  <line id="Oval_3" class="fil0 str0" x1="432.16" y1="38.07" x2="429.14" y2= "35.04" />
  <path id="Oval_4" class="fil0 str0" d="M427.1 17.43c0,-4.08 -0.12,-7.03 -0.36,-10.86 -0.18,-2.81 -2.4,-5.04 -5.21,-5.24 -3.3,-0.22 -6.49,-0.34 -10.44,-0.34 -1.3,0 -2.52,0.01 -3.69,0.04 -1.17,0.02 -2.3,0.41 -3.23,1.12 -2.89,2.24 -4.8,4.15 -6.92,6.86 -1.39,1.8 -2.11,4.02 -2.15,6.29 -0.01,1.05 -0.02,2.1 -0.02,3.16 0,4.07 0.12,8.05 0.36,11.89 0.18,2.81 2.41,5.04 5.22,5.23 2.42,0.17 7.3,0.28 9.96,0.32"/>
  <path id="Oval_5" class="fil0 str0" d="M420.64 28.21l3.1 4.16c3.14,-5.44 4.43,-7.22 8.42,-9.89"/>
  <line id="Oval_6" class="fil0 str0" x1="359.11" y1="9.72" x2="352.42" y2= "9.72" />
  <line id="Oval_7" class="fil0 str0" x1="354.46" y1="26.96" x2="348.05" y2= "26.96" />
  <line id="Oval_8" class="fil0 str0" x1="359.11" y1="18.5" x2="348.02" y2= "18.5" />
  <path id="Oval_9" class="fil1 str0" d="M366.35 36.79c4.49,0 7.01,-2.52 7.01,-7.01 0,-4.48 -2.52,-7 -7.01,-7 -4.48,0 -7,2.52 -7,7 0,4.49 2.52,7.01 7,7.01z"/>
  <line id="Oval_10" class="fil0 str0" x1="374.63" y1="38.07" x2="371.61" y2= "35.04" />
  <path id="Oval_11" class="fil0 str0" d="M369.57 17.43c0,-4.08 -0.12,-7.03 -0.36,-10.86 -0.17,-2.81 -2.4,-5.04 -5.21,-5.24 -3.3,-0.22 -6.48,-0.34 -10.44,-0.34 -1.3,0 -2.52,0.01 -3.69,0.04 -1.17,0.02 -2.3,0.41 -3.23,1.12 -2.89,2.24 -4.8,4.15 -6.91,6.86 -1.39,1.8 -2.12,4.02 -2.15,6.29 -0.02,1.05 -0.03,2.1 -0.03,3.16 0,4.07 0.13,8.05 0.37,11.89 0.17,2.81 2.4,5.04 5.21,5.23 2.43,0.17 7.31,0.28 9.96,0.32"/>
  <g>
   <path id="Oval_12" class="fil1" d="M308.82 29.15l0 1.84 0 -1.84zm0 -9.22l0 1.85 0 -1.85zm2.29 2.79c0,0 -0.94,-1.06 -2.48,-0.93 -1.54,0.13 -2.28,1.08 -2.28,2.03 0,2.75 4.76,0.84 4.76,3.67 0,1.46 -3.16,2.49 -5.04,0.78l5.04 -5.55zm6.96 2.74c0,-6.06 -3.41,-9.47 -9.48,-9.47 -5.5,0 -9.47,3.92 -9.47,9.47 0,6.07 3.41,9.48 9.47,9.48 5.5,0 9.48,-3.92 9.48,-9.48z"/>
   <path id="_1" class="fil0 str0" d="M308.82 29.15l0 1.84m0 -11.06l0 1.85m2.29 0.94c0,0 -0.94,-1.06 -2.48,-0.93 -1.54,0.13 -2.28,1.08 -2.28,2.03 0,2.75 4.76,0.84 4.76,3.67 0,1.46 -3.16,2.49 -5.04,0.78m12 -2.81c0,-6.06 -3.41,-9.47 -9.48,-9.47 -5.5,0 -9.47,3.92 -9.47,9.47 0,6.07 3.41,9.48 9.47,9.48 5.5,0 9.48,-3.92 9.48,-9.48z"/>
  </g>
  <path id="Oval_13" class="fil0 str0" d="M318 14.94c0.05,-0.5 0.07,-1 0.07,-1.5 -0.12,-8.42 -9.58,-16.23 -18.54,-5.24 -8.96,-10.99 -18.42,-3.18 -18.54,5.24 0,12.52 14.95,22.79 18.52,22.82"/>
  <path id="Oval_14" class="fil1 str0" d="M116.42 9.9c-2.88,2.99 -4.65,7.06 -4.65,11.54 0,9.18 7.44,16.63 16.63,16.63 9.18,0 16.63,-7.45 16.63,-16.63 0,-6.21 -3.4,-11.62 -8.44,-14.47 -0.09,3.67 -1.72,6.96 -4.27,9.25 0.14,-0.74 0.21,-1.51 0.21,-2.3 0,-7.17 -5.81,-12.93 -12.97,-12.93 0.11,3.27 -1,6.43 -3.14,8.91z"/>
  <path id="Oval_15" class="fil1 str0" d="M80.86 9.75l-3.32 -1.82c-0.33,-0.18 -0.45,-0.59 -0.27,-0.91 0.06,-0.11 0.16,-0.21 0.27,-0.27l3.32 -1.82c0.11,-0.06 0.2,-0.16 0.27,-0.27l1.82 -3.32c0.18,-0.32 0.59,-0.45 0.91,-0.27 0.12,0.07 0.21,0.16 0.27,0.27l1.82 3.32c0.06,0.11 0.16,0.21 0.27,0.27l3.32 1.82c0.33,0.18 0.45,0.59 0.27,0.91 -0.07,0.12 -0.16,0.21 -0.27,0.27l-3.32 1.82c-0.11,0.07 -0.21,0.16 -0.27,0.27l-1.82 3.32c-0.18,0.33 -0.59,0.45 -0.91,0.27 -0.12,-0.06 -0.21,-0.15 -0.27,-0.27l-1.82 -3.32c-0.07,-0.11 -0.16,-0.2 -0.27,-0.27z"/>
  <path id="Oval_16" class="fil1 str0" d="M62.23 27.97l-8.52 -4.68c-0.84,-0.46 -1.14,-1.51 -0.68,-2.35 0.16,-0.28 0.39,-0.52 0.68,-0.68l8.52 -4.67c0.29,-0.16 0.53,-0.4 0.69,-0.69l4.67 -8.52c0.46,-0.83 1.51,-1.14 2.35,-0.68 0.28,0.16 0.52,0.39 0.68,0.68l4.67 8.52c0.16,0.29 0.4,0.53 0.69,0.69l8.52 4.67c0.83,0.46 1.14,1.51 0.68,2.35 -0.16,0.29 -0.39,0.52 -0.68,0.68l-8.52 4.68c-0.29,0.15 -0.53,0.39 -0.69,0.68l-4.67 8.52c-0.46,0.84 -1.51,1.14 -2.35,0.69 -0.28,-0.16 -0.52,-0.4 -0.68,-0.69l-4.67 -8.52c-0.16,-0.29 -0.4,-0.53 -0.69,-0.68z"/>
  <line id="Oval_17" class="fil0 str0" x1="173.34" y1="4.88" x2="182.24" y2= "4.88" />
  <line id="Oval_18" class="fil0 str0" x1="188.62" y1="4.88" x2="197.55" y2= "4.88" />
  <path id="Oval_19" class="fil1 str0" d="M170.13 1.66c1.77,0 3.21,1.44 3.21,3.22 0,1.77 -1.44,3.22 -3.21,3.22 -1.78,0 -3.22,-1.45 -3.22,-3.22 0,-1.78 1.44,-3.22 3.22,-3.22z"/>
  <path id="Oval_20" class="fil1 str0" d="M200.76 1.66c-1.77,0 -3.21,1.44 -3.21,3.22 0,1.77 1.44,3.22 3.21,3.22 1.78,0 3.22,-1.45 3.22,-3.22 0,-1.78 -1.44,-3.22 -3.22,-3.22z"/>
  <path id="Oval_21" class="fil1 str0" d="M183.27 1.69l4.32 0c0.57,0 1.03,0.46 1.03,1.02l0 4.33c0,0.56 -0.46,1.03 -1.03,1.03l-4.32 0c-0.57,0 -1.03,-0.47 -1.03,-1.03l0 -4.33c0,-0.56 0.46,-1.02 1.03,-1.02z"/>
  <path id="Oval_22" class="fil1 str0" d="M167.93 17.01l4.33 0c0.56,0 1.02,0.46 1.02,1.02l0 4.33c0,0.56 -0.46,1.03 -1.02,1.03l-4.33 0c-0.56,0 -1.03,-0.47 -1.03,-1.03l0 -4.33c0,-0.56 0.47,-1.02 1.03,-1.02z"/>
  <path id="Oval_23" class="fil1 str0" d="M202.94 17.01l-4.32 0c-0.57,0 -1.03,0.46 -1.03,1.02l0 4.33c0,0.56 0.46,1.03 1.03,1.03l4.32 0c0.57,0 1.03,-0.47 1.03,-1.03l0 -4.33c0,-0.56 -0.46,-1.02 -1.03,-1.02z"/>
  <path class="fil2" d="M171.4 17.21c-0.12,0.53 -0.64,0.87 -1.17,0.76 -0.53,-0.11 -0.87,-0.64 -0.76,-1.17 0.67,-3.14 2.24,-5.95 4.43,-8.13 2.19,-2.19 5,-3.76 8.14,-4.42 0.53,-0.12 1.05,0.22 1.17,0.76 0.11,0.53 -0.23,1.05 -0.76,1.16 -2.76,0.59 -5.23,1.97 -7.16,3.89 -1.92,1.92 -3.31,4.39 -3.89,7.15z"/>
  <path class="fil2" d="M188.42 6.17c-0.53,-0.11 -0.87,-0.63 -0.76,-1.16 0.11,-0.53 0.63,-0.88 1.16,-0.77 3.15,0.67 5.96,2.24 8.14,4.42 2.2,2.19 3.77,5 4.44,8.14 0.11,0.53 -0.23,1.06 -0.76,1.17 -0.53,0.11 -1.05,-0.23 -1.17,-0.76 -0.58,-2.76 -1.97,-5.23 -3.89,-7.15 -1.93,-1.93 -4.4,-3.31 -7.16,-3.89z"/>
  <path id="Oval_24" class="fil1 str0" d="M187.09 17.78l9.3 16.79c0.38,0.7 0.31,1.51 -0.19,2.13 -0.51,0.61 -1.29,0.84 -2.05,0.61l-8.72 -2.75 -8.72 2.75c-0.76,0.23 -1.54,0 -2.05,-0.61 -0.5,-0.62 -0.57,-1.43 -0.19,-2.13l9.3 -16.79c0.34,-0.62 0.95,-0.98 1.66,-0.98 0.71,0 1.32,0.36 1.66,0.98z"/>
  <path id="Oval_25" class="fil1 str0" d="M232.25 0.99l13.7 0c4.57,0 8.31,3.74 8.31,8.3l0 5.61c-1.53,0.31 -2.98,1.06 -4.16,2.24l-9.39 9.38c-1.32,1.33 -2.25,3.19 -2.36,5.03l-0.5 4.42c-0.09,0.74 0,1.45 0.23,2.1l-5.83 0c-4.57,0 -8.31,-3.74 -8.31,-8.31l0 -20.47c0,-4.57 3.74,-8.3 8.31,-8.3z"/>
  <path id="Oval_26" class="fil1 str0" d="M241.46 31.77c0.05,-0.96 0.54,-2.13 1.45,-3.04l9.39 -9.39c1.99,-1.99 5.24,-1.99 7.24,0 1.99,1.99 1.99,5.25 0,7.24l-9.39 9.39c-0.91,0.91 -2.1,1.4 -3.03,1.45l-4.61 0.52c-0.97,0.11 -1.68,-0.62 -1.57,-1.62l0.52 -4.55z"/>
  <path id="Oval_27" class="fil1 str0" d="M230.29 10.94l13.79 0c1.02,0 1.84,0.83 1.84,1.84 0,1.02 -0.82,1.84 -1.84,1.84l-13.79 0c-1.01,0 -1.84,-0.82 -1.84,-1.84 0,-1.01 0.83,-1.84 1.84,-1.84z"/>
  <path id="Oval_28" class="fil1 str0" d="M230.29 17.69l8.56 0c1.01,0 1.84,0.82 1.84,1.83 0,1.01 -0.83,1.85 -1.84,1.85l-8.56 0c-1.01,0 -1.84,-0.83 -1.84,-1.84 0,-1.02 0.82,-1.84 1.84,-1.84z"/>
  <path id="Oval_29" class="fil1 str0" d="M230.29 24.43l3.33 0c1.01,0 1.84,0.82 1.84,1.84 0,1.01 -0.83,1.84 -1.84,1.84l-3.33 0c-1.01,0 -1.84,-0.83 -1.84,-1.84 0,-1.02 0.83,-1.84 1.84,-1.84z"/>
  <line id="Oval_30" class="fil0 str0" x1="470.66" y1="23.73" x2="470.66" y2= "4.82" />
  <polyline id="Oval_31" class="fil0 str0" points="478.98,15.41 470.66,23.73 462.34,15.41 "/>
  <path id="Oval_32" class="fil0 str0" d="M489.49 24.82l0 4.71c0,2.6 -2.11,4.71 -4.71,4.71l-28.24 0c-2.6,0 -4.7,-2.11 -4.7,-4.71l0 -4.71"/>
  <path id="Oval_33" class="fil1 str0" d="M21.92 16.68c0,-5.79 -4.69,-10.47 -10.47,-10.47 -5.78,0 -10.46,4.68 -10.46,10.47 0,5.78 4.68,10.46 10.46,10.46 5.78,0 10.47,-4.68 10.47,-10.46z"/>
  <line id="Oval_34" class="fil0 str0" x1="18.85" y1="24.08" x2="27.63" y2= "32.85" />
 </g>
</svg>
