<?xml version="1.0" encoding="UTF-8"?>
<!DOCTYPE svg PUBLIC "-//W3C//DTD SVG 1.1//EN" "http://www.w3.org/Graphics/SVG/1.1/DTD/svg11.dtd">
<!-- Creator: CorelDRAW 2021 (64-Bit) -->
<svg xmlns="http://www.w3.org/2000/svg" xml:space="preserve" width="258px" height="21px" version="1.1" style="shape-rendering:geometricPrecision; text-rendering:geometricPrecision; image-rendering:optimizeQuality; fill-rule:evenodd; clip-rule:evenodd"
viewBox="0 0 36.48 2.9"
 xmlns:xlink="http://www.w3.org/1999/xlink"
 xmlns:xodm="http://www.corel.com/coreldraw/odm/2003">
 <defs>
  <style type="text/css">
   <![CDATA[
    .str3 {stroke:#373435;stroke-width:0.13;stroke-miterlimit:2.61313}
    .str2 {stroke:#373435;stroke-width:0.13;stroke-miterlimit:2.61313}
    .str0 {stroke:black;stroke-width:0.13;stroke-miterlimit:2.61313}
    .str1 {stroke:#373435;stroke-width:0.13;stroke-linecap:round;stroke-linejoin:round;stroke-miterlimit:2.61313}
    .str4 {stroke:black;stroke-width:0.13;stroke-linecap:round;stroke-linejoin:round;stroke-miterlimit:2.61313}
    .str5 {stroke:black;stroke-width:0.14;stroke-linecap:round;stroke-linejoin:round;stroke-miterlimit:2.61313}
    .fil3 {fill:none}
    .fil1 {fill:none;fill-rule:nonzero}
    .fil2 {fill:#FEFEFE}
    .fil0 {fill:black;fill-rule:nonzero}
   ]]>
  </style>
 </defs>
 <g id="Layer_x0020_1">
  <metadata id="CorelCorpID_0Corel-Layer"/>
  <g>
   <path id="Oval" class="fil0" d="M0.84 0.52l0 -0.12 0 0 0.05 0 0.04 0 0.04 0.01 0.04 0 0.04 0.01 0.04 0.01 0.04 0.02 0.04 0.01 0.04 0.02 0.03 0.02 0.04 0.02 0.03 0.02 0.04 0.02 0.03 0.03 0.03 0.02 0.03 0.03 0.03 0.03 0.02 0.03 0.03 0.03 0.02 0.04 0.02 0.03 0.02 0.04 0.02 0.03 0.02 0.04 0.01 0.04 0.02 0.04 0.01 0.04 0.01 0.04 0.01 0.04 0 0.04 0 0.04 0 0.05 -0.12 0 0 -0.04 -0.01 -0.04 0 -0.03 -0.01 -0.04 0 -0.03 -0.01 -0.03 -0.02 -0.04 -0.01 -0.03 -0.01 -0.03 -0.02 -0.03 -0.02 -0.03 -0.01 -0.03 -0.02 -0.03 -0.03 -0.03 -0.02 -0.02 -0.02 -0.03 -0.03 -0.02 -0.02 -0.02 -0.03 -0.03 -0.03 -0.01 -0.03 -0.02 -0.03 -0.02 -0.03 -0.02 -0.03 -0.01 -0.03 -0.01 -0.03 -0.01 -0.04 -0.01 -0.03 -0.01 -0.04 -0.01 -0.03 0 -0.04 -0.01 -0.04 0 0 0zm0 0c-0.03,0 -0.06,-0.03 -0.06,-0.06 0,-0.04 0.03,-0.06 0.06,-0.06l0 0.12zm-0.71 0.72l-0.13 0 0 0 0 -0.05 0 -0.04 0.01 -0.04 0.01 -0.04 0.01 -0.04 0.01 -0.04 0.01 -0.04 0.02 -0.04 0.01 -0.04 0.02 -0.03 0.02 -0.04 0.02 -0.03 0.03 -0.04 0.02 -0.03 0.03 -0.03 0.03 -0.03 0.03 -0.03 0.03 -0.02 0.03 -0.03 0.03 -0.02 0.04 -0.02 0.03 -0.02 0.04 -0.02 0.03 -0.02 0.04 -0.01 0.04 -0.02 0.04 -0.01 0.04 -0.01 0.04 0 0.05 -0.01 0.04 0 0.04 0 0 0.12 -0.03 0 -0.04 0.01 -0.04 0 -0.03 0.01 -0.04 0.01 -0.03 0.01 -0.03 0.01 -0.04 0.01 -0.03 0.01 -0.03 0.02 -0.03 0.02 -0.03 0.02 -0.03 0.01 -0.02 0.03 -0.03 0.02 -0.02 0.02 -0.03 0.03 -0.02 0.02 -0.02 0.03 -0.02 0.03 -0.02 0.03 -0.02 0.03 -0.01 0.03 -0.02 0.03 -0.01 0.03 -0.01 0.04 -0.01 0.03 -0.01 0.03 0 0.04 -0.01 0.03 0 0.04 0 0.04 0 0zm0 0c0,0.03 -0.03,0.06 -0.07,0.06 -0.03,0 -0.06,-0.03 -0.06,-0.06l0.13 0zm0.71 0.71l0 0.13 0 0 -0.04 0 -0.04 0 -0.05 -0.01 -0.04 -0.01 -0.04 -0.01 -0.04 -0.01 -0.04 -0.01 -0.04 -0.02 -0.03 -0.01 -0.04 -0.02 -0.03 -0.02 -0.04 -0.02 -0.03 -0.03 -0.03 -0.02 -0.03 -0.03 -0.03 -0.03 -0.03 -0.03 -0.03 -0.03 -0.02 -0.03 -0.03 -0.03 -0.02 -0.04 -0.02 -0.03 -0.02 -0.04 -0.01 -0.03 -0.02 -0.04 -0.01 -0.04 -0.01 -0.04 -0.01 -0.04 -0.01 -0.04 -0.01 -0.05 0 -0.04 0 -0.04 0.13 0 0 0.04 0 0.03 0.01 0.04 0 0.03 0.01 0.04 0.01 0.03 0.01 0.03 0.01 0.04 0.02 0.03 0.01 0.03 0.02 0.03 0.02 0.03 0.02 0.03 0.02 0.02 0.02 0.03 0.03 0.02 0.02 0.03 0.03 0.02 0.02 0.02 0.03 0.02 0.03 0.02 0.03 0.02 0.03 0.01 0.03 0.02 0.04 0.01 0.03 0.01 0.03 0.01 0.04 0.01 0.03 0 0.04 0.01 0.04 0 0.03 0 0 0zm0 0c0.04,0 0.07,0.03 0.07,0.07 0,0.03 -0.03,0.06 -0.07,0.06l0 -0.13zm0.72 -0.71l0.12 0 0 0 0 0.04 0 0.04 0 0.05 -0.01 0.04 -0.01 0.04 -0.01 0.04 -0.02 0.04 -0.01 0.04 -0.02 0.03 -0.02 0.04 -0.02 0.03 -0.02 0.04 -0.02 0.03 -0.03 0.03 -0.02 0.03 -0.03 0.03 -0.03 0.03 -0.03 0.03 -0.03 0.02 -0.04 0.03 -0.03 0.02 -0.04 0.02 -0.03 0.02 -0.04 0.01 -0.04 0.02 -0.04 0.01 -0.04 0.01 -0.04 0.01 -0.04 0.01 -0.04 0.01 -0.04 0 -0.05 0 0 -0.13 0.04 0 0.04 0 0.03 -0.01 0.04 0 0.03 -0.01 0.04 -0.01 0.03 -0.01 0.03 -0.01 0.03 -0.02 0.03 -0.01 0.03 -0.02 0.03 -0.02 0.03 -0.02 0.03 -0.02 0.02 -0.02 0.03 -0.03 0.02 -0.02 0.02 -0.03 0.03 -0.02 0.02 -0.03 0.01 -0.03 0.02 -0.03 0.02 -0.03 0.01 -0.03 0.01 -0.04 0.02 -0.03 0.01 -0.03 0 -0.04 0.01 -0.03 0 -0.04 0.01 -0.03 0 -0.04 0 0zm0 0c0,-0.04 0.03,-0.07 0.06,-0.07 0.04,0 0.06,0.03 0.06,0.07l-0.12 0zm-0.13 0.68c-0.02,-0.02 -0.02,-0.06 0,-0.09 0.03,-0.02 0.07,-0.02 0.09,0l-0.09 0.09zm0.57 0.57l-0.57 -0.57 0.09 -0.09 0.57 0.57 -0.09 0.09zm0.09 -0.09c0.03,0.02 0.03,0.06 0,0.09 -0.02,0.02 -0.06,0.02 -0.09,0l0.09 -0.09z"/>
  </g>
  <g>
   <path id="Path" class="fil1 str0" d="M36.41 1.84l0 0.35c0,0.2 -0.15,0.35 -0.35,0.35l-2.1 0c-0.19,0 -0.35,-0.15 -0.35,-0.35l0 -0.35 0 0m2.02 -0.7l-0.62 0.62 -0.62 -0.62m0.62 0.44l0 -1.22"/>
  </g>
  <path class="fil2 str1" d="M8.65 0.73c-0.21,0.23 -0.34,0.53 -0.34,0.86 0,0.69 0.55,1.24 1.23,1.24 0.69,0 1.24,-0.55 1.24,-1.24 0,-0.46 -0.25,-0.86 -0.63,-1.07 0,0.27 -0.12,0.51 -0.31,0.68 0.01,-0.05 0.01,-0.11 0.01,-0.17 0,-0.53 -0.43,-0.96 -0.96,-0.96 0,0.24 -0.08,0.48 -0.24,0.66z"/>
  <path class="fil2 str1" d="M6.01 0.72l-0.25 -0.13c-0.02,-0.02 -0.03,-0.05 -0.02,-0.07 0,-0.01 0.01,-0.02 0.02,-0.02l0.25 -0.14c0.01,0 0.01,-0.01 0.02,-0.02l0.13 -0.24c0.02,-0.03 0.05,-0.04 0.07,-0.02 0.01,0 0.02,0.01 0.02,0.02l0.14 0.24c0,0.01 0.01,0.02 0.02,0.02l0.24 0.14c0.03,0.01 0.04,0.04 0.02,0.07 0,0.01 -0.01,0.01 -0.02,0.02l-0.24 0.13c-0.01,0.01 -0.02,0.01 -0.02,0.02l-0.14 0.25c-0.01,0.02 -0.04,0.03 -0.07,0.02 -0.01,0 -0.01,-0.01 -0.02,-0.02l-0.13 -0.25c-0.01,-0.01 -0.01,-0.01 -0.02,-0.02zm-1.39 1.36l-0.63 -0.35c-0.07,-0.03 -0.09,-0.11 -0.05,-0.17 0.01,-0.03 0.03,-0.04 0.05,-0.06l0.63 -0.34c0.02,-0.01 0.04,-0.03 0.05,-0.05l0.35 -0.64c0.03,-0.06 0.11,-0.08 0.17,-0.05 0.03,0.01 0.04,0.03 0.06,0.05l0.34 0.64c0.01,0.02 0.03,0.04 0.05,0.05l0.64 0.34c0.06,0.04 0.08,0.12 0.05,0.18 -0.01,0.02 -0.03,0.04 -0.05,0.05l-0.64 0.35c-0.02,0.01 -0.04,0.03 -0.05,0.05l-0.34 0.63c-0.04,0.07 -0.12,0.09 -0.18,0.05 -0.02,-0.01 -0.04,-0.03 -0.05,-0.05l-0.35 -0.63c-0.01,-0.02 -0.03,-0.04 -0.05,-0.05z"/>
  <g>
   <path class="fil2" d="M12.89 0.36l0.66 0 -0.66 0zm1.14 0l0.66 0 -0.66 0zm-1.38 -0.24c0.13,0 0.24,0.11 0.24,0.24 0,0.13 -0.11,0.24 -0.24,0.24 -0.13,0 -0.24,-0.11 -0.24,-0.24 0,-0.13 0.11,-0.24 0.24,-0.24zm2.28 0c-0.13,0 -0.24,0.11 -0.24,0.24 0,0.13 0.11,0.24 0.24,0.24 0.13,0 0.24,-0.11 0.24,-0.24 0,-0.13 -0.11,-0.24 -0.24,-0.24zm-1.3 0l0.32 0c0.04,0 0.08,0.04 0.08,0.08l0 0.32c0,0.04 -0.04,0.08 -0.08,0.08l-0.32 0c-0.05,0 -0.08,-0.04 -0.08,-0.08l0 -0.32c0,-0.04 0.03,-0.08 0.08,-0.08zm-1.14 1.14l0.32 0c0.04,0 0.07,0.04 0.07,0.08l0 0.32c0,0.04 -0.03,0.08 -0.07,0.08l-0.32 0c-0.05,0 -0.08,-0.04 -0.08,-0.08l0 -0.32c0,-0.04 0.03,-0.08 0.08,-0.08zm2.6 0l-0.32 0c-0.04,0 -0.08,0.04 -0.08,0.08l0 0.32c0,0.04 0.04,0.08 0.08,0.08l0.32 0c0.04,0 0.08,-0.04 0.08,-0.08l0 -0.32c0,-0.04 -0.04,-0.08 -0.08,-0.08zm-2.42 0c0.1,-0.44 0.44,-0.78 0.88,-0.87l-0.88 0.87zm1.36 -0.88c0.43,0.1 0.78,0.44 0.87,0.88l-0.87 -0.88zm-0.12 0.94l0.69 1.25c0.03,0.05 0.03,0.11 -0.01,0.16 -0.04,0.04 -0.1,0.06 -0.15,0.04l-0.65 -0.2 -0.65 0.2c-0.06,0.02 -0.12,0 -0.15,-0.04 -0.04,-0.05 -0.05,-0.11 -0.02,-0.16l0.69 -1.25c0.03,-0.05 0.08,-0.07 0.13,-0.07 0.05,0 0.1,0.02 0.12,0.07z"/>
   <path id="_1" class="fil3 str2" d="M12.89 0.36l0.66 0m0.48 0l0.66 0m-2.04 -0.24c0.13,0 0.24,0.11 0.24,0.24 0,0.13 -0.11,0.24 -0.24,0.24 -0.13,0 -0.24,-0.11 -0.24,-0.24 0,-0.13 0.11,-0.24 0.24,-0.24zm2.28 0c-0.13,0 -0.24,0.11 -0.24,0.24 0,0.13 0.11,0.24 0.24,0.24 0.13,0 0.24,-0.11 0.24,-0.24 0,-0.13 -0.11,-0.24 -0.24,-0.24zm-1.3 0l0.32 0c0.04,0 0.08,0.04 0.08,0.08l0 0.32c0,0.04 -0.04,0.08 -0.08,0.08l-0.32 0c-0.05,0 -0.08,-0.04 -0.08,-0.08l0 -0.32c0,-0.04 0.03,-0.08 0.08,-0.08zm-1.14 1.14l0.32 0c0.04,0 0.07,0.04 0.07,0.08l0 0.32c0,0.04 -0.03,0.08 -0.07,0.08l-0.32 0c-0.05,0 -0.08,-0.04 -0.08,-0.08l0 -0.32c0,-0.04 0.03,-0.08 0.08,-0.08zm2.6 0l-0.32 0c-0.04,0 -0.08,0.04 -0.08,0.08l0 0.32c0,0.04 0.04,0.08 0.08,0.08l0.32 0c0.04,0 0.08,-0.04 0.08,-0.08l0 -0.32c0,-0.04 -0.04,-0.08 -0.08,-0.08zm-2.42 0c0.1,-0.44 0.44,-0.78 0.88,-0.87m0.48 -0.01c0.43,0.1 0.78,0.44 0.87,0.88m-0.99 0.06l0.69 1.25c0.03,0.05 0.03,0.11 -0.01,0.16 -0.04,0.04 -0.1,0.06 -0.15,0.04l-0.65 -0.2 -0.65 0.2c-0.06,0.02 -0.12,0 -0.15,-0.04 -0.04,-0.05 -0.05,-0.11 -0.02,-0.16l0.69 -1.25c0.03,-0.05 0.08,-0.07 0.13,-0.07 0.05,0 0.1,0.02 0.12,0.07z"/>
  </g>
  <path class="fil2 str3" d="M17.27 0.07l1.02 0c0.34,0 0.62,0.28 0.62,0.62l0 0.42c-0.11,0.02 -0.22,0.07 -0.31,0.16l-0.7 0.7c-0.1,0.1 -0.17,0.24 -0.17,0.37l-0.04 0.33c-0.01,0.06 0,0.11 0.02,0.16l-0.44 0c-0.34,0 -0.62,-0.28 -0.62,-0.62l0 -1.52c0,-0.34 0.28,-0.62 0.62,-0.62zm0.69 2.29c0,-0.07 0.04,-0.16 0.1,-0.23l0.7 -0.69c0.15,-0.15 0.39,-0.15 0.54,0 0.15,0.14 0.15,0.39 0,0.54l-0.7 0.69c-0.06,0.07 -0.15,0.11 -0.22,0.11l-0.34 0.04c-0.08,0.01 -0.13,-0.05 -0.12,-0.12l0.04 -0.34zm-0.83 -1.55l1.02 0c0.08,0 0.14,0.06 0.14,0.14 0,0.07 -0.06,0.14 -0.14,0.14l-1.02 0c-0.08,0 -0.14,-0.07 -0.14,-0.14 0,-0.08 0.06,-0.14 0.14,-0.14zm0 0.5l0.63 0c0.08,0 0.14,0.06 0.14,0.14 0,0.08 -0.06,0.14 -0.14,0.14l-0.63 0c-0.08,0 -0.14,-0.06 -0.14,-0.14 0,-0.08 0.06,-0.14 0.14,-0.14zm0 0.5l0.24 0c0.08,0 0.14,0.07 0.14,0.14 0,0.08 -0.06,0.14 -0.14,0.14l-0.24 0c-0.08,0 -0.14,-0.06 -0.14,-0.14 0,-0.07 0.06,-0.14 0.14,-0.14z"/>
  <g>
   <path id="Vector" class="fil0" d="M23.72 1.11c-0.01,0.04 -0.04,0.07 -0.07,0.06 -0.04,0 -0.06,-0.03 -0.06,-0.07l0.13 0.01zm-0.13 -0.11l0.13 0 0 0 0 0 0 0 0 0.01 0 0 0 0.01 0 0 0 0 0 0.01 0 0 0 0.01 0 0 0 0 0 0.01 0 0 0 0 0 0.01 0 0 0 0 0 0.01 0 0 0 0.01 0 0 0 0 0 0.01 0 0 0 0 0 0.01 0 0 0 0 0 0.01 0 0 0 0 -0.13 -0.01 0 0 0 0 0 -0.01 0 0 0 0 0 -0.01 0 0 0 0 0 -0.01 0 0 0 0 0 -0.01 0 0 0 0 0 -0.01 0 0 0 0 0 -0.01 0 0 0 0 0 -0.01 0 0 0 0 0 -0.01 0 0 0 0 0 -0.01 0 0 0 0 0 -0.01 0 0 0 0 0 0zm0 0c0,-0.04 0.03,-0.07 0.07,-0.07 0.03,0 0.06,0.03 0.06,0.07l-0.13 0zm-1.36 -0.35l0.1 -0.08 -0.1 0 0.06 -0.08 0.07 -0.07 0.06 -0.05 0.07 -0.06 0.07 -0.04 0.06 -0.04 0.07 -0.03 0.06 -0.03 0.07 -0.01 0.06 -0.01 0.07 -0.01 0.06 0 0.06 0.01 0.06 0.01 0.06 0.02 0.05 0.02 0.05 0.03 0.05 0.03 0.05 0.04 0.05 0.04 0.04 0.04 0.04 0.04 0.03 0.05 0.04 0.05 0.03 0.06 0.02 0.05 0.02 0.06 0.02 0.06 0.02 0.06 0.01 0.06 0.01 0.06 0 0.07 -0.13 0 0 -0.06 -0.01 -0.05 -0.01 -0.05 -0.01 -0.05 -0.02 -0.06 -0.01 -0.05 -0.03 -0.04 -0.02 -0.05 -0.03 -0.04 -0.03 -0.05 -0.04 -0.03 -0.03 -0.04 -0.04 -0.03 -0.04 -0.03 -0.04 -0.03 -0.04 -0.02 -0.05 -0.02 -0.04 -0.01 -0.05 -0.01 -0.05 -0.01 -0.05 0 -0.05 0 -0.05 0.01 -0.06 0.02 -0.05 0.02 -0.06 0.02 -0.06 0.04 -0.05 0.04 -0.06 0.04 -0.06 0.06 -0.06 0.06 -0.06 0.07 -0.1 0zm0.1 0c-0.03,0.03 -0.07,0.03 -0.09,0.01 -0.03,-0.03 -0.03,-0.07 -0.01,-0.09l0.1 0.08zm-1.37 0.35l-0.13 0 0 0 0.01 -0.07 0 -0.06 0.02 -0.06 0.01 -0.06 0.02 -0.06 0.02 -0.06 0.03 -0.05 0.03 -0.06 0.03 -0.05 0.04 -0.05 0.04 -0.04 0.04 -0.04 0.04 -0.04 0.05 -0.04 0.05 -0.03 0.05 -0.03 0.06 -0.02 0.06 -0.02 0.06 -0.01 0.06 -0.01 0.06 0 0.06 0.01 0.07 0.01 0.06 0.01 0.07 0.03 0.06 0.03 0.07 0.04 0.07 0.04 0.06 0.06 0.07 0.05 0.06 0.07 0.07 0.08 -0.1 0.08 -0.06 -0.07 -0.06 -0.06 -0.06 -0.06 -0.06 -0.04 -0.06 -0.04 -0.06 -0.04 -0.05 -0.02 -0.06 -0.02 -0.05 -0.02 -0.05 -0.01 -0.05 0 -0.05 0 -0.05 0.01 -0.05 0.01 -0.05 0.01 -0.04 0.02 -0.04 0.02 -0.05 0.03 -0.04 0.03 -0.03 0.03 -0.04 0.04 -0.03 0.03 -0.03 0.05 -0.03 0.04 -0.03 0.05 -0.02 0.04 -0.02 0.05 -0.02 0.06 -0.01 0.05 -0.01 0.05 -0.01 0.05 0 0.06 0 0zm0 0c0,0.03 -0.03,0.06 -0.06,0.06 -0.04,0 -0.07,-0.03 -0.07,-0.06l0.13 0zm1.32 1.63l0 0.13 -0.04 0 -0.04 -0.01 -0.04 -0.01 -0.04 -0.02 -0.05 -0.02 -0.05 -0.03 -0.05 -0.02 -0.05 -0.04 -0.06 -0.03 -0.06 -0.04 -0.06 -0.04 -0.06 -0.05 -0.06 -0.05 -0.06 -0.05 -0.06 -0.05 -0.06 -0.06 -0.06 -0.06 -0.05 -0.06 -0.06 -0.07 -0.06 -0.07 -0.05 -0.07 -0.05 -0.07 -0.05 -0.08 -0.04 -0.07 -0.04 -0.08 -0.04 -0.09 -0.03 -0.08 -0.02 -0.09 -0.03 -0.08 -0.01 -0.09 -0.01 -0.09 -0.01 -0.09 0.13 0 0 0.08 0.01 0.08 0.02 0.08 0.02 0.08 0.02 0.08 0.03 0.08 0.03 0.07 0.04 0.08 0.04 0.07 0.05 0.07 0.04 0.07 0.05 0.06 0.06 0.07 0.05 0.06 0.06 0.06 0.05 0.06 0.06 0.05 0.06 0.06 0.06 0.05 0.05 0.04 0.06 0.05 0.06 0.04 0.05 0.03 0.05 0.04 0.05 0.03 0.05 0.02 0.04 0.02 0.05 0.02 0.03 0.02 0.03 0 0.03 0.01 0.02 0zm0 0c0.03,0 0.06,0.03 0.06,0.07 0,0.03 -0.03,0.06 -0.06,0.06l0 -0.13zm0.67 -1.38l0 -0.13 0 0 0.05 0 0.04 0.01 0.04 0 0.04 0.01 0.04 0 0.04 0.01 0.04 0.01 0.03 0.01 0.04 0.02 0.03 0.01 0.04 0.02 0.03 0.02 0.03 0.02 0.03 0.02 0.02 0.02 0.03 0.03 0.02 0.02 0.03 0.03 0.02 0.03 0.02 0.03 0.02 0.03 0.01 0.03 0.02 0.04 0.01 0.03 0.01 0.04 0.01 0.03 0.01 0.04 0.01 0.04 0 0.04 0.01 0.04 0 0.05 0 0.04 -0.13 0 0 -0.04 0 -0.04 0 -0.03 -0.01 -0.04 0 -0.03 -0.01 -0.04 -0.01 -0.03 -0.01 -0.03 -0.01 -0.03 -0.01 -0.02 -0.02 -0.03 -0.01 -0.03 -0.02 -0.02 -0.01 -0.02 -0.02 -0.02 -0.02 -0.02 -0.02 -0.02 -0.02 -0.02 -0.03 -0.02 -0.02 -0.01 -0.03 -0.02 -0.02 -0.01 -0.03 -0.02 -0.03 -0.01 -0.03 -0.01 -0.03 0 -0.03 -0.01 -0.04 -0.01 -0.03 0 -0.04 -0.01 -0.04 0 -0.04 0 0 0zm0 0c-0.03,0 -0.06,-0.03 -0.06,-0.06 0,-0.04 0.03,-0.07 0.06,-0.07l0 0.13zm-0.64 0.64l-0.13 0 0 0 0 -0.04 0.01 -0.04 0 -0.04 0.01 -0.04 0.01 -0.04 0.01 -0.03 0.01 -0.04 0.01 -0.04 0.02 -0.03 0.01 -0.03 0.02 -0.04 0.02 -0.03 0.02 -0.03 0.02 -0.03 0.03 -0.02 0.02 -0.03 0.03 -0.03 0.03 -0.02 0.02 -0.02 0.03 -0.02 0.04 -0.02 0.03 -0.02 0.03 -0.02 0.04 -0.01 0.03 -0.01 0.04 -0.01 0.03 -0.01 0.04 -0.01 0.04 -0.01 0.04 0 0.04 -0.01 0.04 0 0 0.13 -0.03 0 -0.04 0 -0.03 0.01 -0.03 0 -0.04 0.01 -0.03 0.01 -0.03 0.01 -0.03 0.01 -0.03 0.01 -0.02 0.01 -0.03 0.02 -0.03 0.01 -0.02 0.02 -0.02 0.02 -0.03 0.02 -0.02 0.02 -0.02 0.02 -0.02 0.02 -0.02 0.03 -0.01 0.02 -0.02 0.03 -0.02 0.02 -0.01 0.03 -0.01 0.03 -0.01 0.03 -0.01 0.03 -0.01 0.03 -0.01 0.03 0 0.04 -0.01 0.03 0 0.04 0 0.03 0 0zm0 0c0,0.04 -0.03,0.07 -0.06,0.07 -0.04,0 -0.07,-0.03 -0.07,-0.07l0.13 0zm0.64 0.64l0 0.13 0 0 -0.04 0 -0.05 0 -0.04 -0.01 -0.04 0 -0.04 -0.01 -0.04 -0.01 -0.03 -0.01 -0.04 -0.01 -0.03 -0.01 -0.04 -0.02 -0.03 -0.01 -0.03 -0.02 -0.03 -0.02 -0.03 -0.02 -0.03 -0.03 -0.02 -0.02 -0.03 -0.03 -0.02 -0.02 -0.02 -0.03 -0.02 -0.03 -0.02 -0.03 -0.02 -0.04 -0.01 -0.03 -0.02 -0.04 -0.01 -0.03 -0.01 -0.04 -0.01 -0.04 0 -0.04 -0.01 -0.04 0 -0.04 -0.01 -0.04 0 -0.05 0.13 0 0 0.04 0 0.04 0.01 0.04 0 0.03 0.01 0.04 0.01 0.03 0 0.03 0.01 0.03 0.01 0.03 0.02 0.03 0.01 0.02 0.02 0.03 0.01 0.02 0.02 0.03 0.02 0.02 0.02 0.02 0.02 0.02 0.02 0.02 0.02 0.01 0.02 0.02 0.03 0.01 0.03 0.02 0.02 0.01 0.03 0.01 0.03 0.01 0.03 0.01 0.04 0.01 0.03 0 0.04 0.01 0.03 0 0.04 0 0.04 0 0 0zm0 0c0.04,0 0.07,0.03 0.07,0.07 0,0.03 -0.03,0.06 -0.07,0.06l0 -0.13zm0.64 -0.64l0.13 0 0 0 0 0.04 0 0.04 -0.01 0.04 0 0.04 -0.01 0.04 -0.01 0.04 -0.01 0.03 -0.02 0.04 -0.01 0.03 -0.02 0.04 -0.02 0.03 -0.02 0.03 -0.02 0.03 -0.02 0.03 -0.02 0.03 -0.03 0.02 -0.02 0.03 -0.03 0.02 -0.03 0.03 -0.03 0.02 -0.03 0.02 -0.03 0.01 -0.04 0.02 -0.03 0.01 -0.04 0.02 -0.03 0.01 -0.04 0.01 -0.04 0.01 -0.04 0 -0.04 0.01 -0.04 0 -0.04 0 0 -0.13 0.04 0 0.03 0 0.04 0 0.03 -0.01 0.03 -0.01 0.03 0 0.03 -0.01 0.03 -0.01 0.03 -0.02 0.03 -0.01 0.02 -0.01 0.03 -0.02 0.02 -0.02 0.03 -0.02 0.02 -0.01 0.02 -0.03 0.02 -0.02 0.02 -0.02 0.02 -0.02 0.02 -0.03 0.01 -0.02 0.02 -0.03 0.01 -0.03 0.02 -0.03 0.01 -0.03 0.01 -0.03 0 -0.03 0.01 -0.03 0.01 -0.03 0 -0.04 0 -0.03 0 -0.04 0 0zm0 0c0,-0.03 0.03,-0.06 0.07,-0.06 0.03,0 0.06,0.03 0.06,0.06l-0.13 0zm-0.4 -0.24c0.02,0.02 0.02,0.06 -0.01,0.08 -0.02,0.03 -0.06,0.03 -0.09,0l0.1 -0.08zm-0.23 0.03l-0.01 -0.12 0 0 0.01 -0.01 0.02 0 0.01 0 0.01 0.01 0.01 0 0.02 0 0.01 0 0.01 0 0.01 0.01 0.01 0 0.01 0 0.01 0.01 0.01 0 0.01 0.01 0 0 0.01 0 0.01 0.01 0.01 0 0 0.01 0.01 0 0 0.01 0.01 0 0 0 0.01 0.01 0 0 0 0 0.01 0.01 0 0 0 0 0.01 0 -0.01 0 0.01 0.01 -0.1 0.08 0 0 0 0 0 0 0 0 0 0 0 0 0 0 0 -0.01 -0.01 0 0 0 0 0 -0.01 -0.01 0 0 0 0 -0.01 0 0 -0.01 -0.01 0 0 0 -0.01 0 0 -0.01 -0.01 0 0 0 -0.01 0 0 0 -0.01 0 -0.01 -0.01 0 0 -0.01 0 -0.01 0 0 0 -0.01 0 -0.01 0 0 0zm0 0c-0.03,0.01 -0.07,-0.02 -0.07,-0.06 0,-0.03 0.02,-0.06 0.06,-0.06l0.01 0.12zm-0.11 0.09l-0.13 0 0 0 0 -0.01 0 -0.01 0 -0.01 0.01 -0.01 0 -0.01 0 -0.01 0 -0.01 0.01 -0.01 0 -0.01 0.01 -0.01 0 0 0.01 -0.01 0 -0.01 0.01 -0.01 0.01 -0.01 0 0 0.01 -0.01 0.01 -0.01 0.01 0 0.01 -0.01 0 -0.01 0.01 0 0.01 -0.01 0.02 0 0.01 -0.01 0.01 0 0.01 0 0.01 -0.01 0.01 0 0.01 0 0.02 0 0.01 0 0.01 0.12 -0.01 0 -0.01 0 0 0.01 -0.01 0 -0.01 0 0 0 -0.01 0 -0.01 0.01 0 0 0 0 -0.01 0 0 0.01 -0.01 0 0 0 -0.01 0 0 0.01 0 0 0 0 -0.01 0.01 0 0 0 0 0 0.01 0 0 -0.01 0 0 0.01 0 0 0 0 0 0.01 0 0 0 0 0 0.01 0 0 0 0zm0 0c0,0.03 -0.03,0.06 -0.06,0.06 -0.04,0 -0.07,-0.03 -0.07,-0.06l0.13 0zm0.35 0.27l-0.12 0 0 0 0 -0.01 -0.01 -0.01 0 0 0 -0.01 0 0 -0.01 -0.01 0 0 -0.01 0 -0.01 -0.01 -0.01 0 -0.01 -0.01 -0.01 0 -0.01 0 -0.02 -0.01 -0.01 0 -0.02 0 -0.02 -0.01 -0.01 0 -0.02 0 -0.02 -0.01 -0.02 0 -0.01 -0.01 -0.02 -0.01 -0.02 -0.01 -0.02 -0.01 -0.02 -0.01 -0.01 -0.02 -0.01 -0.02 -0.01 -0.02 -0.01 -0.02 -0.01 -0.03 0 -0.02 0.13 0 0 0.01 0 0.01 0 0 0.01 0.01 0 0 0 0.01 0.01 0 0 0 0.01 0.01 0.01 0 0.01 0.01 0.01 0 0.02 0 0.01 0.01 0.02 0 0.01 0 0.02 0 0.02 0.01 0.02 0 0.01 0.01 0.02 0 0.02 0.01 0.02 0.01 0.02 0.01 0.01 0.01 0.02 0.01 0.02 0.02 0.01 0.02 0.01 0.02 0.01 0.02 0 0.03 0 0.02 0 0zm0 0c0,0.04 -0.03,0.07 -0.06,0.07 -0.04,0 -0.06,-0.03 -0.06,-0.07l0.12 0zm-0.48 0.11l0.09 -0.1 0.01 0.01 0.01 0.01 0.01 0.01 0.01 0 0.01 0.01 0.01 0 0.01 0.01 0.02 0 0.01 0 0.01 0 0.01 0 0.01 0 0.02 0 0.01 0 0.01 0 0.01 0 0.01 0 0.01 -0.01 0.01 0 0.01 -0.01 0.01 0 0.01 0 0 -0.01 0.01 0 0 -0.01 0.01 0 0 -0.01 0 0 0 0 0.01 0 0 -0.01 0 0 0.12 0 0 0.02 0 0.02 -0.01 0.02 -0.01 0.01 0 0.02 -0.01 0.01 -0.02 0.01 -0.01 0.01 -0.01 0.01 -0.02 0.01 -0.01 0.01 -0.02 0.01 -0.01 0.01 -0.02 0 -0.01 0.01 -0.02 0 -0.02 0.01 -0.02 0 -0.02 0 -0.01 0 -0.02 0 -0.02 0 -0.02 0 -0.02 -0.01 -0.02 0 -0.02 -0.01 -0.02 -0.01 -0.02 0 -0.02 -0.01 -0.01 -0.02 -0.02 -0.01 -0.02 -0.01zm0 0c-0.02,-0.03 -0.03,-0.07 0,-0.09 0.02,-0.03 0.06,-0.03 0.09,-0.01l-0.09 0.1zm0.19 -0.67c0,-0.03 0.02,-0.06 0.06,-0.06 0.03,0 0.06,0.03 0.06,0.06l-0.12 0zm0 0.14l0 -0.14 0.12 0 0 0.14 -0.12 0zm0.12 0c0,0.03 -0.03,0.06 -0.06,0.06 -0.04,0 -0.06,-0.03 -0.06,-0.06l0.12 0zm-0.12 0.55c0,-0.04 0.02,-0.07 0.06,-0.07 0.03,0 0.06,0.03 0.06,0.07l-0.12 0zm0 0.13l0 -0.13 0.12 0 0 0.13 -0.12 0zm0.12 0c0,0.04 -0.03,0.07 -0.06,0.07 -0.04,0 -0.06,-0.03 -0.06,-0.07l0.12 0z"/>
  </g>
  <path id="Intersect" class="fil3 str4" d="M27.49 1.29c0,-0.3 -0.01,-0.52 -0.03,-0.8 -0.01,-0.21 -0.18,-0.38 -0.39,-0.39 -0.24,-0.02 -0.48,-0.03 -0.77,-0.03 -0.1,0 -0.19,0 -0.28,0 -0.08,0.01 -0.17,0.03 -0.24,0.09 -0.21,0.16 -0.35,0.31 -0.51,0.51 -0.1,0.13 -0.16,0.3 -0.16,0.47 0,0.07 0,0.15 0,0.23 0,0.3 0.01,0.6 0.02,0.89 0.02,0.2 0.18,0.37 0.39,0.39 0.18,0.01 0.55,0.02 0.74,0.02m1.61 0.16l-0.23 -0.23m-0.39 0.13c0.33,0 0.52,-0.18 0.52,-0.52 0,-0.33 -0.19,-0.52 -0.52,-0.52 -0.33,0 -0.52,0.19 -0.52,0.52 0,0.34 0.19,0.52 0.52,0.52zm-0.54 -1.36l-0.82 0m0.47 0.63l-0.47 0m0.82 -1.28l-0.5 0"/>
  <path id="Intersect_0" class="fil3 str5" d="M31.29 2.1l0.23 0.31c0.23,-0.41 0.33,-0.54 0.63,-0.74m-0.38 -0.38c0,-0.3 -0.01,-0.52 -0.03,-0.8 -0.01,-0.21 -0.18,-0.38 -0.38,-0.39 -0.25,-0.02 -0.49,-0.03 -0.78,-0.03 -0.1,0 -0.19,0 -0.28,0 -0.08,0.01 -0.17,0.03 -0.24,0.09 -0.21,0.16 -0.35,0.31 -0.51,0.51 -0.1,0.13 -0.16,0.3 -0.16,0.47 0,0.07 0,0.15 0,0.23 0,0.3 0.01,0.6 0.02,0.89 0.02,0.2 0.18,0.37 0.39,0.39 0.18,0.01 0.55,0.02 0.74,0.02m1.61 0.16l-0.23 -0.23m-0.39 0.13c0.33,0 0.52,-0.18 0.52,-0.52 0,-0.33 -0.19,-0.52 -0.52,-0.52 -0.33,0 -0.52,0.19 -0.52,0.52 0,0.34 0.19,0.52 0.52,0.52zm-0.54 -1.36l-0.82 0m0.48 0.63l-0.48 0m0.82 -1.28l-0.5 0"/>
 </g>
</svg>
