<?xml version="1.0" encoding="UTF-8"?>
<!DOCTYPE svg PUBLIC "-//W3C//DTD SVG 1.1//EN" "http://www.w3.org/Graphics/SVG/1.1/DTD/svg11.dtd">
<!-- Creator: CorelDRAW 2021 (64-Bit) -->
<svg xmlns="http://www.w3.org/2000/svg" xml:space="preserve" width="499px" height="19px" version="1.1" style="shape-rendering:geometricPrecision; text-rendering:geometricPrecision; image-rendering:optimizeQuality; fill-rule:evenodd; clip-rule:evenodd"
viewBox="0 0 642.99 24.49"
 xmlns:xlink="http://www.w3.org/1999/xlink"
 xmlns:xodm="http://www.corel.com/coreldraw/odm/2003">
 <defs>
  <style type="text/css">
   <![CDATA[
    .str0 {stroke:black;stroke-width:1.29;stroke-linecap:round;stroke-linejoin:round;stroke-miterlimit:2.61313}
    .fil1 {fill:none}
    .fil0 {fill:#FEFEFE}
   ]]>
  </style>
 </defs>
 <g id="Layer_x0020_1">
  <metadata id="CorelCorpID_0Corel-Layer"/>
  <g>
   <path id="Vector_x0020_2137" class="fil0" d="M46.02 7.82c0.28,-2.31 1.15,-4.33 2.45,-5.98 1.01,-1.29 2.93,-1.29 3.94,0 1.3,1.65 2.17,3.67 2.45,5.98 2.31,0.28 4.33,1.15 5.98,2.45 1.29,1.01 1.29,2.93 0,3.95 -1.65,1.29 -3.67,2.17 -5.98,2.44 -0.28,2.31 -1.15,4.33 -2.45,5.98 -1.01,1.29 -2.93,1.29 -3.94,0 -1.3,-1.65 -2.17,-3.67 -2.45,-5.98 -2.31,-0.27 -4.33,-1.15 -5.98,-2.44 -1.29,-1.02 -1.29,-2.94 0,-3.95 1.65,-1.3 3.67,-2.17 5.98,-2.45zm41.59 -6.85c-0.1,-0.06 -0.23,-0.09 -0.35,-0.09 -0.12,0 -0.24,0.03 -0.35,0.09 -0.1,0.09 -0.17,0.22 -0.17,0.36 0,0.08 0.03,0.16 0.07,0.24 1.56,2.69 2.22,6.09 1.35,8.82 -0.56,1.77 -2.84,1.87 -3.78,0.27 -0.19,-0.32 -0.37,-0.67 -0.52,-1.01 -2.16,1.19 -3.49,3.46 -3.49,5.93 0,0.06 0,0.12 0,0.17 0.18,4.54 3.11,7.86 8.73,7.86 5.62,0 8.53,-3.49 8.72,-7.86 0.23,-5.23 -3.49,-11.67 -10.21,-14.78zm492.86 17.34c0.29,2.67 2.44,4.82 5.11,5.12 1.98,0.22 4.02,0.41 6.1,0.41 2.08,0 4.11,-0.19 6.1,-0.41 2.67,-0.3 4.82,-2.45 5.11,-5.12 0.21,-1.98 0.39,-4 0.39,-6.07 0,-2.06 -0.18,-4.09 -0.39,-6.06 -0.29,-2.68 -2.44,-4.83 -5.11,-5.12 -1.99,-0.23 -4.02,-0.41 -6.1,-0.41 -2.08,0 -4.12,0.18 -6.1,0.41 -2.67,0.29 -4.82,2.44 -5.11,5.12 -0.21,1.97 -0.39,4 -0.39,6.06 0,2.07 0.18,4.09 0.39,6.07zm6.57 -4.91l3.37 3.48c1.59,-4.56 2.91,-6.56 5.91,-9.28l-9.28 5.8zm31.29 4.9l0 1.85c0,0 0,0 0,0 0,2.04 1.65,3.69 3.69,3.69l16.63 0c2.04,0 3.7,-1.65 3.7,-3.69l0 -1.85 -24.02 0zm18.07 -8.21c-1.21,2.41 -3.64,4.84 -6.06,6.05 -2.42,-1.21 -4.85,-3.63 -6.06,-6.06l12.12 0.01zm-6.06 -9.44l0 15.42 0 -15.42zm-607.43 22.73l-3.98 -3.98 3.98 3.98zm-11.8 -1.34c6.7,0 10.47,-3.76 10.47,-10.46 0,-6.7 -3.77,-10.47 -10.47,-10.47 -6.7,0 -10.46,3.77 -10.46,10.47 0,6.69 3.76,10.46 10.46,10.46l0 0zm497.64 -18.01c0.12,-0.87 0.82,-1.55 1.69,-1.63 2.11,-0.2 4.3,-0.45 6.56,-0.45 2.26,0 4.46,0.25 6.56,0.45 0.87,0.08 1.58,0.76 1.69,1.63 0.23,1.69 0.48,3.45 0.48,5.26 0,1.8 -0.25,3.56 -0.48,5.25 -0.11,0.87 -0.82,1.55 -1.69,1.63l-14.81 -12.14zm11.22 16.42c-0.12,0.87 -0.82,1.55 -1.69,1.64 -2.11,0.2 -4.3,0.45 -6.56,0.45 -2.26,0 -4.46,-0.25 -6.56,-0.45 -0.88,-0.09 -1.58,-0.77 -1.7,-1.64 -0.22,-1.68 -0.48,-3.44 -0.48,-5.25 0,-1.8 0.26,-3.56 0.48,-5.25 0.12,-0.87 0.82,-1.55 1.7,-1.63 2.1,-0.2 4.3,-0.45 6.56,-0.45 2.26,0 4.45,0.25 6.56,0.45 0.87,0.08 1.57,0.76 1.69,1.63 0.22,1.69 0.48,3.45 0.48,5.25 0,1.81 -0.26,3.57 -0.48,5.25zm0.18 -1.51c-0.91,-1.09 -1.69,-1.82 -2.79,-2.6 -1.03,-0.73 -2.4,-0.79 -3.43,-0.06 -2.25,1.6 -4.15,3.88 -5.44,6.11l11.66 -3.45zm-11.4 -3.36c-1.42,0 -2.23,-0.81 -2.23,-2.23 0,-1.43 0.81,-2.23 2.23,-2.23 1.42,0 2.23,0.8 2.23,2.23 0,1.42 -0.81,2.23 -2.23,2.23zm41.99 -5.16l0.9 0c1.01,0 1.82,0.81 1.82,1.82l0 4.97 -2.72 -6.79zm0.02 6.79l5.42 0 -5.42 0zm2.73 -10.94l0 0.58 0 -0.58zm-11.68 12.04c0.29,2.67 2.44,4.82 5.11,5.12 1.98,0.22 4.02,0.41 6.1,0.41 2.08,0 4.11,-0.19 6.1,-0.41 2.67,-0.3 4.82,-2.45 5.11,-5.12 0.21,-1.98 0.39,-4 0.39,-6.07 0,-2.06 -0.18,-4.09 -0.39,-6.06 -0.29,-2.68 -2.44,-4.83 -5.11,-5.12 -1.99,-0.23 -4.02,-0.41 -6.1,-0.41 -2.08,0 -4.12,0.18 -6.1,0.41 -2.67,0.29 -4.82,2.44 -5.11,5.12 -0.21,1.97 -0.39,4 -0.39,6.06 0,2.07 0.18,4.09 0.39,6.07zm-54.78 -8.88c0.03,-0.31 0.04,-0.61 0.04,-0.92 -0.07,-5.17 -5.87,-9.96 -11.37,-3.21 -5.5,-6.75 -11.3,-1.96 -11.38,3.21 0,7.68 9.18,13.98 11.37,14l11.34 -13.08zm0.04 6.46c0,-3.73 -2.09,-5.82 -5.81,-5.82 -3.37,0 -5.82,2.4 -5.82,5.82 0,3.72 2.1,5.81 5.82,5.81 3.37,0 5.81,-2.41 5.81,-5.81zm-4.26 -1.69c0,0 -0.58,-0.65 -1.53,-0.57 -0.94,0.08 -1.4,0.66 -1.4,1.24 0,1.7 2.93,0.52 2.93,2.26 0,0.9 -1.94,1.53 -3.1,0.48l3.1 -3.41zm-1.41 -1.71l0 1.14 0 -1.14zm0 5.65l0 1.14 0 -1.14zm-171.55 0.17c0.29,2.67 2.44,4.82 5.11,5.12 1.98,0.22 4.02,0.41 6.1,0.41 2.08,0 4.11,-0.19 6.1,-0.41 2.67,-0.3 4.82,-2.45 5.11,-5.12 0.21,-1.98 0.39,-4 0.39,-6.07 0,-2.06 -0.18,-4.09 -0.39,-6.06 -0.29,-2.68 -2.44,-4.83 -5.11,-5.12 -1.99,-0.23 -4.02,-0.41 -6.1,-0.41 -2.08,0 -4.12,0.18 -6.1,0.41 -2.67,0.29 -4.82,2.44 -5.11,5.12 -0.21,1.97 -0.39,4 -0.39,6.06 0,2.07 0.18,4.09 0.39,6.07zm9.56 0.68l3.3 -0.04 0 -4.22 2.64 0 0 -3.29 -2.64 0 0 -1.32c0,-0.73 0.59,-1.32 1.32,-1.32l1.32 0 0 -1.98c0,-0.73 -0.59,-1.32 -1.32,-1.32l-0.66 0c-2.19,0 -3.96,1.77 -3.96,3.95l0 1.99 -2.64 0 0 3.29 2.64 0 0 4.26zm29.1 -0.68c0.29,2.67 2.44,4.82 5.11,5.12 1.98,0.22 4.02,0.41 6.1,0.41 2.08,0 4.11,-0.19 6.1,-0.41 2.67,-0.3 4.82,-2.45 5.11,-5.12 0.21,-1.98 0.39,-4 0.39,-6.07 0,-2.06 -0.18,-4.09 -0.39,-6.06 -0.29,-2.68 -2.44,-4.83 -5.11,-5.12 -1.99,-0.23 -4.02,-0.41 -6.1,-0.41 -2.08,0 -4.12,0.18 -6.1,0.41 -2.67,0.29 -4.82,2.44 -5.11,5.12 -0.21,1.97 -0.39,4 -0.39,6.06 0,2.07 0.18,4.09 0.39,6.07zm5.4 -12.81l2.8 0 9.51 12.66c0.12,0.16 0.14,0.36 0.05,0.54 -0.09,0.18 -0.26,0.29 -0.46,0.29l-2.8 0 -9.51 -12.67c-0.12,-0.16 -0.14,-0.36 -0.05,-0.54 0.09,-0.18 0.26,-0.28 0.46,-0.28zm11.32 0l-4.64 5.16 4.64 -5.16zm-6.73 7.49l-5.39 6 5.39 -6zm39.05 0.34c2.04,1.82 5.57,0.61 5.64,-3.39 0.03,-2.23 -1.49,-4.33 -4.58,-4.44 -3.1,-0.11 -4.84,1.89 -5.04,3.84 -0.11,0.99 0.18,1.75 0.47,2.24l3.51 1.75zm-1.3 -2.05c0,0 -0.96,3.82 -1.07,4.47 -0.11,0.64 -0.24,3.19 0,3.24 0.25,0.05 1.47,-1.79 1.69,-2.95 0.22,-1.16 1.45,-5.51 1.67,-6.46 0.23,-0.96 -0.19,-1.67 -0.97,-1.64 -0.77,0.02 -2.1,0.95 -1.32,3.34zm-9.08 7.03c0.29,2.67 2.44,4.82 5.11,5.12 1.98,0.22 4.02,0.41 6.1,0.41 2.08,0 4.11,-0.19 6.1,-0.41 2.67,-0.3 4.82,-2.45 5.11,-5.12 0.21,-1.98 0.39,-4 0.39,-6.07 0,-2.06 -0.18,-4.09 -0.39,-6.06 -0.29,-2.68 -2.44,-4.83 -5.11,-5.12 -1.99,-0.23 -4.02,-0.41 -6.1,-0.41 -2.08,0 -4.12,0.18 -6.1,0.41 -2.67,0.29 -4.82,2.44 -5.11,5.12 -0.21,1.97 -0.39,4 -0.39,6.06 0,2.07 0.18,4.09 0.39,6.07zm-270.61 -0.02c0.29,2.68 2.44,4.83 5.11,5.13 1.99,0.22 4.03,0.41 6.1,0.41 2.08,0 4.12,-0.19 6.1,-0.41 2.67,-0.3 4.82,-2.45 5.11,-5.13 0.15,-1.36 0.28,-2.75 0.34,-4.16l-8.18 0 0 2.1 -7.09 0c0,-4.18 0,-3.33 0,-7.5l1.89 0 0 -8.05c-1.44,0.07 -2.87,0.21 -4.27,0.36 -2.67,0.3 -4.82,2.45 -5.11,5.12 -0.21,1.98 -0.39,4 -0.39,6.07 0,2.06 0.18,4.09 0.39,6.06zm22.78 -7.46c-0.05,-1.58 -0.2,-3.14 -0.36,-4.67 -0.29,-2.67 -2.44,-4.82 -5.11,-5.12 -1.51,-0.17 -3.06,-0.32 -4.63,-0.38l0 8.07 1.9 0 0 2.1 8.2 0zm286.49 7.48c0.29,2.67 2.44,4.82 5.11,5.12 1.98,0.22 4.02,0.41 6.1,0.41 2.08,0 4.11,-0.19 6.1,-0.41 2.67,-0.3 4.82,-2.45 5.11,-5.12 0.21,-1.98 0.39,-4 0.39,-6.07 0,-2.06 -0.18,-4.09 -0.39,-6.06 -0.29,-2.68 -2.44,-4.83 -5.11,-5.12 -1.99,-0.23 -4.02,-0.41 -6.1,-0.41 -2.08,0 -4.12,0.18 -6.1,0.41 -2.67,0.29 -4.82,2.44 -5.11,5.12 -0.21,1.97 -0.39,4 -0.39,6.06 0,2.07 0.18,4.09 0.39,6.07zm17.14 -12c1.09,1.09 1.09,2.86 0,3.95l-1.98 1.98c-1.09,1.09 -2.86,1.09 -3.95,0 -1.09,-1.08 -1.09,-2.86 0,-3.95l1.98 -1.98c1.09,-1.09 2.87,-1.08 3.95,0zm-5.93 5.93c1.09,1.09 1.09,2.87 0,3.95l-1.98 1.99c-1.09,1.08 -2.87,1.08 -3.95,0 -1.09,-1.09 -1.09,-2.87 0,-3.95l1.98 -1.99c1.08,-1.08 2.86,-1.08 3.95,0zm2.85 -2.85l-5.71 5.71 5.71 -5.71zm-168.7 8.92c0.29,2.67 2.44,4.82 5.11,5.12 1.98,0.22 4.02,0.41 6.1,0.41 2.08,0 4.11,-0.19 6.1,-0.41 2.67,-0.3 4.82,-2.45 5.11,-5.12 0.21,-1.98 0.39,-4 0.39,-6.07 0,-2.06 -0.18,-4.09 -0.39,-6.06 -0.29,-2.68 -2.44,-4.83 -5.11,-5.12 -1.99,-0.23 -4.02,-0.41 -6.1,-0.41 -2.08,0 -4.12,0.18 -6.1,0.41 -2.67,0.29 -4.82,2.44 -5.11,5.12 -0.21,1.97 -0.39,4 -0.39,6.06 0,2.07 0.18,4.09 0.39,6.07zm18.23 -0.08c0.35,-0.16 0.62,-1.31 0.66,-2.74 0.02,-1.05 0.05,-2.14 0.05,-3.25 0,-1.1 -0.03,-2.19 -0.05,-3.24 -0.04,-1.44 -0.31,-2.59 -0.66,-2.75l0 11.98zm-2.54 -5.17c0.12,-0.27 0.21,-0.54 0.21,-0.82 0,-0.27 -0.09,-0.55 -0.21,-0.81 -0.08,-0.1 -0.16,-0.19 -0.23,-0.29 -0.69,-0.82 -1.37,-1.61 -2.04,-2.37 -0.91,-1.04 -1.79,-1.69 -2.1,-1.55 -0.23,0.1 -0.46,0.22 -0.62,0.41 -0.16,0.2 -0.26,0.47 -0.34,0.74 -0.11,0.35 0.36,1.3 1.13,2.31 -0.59,-0.01 -1.19,-0.01 -1.8,-0.01 -1.1,0 -2.19,0.02 -3.24,0.05 -1.44,0.04 -2.59,0.33 -2.75,0.69 -0.12,0.27 -0.22,0.55 -0.22,0.83 0,0.29 0.1,0.56 0.22,0.83 0.16,0.37 1.31,0.66 2.75,0.7 1.05,0.03 2.14,0.05 3.24,0.05 0.61,0 1.21,-0.01 1.8,-0.02 -0.77,1.02 -1.24,1.97 -1.13,2.31 0.08,0.28 0.18,0.55 0.34,0.75 0.16,0.19 0.39,0.31 0.62,0.41 0.31,0.13 1.19,-0.52 2.1,-1.55 0.67,-0.77 1.35,-1.56 2.04,-2.38 0.07,-0.09 0.15,-0.19 0.23,-0.28zm-46.55 10.78l0 -6.22c0,-1.88 1.52,-3.41 3.41,-3.41 1.88,0 3.41,1.53 3.41,3.41l0 6.22 3.06 0c1.37,0 2.54,-1 2.74,-2.35 0.34,-2.15 0.41,-4.34 0.23,-6.5l2.51 0c0.8,0 1.29,-0.89 0.86,-1.57l-0.43 -0.68c-2.61,-4.11 -5.92,-7.71 -9.79,-10.65l-1.35 -1.03c-0.73,-0.55 -1.75,-0.55 -2.48,0l-1.35 1.03c-3.87,2.94 -7.18,6.54 -9.79,10.65l-0.43 0.68c-0.43,0.68 0.05,1.57 0.86,1.57l2.5 0c-0.17,2.16 -0.1,4.35 0.23,6.5 0.21,1.35 1.38,2.35 2.75,2.35l3.06 0zm-24.04 -5.53c-0.29,2.67 -2.44,4.82 -5.11,5.12 -1.99,0.22 -4.02,0.41 -6.1,0.41 -2.08,0 -4.12,-0.19 -6.1,-0.41 -2.67,-0.3 -4.82,-2.45 -5.11,-5.12 -0.21,-1.98 -0.39,-4 -0.39,-6.07 0,-2.06 0.18,-4.09 0.39,-6.06 0.29,-2.68 2.44,-4.83 5.11,-5.12 1.98,-0.23 4.02,-0.41 6.1,-0.41 2.08,0 4.11,0.18 6.1,0.41 2.67,0.29 4.82,2.44 5.11,5.12 0.21,1.97 0.39,4 0.39,6.06 0,2.07 -0.18,4.09 -0.39,6.07zm-18.24 -0.08c-0.34,-0.16 -0.61,-1.31 -0.65,-2.74 -0.03,-1.05 -0.05,-2.14 -0.05,-3.25 0,-1.1 0.02,-2.19 0.05,-3.24 0.04,-1.44 0.31,-2.59 0.65,-2.75l0 11.98zm2.55 -5.17c-0.12,-0.27 -0.21,-0.54 -0.21,-0.82 0,-0.27 0.09,-0.55 0.21,-0.81 0.08,-0.1 0.15,-0.19 0.23,-0.29 0.69,-0.82 1.37,-1.61 2.04,-2.37 0.91,-1.04 1.79,-1.69 2.1,-1.55 0.23,0.1 0.45,0.22 0.62,0.41 0.16,0.2 0.26,0.47 0.34,0.74 0.11,0.35 -0.36,1.3 -1.13,2.31 0.59,-0.01 1.19,-0.01 1.8,-0.01 1.1,0 2.19,0.02 3.24,0.05 1.44,0.04 2.59,0.33 2.75,0.69 0.11,0.27 0.22,0.55 0.22,0.83 0,0.29 -0.11,0.56 -0.22,0.83 -0.16,0.37 -1.31,0.66 -2.75,0.7 -1.05,0.03 -2.14,0.05 -3.24,0.05 -0.61,0 -1.21,-0.01 -1.8,-0.02 0.77,1.02 1.24,1.97 1.13,2.31 -0.08,0.28 -0.18,0.55 -0.34,0.75 -0.17,0.19 -0.39,0.31 -0.62,0.41 -0.31,0.13 -1.19,-0.52 -2.1,-1.55 -0.67,-0.77 -1.35,-1.56 -2.04,-2.38 -0.08,-0.09 -0.15,-0.19 -0.23,-0.28z"/>
   <path id="_1" class="fil1 str0" d="M46.02 7.82c0.28,-2.31 1.15,-4.33 2.45,-5.98 1.01,-1.29 2.93,-1.29 3.94,0 1.3,1.65 2.17,3.67 2.45,5.98 2.31,0.28 4.33,1.15 5.98,2.45 1.29,1.01 1.29,2.93 0,3.95 -1.65,1.29 -3.67,2.17 -5.98,2.44 -0.28,2.31 -1.15,4.33 -2.45,5.98 -1.01,1.29 -2.93,1.29 -3.94,0 -1.3,-1.65 -2.17,-3.67 -2.45,-5.98 -2.31,-0.27 -4.33,-1.15 -5.98,-2.44 -1.29,-1.02 -1.29,-2.94 0,-3.95 1.65,-1.3 3.67,-2.17 5.98,-2.45zm41.59 -6.85c-0.1,-0.06 -0.23,-0.09 -0.35,-0.09 -0.12,0 -0.24,0.03 -0.35,0.09 -0.1,0.09 -0.17,0.22 -0.17,0.36 0,0.08 0.03,0.16 0.07,0.24 1.56,2.69 2.22,6.09 1.35,8.82 -0.56,1.77 -2.84,1.87 -3.78,0.27 -0.19,-0.32 -0.37,-0.67 -0.52,-1.01 -2.16,1.19 -3.49,3.46 -3.49,5.93 0,0.06 0,0.12 0,0.17 0.18,4.54 3.11,7.86 8.73,7.86 5.62,0 8.53,-3.49 8.72,-7.86 0.23,-5.23 -3.49,-11.67 -10.21,-14.78zm492.86 17.34c0.29,2.67 2.44,4.82 5.11,5.12 1.98,0.22 4.02,0.41 6.1,0.41 2.08,0 4.11,-0.19 6.1,-0.41 2.67,-0.3 4.82,-2.45 5.11,-5.12 0.21,-1.98 0.39,-4 0.39,-6.07 0,-2.06 -0.18,-4.09 -0.39,-6.06 -0.29,-2.68 -2.44,-4.83 -5.11,-5.12 -1.99,-0.23 -4.02,-0.41 -6.1,-0.41 -2.08,0 -4.12,0.18 -6.1,0.41 -2.67,0.29 -4.82,2.44 -5.11,5.12 -0.21,1.97 -0.39,4 -0.39,6.06 0,2.07 0.18,4.09 0.39,6.07zm6.57 -4.91l3.37 3.48c1.59,-4.56 2.91,-6.56 5.91,-9.28m22.01 10.7l0 1.85c0,0 0,0 0,0 0,2.04 1.65,3.69 3.69,3.69l16.63 0c2.04,0 3.7,-1.65 3.7,-3.69l0 -1.85m-5.95 -8.21c-1.21,2.41 -3.64,4.84 -6.06,6.05 -2.42,-1.21 -4.85,-3.63 -6.06,-6.06m6.06 -9.43l0 15.42m-607.43 7.31l-3.98 -3.98m-7.82 2.64c6.7,0 10.47,-3.76 10.47,-10.46 0,-6.7 -3.77,-10.47 -10.47,-10.47 -6.7,0 -10.46,3.77 -10.46,10.47 0,6.69 3.76,10.46 10.46,10.46l0 0zm497.64 -18.01c0.12,-0.87 0.82,-1.55 1.69,-1.63 2.11,-0.2 4.3,-0.45 6.56,-0.45 2.26,0 4.46,0.25 6.56,0.45 0.87,0.08 1.58,0.76 1.69,1.63 0.23,1.69 0.48,3.45 0.48,5.26 0,1.8 -0.25,3.56 -0.48,5.25 -0.11,0.87 -0.82,1.55 -1.69,1.63m-3.59 4.28c-0.12,0.87 -0.82,1.55 -1.69,1.64 -2.11,0.2 -4.3,0.45 -6.56,0.45 -2.26,0 -4.46,-0.25 -6.56,-0.45 -0.88,-0.09 -1.58,-0.77 -1.7,-1.64 -0.22,-1.68 -0.48,-3.44 -0.48,-5.25 0,-1.8 0.26,-3.56 0.48,-5.25 0.12,-0.87 0.82,-1.55 1.7,-1.63 2.1,-0.2 4.3,-0.45 6.56,-0.45 2.26,0 4.45,0.25 6.56,0.45 0.87,0.08 1.57,0.76 1.69,1.63 0.22,1.69 0.48,3.45 0.48,5.25 0,1.81 -0.26,3.57 -0.48,5.25zm0.18 -1.51c-0.91,-1.09 -1.69,-1.82 -2.79,-2.6 -1.03,-0.73 -2.4,-0.79 -3.43,-0.06 -2.25,1.6 -4.15,3.88 -5.44,6.11m0.26 -6.81c-1.42,0 -2.23,-0.81 -2.23,-2.23 0,-1.43 0.81,-2.23 2.23,-2.23 1.42,0 2.23,0.8 2.23,2.23 0,1.42 -0.81,2.23 -2.23,2.23zm41.99 -5.16l0.9 0c1.01,0 1.82,0.81 1.82,1.82l0 4.97m-2.7 0l5.42 0m-2.69 -10.94l0 0.58m-11.68 11.46c0.29,2.67 2.44,4.82 5.11,5.12 1.98,0.22 4.02,0.41 6.1,0.41 2.08,0 4.11,-0.19 6.1,-0.41 2.67,-0.3 4.82,-2.45 5.11,-5.12 0.21,-1.98 0.39,-4 0.39,-6.07 0,-2.06 -0.18,-4.09 -0.39,-6.06 -0.29,-2.68 -2.44,-4.83 -5.11,-5.12 -1.99,-0.23 -4.02,-0.41 -6.1,-0.41 -2.08,0 -4.12,0.18 -6.1,0.41 -2.67,0.29 -4.82,2.44 -5.11,5.12 -0.21,1.97 -0.39,4 -0.39,6.06 0,2.07 0.18,4.09 0.39,6.07zm-54.78 -8.88c0.03,-0.31 0.04,-0.61 0.04,-0.92 -0.07,-5.17 -5.87,-9.96 -11.37,-3.21 -5.5,-6.75 -11.3,-1.96 -11.38,3.21 0,7.68 9.18,13.98 11.37,14m11.38 -6.62c0,-3.73 -2.09,-5.82 -5.81,-5.82 -3.37,0 -5.82,2.4 -5.82,5.82 0,3.72 2.1,5.81 5.82,5.81 3.37,0 5.81,-2.41 5.81,-5.81zm-4.26 -1.69c0,0 -0.58,-0.65 -1.53,-0.57 -0.94,0.08 -1.4,0.66 -1.4,1.24 0,1.7 2.93,0.52 2.93,2.26 0,0.9 -1.94,1.53 -3.1,0.48m1.69 -5.12l0 1.14m0 4.51l0 1.14m-171.55 -0.97c0.29,2.67 2.44,4.82 5.11,5.12 1.98,0.22 4.02,0.41 6.1,0.41 2.08,0 4.11,-0.19 6.1,-0.41 2.67,-0.3 4.82,-2.45 5.11,-5.12 0.21,-1.98 0.39,-4 0.39,-6.07 0,-2.06 -0.18,-4.09 -0.39,-6.06 -0.29,-2.68 -2.44,-4.83 -5.11,-5.12 -1.99,-0.23 -4.02,-0.41 -6.1,-0.41 -2.08,0 -4.12,0.18 -6.1,0.41 -2.67,0.29 -4.82,2.44 -5.11,5.12 -0.21,1.97 -0.39,4 -0.39,6.06 0,2.07 0.18,4.09 0.39,6.07zm9.56 0.68l3.3 -0.04 0 -4.22 2.64 0 0 -3.29 -2.64 0 0 -1.32c0,-0.73 0.59,-1.32 1.32,-1.32l1.32 0 0 -1.98c0,-0.73 -0.59,-1.32 -1.32,-1.32l-0.66 0c-2.19,0 -3.96,1.77 -3.96,3.95l0 1.99 -2.64 0 0 3.29 2.64 0 0 4.26zm29.1 -0.68c0.29,2.67 2.44,4.82 5.11,5.12 1.98,0.22 4.02,0.41 6.1,0.41 2.08,0 4.11,-0.19 6.1,-0.41 2.67,-0.3 4.82,-2.45 5.11,-5.12 0.21,-1.98 0.39,-4 0.39,-6.07 0,-2.06 -0.18,-4.09 -0.39,-6.06 -0.29,-2.68 -2.44,-4.83 -5.11,-5.12 -1.99,-0.23 -4.02,-0.41 -6.1,-0.41 -2.08,0 -4.12,0.18 -6.1,0.41 -2.67,0.29 -4.82,2.44 -5.11,5.12 -0.21,1.97 -0.39,4 -0.39,6.06 0,2.07 0.18,4.09 0.39,6.07zm5.4 -12.81l2.8 0 9.51 12.66c0.12,0.16 0.14,0.36 0.05,0.54 -0.09,0.18 -0.26,0.29 -0.46,0.29l-2.8 0 -9.51 -12.67c-0.12,-0.16 -0.14,-0.36 -0.05,-0.54 0.09,-0.18 0.26,-0.28 0.46,-0.28zm11.32 0l-4.64 5.16m-2.09 2.33l-5.39 6m44.44 -5.66c2.04,1.82 5.57,0.61 5.64,-3.39 0.03,-2.23 -1.49,-4.33 -4.58,-4.44 -3.1,-0.11 -4.84,1.89 -5.04,3.84 -0.11,0.99 0.18,1.75 0.47,2.24m2.21 -0.3c0,0 -0.96,3.82 -1.07,4.47 -0.11,0.64 -0.24,3.19 0,3.24 0.25,0.05 1.47,-1.79 1.69,-2.95 0.22,-1.16 1.45,-5.51 1.67,-6.46 0.23,-0.96 -0.19,-1.67 -0.97,-1.64 -0.77,0.02 -2.1,0.95 -1.32,3.34zm-9.08 7.03c0.29,2.67 2.44,4.82 5.11,5.12 1.98,0.22 4.02,0.41 6.1,0.41 2.08,0 4.11,-0.19 6.1,-0.41 2.67,-0.3 4.82,-2.45 5.11,-5.12 0.21,-1.98 0.39,-4 0.39,-6.07 0,-2.06 -0.18,-4.09 -0.39,-6.06 -0.29,-2.68 -2.44,-4.83 -5.11,-5.12 -1.99,-0.23 -4.02,-0.41 -6.1,-0.41 -2.08,0 -4.12,0.18 -6.1,0.41 -2.67,0.29 -4.82,2.44 -5.11,5.12 -0.21,1.97 -0.39,4 -0.39,6.06 0,2.07 0.18,4.09 0.39,6.07zm-270.61 -0.02c0.29,2.68 2.44,4.83 5.11,5.13 1.99,0.22 4.03,0.41 6.1,0.41 2.08,0 4.12,-0.19 6.1,-0.41 2.67,-0.3 4.82,-2.45 5.11,-5.13 0.15,-1.36 0.28,-2.75 0.34,-4.16l-8.18 0 0 2.1 -7.09 0c0,-4.18 0,-3.33 0,-7.5l1.89 0 0 -8.05c-1.44,0.07 -2.87,0.21 -4.27,0.36 -2.67,0.3 -4.82,2.45 -5.11,5.12 -0.21,1.98 -0.39,4 -0.39,6.07 0,2.06 0.18,4.09 0.39,6.06zm22.78 -7.46c-0.05,-1.58 -0.2,-3.14 -0.36,-4.67 -0.29,-2.67 -2.44,-4.82 -5.11,-5.12 -1.51,-0.17 -3.06,-0.32 -4.63,-0.38l0 8.07 1.9 0 0 2.1 8.2 0zm286.49 7.48c0.29,2.67 2.44,4.82 5.11,5.12 1.98,0.22 4.02,0.41 6.1,0.41 2.08,0 4.11,-0.19 6.1,-0.41 2.67,-0.3 4.82,-2.45 5.11,-5.12 0.21,-1.98 0.39,-4 0.39,-6.07 0,-2.06 -0.18,-4.09 -0.39,-6.06 -0.29,-2.68 -2.44,-4.83 -5.11,-5.12 -1.99,-0.23 -4.02,-0.41 -6.1,-0.41 -2.08,0 -4.12,0.18 -6.1,0.41 -2.67,0.29 -4.82,2.44 -5.11,5.12 -0.21,1.97 -0.39,4 -0.39,6.06 0,2.07 0.18,4.09 0.39,6.07zm17.14 -12c1.09,1.09 1.09,2.86 0,3.95l-1.98 1.98c-1.09,1.09 -2.86,1.09 -3.95,0 -1.09,-1.08 -1.09,-2.86 0,-3.95l1.98 -1.98c1.09,-1.09 2.87,-1.08 3.95,0zm-5.93 5.93c1.09,1.09 1.09,2.87 0,3.95l-1.98 1.99c-1.09,1.08 -2.87,1.08 -3.95,0 -1.09,-1.09 -1.09,-2.87 0,-3.95l1.98 -1.99c1.08,-1.08 2.86,-1.08 3.95,0zm2.85 -2.85l-5.71 5.71m-162.99 3.21c0.29,2.67 2.44,4.82 5.11,5.12 1.98,0.22 4.02,0.41 6.1,0.41 2.08,0 4.11,-0.19 6.1,-0.41 2.67,-0.3 4.82,-2.45 5.11,-5.12 0.21,-1.98 0.39,-4 0.39,-6.07 0,-2.06 -0.18,-4.09 -0.39,-6.06 -0.29,-2.68 -2.44,-4.83 -5.11,-5.12 -1.99,-0.23 -4.02,-0.41 -6.1,-0.41 -2.08,0 -4.12,0.18 -6.1,0.41 -2.67,0.29 -4.82,2.44 -5.11,5.12 -0.21,1.97 -0.39,4 -0.39,6.06 0,2.07 0.18,4.09 0.39,6.07zm18.23 -0.08c0.35,-0.16 0.62,-1.31 0.66,-2.74 0.02,-1.05 0.05,-2.14 0.05,-3.25 0,-1.1 -0.03,-2.19 -0.05,-3.24 -0.04,-1.44 -0.31,-2.59 -0.66,-2.75m-2.54 6.81c0.12,-0.27 0.21,-0.54 0.21,-0.82 0,-0.27 -0.09,-0.55 -0.21,-0.81 -0.08,-0.1 -0.16,-0.19 -0.23,-0.29 -0.69,-0.82 -1.37,-1.61 -2.04,-2.37 -0.91,-1.04 -1.79,-1.69 -2.1,-1.55 -0.23,0.1 -0.46,0.22 -0.62,0.41 -0.16,0.2 -0.26,0.47 -0.34,0.74 -0.11,0.35 0.36,1.3 1.13,2.31 -0.59,-0.01 -1.19,-0.01 -1.8,-0.01 -1.1,0 -2.19,0.02 -3.24,0.05 -1.44,0.04 -2.59,0.33 -2.75,0.69 -0.12,0.27 -0.22,0.55 -0.22,0.83 0,0.29 0.1,0.56 0.22,0.83 0.16,0.37 1.31,0.66 2.75,0.7 1.05,0.03 2.14,0.05 3.24,0.05 0.61,0 1.21,-0.01 1.8,-0.02 -0.77,1.02 -1.24,1.97 -1.13,2.31 0.08,0.28 0.18,0.55 0.34,0.75 0.16,0.19 0.39,0.31 0.62,0.41 0.31,0.13 1.19,-0.52 2.1,-1.55 0.67,-0.77 1.35,-1.56 2.04,-2.38 0.07,-0.09 0.15,-0.19 0.23,-0.28zm-46.55 10.78l0 -6.22c0,-1.88 1.52,-3.41 3.41,-3.41 1.88,0 3.41,1.53 3.41,3.41l0 6.22 3.06 0c1.37,0 2.54,-1 2.74,-2.35 0.34,-2.15 0.41,-4.34 0.23,-6.5l2.51 0c0.8,0 1.29,-0.89 0.86,-1.57l-0.43 -0.68c-2.61,-4.11 -5.92,-7.71 -9.79,-10.65l-1.35 -1.03c-0.73,-0.55 -1.75,-0.55 -2.48,0l-1.35 1.03c-3.87,2.94 -7.18,6.54 -9.79,10.65l-0.43 0.68c-0.43,0.68 0.05,1.57 0.86,1.57l2.5 0c-0.17,2.16 -0.1,4.35 0.23,6.5 0.21,1.35 1.38,2.35 2.75,2.35l3.06 0zm-24.04 -5.53c-0.29,2.67 -2.44,4.82 -5.11,5.12 -1.99,0.22 -4.02,0.41 -6.1,0.41 -2.08,0 -4.12,-0.19 -6.1,-0.41 -2.67,-0.3 -4.82,-2.45 -5.11,-5.12 -0.21,-1.98 -0.39,-4 -0.39,-6.07 0,-2.06 0.18,-4.09 0.39,-6.06 0.29,-2.68 2.44,-4.83 5.11,-5.12 1.98,-0.23 4.02,-0.41 6.1,-0.41 2.08,0 4.11,0.18 6.1,0.41 2.67,0.29 4.82,2.44 5.11,5.12 0.21,1.97 0.39,4 0.39,6.06 0,2.07 -0.18,4.09 -0.39,6.07zm-18.24 -0.08c-0.34,-0.16 -0.61,-1.31 -0.65,-2.74 -0.03,-1.05 -0.05,-2.14 -0.05,-3.25 0,-1.1 0.02,-2.19 0.05,-3.24 0.04,-1.44 0.31,-2.59 0.65,-2.75m2.55 6.81c-0.12,-0.27 -0.21,-0.54 -0.21,-0.82 0,-0.27 0.09,-0.55 0.21,-0.81 0.08,-0.1 0.15,-0.19 0.23,-0.29 0.69,-0.82 1.37,-1.61 2.04,-2.37 0.91,-1.04 1.79,-1.69 2.1,-1.55 0.23,0.1 0.45,0.22 0.62,0.41 0.16,0.2 0.26,0.47 0.34,0.74 0.11,0.35 -0.36,1.3 -1.13,2.31 0.59,-0.01 1.19,-0.01 1.8,-0.01 1.1,0 2.19,0.02 3.24,0.05 1.44,0.04 2.59,0.33 2.75,0.69 0.11,0.27 0.22,0.55 0.22,0.83 0,0.29 -0.11,0.56 -0.22,0.83 -0.16,0.37 -1.31,0.66 -2.75,0.7 -1.05,0.03 -2.14,0.05 -3.24,0.05 -0.61,0 -1.21,-0.01 -1.8,-0.02 0.77,1.02 1.24,1.97 1.13,2.31 -0.08,0.28 -0.18,0.55 -0.34,0.75 -0.17,0.19 -0.39,0.31 -0.62,0.41 -0.31,0.13 -1.19,-0.52 -2.1,-1.55 -0.67,-0.77 -1.35,-1.56 -2.04,-2.38 -0.08,-0.09 -0.15,-0.19 -0.23,-0.28z"/>
  </g>
 </g>
</svg>
