<?xml version="1.0" encoding="UTF-8"?>
<!DOCTYPE svg PUBLIC "-//W3C//DTD SVG 1.1//EN" "http://www.w3.org/Graphics/SVG/1.1/DTD/svg11.dtd">
<!-- Creator: CorelDRAW 2021 (64-Bit) -->
<svg xmlns="http://www.w3.org/2000/svg" xml:space="preserve" width="798px" height="63px" version="1.1" style="shape-rendering:geometricPrecision; text-rendering:geometricPrecision; image-rendering:optimizeQuality; fill-rule:evenodd; clip-rule:evenodd"
viewBox="0 0 490.05 38.97"
 xmlns:xlink="http://www.w3.org/1999/xlink"
 xmlns:xodm="http://www.corel.com/coreldraw/odm/2003">
 <defs>
  <style type="text/css">
   <![CDATA[
    .str2 {stroke:#373435;stroke-width:0.55;stroke-miterlimit:2.61313}
    .str1 {stroke:#373435;stroke-width:0.55;stroke-miterlimit:2.61313}
    .str0 {stroke:black;stroke-width:0.55;stroke-miterlimit:2.61313}
    .fil1 {fill:none;fill-rule:nonzero}
    .fil2 {fill:#FEFEFE}
    .fil0 {fill:black;fill-rule:nonzero}
   ]]>
  </style>
 </defs>
 <g id="Layer_x0020_1">
  <metadata id="CorelCorpID_0Corel-Layer"/>
  <g>
   <path id="Oval" class="fil0" d="M11.32 7.03l0 -1.71 0 0 0.58 0.01 0.57 0.04 0.57 0.08 0.56 0.1 0.54 0.12 0.54 0.15 0.53 0.18 0.51 0.21 0.5 0.22 0.49 0.25 0.48 0.27 0.46 0.3 0.44 0.31 0.43 0.34 0.41 0.36 0.39 0.37 0.38 0.39 0.35 0.41 0.34 0.43 0.31 0.44 0.3 0.46 0.27 0.48 0.25 0.48 0.23 0.51 0.2 0.51 0.18 0.53 0.15 0.53 0.13 0.55 0.1 0.56 0.07 0.57 0.04 0.57 0.02 0.58 -1.71 0 -0.02 -0.49 -0.03 -0.49 -0.06 -0.48 -0.09 -0.47 -0.11 -0.47 -0.13 -0.46 -0.15 -0.44 -0.17 -0.44 -0.19 -0.42 -0.21 -0.42 -0.23 -0.4 -0.25 -0.39 -0.27 -0.38 -0.29 -0.36 -0.3 -0.35 -0.32 -0.33 -0.33 -0.32 -0.35 -0.3 -0.36 -0.29 -0.38 -0.26 -0.39 -0.25 -0.4 -0.23 -0.42 -0.22 -0.42 -0.19 -0.44 -0.17 -0.44 -0.15 -0.46 -0.13 -0.46 -0.11 -0.48 -0.08 -0.48 -0.06 -0.49 -0.04 -0.49 -0.01 0 0zm0 0c-0.47,0 -0.86,-0.39 -0.86,-0.86 0,-0.47 0.39,-0.85 0.86,-0.85l0 1.71zm-9.61 9.6l-1.71 0 0 0 0.02 -0.58 0.04 -0.57 0.07 -0.57 0.1 -0.56 0.13 -0.55 0.15 -0.53 0.18 -0.53 0.2 -0.51 0.23 -0.51 0.25 -0.48 0.27 -0.48 0.29 -0.46 0.32 -0.44 0.34 -0.43 0.35 -0.41 0.38 -0.39 0.39 -0.38 0.41 -0.35 0.43 -0.34 0.44 -0.31 0.46 -0.3 0.47 -0.27 0.49 -0.25 0.5 -0.22 0.52 -0.21 0.52 -0.18 0.54 -0.15 0.55 -0.12 0.56 -0.1 0.56 -0.08 0.58 -0.04 0.58 -0.01 0 1.71 -0.5 0.01 -0.49 0.04 -0.48 0.06 -0.47 0.08 -0.46 0.11 -0.46 0.13 -0.45 0.15 -0.43 0.17 -0.43 0.19 -0.41 0.22 -0.4 0.23 -0.39 0.25 -0.38 0.26 -0.36 0.29 -0.35 0.3 -0.33 0.32 -0.32 0.33 -0.31 0.35 -0.28 0.36 -0.27 0.38 -0.25 0.39 -0.23 0.4 -0.21 0.42 -0.19 0.42 -0.18 0.44 -0.15 0.44 -0.13 0.46 -0.1 0.47 -0.09 0.47 -0.06 0.48 -0.04 0.49 -0.01 0.49 0 0zm0 0c0,0.48 -0.38,0.86 -0.85,0.86 -0.48,0 -0.86,-0.38 -0.86,-0.86l1.71 0zm9.61 9.61l0 1.71 0 0 -0.58 -0.02 -0.58 -0.04 -0.56 -0.07 -0.56 -0.1 -0.55 -0.13 -0.54 -0.15 -0.52 -0.18 -0.52 -0.2 -0.5 -0.23 -0.49 -0.25 -0.47 -0.27 -0.46 -0.29 -0.44 -0.32 -0.43 -0.34 -0.41 -0.35 -0.39 -0.37 -0.38 -0.4 -0.35 -0.41 -0.34 -0.43 -0.32 -0.44 -0.29 -0.46 -0.27 -0.47 -0.25 -0.49 -0.23 -0.5 -0.2 -0.52 -0.18 -0.52 -0.15 -0.54 -0.13 -0.55 -0.1 -0.55 -0.07 -0.57 -0.04 -0.58 -0.02 -0.58 1.71 0 0.01 0.5 0.04 0.49 0.06 0.48 0.09 0.47 0.1 0.46 0.13 0.46 0.15 0.45 0.18 0.43 0.19 0.43 0.21 0.41 0.23 0.4 0.25 0.39 0.27 0.38 0.28 0.36 0.31 0.35 0.32 0.34 0.33 0.31 0.35 0.31 0.36 0.28 0.38 0.27 0.39 0.25 0.4 0.23 0.41 0.21 0.43 0.19 0.43 0.18 0.45 0.15 0.46 0.13 0.46 0.1 0.47 0.09 0.48 0.06 0.49 0.04 0.5 0.01 0 0zm0 0c0.47,0 0.85,0.38 0.85,0.85 0,0.48 -0.38,0.86 -0.85,0.86l0 -1.71zm9.61 -9.61l1.71 0 0 0 -0.02 0.58 -0.04 0.58 -0.07 0.57 -0.1 0.55 -0.13 0.55 -0.15 0.54 -0.18 0.52 -0.2 0.52 -0.23 0.5 -0.25 0.49 -0.27 0.47 -0.3 0.46 -0.31 0.44 -0.34 0.43 -0.35 0.41 -0.38 0.4 -0.39 0.37 -0.41 0.35 -0.43 0.34 -0.44 0.32 -0.46 0.29 -0.48 0.27 -0.49 0.25 -0.5 0.23 -0.51 0.2 -0.53 0.18 -0.54 0.15 -0.54 0.13 -0.56 0.1 -0.57 0.07 -0.57 0.04 -0.58 0.02 0 -1.71 0.49 -0.01 0.49 -0.04 0.48 -0.06 0.48 -0.09 0.46 -0.1 0.46 -0.13 0.44 -0.15 0.44 -0.18 0.42 -0.19 0.42 -0.21 0.4 -0.23 0.39 -0.25 0.38 -0.27 0.36 -0.28 0.35 -0.31 0.33 -0.31 0.32 -0.34 0.3 -0.35 0.29 -0.36 0.27 -0.38 0.25 -0.39 0.23 -0.4 0.21 -0.41 0.19 -0.43 0.17 -0.43 0.15 -0.45 0.13 -0.46 0.11 -0.46 0.09 -0.47 0.06 -0.48 0.03 -0.49 0.02 -0.5 0 0zm0 0c0,-0.47 0.38,-0.85 0.85,-0.85 0.47,0 0.86,0.38 0.86,0.85l-1.71 0zm-1.66 9.17c-0.33,-0.34 -0.33,-0.88 0,-1.21 0.34,-0.34 0.88,-0.34 1.21,0l-1.21 1.21zm7.61 7.61l-7.61 -7.61 1.21 -1.21 7.61 7.61 -1.21 1.21zm1.21 -1.21c0.34,0.33 0.34,0.87 0,1.2 -0.33,0.34 -0.87,0.34 -1.21,0.01l1.21 -1.21z"/>
  </g>
  <g>
   <path id="Path" class="fil1 str0" d="M489.19 24.78l0 4.7c0,2.6 -2.1,4.71 -4.7,4.71l-28.23 0c-2.6,0 -4.7,-2.11 -4.7,-4.71l0 -4.7 0 0m27.13 -9.41l-8.31 8.32 -8.32 -8.32m8.32 5.88l0 -16.47"/>
  </g>
  <g>
   <path class="fil2" d="M116.25 9.86c-2.88,2.99 -4.65,7.06 -4.65,11.53 0,9.18 7.44,16.63 16.62,16.63 9.18,0 16.63,-7.45 16.63,-16.63 0,-6.2 -3.4,-11.61 -8.43,-14.46 -0.1,3.67 -1.73,6.96 -4.27,9.25 0.14,-0.75 0.2,-1.51 0.2,-2.3 0,-7.17 -5.8,-12.93 -12.96,-12.93 0.11,3.27 -1,6.43 -3.14,8.91z"/>
   <path id="_1" class="fil1 str1" d="M116.25 9.86c-2.88,2.99 -4.65,7.06 -4.65,11.53 0,9.18 7.44,16.63 16.62,16.63 9.18,0 16.63,-7.45 16.63,-16.63 0,-6.2 -3.4,-11.61 -8.43,-14.46 -0.1,3.67 -1.73,6.96 -4.27,9.25 0.14,-0.75 0.2,-1.51 0.2,-2.3 0,-7.17 -5.8,-12.93 -12.96,-12.93 0.11,3.27 -1,6.43 -3.14,8.91z"/>
  </g>
  <g>
   <path class="fil2" d="M80.7 9.71l-3.32 -1.82c-0.32,-0.18 -0.44,-0.59 -0.27,-0.91 0.07,-0.11 0.16,-0.21 0.27,-0.27l3.32 -1.82c0.11,-0.06 0.21,-0.15 0.27,-0.27l1.82 -3.32c0.18,-0.32 0.59,-0.44 0.91,-0.26 0.12,0.06 0.21,0.15 0.27,0.26l1.82 3.32c0.07,0.12 0.16,0.21 0.27,0.27l3.32 1.82c0.33,0.18 0.45,0.59 0.27,0.92 -0.07,0.11 -0.16,0.2 -0.27,0.26l-3.32 1.82c-0.11,0.07 -0.2,0.16 -0.27,0.27l-1.82 3.32c-0.18,0.33 -0.59,0.45 -0.91,0.27 -0.12,-0.06 -0.21,-0.16 -0.27,-0.27l-1.82 -3.32c-0.06,-0.11 -0.16,-0.2 -0.27,-0.27zm-18.62 18.21l-8.52 -4.67c-0.83,-0.46 -1.14,-1.51 -0.68,-2.35 0.16,-0.29 0.39,-0.52 0.68,-0.68l8.52 -4.67c0.29,-0.16 0.52,-0.4 0.68,-0.69l4.68 -8.52c0.45,-0.83 1.5,-1.14 2.34,-0.68 0.29,0.16 0.53,0.39 0.69,0.68l4.67 8.52c0.16,0.29 0.39,0.53 0.68,0.69l8.52 4.67c0.83,0.46 1.14,1.51 0.68,2.34 -0.16,0.29 -0.39,0.53 -0.68,0.69l-8.52 4.67c-0.29,0.16 -0.52,0.4 -0.68,0.68l-4.67 8.52c-0.46,0.84 -1.51,1.14 -2.35,0.69 -0.29,-0.16 -0.53,-0.4 -0.68,-0.69l-4.68 -8.52c-0.16,-0.28 -0.39,-0.52 -0.68,-0.68z"/>
   <path id="_1_0" class="fil1 str1" d="M80.7 9.71l-3.32 -1.82c-0.32,-0.18 -0.44,-0.59 -0.27,-0.91 0.07,-0.11 0.16,-0.21 0.27,-0.27l3.32 -1.82c0.11,-0.06 0.21,-0.15 0.27,-0.27l1.82 -3.32c0.18,-0.32 0.59,-0.44 0.91,-0.26 0.12,0.06 0.21,0.15 0.27,0.26l1.82 3.32c0.07,0.12 0.16,0.21 0.27,0.27l3.32 1.82c0.33,0.18 0.45,0.59 0.27,0.92 -0.07,0.11 -0.16,0.2 -0.27,0.26l-3.32 1.82c-0.11,0.07 -0.2,0.16 -0.27,0.27l-1.82 3.32c-0.18,0.33 -0.59,0.45 -0.91,0.27 -0.12,-0.06 -0.21,-0.16 -0.27,-0.27l-1.82 -3.32c-0.06,-0.11 -0.16,-0.2 -0.27,-0.27zm-18.62 18.21l-8.52 -4.67c-0.83,-0.46 -1.14,-1.51 -0.68,-2.35 0.16,-0.29 0.39,-0.52 0.68,-0.68l8.52 -4.67c0.29,-0.16 0.52,-0.4 0.68,-0.69l4.68 -8.52c0.45,-0.83 1.5,-1.14 2.34,-0.68 0.29,0.16 0.53,0.39 0.69,0.68l4.67 8.52c0.16,0.29 0.39,0.53 0.68,0.69l8.52 4.67c0.83,0.46 1.14,1.51 0.68,2.34 -0.16,0.29 -0.39,0.53 -0.68,0.69l-8.52 4.67c-0.29,0.16 -0.52,0.4 -0.68,0.68l-4.67 8.52c-0.46,0.84 -1.51,1.14 -2.35,0.69 -0.29,-0.16 -0.53,-0.4 -0.68,-0.69l-4.68 -8.52c-0.16,-0.28 -0.39,-0.52 -0.68,-0.68z"/>
  </g>
  <g>
   <path class="fil2" d="M173.16 4.84l8.89 0 -8.89 0zm15.27 0l8.92 0 -8.92 0zm-18.49 -3.22c1.77,0 3.22,1.44 3.22,3.22 0,1.77 -1.45,3.22 -3.22,3.22 -1.77,0 -3.22,-1.45 -3.22,-3.22 0,-1.78 1.45,-3.22 3.22,-3.22zm30.63 0c-1.78,0 -3.22,1.44 -3.22,3.22 0,1.77 1.44,3.22 3.22,3.22 1.77,0 3.21,-1.45 3.21,-3.22 0,-1.78 -1.44,-3.22 -3.21,-3.22zm-17.49 0.03l4.32 0c0.56,0 1.03,0.46 1.03,1.03l0 4.32c0,0.57 -0.47,1.03 -1.03,1.03l-4.32 0c-0.57,0 -1.03,-0.46 -1.03,-1.03l0 -4.32c0,-0.57 0.46,-1.03 1.03,-1.03zm-15.33 15.31l4.32 0c0.56,0 1.03,0.47 1.03,1.03l0 4.33c0,0.56 -0.47,1.02 -1.03,1.02l-4.32 0c-0.57,0 -1.03,-0.46 -1.03,-1.02l0 -4.33c0,-0.56 0.46,-1.03 1.03,-1.03zm34.99 0l-4.32 0c-0.57,0 -1.03,0.47 -1.03,1.03l0 4.33c0,0.56 0.46,1.02 1.03,1.02l4.32 0c0.57,0 1.03,-0.46 1.03,-1.02l0 -4.33c0,-0.56 -0.46,-1.03 -1.03,-1.03zm-32.5 0c1.26,-5.9 5.91,-10.54 11.81,-11.79l-11.81 11.79zm18.19 -11.79c5.9,1.25 10.55,5.89 11.81,11.79l-11.81 -11.79zm-1.53 12.57l9.29 16.78c0.38,0.7 0.31,1.51 -0.19,2.13 -0.5,0.61 -1.29,0.84 -2.04,0.61l-8.72 -2.75 -8.72 2.75c-0.76,0.23 -1.54,0 -2.04,-0.61 -0.5,-0.62 -0.58,-1.43 -0.19,-2.13l9.29 -16.78c0.34,-0.62 0.95,-0.98 1.66,-0.98 0.71,0 1.32,0.36 1.66,0.98z"/>
   <path id="_1_1" class="fil1 str1" d="M173.16 4.84l8.89 0m6.38 0l8.92 0m-27.41 -3.22c1.77,0 3.22,1.44 3.22,3.22 0,1.77 -1.45,3.22 -3.22,3.22 -1.77,0 -3.22,-1.45 -3.22,-3.22 0,-1.78 1.45,-3.22 3.22,-3.22zm30.63 0c-1.78,0 -3.22,1.44 -3.22,3.22 0,1.77 1.44,3.22 3.22,3.22 1.77,0 3.21,-1.45 3.21,-3.22 0,-1.78 -1.44,-3.22 -3.21,-3.22zm-17.49 0.03l4.32 0c0.56,0 1.03,0.46 1.03,1.03l0 4.32c0,0.57 -0.47,1.03 -1.03,1.03l-4.32 0c-0.57,0 -1.03,-0.46 -1.03,-1.03l0 -4.32c0,-0.57 0.46,-1.03 1.03,-1.03zm-15.33 15.31l4.32 0c0.56,0 1.03,0.47 1.03,1.03l0 4.33c0,0.56 -0.47,1.02 -1.03,1.02l-4.32 0c-0.57,0 -1.03,-0.46 -1.03,-1.02l0 -4.33c0,-0.56 0.46,-1.03 1.03,-1.03zm34.99 0l-4.32 0c-0.57,0 -1.03,0.47 -1.03,1.03l0 4.33c0,0.56 0.46,1.02 1.03,1.02l4.32 0c0.57,0 1.03,-0.46 1.03,-1.02l0 -4.33c0,-0.56 -0.46,-1.03 -1.03,-1.03zm-32.5 0c1.26,-5.9 5.91,-10.54 11.81,-11.79m6.38 0c5.9,1.25 10.55,5.89 11.81,11.79m-13.34 0.78l9.29 16.78c0.38,0.7 0.31,1.51 -0.19,2.13 -0.5,0.61 -1.29,0.84 -2.04,0.61l-8.72 -2.75 -8.72 2.75c-0.76,0.23 -1.54,0 -2.04,-0.61 -0.5,-0.62 -0.58,-1.43 -0.19,-2.13l9.29 -16.78c0.34,-0.62 0.95,-0.98 1.66,-0.98 0.71,0 1.32,0.36 1.66,0.98z"/>
  </g>
  <g>
   <path class="fil2" d="M232.04 0.95l13.7 0c4.57,0 8.3,3.74 8.3,8.3l0 5.61c-1.52,0.31 -2.98,1.06 -4.16,2.24l-9.38 9.38c-1.32,1.32 -2.25,3.18 -2.36,5.02l-0.5 4.42c-0.09,0.74 0,1.45 0.23,2.1l-5.83 0c-4.57,0 -8.31,-3.74 -8.31,-8.31l0 -20.46c0,-4.57 3.74,-8.3 8.31,-8.3zm9.21 30.77c0.05,-0.96 0.54,-2.13 1.45,-3.04l9.38 -9.38c1.99,-1.99 5.25,-1.99 7.24,0 1.99,1.99 1.99,5.24 0,7.24l-9.38 9.38c-0.92,0.91 -2.1,1.41 -3.04,1.45l-4.6 0.52c-0.98,0.11 -1.68,-0.62 -1.57,-1.62l0.52 -4.55zm-11.17 -20.82l13.79 0c1.01,0 1.84,0.83 1.84,1.84 0,1.02 -0.83,1.84 -1.84,1.84l-13.79 0c-1.01,0 -1.84,-0.82 -1.84,-1.84 0,-1.01 0.83,-1.84 1.84,-1.84zm0 6.74l8.56 0c1.01,0 1.84,0.83 1.84,1.84 0,1.01 -0.83,1.84 -1.84,1.84l-8.56 0c-1.01,0 -1.84,-0.83 -1.84,-1.84 0,-1.01 0.82,-1.84 1.84,-1.84zm0 6.74l3.33 0c1.02,0 1.84,0.83 1.84,1.84 0,1.01 -0.82,1.84 -1.84,1.84l-3.33 0c-1.01,0 -1.84,-0.83 -1.84,-1.84 0,-1.01 0.83,-1.84 1.84,-1.84z"/>
   <path id="_1_2" class="fil1 str2" d="M232.04 0.95l13.7 0c4.57,0 8.3,3.74 8.3,8.3l0 5.61c-1.52,0.31 -2.98,1.06 -4.16,2.24l-9.38 9.38c-1.32,1.32 -2.25,3.18 -2.36,5.02l-0.5 4.42c-0.09,0.74 0,1.45 0.23,2.1l-5.83 0c-4.57,0 -8.31,-3.74 -8.31,-8.31l0 -20.46c0,-4.57 3.74,-8.3 8.31,-8.3zm9.21 30.77c0.05,-0.96 0.54,-2.13 1.45,-3.04l9.38 -9.38c1.99,-1.99 5.25,-1.99 7.24,0 1.99,1.99 1.99,5.24 0,7.24l-9.38 9.38c-0.92,0.91 -2.1,1.41 -3.04,1.45l-4.6 0.52c-0.98,0.11 -1.68,-0.62 -1.57,-1.62l0.52 -4.55zm-11.17 -20.82l13.79 0c1.01,0 1.84,0.83 1.84,1.84 0,1.02 -0.83,1.84 -1.84,1.84l-13.79 0c-1.01,0 -1.84,-0.82 -1.84,-1.84 0,-1.01 0.83,-1.84 1.84,-1.84zm0 6.74l8.56 0c1.01,0 1.84,0.83 1.84,1.84 0,1.01 -0.83,1.84 -1.84,1.84l-8.56 0c-1.01,0 -1.84,-0.83 -1.84,-1.84 0,-1.01 0.82,-1.84 1.84,-1.84zm0 6.74l3.33 0c1.02,0 1.84,0.83 1.84,1.84 0,1.01 -0.82,1.84 -1.84,1.84l-3.33 0c-1.01,0 -1.84,-0.83 -1.84,-1.84 0,-1.01 0.83,-1.84 1.84,-1.84z"/>
  </g>
  <g>
   <path id="Vector" class="fil0" d="M318.61 14.98c-0.04,0.47 -0.46,0.81 -0.93,0.77 -0.47,-0.04 -0.81,-0.46 -0.77,-0.93l1.7 0.16zm-1.63 -1.57l1.71 -0.02 0 0.01 0 0.05 0 0.05 0 0.06 0 0.04 0 0.04 0 0.06 0 0.05 -0.01 0.05 0 0.05 0 0.05 0 0.04 0 0.05 0 0.05 -0.01 0.06 0 0.04 0 0.05 0 0.05 0 0.05 -0.01 0.05 0 0.05 0 0.05 -0.01 0.05 0 0.05 0 0.05 -0.01 0.04 0 0.06 0 0.04 -0.01 0.05 0 0.05 -0.01 0.05 0 0.05 -0.01 0.05 -1.7 -0.16 0.01 -0.05 0 -0.04 0 -0.04 0.01 -0.05 0 -0.04 0 -0.05 0.01 -0.04 0 -0.04 0 -0.05 0.01 -0.04 0 -0.05 0 -0.04 0 -0.04 0.01 -0.04 0 -0.06 0 -0.04 0 -0.04 0.01 -0.05 0 -0.04 0 -0.04 0 -0.05 0 -0.05 0 -0.04 0 -0.04 0 -0.05 0.01 -0.05 0 -0.03 0 -0.05 0 -0.05 0 -0.04 0 -0.04 0 -0.05 0 0.01zm0 -0.01c0,-0.47 0.38,-0.85 0.85,-0.85 0.48,0 0.86,0.38 0.86,0.85l-1.71 0zm-18.34 -4.7l1.32 -1.08 -1.32 0 0.87 -1.01 0.88 -0.9 0.88 -0.81 0.88 -0.7 0.89 -0.6 0.89 -0.51 0.88 -0.42 0.89 -0.32 0.87 -0.24 0.87 -0.14 0.85 -0.07 0.84 0.02 0.81 0.1 0.79 0.17 0.77 0.23 0.74 0.31 0.71 0.37 0.67 0.42 0.64 0.48 0.6 0.52 0.57 0.58 0.52 0.61 0.49 0.65 0.44 0.69 0.4 0.71 0.35 0.75 0.3 0.77 0.26 0.79 0.21 0.81 0.15 0.83 0.1 0.83 0.04 0.85 -1.71 0.02 -0.04 -0.73 -0.08 -0.72 -0.14 -0.71 -0.17 -0.7 -0.23 -0.69 -0.26 -0.67 -0.31 -0.64 -0.34 -0.62 -0.38 -0.59 -0.41 -0.56 -0.45 -0.53 -0.48 -0.48 -0.51 -0.44 -0.53 -0.4 -0.55 -0.35 -0.58 -0.3 -0.6 -0.25 -0.62 -0.19 -0.64 -0.14 -0.65 -0.07 -0.67 -0.02 -0.69 0.05 -0.71 0.12 -0.73 0.2 -0.74 0.27 -0.75 0.35 -0.77 0.45 -0.78 0.53 -0.79 0.63 -0.8 0.72 -0.81 0.84 -0.81 0.93 -1.32 0zm1.32 0c-0.3,0.37 -0.84,0.43 -1.2,0.13 -0.37,-0.3 -0.42,-0.84 -0.12,-1.21l1.32 1.08zm-18.34 4.7l-1.71 0 0 -0.01 0.04 -0.85 0.1 -0.83 0.15 -0.83 0.21 -0.81 0.25 -0.79 0.31 -0.77 0.35 -0.75 0.4 -0.71 0.44 -0.69 0.49 -0.65 0.52 -0.61 0.57 -0.58 0.6 -0.52 0.64 -0.48 0.67 -0.42 0.71 -0.37 0.74 -0.3 0.76 -0.24 0.8 -0.17 0.81 -0.1 0.84 -0.02 0.85 0.07 0.87 0.14 0.87 0.24 0.88 0.32 0.89 0.42 0.89 0.51 0.88 0.6 0.89 0.7 0.88 0.81 0.88 0.9 0.87 1.01 -1.32 1.08 -0.81 -0.93 -0.81 -0.84 -0.8 -0.72 -0.79 -0.63 -0.78 -0.53 -0.77 -0.44 -0.76 -0.36 -0.74 -0.27 -0.72 -0.2 -0.71 -0.12 -0.69 -0.05 -0.67 0.02 -0.65 0.07 -0.64 0.14 -0.62 0.19 -0.6 0.25 -0.58 0.3 -0.55 0.35 -0.53 0.4 -0.51 0.44 -0.48 0.48 -0.45 0.53 -0.41 0.56 -0.38 0.59 -0.35 0.62 -0.3 0.64 -0.27 0.67 -0.22 0.69 -0.18 0.7 -0.13 0.71 -0.08 0.73 -0.04 0.72 0 -0.01zm0 0.01c-0.01,0.48 -0.4,0.85 -0.87,0.85 -0.47,-0.01 -0.85,-0.4 -0.84,-0.87l1.71 0.02zm17.67 21.95l-0.01 1.71 -0.49 -0.04 -0.52 -0.11 -0.55 -0.17 -0.58 -0.22 -0.63 -0.27 -0.66 -0.33 -0.69 -0.38 -0.72 -0.42 -0.75 -0.48 -0.77 -0.52 -0.79 -0.56 -0.8 -0.61 -0.81 -0.66 -0.82 -0.69 -0.81 -0.74 -0.81 -0.77 -0.79 -0.82 -0.78 -0.85 -0.77 -0.88 -0.73 -0.92 -0.71 -0.95 -0.67 -0.98 -0.64 -1.01 -0.59 -1.05 -0.54 -1.07 -0.48 -1.1 -0.43 -1.12 -0.36 -1.15 -0.29 -1.17 -0.21 -1.19 -0.14 -1.21 -0.04 -1.23 1.71 0 0.04 1.1 0.12 1.1 0.19 1.08 0.27 1.06 0.33 1.05 0.39 1.04 0.45 1.01 0.5 1 0.55 0.97 0.6 0.95 0.63 0.93 0.67 0.9 0.7 0.87 0.72 0.84 0.75 0.81 0.76 0.77 0.77 0.74 0.77 0.7 0.78 0.67 0.77 0.62 0.77 0.58 0.75 0.54 0.73 0.49 0.7 0.45 0.67 0.39 0.64 0.35 0.6 0.3 0.55 0.24 0.49 0.18 0.42 0.13 0.35 0.08 0.24 0.02zm0 0c0.47,0 0.85,0.39 0.85,0.86 0,0.47 -0.39,0.85 -0.86,0.85l0.01 -1.71zm9.07 -18.56l0 -1.71 0 0 0.59 0.01 0.58 0.03 0.56 0.05 0.55 0.08 0.53 0.09 0.52 0.12 0.51 0.14 0.48 0.16 0.48 0.18 0.45 0.2 0.44 0.22 0.42 0.25 0.41 0.26 0.38 0.29 0.37 0.31 0.34 0.32 0.33 0.35 0.31 0.37 0.29 0.38 0.26 0.41 0.25 0.42 0.22 0.44 0.2 0.45 0.18 0.47 0.16 0.49 0.14 0.51 0.12 0.52 0.09 0.53 0.07 0.55 0.06 0.56 0.03 0.58 0.01 0.59 -1.71 0 -0.01 -0.53 -0.03 -0.51 -0.05 -0.5 -0.06 -0.48 -0.08 -0.46 -0.1 -0.44 -0.12 -0.43 -0.13 -0.41 -0.15 -0.39 -0.16 -0.37 -0.19 -0.36 -0.19 -0.33 -0.22 -0.33 -0.22 -0.3 -0.25 -0.29 -0.25 -0.28 -0.28 -0.26 -0.29 -0.24 -0.31 -0.23 -0.32 -0.21 -0.34 -0.2 -0.35 -0.18 -0.38 -0.16 -0.39 -0.15 -0.41 -0.13 -0.42 -0.12 -0.44 -0.1 -0.46 -0.08 -0.48 -0.07 -0.5 -0.04 -0.51 -0.03 -0.53 -0.01 0 0zm0 0c-0.47,0 -0.86,-0.38 -0.86,-0.86 0,-0.47 0.39,-0.85 0.86,-0.85l0 1.71zm-8.62 8.62l-1.71 0 0 0 0.01 -0.56 0.04 -0.54 0.06 -0.54 0.09 -0.52 0.11 -0.51 0.13 -0.51 0.15 -0.49 0.18 -0.47 0.2 -0.47 0.22 -0.45 0.24 -0.43 0.26 -0.42 0.28 -0.41 0.3 -0.38 0.32 -0.37 0.34 -0.36 0.35 -0.33 0.38 -0.32 0.39 -0.3 0.4 -0.28 0.42 -0.26 0.43 -0.24 0.45 -0.22 0.46 -0.19 0.48 -0.18 0.49 -0.15 0.5 -0.13 0.51 -0.11 0.52 -0.08 0.53 -0.06 0.54 -0.04 0.55 -0.01 0 1.71 -0.47 0.01 -0.47 0.03 -0.45 0.05 -0.44 0.07 -0.43 0.1 -0.42 0.1 -0.41 0.13 -0.39 0.15 -0.39 0.16 -0.37 0.18 -0.36 0.2 -0.35 0.21 -0.33 0.23 -0.32 0.25 -0.3 0.26 -0.29 0.27 -0.28 0.29 -0.26 0.31 -0.25 0.32 -0.23 0.33 -0.22 0.35 -0.19 0.35 -0.19 0.38 -0.16 0.38 -0.15 0.4 -0.13 0.41 -0.11 0.42 -0.09 0.43 -0.07 0.45 -0.06 0.45 -0.03 0.47 -0.01 0.48 0 0zm0 0c0,0.47 -0.38,0.85 -0.85,0.85 -0.48,0 -0.86,-0.38 -0.86,-0.85l1.71 0zm8.62 8.62l0 1.71 0 0 -0.59 -0.01 -0.58 -0.03 -0.56 -0.06 -0.55 -0.07 -0.53 -0.1 -0.52 -0.11 -0.51 -0.14 -0.48 -0.16 -0.47 -0.18 -0.46 -0.2 -0.44 -0.22 -0.42 -0.25 -0.41 -0.27 -0.38 -0.28 -0.37 -0.31 -0.35 -0.33 -0.32 -0.34 -0.31 -0.37 -0.29 -0.39 -0.26 -0.4 -0.25 -0.42 -0.22 -0.44 -0.2 -0.46 -0.18 -0.47 -0.16 -0.49 -0.14 -0.5 -0.12 -0.52 -0.09 -0.53 -0.07 -0.55 -0.06 -0.56 -0.03 -0.58 -0.01 -0.59 1.71 0 0.01 0.53 0.03 0.51 0.05 0.5 0.06 0.48 0.08 0.46 0.1 0.44 0.12 0.42 0.13 0.41 0.15 0.39 0.17 0.38 0.18 0.35 0.19 0.34 0.21 0.32 0.23 0.31 0.25 0.29 0.25 0.27 0.28 0.26 0.29 0.25 0.31 0.22 0.32 0.22 0.34 0.19 0.35 0.18 0.38 0.17 0.39 0.15 0.4 0.13 0.43 0.12 0.44 0.1 0.46 0.08 0.48 0.06 0.5 0.05 0.51 0.03 0.53 0.01 0 0zm0 0c0.47,0 0.86,0.38 0.86,0.85 0,0.47 -0.39,0.86 -0.86,0.86l0 -1.71zm8.62 -8.62l1.71 0 0 0 -0.01 0.55 -0.04 0.55 -0.06 0.53 -0.09 0.53 -0.11 0.51 -0.13 0.5 -0.15 0.49 -0.18 0.48 -0.2 0.46 -0.22 0.45 -0.24 0.44 -0.26 0.42 -0.28 0.4 -0.3 0.39 -0.32 0.37 -0.34 0.35 -0.35 0.34 -0.38 0.32 -0.39 0.3 -0.4 0.27 -0.42 0.26 -0.44 0.24 -0.44 0.22 -0.47 0.2 -0.47 0.17 -0.49 0.16 -0.5 0.13 -0.51 0.1 -0.52 0.09 -0.53 0.06 -0.54 0.04 -0.55 0.01 0 -1.71 0.47 -0.01 0.46 -0.04 0.46 -0.05 0.44 -0.07 0.43 -0.09 0.42 -0.11 0.41 -0.13 0.39 -0.14 0.39 -0.17 0.37 -0.18 0.36 -0.19 0.34 -0.22 0.34 -0.23 0.32 -0.24 0.3 -0.26 0.29 -0.28 0.28 -0.29 0.26 -0.3 0.25 -0.32 0.23 -0.33 0.21 -0.35 0.2 -0.36 0.19 -0.37 0.16 -0.39 0.15 -0.39 0.13 -0.41 0.11 -0.42 0.09 -0.44 0.07 -0.44 0.06 -0.46 0.03 -0.46 0.01 -0.48 0 0zm0 0c0,-0.47 0.38,-0.86 0.85,-0.86 0.48,0 0.86,0.39 0.86,0.86l-1.71 0zm-5.46 -3.32c0.31,0.35 0.28,0.89 -0.07,1.21 -0.35,0.31 -0.89,0.28 -1.21,-0.07l1.28 -1.14zm-3.05 0.5l-0.15 -1.71 0 0 0.18 -0.01 0.18 0 0.17 0.01 0.17 0.01 0.17 0.02 0.16 0.02 0.15 0.03 0.15 0.04 0.15 0.04 0.13 0.05 0.13 0.04 0.13 0.05 0.12 0.06 0.12 0.05 0.11 0.06 0.1 0.06 0.1 0.06 0.09 0.06 0.09 0.05 0.08 0.06 0.08 0.06 0.06 0.05 0.07 0.05 0.05 0.05 0.06 0.05 0.05 0.04 0.03 0.04 0.04 0.03 0.03 0.03 0.02 0.03 0.01 0 0.02 0.02 -1.28 1.14 0.01 0.01 -0.01 -0.01 0 0 0 0 -0.02 -0.02 -0.02 -0.02 -0.02 -0.02 -0.03 -0.02 -0.03 -0.03 -0.04 -0.03 -0.04 -0.03 -0.04 -0.03 -0.05 -0.03 -0.05 -0.04 -0.05 -0.03 -0.06 -0.04 -0.06 -0.03 -0.07 -0.04 -0.07 -0.03 -0.07 -0.03 -0.07 -0.03 -0.08 -0.03 -0.08 -0.02 -0.07 -0.03 -0.09 -0.02 -0.08 -0.01 -0.09 -0.02 -0.1 -0.01 -0.09 -0.01 -0.1 0 -0.1 0 -0.1 0.01 0 0zm0 0c-0.47,0.04 -0.89,-0.31 -0.93,-0.78 -0.04,-0.47 0.31,-0.89 0.78,-0.93l0.15 1.71zm-1.5 1.17l-1.71 0 0 0 0.01 -0.13 0.01 -0.13 0.01 -0.13 0.02 -0.13 0.03 -0.13 0.04 -0.13 0.04 -0.12 0.05 -0.13 0.05 -0.12 0.07 -0.12 0.06 -0.12 0.08 -0.11 0.08 -0.11 0.08 -0.11 0.1 -0.11 0.09 -0.1 0.1 -0.09 0.11 -0.1 0.12 -0.08 0.12 -0.09 0.13 -0.08 0.12 -0.07 0.14 -0.07 0.14 -0.06 0.14 -0.06 0.15 -0.05 0.15 -0.05 0.16 -0.04 0.16 -0.03 0.16 -0.03 0.17 -0.03 0.17 -0.02 0.15 1.71 -0.11 0.01 -0.11 0.02 -0.1 0.01 -0.09 0.02 -0.09 0.03 -0.09 0.02 -0.08 0.03 -0.07 0.03 -0.07 0.03 -0.07 0.04 -0.06 0.03 -0.06 0.04 -0.05 0.04 -0.05 0.03 -0.04 0.04 -0.05 0.04 -0.04 0.04 -0.03 0.04 -0.04 0.05 -0.03 0.04 -0.02 0.04 -0.03 0.04 -0.02 0.05 -0.02 0.05 -0.02 0.04 -0.01 0.04 -0.02 0.05 -0.01 0.04 -0.01 0.05 0 0.05 0 0.04 -0.01 0.05 0 0zm0 0c0,0.47 -0.38,0.86 -0.85,0.86 -0.47,0 -0.86,-0.39 -0.86,-0.86l1.71 0zm4.76 3.68l-1.71 0 0 0 0 -0.16 -0.03 -0.12 -0.02 -0.09 -0.04 -0.06 -0.03 -0.06 -0.05 -0.05 -0.06 -0.05 -0.09 -0.06 -0.11 -0.05 -0.12 -0.06 -0.15 -0.05 -0.17 -0.05 -0.18 -0.04 -0.2 -0.04 -0.21 -0.05 -0.22 -0.04 -0.22 -0.04 -0.23 -0.04 -0.24 -0.05 -0.24 -0.06 -0.24 -0.07 -0.24 -0.08 -0.25 -0.1 -0.24 -0.13 -0.24 -0.15 -0.22 -0.18 -0.21 -0.22 -0.18 -0.26 -0.14 -0.28 -0.11 -0.32 -0.06 -0.33 -0.02 -0.34 1.71 0 0.01 0.15 0.02 0.11 0.03 0.08 0.03 0.06 0.03 0.05 0.05 0.04 0.06 0.06 0.09 0.05 0.1 0.05 0.13 0.05 0.15 0.05 0.17 0.05 0.19 0.05 0.2 0.04 0.21 0.04 0.22 0.04 0.22 0.04 0.24 0.05 0.23 0.05 0.25 0.06 0.24 0.07 0.24 0.09 0.25 0.1 0.24 0.13 0.24 0.16 0.22 0.19 0.21 0.22 0.18 0.26 0.14 0.29 0.1 0.32 0.06 0.33 0.01 0.35 0 0zm0 0c0,0.47 -0.38,0.85 -0.85,0.85 -0.47,0 -0.86,-0.38 -0.86,-0.85l1.71 0zm-6.47 1.4l1.16 -1.26 0.13 0.11 0.14 0.1 0.14 0.1 0.15 0.08 0.15 0.06 0.15 0.06 0.16 0.05 0.16 0.04 0.17 0.03 0.16 0.02 0.16 0.02 0.17 0 0.16 -0.01 0.15 -0.01 0.16 -0.02 0.15 -0.03 0.15 -0.04 0.13 -0.04 0.14 -0.05 0.12 -0.05 0.11 -0.06 0.11 -0.06 0.09 -0.06 0.07 -0.06 0.07 -0.06 0.05 -0.05 0.04 -0.06 0.03 -0.04 0.02 -0.04 0.01 -0.03 0 -0.02 0 -0.02 1.71 0 -0.01 0.25 -0.05 0.24 -0.08 0.23 -0.1 0.21 -0.12 0.2 -0.14 0.18 -0.15 0.17 -0.17 0.15 -0.18 0.14 -0.19 0.12 -0.19 0.12 -0.21 0.1 -0.21 0.09 -0.22 0.08 -0.23 0.07 -0.23 0.06 -0.24 0.05 -0.24 0.03 -0.25 0.02 -0.25 0.01 -0.26 0 -0.25 -0.02 -0.26 -0.04 -0.26 -0.05 -0.26 -0.06 -0.26 -0.08 -0.25 -0.1 -0.26 -0.12 -0.24 -0.13 -0.25 -0.15 -0.23 -0.18 -0.23 -0.19zm0 0c-0.34,-0.32 -0.37,-0.86 -0.05,-1.21 0.32,-0.34 0.86,-0.37 1.21,-0.05l-1.16 1.26zm2.47 -8.96c0,-0.47 0.38,-0.85 0.85,-0.85 0.48,0 0.86,0.38 0.86,0.85l-1.71 0zm0 1.85l0 -1.85 1.71 0 0 1.85 -1.71 0zm1.71 0c0,0.47 -0.38,0.85 -0.86,0.85 -0.47,0 -0.85,-0.38 -0.85,-0.85l1.71 0zm-1.71 7.36c0,-0.47 0.38,-0.86 0.85,-0.86 0.48,0 0.86,0.39 0.86,0.86l-1.71 0zm0 1.85l0 -1.85 1.71 0 0 1.85 -1.71 0zm1.71 0c0,0.47 -0.38,0.85 -0.86,0.85 -0.47,0 -0.85,-0.38 -0.85,-0.85l1.71 0z"/>
  </g>
  <g>
   <path id="Intersect" class="fil1 str0" d="M369.32 17.39c0,-4.08 -0.12,-7.03 -0.36,-10.86 -0.18,-2.81 -2.4,-5.04 -5.21,-5.23 -3.3,-0.23 -6.48,-0.35 -10.43,-0.35 -1.31,0 -2.53,0.01 -3.7,0.04 -1.16,0.02 -2.3,0.41 -3.22,1.12 -2.89,2.24 -4.81,4.15 -6.92,6.86 -1.39,1.8 -2.11,4.02 -2.15,6.29 -0.01,1.04 -0.02,2.1 -0.02,3.16 0,4.07 0.13,8.04 0.37,11.88 0.17,2.81 2.4,5.04 5.2,5.23 2.43,0.17 7.31,0.28 9.97,0.33m21.53 2.16l-3.03 -3.03m-5.25 1.75c4.48,0 7,-2.52 7,-7 0,-4.49 -2.52,-7.01 -7,-7.01 -4.48,0 -7,2.52 -7,7.01 0,4.48 2.52,7 7,7zm-7.24 -18.28l-11.09 0m6.44 8.46l-6.41 0m11.06 -17.24l-6.69 0"/>
  </g>
  <g>
   <path id="Intersect_3" class="fil0" d="M419.61 28.74c-0.31,-0.42 -0.23,-1.02 0.19,-1.33 0.42,-0.32 1.02,-0.23 1.33,0.19l-1.52 1.14zm3.09 4.15l-3.09 -4.15 1.52 -1.14 3.1 4.15 0.06 1.05 -1.59 0.09zm1.53 -1.14c0.31,0.42 0.23,1.02 -0.19,1.33 -0.43,0.32 -1.02,0.23 -1.34,-0.19l1.53 -1.14zm7.13 -10.1l1.05 1.58 -0.36 0.24 -0.34 0.24 -0.32 0.23 -0.32 0.23 -0.3 0.22 -0.28 0.23 -0.28 0.22 -0.26 0.22 -0.26 0.23 -0.24 0.22 -0.24 0.23 -0.23 0.23 -0.23 0.24 -0.22 0.24 -0.22 0.25 -0.22 0.25 -0.21 0.26 -0.22 0.28 -0.21 0.28 -0.22 0.29 -0.21 0.31 -0.22 0.32 -0.22 0.33 -0.23 0.35 -0.23 0.37 -0.24 0.38 -0.24 0.4 -0.26 0.41 -0.25 0.44 -0.27 0.46 -0.28 0.47 -0.29 0.5 -1.65 -0.95 0.29 -0.51 0.29 -0.48 0.27 -0.46 0.26 -0.44 0.26 -0.43 0.25 -0.41 0.25 -0.39 0.24 -0.38 0.24 -0.37 0.23 -0.35 0.24 -0.34 0.23 -0.34 0.23 -0.31 0.23 -0.31 0.24 -0.3 0.24 -0.3 0.24 -0.28 0.24 -0.28 0.25 -0.27 0.26 -0.26 0.26 -0.26 0.27 -0.26 0.28 -0.25 0.28 -0.25 0.29 -0.24 0.3 -0.25 0.32 -0.24 0.32 -0.25 0.33 -0.24 0.35 -0.25 0.36 -0.25 0.38 -0.25zm0 0c0.43,-0.29 1.02,-0.18 1.31,0.26 0.3,0.43 0.18,1.03 -0.26,1.32l-1.05 -1.58zm-3.59 -4.26c0,0.52 -0.42,0.95 -0.95,0.95 -0.52,0 -0.95,-0.43 -0.95,-0.95l1.9 0zm-2.25 -10.8l1.9 -0.12 0 0 0.02 0.36 0.02 0.35 0.02 0.35 0.02 0.34 0.02 0.35 0.02 0.33 0.02 0.34 0.01 0.33 0.02 0.33 0.02 0.33 0.01 0.33 0.02 0.33 0.01 0.32 0.01 0.33 0.01 0.32 0.02 0.33 0.01 0.32 0.01 0.33 0.01 0.33 0.01 0.33 0 0.33 0.01 0.34 0.01 0.33 0 0.35 0.01 0.34 0 0.35 0.01 0.35 0 0.36 0 0.36 0 0.37 0 0.38 0 0.38 -1.9 0 0 -0.38 0 -0.37 0 -0.37 0 -0.35 -0.01 -0.36 0 -0.35 0 -0.34 -0.01 -0.34 0 -0.34 -0.01 -0.34 -0.01 -0.33 -0.01 -0.32 0 -0.33 -0.01 -0.33 -0.01 -0.32 -0.01 -0.32 -0.02 -0.32 -0.01 -0.32 -0.01 -0.32 -0.01 -0.32 -0.02 -0.33 -0.01 -0.32 -0.02 -0.32 -0.01 -0.33 -0.02 -0.33 -0.02 -0.33 -0.02 -0.34 -0.02 -0.34 -0.02 -0.34 -0.02 -0.35 -0.02 -0.35 -0.02 -0.35 0 0zm0 0c-0.03,-0.53 0.37,-0.98 0.89,-1.01 0.52,-0.03 0.97,0.36 1.01,0.89l-1.9 0.12zm-4.33 -4.34l0.13 -1.9 0 0 0.31 0.03 0.3 0.04 0.3 0.05 0.29 0.07 0.28 0.08 0.29 0.1 0.27 0.1 0.27 0.12 0.26 0.13 0.26 0.14 0.25 0.15 0.24 0.16 0.23 0.17 0.23 0.18 0.21 0.19 0.21 0.2 0.2 0.21 0.19 0.22 0.18 0.22 0.17 0.24 0.16 0.24 0.15 0.25 0.14 0.25 0.13 0.27 0.11 0.27 0.11 0.27 0.09 0.29 0.08 0.28 0.07 0.29 0.05 0.3 0.04 0.3 0.03 0.31 -1.9 0.12 -0.02 -0.22 -0.03 -0.21 -0.04 -0.21 -0.04 -0.21 -0.06 -0.21 -0.06 -0.2 -0.08 -0.19 -0.08 -0.19 -0.09 -0.19 -0.1 -0.18 -0.1 -0.18 -0.12 -0.17 -0.12 -0.16 -0.13 -0.16 -0.13 -0.16 -0.14 -0.15 -0.15 -0.14 -0.16 -0.13 -0.16 -0.13 -0.16 -0.12 -0.17 -0.12 -0.18 -0.11 -0.18 -0.09 -0.19 -0.1 -0.19 -0.08 -0.19 -0.07 -0.2 -0.07 -0.21 -0.06 -0.2 -0.05 -0.21 -0.04 -0.22 -0.03 -0.22 -0.01 0 0zm0 0c-0.52,-0.04 -0.92,-0.5 -0.88,-1.02 0.04,-0.52 0.49,-0.92 1.01,-0.88l-0.13 1.9zm-10.37 -0.35l0 -1.9 0 0 0.38 0 0.36 0 0.36 0 0.36 0.01 0.35 0 0.35 0 0.35 0.01 0.34 0 0.34 0.01 0.34 0.01 0.34 0 0.33 0.01 0.33 0.01 0.32 0.01 0.33 0.01 0.32 0.01 0.32 0.01 0.32 0.01 0.32 0.01 0.31 0.02 0.32 0.01 0.31 0.02 0.31 0.01 0.31 0.02 0.31 0.01 0.31 0.02 0.31 0.02 0.31 0.02 0.31 0.02 0.31 0.02 0.31 0.02 0.31 0.02 -0.13 1.9 -0.3 -0.03 -0.31 -0.02 -0.31 -0.02 -0.3 -0.01 -0.31 -0.02 -0.3 -0.02 -0.31 -0.02 -0.31 -0.01 -0.3 -0.02 -0.31 -0.01 -0.31 -0.02 -0.31 -0.01 -0.31 -0.02 -0.31 -0.01 -0.32 -0.01 -0.32 -0.01 -0.31 -0.01 -0.32 -0.01 -0.33 -0.01 -0.32 -0.01 -0.33 -0.01 -0.33 0 -0.33 -0.01 -0.34 -0.01 -0.34 0 -0.34 -0.01 -0.34 0 -0.36 0 -0.35 0 -0.36 -0.01 -0.36 0 -0.37 0 0 0zm0 0c-0.52,0 -0.95,-0.42 -0.95,-0.95 0,-0.52 0.43,-0.95 0.95,-0.95l0 1.9zm-3.67 0.04l-0.04 -1.9 0 0 0.11 0 0.11 -0.01 0.11 0 0.11 0 0.12 0 0.11 0 0.11 -0.01 0.11 0 0.12 0 0.11 0 0.11 0 0.12 0 0.11 -0.01 0.12 0 0.11 0 0.12 0 0.11 0 0.12 0 0.12 0 0.11 0 0.12 -0.01 0.12 0 0.12 0 0.12 0 0.12 0 0.11 0 0.13 0 0.12 0 0.12 0 0.12 0 0.12 0 0.12 0 0 1.9 -0.12 0 -0.12 0 -0.12 0 -0.12 0 -0.12 0 -0.11 0 -0.13 0 -0.12 0 -0.11 0.01 -0.12 0 -0.12 0 -0.11 0 -0.12 0 -0.11 0 -0.12 0 -0.11 0 -0.12 0 -0.11 0 -0.11 0.01 -0.12 0 -0.11 0 -0.11 0 -0.11 0 -0.12 0 -0.11 0 -0.11 0.01 -0.11 0 -0.11 0 -0.11 0 -0.11 0 -0.11 0.01 -0.11 0 0 0zm0 0c-0.52,0.01 -0.96,-0.41 -0.97,-0.93 -0.01,-0.53 0.41,-0.96 0.93,-0.97l0.04 1.9zm-2.66 0.93l-1.16 -1.51 0 0 0.1 -0.08 0.1 -0.07 0.11 -0.07 0.11 -0.08 0.1 -0.06 0.11 -0.07 0.12 -0.07 0.1 -0.05 0.12 -0.06 0.11 -0.06 0.12 -0.06 0.12 -0.05 0.11 -0.05 0.12 -0.05 0.12 -0.04 0.12 -0.04 0.12 -0.04 0.12 -0.04 0.12 -0.04 0.12 -0.03 0.12 -0.03 0.13 -0.03 0.12 -0.03 0.13 -0.02 0.12 -0.02 0.13 -0.02 0.12 -0.02 0.13 -0.01 0.13 -0.01 0.13 -0.01 0.12 -0.01 0.13 0 0.04 1.9 -0.09 0 -0.09 0.01 -0.09 0 -0.09 0.01 -0.09 0.01 -0.09 0.01 -0.09 0.02 -0.09 0.01 -0.09 0.02 -0.08 0.02 -0.09 0.02 -0.09 0.02 -0.08 0.02 -0.09 0.03 -0.09 0.02 -0.08 0.03 -0.08 0.03 -0.09 0.03 -0.08 0.04 -0.08 0.03 -0.08 0.04 -0.08 0.04 -0.08 0.04 -0.08 0.04 -0.08 0.04 -0.08 0.05 -0.07 0.04 -0.08 0.05 -0.07 0.05 -0.08 0.05 -0.07 0.05 -0.07 0.06 0 0zm0 0c-0.42,0.32 -1.02,0.24 -1.34,-0.18 -0.32,-0.41 -0.24,-1.01 0.18,-1.33l1.16 1.51zm-6.75 6.69l-1.5 -1.17 0 0 0.2 -0.26 0.2 -0.25 0.2 -0.25 0.2 -0.24 0.2 -0.24 0.2 -0.24 0.2 -0.23 0.2 -0.23 0.2 -0.23 0.2 -0.23 0.21 -0.22 0.2 -0.22 0.21 -0.22 0.21 -0.21 0.2 -0.22 0.22 -0.21 0.21 -0.21 0.22 -0.21 0.22 -0.21 0.22 -0.21 0.23 -0.2 0.22 -0.21 0.24 -0.21 0.23 -0.2 0.24 -0.21 0.24 -0.2 0.25 -0.21 0.26 -0.21 0.25 -0.21 0.27 -0.21 0.26 -0.21 0.28 -0.21 1.16 1.51 -0.26 0.2 -0.26 0.2 -0.26 0.21 -0.24 0.2 -0.24 0.19 -0.24 0.2 -0.24 0.2 -0.22 0.2 -0.23 0.19 -0.22 0.2 -0.22 0.19 -0.21 0.2 -0.21 0.2 -0.21 0.19 -0.2 0.2 -0.2 0.2 -0.2 0.2 -0.2 0.2 -0.2 0.21 -0.19 0.2 -0.19 0.21 -0.2 0.21 -0.19 0.21 -0.19 0.22 -0.19 0.22 -0.19 0.22 -0.19 0.23 -0.19 0.23 -0.19 0.23 -0.19 0.24 -0.19 0.24 -0.2 0.25 0 0zm0 0c-0.32,0.41 -0.92,0.49 -1.33,0.16 -0.42,-0.32 -0.49,-0.92 -0.17,-1.33l1.5 1.17zm-1.95 5.71l-1.9 -0.03 0 0 0.01 -0.23 0.01 -0.23 0.01 -0.23 0.02 -0.23 0.02 -0.23 0.03 -0.23 0.03 -0.22 0.04 -0.23 0.04 -0.23 0.05 -0.22 0.05 -0.23 0.05 -0.22 0.06 -0.22 0.06 -0.22 0.07 -0.22 0.07 -0.22 0.07 -0.21 0.08 -0.22 0.09 -0.21 0.09 -0.21 0.09 -0.22 0.1 -0.2 0.1 -0.21 0.11 -0.2 0.11 -0.21 0.11 -0.2 0.12 -0.19 0.12 -0.2 0.13 -0.19 0.13 -0.19 0.14 -0.19 0.14 -0.19 1.5 1.17 -0.11 0.15 -0.12 0.16 -0.1 0.15 -0.11 0.16 -0.1 0.16 -0.1 0.17 -0.09 0.16 -0.1 0.17 -0.08 0.17 -0.09 0.17 -0.08 0.17 -0.08 0.18 -0.07 0.17 -0.07 0.18 -0.07 0.18 -0.06 0.18 -0.06 0.18 -0.05 0.19 -0.06 0.18 -0.05 0.19 -0.04 0.18 -0.04 0.19 -0.04 0.19 -0.03 0.19 -0.03 0.19 -0.03 0.19 -0.02 0.19 -0.02 0.2 -0.02 0.19 -0.01 0.19 -0.01 0.2 -0.01 0.19 0 0zm0 0c-0.01,0.53 -0.44,0.95 -0.96,0.94 -0.53,-0.01 -0.95,-0.44 -0.94,-0.97l1.9 0.03zm-0.02 3.15l-1.9 0 0 0 0 -0.1 0 -0.1 0 -0.11 0 -0.09 0 -0.1 0 -0.1 0 -0.1 0 -0.1 0 -0.1 0 -0.1 0 -0.1 0 -0.1 0 -0.1 0 -0.1 0 -0.1 0 -0.1 0 -0.09 0 -0.1 0.01 -0.1 0 -0.1 0 -0.1 0 -0.1 0 -0.1 0 -0.1 0 -0.1 0 -0.09 0 -0.1 0.01 -0.1 0 -0.1 0 -0.1 0 -0.1 0 -0.1 1.9 0.03 0 0.1 0 0.1 0 0.1 0 0.09 0 0.1 0 0.1 -0.01 0.1 0 0.09 0 0.1 0 0.1 0 0.1 0 0.1 0 0.1 0 0.09 0 0.1 0 0.1 -0.01 0.1 0 0.1 0 0.09 0 0.1 0 0.1 0 0.1 0 0.1 0 0.1 0 0.09 0 0.1 0 0.1 0 0.1 0 0.1 0 0.1 0 0.1 0 0.1 0 0zm0 0c0,0.52 -0.43,0.95 -0.95,0.95 -0.53,0 -0.95,-0.43 -0.95,-0.95l1.9 0zm0.36 11.82l-1.9 0.12 0 0 -0.02 -0.36 -0.02 -0.36 -0.02 -0.37 -0.02 -0.36 -0.02 -0.37 -0.02 -0.36 -0.02 -0.37 -0.01 -0.37 -0.02 -0.36 -0.02 -0.37 -0.01 -0.37 -0.02 -0.37 -0.01 -0.38 -0.02 -0.37 -0.01 -0.37 -0.01 -0.37 -0.01 -0.38 -0.01 -0.37 -0.01 -0.38 -0.01 -0.37 -0.01 -0.38 -0.01 -0.38 0 -0.38 -0.01 -0.37 -0.01 -0.38 0 -0.38 0 -0.38 -0.01 -0.38 0 -0.39 0 -0.38 0 -0.38 0 -0.38 1.9 0 0 0.38 0 0.37 0 0.38 0 0.38 0.01 0.38 0 0.37 0.01 0.38 0 0.38 0.01 0.37 0 0.38 0.01 0.37 0.01 0.37 0.01 0.37 0.01 0.38 0.01 0.37 0.01 0.37 0.01 0.37 0.02 0.37 0.01 0.37 0.01 0.36 0.02 0.37 0.01 0.36 0.02 0.37 0.01 0.36 0.02 0.37 0.02 0.36 0.02 0.37 0.02 0.36 0.02 0.36 0.02 0.36 0.02 0.36 0.02 0.35 0 0zm0 0c0.03,0.53 -0.36,0.98 -0.89,1.01 -0.52,0.04 -0.97,-0.36 -1.01,-0.89l1.9 -0.12zm4.33 4.35l-0.13 1.89 0 0 -0.31 -0.02 -0.3 -0.05 -0.3 -0.05 -0.29 -0.07 -0.28 -0.08 -0.28 -0.09 -0.28 -0.11 -0.27 -0.12 -0.26 -0.13 -0.26 -0.14 -0.25 -0.15 -0.24 -0.16 -0.23 -0.17 -0.22 -0.18 -0.22 -0.19 -0.21 -0.2 -0.2 -0.21 -0.19 -0.22 -0.18 -0.22 -0.17 -0.24 -0.16 -0.24 -0.15 -0.25 -0.14 -0.25 -0.13 -0.27 -0.11 -0.27 -0.11 -0.27 -0.09 -0.28 -0.08 -0.29 -0.07 -0.29 -0.05 -0.3 -0.04 -0.3 -0.03 -0.31 1.9 -0.12 0.02 0.22 0.03 0.22 0.04 0.21 0.04 0.2 0.06 0.21 0.07 0.2 0.07 0.19 0.08 0.19 0.09 0.19 0.1 0.18 0.11 0.18 0.11 0.17 0.12 0.17 0.13 0.15 0.13 0.16 0.15 0.15 0.14 0.14 0.16 0.13 0.16 0.13 0.16 0.13 0.17 0.11 0.18 0.11 0.18 0.1 0.19 0.09 0.19 0.08 0.19 0.08 0.2 0.06 0.21 0.06 0.21 0.05 0.21 0.04 0.21 0.03 0.22 0.02 0 0zm0 0c0.52,0.03 0.92,0.49 0.88,1.01 -0.03,0.52 -0.49,0.92 -1.01,0.88l0.13 -1.89zm9.91 0.32l-0.03 1.9 -0.26 -0.01 -0.26 0 -0.28 -0.01 -0.29 0 -0.3 -0.01 -0.31 -0.01 -0.32 0 -0.32 -0.01 -0.33 -0.01 -0.34 0 -0.34 -0.01 -0.34 -0.01 -0.34 -0.01 -0.35 -0.01 -0.35 -0.01 -0.35 -0.01 -0.35 -0.01 -0.35 -0.01 -0.34 -0.01 -0.34 -0.01 -0.34 -0.01 -0.33 -0.01 -0.33 -0.02 -0.32 -0.01 -0.31 -0.01 -0.31 -0.02 -0.29 -0.01 -0.29 -0.02 -0.28 -0.01 -0.26 -0.02 -0.25 -0.01 -0.24 -0.02 0.13 -1.89 0.23 0.01 0.24 0.02 0.26 0.01 0.27 0.02 0.28 0.01 0.29 0.01 0.3 0.02 0.31 0.01 0.32 0.01 0.32 0.01 0.33 0.02 0.33 0.01 0.34 0.01 0.34 0.01 0.35 0.01 0.35 0.01 0.34 0.01 0.35 0.01 0.35 0.01 0.34 0.01 0.34 0.01 0.34 0 0.33 0.01 0.33 0.01 0.32 0.01 0.32 0 0.3 0.01 0.3 0.01 0.29 0 0.28 0.01 0.27 0 0.25 0.01zm0 0c0.53,0 0.94,0.44 0.94,0.96 -0.01,0.53 -0.45,0.94 -0.97,0.94l0.03 -1.9zm22.19 2.44c0.37,0.37 0.37,0.97 0,1.34 -0.37,0.37 -0.98,0.37 -1.35,0l1.35 -1.34zm-3.02 -3.03l3.02 3.03 -1.35 1.34 -3.02 -3.03 1.35 -1.34zm-1.35 1.34c-0.37,-0.37 -0.37,-0.97 0,-1.34 0.37,-0.37 0.97,-0.37 1.35,0l-1.35 1.34zm1.47 -5.92l1.9 0 0 0 0 0.45 -0.03 0.44 -0.04 0.42 -0.05 0.42 -0.08 0.41 -0.09 0.4 -0.1 0.38 -0.12 0.38 -0.14 0.36 -0.16 0.36 -0.17 0.34 -0.19 0.32 -0.21 0.32 -0.22 0.3 -0.24 0.28 -0.26 0.28 -0.27 0.25 -0.28 0.24 -0.3 0.22 -0.32 0.21 -0.32 0.19 -0.34 0.17 -0.35 0.16 -0.37 0.14 -0.38 0.12 -0.38 0.1 -0.4 0.09 -0.41 0.08 -0.42 0.05 -0.42 0.04 -0.44 0.03 -0.45 0 0 -1.9 0.38 0 0.37 -0.03 0.35 -0.03 0.34 -0.04 0.33 -0.06 0.31 -0.07 0.3 -0.08 0.29 -0.1 0.27 -0.1 0.26 -0.12 0.25 -0.12 0.23 -0.14 0.23 -0.15 0.21 -0.15 0.2 -0.17 0.19 -0.18 0.18 -0.19 0.16 -0.2 0.16 -0.21 0.15 -0.23 0.14 -0.23 0.12 -0.25 0.12 -0.26 0.1 -0.27 0.1 -0.29 0.08 -0.3 0.07 -0.31 0.06 -0.33 0.04 -0.34 0.04 -0.36 0.02 -0.36 0 -0.38 0 0zm0 0c0,-0.53 0.43,-0.95 0.95,-0.95 0.53,0 0.95,0.42 0.95,0.95l-1.9 0zm-6.05 -6.06l0 -1.9 0 0 0.45 0.01 0.44 0.02 0.42 0.04 0.42 0.06 0.41 0.07 0.4 0.09 0.38 0.11 0.38 0.12 0.37 0.14 0.35 0.16 0.34 0.17 0.32 0.19 0.32 0.2 0.3 0.23 0.28 0.24 0.27 0.25 0.26 0.27 0.24 0.29 0.22 0.3 0.21 0.31 0.19 0.33 0.17 0.34 0.16 0.35 0.14 0.36 0.12 0.38 0.1 0.39 0.09 0.39 0.08 0.41 0.05 0.42 0.04 0.43 0.03 0.44 0 0.45 -1.9 0 0 -0.38 -0.02 -0.37 -0.04 -0.35 -0.04 -0.34 -0.06 -0.33 -0.07 -0.31 -0.08 -0.3 -0.1 -0.29 -0.1 -0.28 -0.12 -0.26 -0.12 -0.24 -0.14 -0.24 -0.15 -0.22 -0.16 -0.21 -0.16 -0.2 -0.18 -0.19 -0.19 -0.18 -0.2 -0.17 -0.21 -0.16 -0.23 -0.14 -0.23 -0.14 -0.25 -0.13 -0.26 -0.11 -0.27 -0.11 -0.29 -0.09 -0.3 -0.08 -0.31 -0.07 -0.33 -0.06 -0.34 -0.05 -0.35 -0.03 -0.37 -0.02 -0.38 -0.01 0 0zm0 0c-0.53,0 -0.95,-0.42 -0.95,-0.95 0,-0.52 0.42,-0.95 0.95,-0.95l0 1.9zm-6.06 6.06l-1.9 0 0 0 0.01 -0.45 0.03 -0.44 0.04 -0.43 0.05 -0.42 0.07 -0.41 0.09 -0.39 0.11 -0.39 0.12 -0.38 0.14 -0.36 0.16 -0.35 0.17 -0.34 0.19 -0.33 0.21 -0.31 0.22 -0.3 0.24 -0.29 0.25 -0.27 0.27 -0.25 0.29 -0.24 0.3 -0.23 0.31 -0.2 0.33 -0.19 0.34 -0.17 0.35 -0.16 0.37 -0.14 0.37 -0.12 0.39 -0.11 0.4 -0.09 0.4 -0.07 0.42 -0.06 0.43 -0.04 0.44 -0.02 0.45 -0.01 0 1.9 -0.38 0.01 -0.37 0.02 -0.35 0.03 -0.34 0.05 -0.33 0.06 -0.31 0.07 -0.3 0.08 -0.29 0.09 -0.27 0.11 -0.26 0.11 -0.25 0.13 -0.24 0.14 -0.22 0.14 -0.21 0.16 -0.2 0.17 -0.19 0.18 -0.18 0.19 -0.17 0.2 -0.16 0.21 -0.14 0.22 -0.14 0.24 -0.13 0.24 -0.11 0.26 -0.11 0.28 -0.09 0.29 -0.08 0.3 -0.07 0.31 -0.06 0.33 -0.05 0.34 -0.03 0.35 -0.02 0.37 -0.01 0.38 0 0zm0 0c0,0.52 -0.42,0.95 -0.95,0.95 -0.52,0 -0.95,-0.43 -0.95,-0.95l1.9 0zm6.06 6.05l0 1.9 0 0 -0.45 0 -0.44 -0.03 -0.43 -0.04 -0.42 -0.05 -0.4 -0.08 -0.4 -0.09 -0.39 -0.1 -0.37 -0.12 -0.37 -0.14 -0.35 -0.16 -0.34 -0.17 -0.33 -0.19 -0.31 -0.21 -0.3 -0.22 -0.29 -0.24 -0.27 -0.26 -0.25 -0.27 -0.24 -0.28 -0.22 -0.3 -0.21 -0.32 -0.19 -0.32 -0.17 -0.34 -0.16 -0.36 -0.14 -0.36 -0.12 -0.38 -0.11 -0.38 -0.09 -0.4 -0.07 -0.41 -0.05 -0.42 -0.04 -0.42 -0.03 -0.44 -0.01 -0.45 1.9 0 0.01 0.38 0.02 0.36 0.03 0.36 0.05 0.34 0.06 0.33 0.07 0.31 0.08 0.3 0.09 0.29 0.11 0.27 0.11 0.26 0.13 0.25 0.14 0.23 0.14 0.23 0.16 0.21 0.17 0.2 0.18 0.19 0.19 0.18 0.2 0.17 0.21 0.15 0.22 0.15 0.24 0.14 0.25 0.12 0.26 0.12 0.27 0.1 0.29 0.1 0.3 0.08 0.31 0.07 0.33 0.06 0.34 0.04 0.35 0.03 0.37 0.03 0.38 0 0 0zm0 0c0.52,0 0.95,0.43 0.95,0.95 0,0.53 -0.43,0.95 -0.95,0.95l0 -1.9zm-7.24 -18.28c0.53,0 0.95,0.42 0.95,0.95 0,0.52 -0.42,0.95 -0.95,0.95l0 -1.9zm-11.09 0l11.09 0 0 1.9 -11.09 0 0 -1.9zm0 1.9c-0.53,0 -0.95,-0.43 -0.95,-0.95 0,-0.53 0.42,-0.95 0.95,-0.95l0 1.9zm6.44 6.55c0.52,0 0.95,0.43 0.95,0.96 0,0.52 -0.43,0.95 -0.95,0.95l0 -1.91zm-6.41 0l6.41 0 0 1.91 -6.41 0 0 -1.91zm0 1.91c-0.52,0 -0.95,-0.43 -0.95,-0.95 0,-0.53 0.43,-0.96 0.95,-0.96l0 1.91zm11.06 -19.14c0.53,0 0.95,0.42 0.95,0.95 0,0.52 -0.42,0.95 -0.95,0.95l0 -1.9zm-6.69 0l6.69 0 0 1.9 -6.69 0 0 -1.9zm0 1.9c-0.53,0 -0.95,-0.43 -0.95,-0.95 0,-0.53 0.42,-0.95 0.95,-0.95l0 1.9z"/>
  </g>
 </g>
</svg>
