<?xml version="1.0" encoding="UTF-8"?>
<!DOCTYPE svg PUBLIC "-//W3C//DTD SVG 1.1//EN" "http://www.w3.org/Graphics/SVG/1.1/DTD/svg11.dtd">
<!-- Creator: CorelDRAW 2021 (64-Bit) -->
<svg xmlns="http://www.w3.org/2000/svg" xml:space="preserve" width="510px" height="30px" version="1.1" style="shape-rendering:geometricPrecision; text-rendering:geometricPrecision; image-rendering:optimizeQuality; fill-rule:evenodd; clip-rule:evenodd"
viewBox="0 0 30 510"
preserveAspectRatio="xMidYMid meet"
 xmlns:xlink="http://www.w3.org/1999/xlink"
 xmlns:xodm="http://www.corel.com/coreldraw/odm/2003">
 <defs>
  <style type="text/css">
   <![CDATA[
    .str6 {stroke:black;stroke-width:0.27;stroke-linecap:round;stroke-linejoin:round;stroke-miterlimit:2.61313}
    .str7 {stroke:black;stroke-width:0.27;stroke-linecap:round;stroke-linejoin:round;stroke-miterlimit:2.61313}
    .str8 {stroke:black;stroke-width:0.27;stroke-linecap:round;stroke-linejoin:round;stroke-miterlimit:2.61313}
    .str3 {stroke:black;stroke-width:0.27;stroke-linecap:round;stroke-linejoin:round;stroke-miterlimit:2.61313}
    .str1 {stroke:black;stroke-width:0.27;stroke-linecap:round;stroke-linejoin:round;stroke-miterlimit:2.61313}
    .str9 {stroke:black;stroke-width:0.27;stroke-linecap:round;stroke-linejoin:round;stroke-miterlimit:2.61313}
    .str12 {stroke:black;stroke-width:0.27;stroke-linecap:round;stroke-linejoin:round;stroke-miterlimit:2.61313}
    .str4 {stroke:black;stroke-width:0.27;stroke-linecap:round;stroke-linejoin:round;stroke-miterlimit:2.61313}
    .str10 {stroke:black;stroke-width:0.27;stroke-linecap:round;stroke-linejoin:round;stroke-miterlimit:2.61313}
    .str2 {stroke:black;stroke-width:0.27;stroke-linecap:round;stroke-linejoin:round;stroke-miterlimit:2.61313}
    .str11 {stroke:black;stroke-width:0.27;stroke-linecap:round;stroke-linejoin:round;stroke-miterlimit:2.61313}
    .str0 {stroke:black;stroke-width:0.27;stroke-linecap:round;stroke-linejoin:round;stroke-miterlimit:2.61313}
    .str5 {stroke:black;stroke-width:0.27;stroke-linecap:round;stroke-linejoin:round;stroke-miterlimit:2.61313}
    .str13 {stroke:black;stroke-width:0.27;stroke-linecap:round;stroke-linejoin:round;stroke-miterlimit:2.61313}
    .fil2 {fill:none}
    .fil0 {fill:#FEFEFE}
    .fil1 {fill:black;fill-rule:nonzero}
   ]]>
  </style>
 </defs>
 <g id="Layer_x0020_1">
  <metadata id="CorelCorpID_0Corel-Layer"/>
  <g>
   <path id="Vector_x0020_2137" class="fil0" d="M9.79 1.66c0.06,-0.49 0.24,-0.92 0.52,-1.27 0.22,-0.27 0.62,-0.27 0.84,0 0.28,0.35 0.46,0.78 0.52,1.27 0.49,0.06 0.92,0.25 1.27,0.52 0.28,0.22 0.28,0.63 0,0.84 -0.35,0.28 -0.78,0.47 -1.27,0.52 -0.06,0.5 -0.24,0.93 -0.52,1.28 -0.22,0.27 -0.62,0.27 -0.84,0 -0.28,-0.35 -0.46,-0.78 -0.52,-1.28 -0.49,-0.05 -0.92,-0.24 -1.27,-0.52 -0.28,-0.21 -0.28,-0.62 0,-0.84 0.35,-0.27 0.78,-0.46 1.27,-0.52z"/>
   <path id="_1" class="fil1" d="M10.2 0.31l0.22 0.17 0 0 -0.03 0.03 -0.02 0.03 -0.02 0.03 -0.03 0.03 -0.02 0.04 -0.02 0.03 -0.02 0.03 -0.02 0.04 -0.02 0.03 -0.02 0.04 -0.02 0.03 -0.02 0.04 -0.02 0.04 -0.01 0.03 -0.02 0.04 -0.01 0.04 -0.02 0.04 -0.01 0.03 -0.02 0.04 -0.01 0.04 -0.01 0.04 -0.02 0.04 -0.01 0.04 -0.01 0.04 -0.01 0.04 -0.01 0.04 -0.01 0.05 -0.01 0.04 -0.01 0.04 0 0.04 -0.01 0.05 0 0.04 -0.28 -0.03 0.01 -0.05 0.01 -0.05 0 -0.05 0.01 -0.04 0.01 -0.05 0.01 -0.05 0.01 -0.04 0.01 -0.05 0.02 -0.04 0.01 -0.05 0.01 -0.04 0.02 -0.05 0.01 -0.04 0.02 -0.04 0.01 -0.05 0.02 -0.04 0.02 -0.04 0.02 -0.04 0.02 -0.04 0.02 -0.04 0.02 -0.04 0.02 -0.04 0.02 -0.04 0.02 -0.04 0.03 -0.04 0.02 -0.04 0.02 -0.03 0.03 -0.04 0.02 -0.04 0.03 -0.03 0.03 -0.04 0.02 -0.03 0 0zm0 0c0.05,-0.06 0.14,-0.07 0.2,-0.03 0.05,0.05 0.06,0.14 0.02,0.2l-0.22 -0.17zm1.06 0l-0.22 0.17 0 0 -0.01 -0.02 -0.02 -0.02 -0.02 -0.02 -0.01 -0.01 -0.02 -0.01 -0.02 -0.02 -0.02 -0.01 -0.02 -0.01 -0.02 -0.01 -0.02 -0.01 -0.02 0 -0.02 -0.01 -0.02 0 -0.03 0 -0.02 -0.01 -0.02 0 -0.02 0 -0.02 0.01 -0.02 0 -0.03 0 -0.02 0.01 -0.02 0 -0.02 0.01 -0.02 0.01 -0.02 0.01 -0.02 0.01 -0.02 0.02 -0.02 0.01 -0.01 0.01 -0.02 0.02 -0.02 0.02 -0.01 0.02 -0.22 -0.17 0.03 -0.03 0.03 -0.03 0.02 -0.03 0.03 -0.03 0.03 -0.02 0.04 -0.02 0.03 -0.02 0.03 -0.02 0.04 -0.01 0.03 -0.01 0.04 -0.02 0.03 0 0.04 -0.01 0.04 -0.01 0.03 0 0.04 0 0.04 0 0.03 0 0.04 0.01 0.04 0.01 0.03 0 0.04 0.02 0.03 0.01 0.04 0.01 0.03 0.02 0.03 0.02 0.04 0.02 0.03 0.02 0.03 0.03 0.02 0.03 0.03 0.03 0.03 0.03 0 0zm0 0c0.04,0.06 0.03,0.14 -0.03,0.19 -0.05,0.05 -0.14,0.04 -0.19,-0.02l0.22 -0.17zm0.43 1.22l-0.04 0.27 -0.12 -0.12 0 -0.04 -0.01 -0.05 0 -0.04 -0.01 -0.04 -0.01 -0.04 -0.01 -0.05 -0.01 -0.04 -0.01 -0.04 -0.01 -0.04 -0.01 -0.04 -0.01 -0.04 -0.02 -0.04 -0.01 -0.04 -0.01 -0.04 -0.02 -0.03 -0.01 -0.04 -0.02 -0.04 -0.02 -0.04 -0.01 -0.03 -0.02 -0.04 -0.02 -0.04 -0.02 -0.03 -0.02 -0.04 -0.02 -0.03 -0.02 -0.04 -0.02 -0.03 -0.02 -0.03 -0.02 -0.04 -0.03 -0.03 -0.02 -0.03 -0.02 -0.03 -0.03 -0.03 0.22 -0.17 0.02 0.03 0.03 0.04 0.03 0.03 0.02 0.04 0.03 0.04 0.02 0.03 0.02 0.04 0.03 0.04 0.02 0.04 0.02 0.04 0.02 0.04 0.02 0.04 0.02 0.04 0.02 0.04 0.02 0.04 0.02 0.04 0.02 0.04 0.01 0.05 0.02 0.04 0.01 0.04 0.02 0.05 0.01 0.04 0.01 0.05 0.02 0.04 0.01 0.05 0.01 0.04 0.01 0.05 0.01 0.05 0.01 0.04 0 0.05 0.01 0.05 0.01 0.05 -0.12 -0.12zm0.12 0.12c0.01,0.07 -0.05,0.14 -0.12,0.15 -0.08,0.01 -0.15,-0.04 -0.16,-0.12l0.28 -0.03zm1.22 0.43l-0.17 0.21 0 0 -0.03 -0.02 -0.04 -0.03 -0.03 -0.02 -0.03 -0.02 -0.03 -0.02 -0.04 -0.03 -0.03 -0.02 -0.03 -0.02 -0.04 -0.02 -0.03 -0.02 -0.04 -0.01 -0.04 -0.02 -0.03 -0.02 -0.04 -0.02 -0.04 -0.01 -0.03 -0.02 -0.04 -0.02 -0.04 -0.01 -0.04 -0.01 -0.04 -0.02 -0.04 -0.01 -0.04 -0.01 -0.04 -0.01 -0.04 -0.02 -0.04 -0.01 -0.04 -0.01 -0.04 0 -0.04 -0.01 -0.05 -0.01 -0.04 -0.01 -0.04 0 -0.05 -0.01 0.04 -0.27 0.05 0 0.04 0.01 0.05 0.01 0.05 0.01 0.04 0.01 0.05 0.01 0.05 0.01 0.04 0.01 0.05 0.01 0.04 0.01 0.05 0.02 0.04 0.01 0.04 0.02 0.05 0.01 0.04 0.02 0.04 0.02 0.04 0.01 0.04 0.02 0.05 0.02 0.04 0.02 0.04 0.02 0.04 0.02 0.04 0.02 0.03 0.03 0.04 0.02 0.04 0.02 0.04 0.03 0.04 0.02 0.03 0.03 0.04 0.02 0.03 0.03 0.04 0.03 0 0zm0 0c0.06,0.04 0.07,0.13 0.02,0.19 -0.05,0.06 -0.13,0.07 -0.19,0.02l0.17 -0.21zm0 1.05l-0.17 -0.21 0 0 0.02 -0.02 0.01 -0.02 0.02 -0.01 0.02 -0.02 0.01 -0.02 0.01 -0.02 0.01 -0.02 0.01 -0.02 0.01 -0.02 0.01 -0.02 0.01 -0.02 0 -0.02 0.01 -0.02 0 -0.02 0 -0.02 0 -0.03 0 -0.02 0 -0.02 0 -0.02 -0.01 -0.02 0 -0.02 -0.01 -0.02 -0.01 -0.02 -0.01 -0.02 -0.01 -0.02 -0.01 -0.02 -0.01 -0.02 -0.01 -0.02 -0.02 -0.02 -0.02 -0.02 -0.01 -0.01 -0.02 -0.02 0.17 -0.21 0.03 0.02 0.03 0.03 0.02 0.03 0.03 0.03 0.02 0.03 0.02 0.03 0.02 0.03 0.02 0.04 0.02 0.03 0.01 0.04 0.01 0.03 0.01 0.04 0.01 0.03 0 0.04 0 0.04 0.01 0.03 -0.01 0.04 0 0.04 0 0.03 -0.01 0.04 -0.01 0.04 -0.01 0.03 -0.01 0.04 -0.02 0.03 -0.02 0.03 -0.02 0.04 -0.02 0.03 -0.02 0.03 -0.03 0.03 -0.02 0.03 -0.03 0.03 -0.03 0.02 0 0zm0 0c-0.06,0.05 -0.15,0.04 -0.2,-0.02 -0.04,-0.06 -0.03,-0.15 0.03,-0.19l0.17 0.21zm-1.22 0.43l-0.28 -0.03 0.12 -0.12 0.05 -0.01 0.04 0 0.04 -0.01 0.05 -0.01 0.04 -0.01 0.04 -0.01 0.04 -0.01 0.04 -0.01 0.04 -0.01 0.04 -0.01 0.04 -0.01 0.04 -0.01 0.04 -0.02 0.04 -0.01 0.04 -0.02 0.04 -0.01 0.03 -0.02 0.04 -0.01 0.04 -0.02 0.03 -0.02 0.04 -0.02 0.04 -0.02 0.03 -0.01 0.04 -0.02 0.03 -0.02 0.03 -0.03 0.04 -0.02 0.03 -0.02 0.03 -0.02 0.03 -0.03 0.04 -0.02 0.03 -0.02 0.17 0.21 -0.04 0.03 -0.03 0.03 -0.04 0.02 -0.04 0.03 -0.03 0.02 -0.04 0.03 -0.04 0.02 -0.04 0.02 -0.03 0.02 -0.04 0.03 -0.04 0.02 -0.04 0.02 -0.04 0.02 -0.05 0.02 -0.04 0.01 -0.04 0.02 -0.04 0.02 -0.04 0.02 -0.05 0.01 -0.04 0.02 -0.04 0.01 -0.05 0.01 -0.04 0.02 -0.05 0.01 -0.04 0.01 -0.05 0.01 -0.05 0.01 -0.04 0.01 -0.05 0.01 -0.05 0.01 -0.04 0 -0.05 0.01 0.12 -0.12zm-0.12 0.12c-0.08,0.01 -0.15,-0.04 -0.16,-0.12 0,-0.07 0.05,-0.14 0.12,-0.15l0.04 0.27zm-0.43 1.22l-0.22 -0.17 0 0 0.03 -0.03 0.02 -0.03 0.02 -0.03 0.03 -0.04 0.02 -0.03 0.02 -0.03 0.02 -0.04 0.02 -0.03 0.02 -0.04 0.02 -0.03 0.02 -0.04 0.02 -0.03 0.02 -0.04 0.01 -0.03 0.02 -0.04 0.02 -0.04 0.01 -0.04 0.02 -0.04 0.01 -0.03 0.01 -0.04 0.02 -0.04 0.01 -0.04 0.01 -0.04 0.01 -0.04 0.01 -0.04 0.01 -0.05 0.01 -0.04 0.01 -0.04 0.01 -0.04 0 -0.04 0.01 -0.05 0 -0.04 0.28 0.03 -0.01 0.05 -0.01 0.05 0 0.04 -0.01 0.05 -0.01 0.05 -0.01 0.04 -0.01 0.05 -0.01 0.05 -0.02 0.04 -0.01 0.05 -0.01 0.04 -0.02 0.04 -0.01 0.05 -0.02 0.04 -0.01 0.04 -0.02 0.05 -0.02 0.04 -0.02 0.04 -0.02 0.04 -0.02 0.04 -0.02 0.04 -0.02 0.04 -0.02 0.04 -0.02 0.04 -0.03 0.04 -0.02 0.03 -0.02 0.04 -0.03 0.04 -0.02 0.04 -0.03 0.03 -0.03 0.04 -0.02 0.03 0 0zm0 0c-0.05,0.06 -0.14,0.07 -0.19,0.02 -0.06,-0.04 -0.07,-0.13 -0.03,-0.19l0.22 0.17zm-1.06 0l0.22 -0.17 0 0 0.01 0.02 0.02 0.02 0.02 0.01 0.01 0.02 0.02 0.01 0.02 0.02 0.02 0.01 0.02 0.01 0.02 0.01 0.02 0 0.02 0.01 0.02 0.01 0.03 0 0.02 0 0.02 0 0.02 0.01 0.02 -0.01 0.02 0 0.03 0 0.02 0 0.02 -0.01 0.02 -0.01 0.02 0 0.02 -0.01 0.02 -0.01 0.02 -0.01 0.02 -0.02 0.02 -0.01 0.01 -0.02 0.02 -0.01 0.02 -0.02 0.01 -0.02 0.22 0.17 -0.03 0.03 -0.03 0.03 -0.02 0.03 -0.03 0.02 -0.03 0.03 -0.04 0.02 -0.03 0.02 -0.03 0.02 -0.04 0.01 -0.03 0.01 -0.04 0.01 -0.03 0.01 -0.04 0.01 -0.04 0.01 -0.03 0 -0.04 0 -0.04 0 -0.03 0 -0.04 -0.01 -0.04 -0.01 -0.03 -0.01 -0.04 -0.01 -0.03 -0.01 -0.04 -0.02 -0.03 -0.01 -0.03 -0.02 -0.04 -0.02 -0.03 -0.03 -0.03 -0.02 -0.02 -0.03 -0.03 -0.03 -0.03 -0.03 0 0zm0 0c-0.04,-0.06 -0.03,-0.14 0.03,-0.19 0.05,-0.05 0.14,-0.04 0.19,0.02l-0.22 0.17zm-0.43 -1.22l0.04 -0.27 0.12 0.12 0 0.04 0.01 0.05 0 0.04 0.01 0.04 0.01 0.04 0.01 0.04 0.01 0.05 0.01 0.04 0.01 0.04 0.01 0.04 0.02 0.04 0.01 0.04 0.01 0.04 0.02 0.03 0.01 0.04 0.02 0.04 0.01 0.04 0.02 0.04 0.02 0.03 0.01 0.04 0.02 0.03 0.02 0.04 0.02 0.04 0.02 0.03 0.02 0.03 0.02 0.04 0.02 0.03 0.02 0.03 0.03 0.04 0.02 0.03 0.02 0.03 0.03 0.03 -0.22 0.17 -0.02 -0.03 -0.03 -0.04 -0.03 -0.03 -0.02 -0.04 -0.03 -0.04 -0.02 -0.04 -0.02 -0.03 -0.03 -0.04 -0.02 -0.04 -0.02 -0.04 -0.02 -0.04 -0.02 -0.04 -0.02 -0.04 -0.02 -0.04 -0.02 -0.04 -0.02 -0.04 -0.01 -0.05 -0.02 -0.04 -0.02 -0.04 -0.01 -0.05 -0.02 -0.04 -0.01 -0.04 -0.01 -0.05 -0.02 -0.04 -0.01 -0.05 -0.01 -0.05 -0.01 -0.04 -0.01 -0.05 -0.01 -0.05 0 -0.04 -0.01 -0.05 -0.01 -0.05 0.12 0.12zm-0.12 -0.12c0,-0.07 0.05,-0.14 0.12,-0.15 0.08,-0.01 0.15,0.04 0.16,0.12l-0.28 0.03zm-1.22 -0.43l0.17 -0.21 0 0 0.03 0.02 0.04 0.02 0.03 0.03 0.03 0.02 0.03 0.02 0.04 0.02 0.03 0.03 0.03 0.02 0.04 0.02 0.03 0.02 0.04 0.01 0.04 0.02 0.03 0.02 0.04 0.02 0.04 0.01 0.03 0.02 0.04 0.01 0.04 0.02 0.04 0.01 0.04 0.02 0.04 0.01 0.04 0.01 0.04 0.01 0.04 0.01 0.04 0.02 0.04 0 0.04 0.01 0.04 0.01 0.05 0.01 0.04 0.01 0.04 0 0.05 0.01 -0.04 0.27 -0.04 -0.01 -0.05 0 -0.05 -0.01 -0.05 -0.01 -0.04 -0.01 -0.05 -0.01 -0.05 -0.01 -0.04 -0.01 -0.05 -0.01 -0.04 -0.02 -0.05 -0.01 -0.04 -0.01 -0.04 -0.02 -0.05 -0.01 -0.04 -0.02 -0.04 -0.02 -0.04 -0.02 -0.04 -0.01 -0.05 -0.02 -0.04 -0.02 -0.04 -0.02 -0.04 -0.02 -0.03 -0.03 -0.04 -0.02 -0.04 -0.02 -0.04 -0.02 -0.04 -0.03 -0.03 -0.02 -0.04 -0.03 -0.04 -0.02 -0.03 -0.03 -0.04 -0.03 0 0zm0 0c-0.06,-0.04 -0.07,-0.13 -0.02,-0.19 0.05,-0.06 0.13,-0.07 0.19,-0.02l-0.17 0.21zm0 -1.05l0.17 0.21 0 0 -0.02 0.02 -0.01 0.01 -0.02 0.02 -0.01 0.02 -0.02 0.02 -0.01 0.02 -0.01 0.02 -0.01 0.02 -0.01 0.02 -0.01 0.02 -0.01 0.02 0 0.02 -0.01 0.02 0 0.02 0 0.02 0 0.02 0 0.03 0 0.02 0 0.02 0.01 0.02 0 0.02 0.01 0.02 0.01 0.02 0.01 0.02 0.01 0.02 0.01 0.02 0.01 0.02 0.02 0.02 0.01 0.02 0.02 0.01 0.01 0.02 0.02 0.02 -0.17 0.21 -0.03 -0.02 -0.03 -0.03 -0.02 -0.03 -0.03 -0.03 -0.02 -0.03 -0.02 -0.03 -0.02 -0.04 -0.02 -0.03 -0.02 -0.03 -0.01 -0.04 -0.01 -0.03 -0.01 -0.04 -0.01 -0.04 0 -0.03 0 -0.04 0 -0.04 0 -0.03 0 -0.04 0 -0.04 0.01 -0.03 0.01 -0.04 0.01 -0.03 0.01 -0.04 0.02 -0.03 0.02 -0.04 0.02 -0.03 0.02 -0.03 0.02 -0.03 0.03 -0.03 0.02 -0.03 0.03 -0.03 0.03 -0.02 0 0zm0 0c0.06,-0.05 0.15,-0.04 0.2,0.02 0.04,0.06 0.03,0.15 -0.03,0.19l-0.17 -0.21zm1.22 -0.43l0.28 0.03 -0.12 0.12 -0.05 0.01 -0.04 0 -0.04 0.01 -0.05 0.01 -0.04 0.01 -0.04 0 -0.04 0.01 -0.04 0.01 -0.04 0.02 -0.04 0.01 -0.04 0.01 -0.04 0.01 -0.04 0.02 -0.04 0.01 -0.04 0.01 -0.04 0.02 -0.03 0.02 -0.04 0.01 -0.04 0.02 -0.03 0.02 -0.04 0.02 -0.04 0.01 -0.03 0.02 -0.04 0.02 -0.03 0.02 -0.03 0.02 -0.04 0.03 -0.03 0.02 -0.03 0.02 -0.03 0.02 -0.04 0.03 -0.03 0.02 -0.17 -0.21 0.04 -0.03 0.03 -0.03 0.04 -0.02 0.04 -0.03 0.03 -0.02 0.04 -0.03 0.04 -0.02 0.04 -0.02 0.04 -0.03 0.03 -0.02 0.04 -0.02 0.04 -0.02 0.04 -0.02 0.05 -0.02 0.04 -0.02 0.04 -0.01 0.04 -0.02 0.04 -0.02 0.05 -0.01 0.04 -0.02 0.04 -0.01 0.05 -0.02 0.04 -0.01 0.05 -0.01 0.04 -0.01 0.05 -0.01 0.05 -0.01 0.04 -0.01 0.05 -0.01 0.05 -0.01 0.05 -0.01 0.04 0 -0.12 0.12zm0.12 -0.12c0.08,-0.01 0.15,0.04 0.16,0.12 0,0.07 -0.05,0.14 -0.12,0.15l-0.04 -0.27z"/>
  </g>
  <g>
   <path id="Vector" class="fil0" d="M18.64 0.21c-0.02,-0.02 -0.05,-0.02 -0.08,-0.02 -0.02,0 -0.05,0 -0.07,0.02 -0.02,0.02 -0.04,0.04 -0.04,0.07 0,0.02 0.01,0.04 0.02,0.05 0.33,0.58 0.47,1.3 0.29,1.88 -0.12,0.38 -0.61,0.4 -0.81,0.06 -0.04,-0.07 -0.08,-0.14 -0.11,-0.22 -0.46,0.26 -0.74,0.74 -0.74,1.26 0,0.02 0,0.03 0,0.04 0.04,0.97 0.66,1.67 1.85,1.67 1.2,0 1.82,-0.74 1.86,-1.67 0.05,-1.11 -0.74,-2.48 -2.17,-3.14z"/>
   <path id="_1_0" class="fil1" d="M18.56 0.32l0 -0.27 0 0 0.01 0 0.01 0 0 0 0 0 0.01 0 0 0 0.01 0 0 0 0 0 0.02 0 0 0 0 0 0 0.01 0.01 0 0.01 0 0 0 0.01 0 0 0 0 0 0.01 0.01 0.01 0 -0.01 0 0 0 0.01 0 0.01 0 0.01 0.01 0 0 0 0 0.01 0 0 0 0.01 0.01 0 0 -0.14 0.23 -0.01 0 0.01 0.01 0 -0.01 0 0 -0.01 0 0 0 0.01 0 0 0 0 0.01 0 0 -0.01 -0.01 0.01 0 0 0.01 -0.01 -0.01 0 0 0.01 0 -0.01 0 0.01 0 0 0 0 0 -0.01 0 0 0 0.01 0 0 0 -0.01 0 0.01 0 0 0 -0.01 0 0 0 0 0 0.01 0 -0.01 0 0 0zm0 0c-0.07,0 -0.13,-0.06 -0.13,-0.13 0,-0.08 0.06,-0.14 0.13,-0.14l0 0.27zm0.01 -0.01l-0.16 -0.21 0.01 -0.01 0 0 0.01 -0.01 0 0 0 0 0.01 0 0 0 0.01 -0.01 0 0 0.01 0 0.01 0 -0.01 0 0.01 -0.01 0.01 0 0 0 0 0 0.01 0 0 0 0.01 0 0 0 0.01 -0.01 0 0 0 0 0.01 0 0.01 0 0 0 0.01 0 0 0 0.01 0 0 0 0 0 0.01 0 0 0 0 0.27 0 0 0.01 0 0 0 -0.01 0 0 0 0 0 0.01 0 -0.01 0 0 0 0.01 0 -0.01 0 0 0 0 0 0 0 0 0 0 0 0.01 0 0 0 -0.02 0.01 0.01 -0.01 0.01 0 -0.01 0.01 0 -0.01 0 0 0 0 0 0 0 0 0 0 0 0 0 0.01 0 -0.01 0 0 0.01 -0.01zm-0.01 0.01c-0.06,0.04 -0.15,0.02 -0.19,-0.04 -0.04,-0.07 -0.02,-0.15 0.05,-0.19l0.14 0.23zm0.03 -0.04l-0.27 0 0 0 0 0 0 -0.01 0 -0.01 0 0 0 -0.01 0 -0.01 0 -0.01 0 0.01 0 -0.02 0.01 -0.01 0 0 0 -0.01 0 0 0 -0.01 0 0 0.01 -0.01 0.01 -0.01 -0.01 0 0.01 0 0 -0.01 0.01 -0.01 0 0 0 -0.01 0.01 -0.01 0 0.01 0 -0.01 0.01 -0.01 0.01 -0.01 0 0 0 0 0.01 -0.01 0.01 0 0.16 0.21 0.01 0 0 0 0 0 -0.01 0.01 0.01 -0.01 0 0 0 -0.01 0 0.01 0 -0.01 0 0 0 0.01 0 0 0.01 -0.01 0 0 -0.01 0.01 0.01 -0.01 0 -0.01 0 0.01 0 0 0 0 0 -0.01 0 0.01 0 -0.01 0 0 0 0 0 0 0 0 0 0 0 0 0 0 0 -0.01 0 0 0 0zm0 0c0,0.08 -0.06,0.14 -0.14,0.14 -0.07,0 -0.13,-0.06 -0.13,-0.14l0.27 0zm0 -0.02l-0.24 0.14 0 0 0 0 0 0 0 0 -0.01 -0.01 0 0 0 -0.01 0 0 0 0 -0.01 -0.01 0 0 0 0 0 -0.01 0 0 0 -0.01 0 0 0 0 -0.01 -0.02 0.01 0.01 -0.01 0 0 -0.01 0 0 0 -0.02 0 0 0 0.01 0 -0.01 0 0 0 -0.01 0 0 0 0 0 -0.01 0 -0.01 0 0 0.27 0 0 0 0 0.01 0 -0.02 0 0.01 0 0 0 0 0 0 0 -0.01 0 0.01 0 0.01 0 -0.02 0 0.01 0 -0.02 0 0.01 0 0.01 0 -0.01 0 0 0 0 0 0 0 0 0 0 0 0 0 0 0 0 0 0 0 0 -0.01 -0.01 0.01 0.01 0 -0.01 0 0 0 0 -0.01 0 0.01 0zm-0.01 0c0.04,0.07 0.02,0.15 -0.04,0.19 -0.06,0.04 -0.15,0.02 -0.19,-0.05l0.23 -0.14zm0.31 1.99l-0.26 -0.08 0 0 0.01 -0.05 0.01 -0.05 0.02 -0.05 0.01 -0.06 0 -0.05 0.01 -0.05 0 -0.06 0.01 -0.05 0 -0.06 0 -0.06 0 -0.05 0 -0.06 -0.01 -0.06 0 -0.05 -0.01 -0.06 -0.01 -0.06 -0.01 -0.06 -0.01 -0.05 -0.02 -0.06 -0.01 -0.06 -0.02 -0.06 -0.01 -0.05 -0.02 -0.06 -0.02 -0.06 -0.02 -0.05 -0.02 -0.06 -0.03 -0.05 -0.02 -0.06 -0.03 -0.05 -0.02 -0.05 -0.03 -0.06 -0.03 -0.05 0.24 -0.14 0.03 0.06 0.03 0.06 0.03 0.06 0.03 0.06 0.02 0.06 0.03 0.06 0.02 0.06 0.03 0.06 0.02 0.06 0.02 0.06 0.02 0.07 0.02 0.06 0.01 0.06 0.02 0.07 0.01 0.06 0.01 0.07 0.01 0.06 0.01 0.06 0.01 0.07 0 0.06 0 0.07 0 0.06 0 0.07 0 0.06 0 0.06 -0.01 0.07 -0.01 0.06 0 0.06 -0.02 0.06 -0.01 0.06 -0.02 0.06 -0.01 0.06 0 0zm0 0c-0.03,0.07 -0.1,0.11 -0.18,0.09 -0.07,-0.02 -0.11,-0.1 -0.08,-0.17l0.26 0.08zm-1.06 0.09l0.24 -0.14 0 0 0.01 0.02 0.02 0.02 0.02 0.02 0.01 0.02 0.02 0.02 0.02 0.01 0.02 0.01 0.02 0.01 0.02 0.01 0.02 0.01 0.02 0.01 0.02 0 0.02 0.01 0.02 0 0.02 0 0.03 0 0.02 0 0.02 0 0.02 -0.01 0.01 0 0.02 -0.01 0.02 -0.01 0.02 -0.01 0.02 -0.01 0.01 -0.02 0.02 -0.01 0.01 -0.02 0.01 -0.01 0.02 -0.02 0.01 -0.02 0.01 -0.03 0.01 -0.02 0.26 0.08 -0.02 0.05 -0.02 0.04 -0.02 0.04 -0.02 0.03 -0.03 0.04 -0.03 0.03 -0.03 0.03 -0.03 0.03 -0.03 0.02 -0.04 0.02 -0.03 0.02 -0.04 0.01 -0.04 0.01 -0.04 0.01 -0.04 0.01 -0.04 0 -0.04 0.01 -0.04 -0.01 -0.04 0 -0.04 -0.01 -0.04 -0.01 -0.03 -0.01 -0.04 -0.02 -0.04 -0.01 -0.04 -0.02 -0.03 -0.03 -0.03 -0.02 -0.04 -0.03 -0.03 -0.03 -0.03 -0.04 -0.02 -0.03 -0.03 -0.04 0 0zm0 0c-0.03,-0.07 -0.01,-0.15 0.05,-0.19 0.07,-0.04 0.15,-0.02 0.19,0.05l-0.24 0.14zm0.08 -0.17l-0.14 -0.24 0.2 0.07 0 0 0 0.01 0 0.01 0.01 0 0 0.01 0 0.01 0.01 0 0 0.01 0 0 0.01 0.01 0 0.01 0 0 0 0.01 0.01 0.01 0 0 0 0.01 0.01 0.01 0 0 0 0.01 0.01 0 0 0.01 0.01 0.01 0 0 0 0.01 0.01 0.01 0 0 0 0.01 0 0 0.01 0.01 0 0.01 0.01 0 0 0.01 -0.24 0.14 0 -0.01 -0.01 -0.01 0 0 0 -0.01 -0.01 -0.01 0 0 -0.01 -0.01 0 -0.01 0 0 -0.01 -0.01 0 -0.01 0 -0.01 -0.01 0 0 -0.01 -0.01 -0.01 0 0 0 -0.01 -0.01 -0.01 0 -0.01 0 0 -0.01 -0.01 0 -0.01 0 -0.01 -0.01 0 0 -0.01 -0.01 -0.01 0 0 0 -0.02 -0.01 0 0 -0.01 0 -0.01 -0.01 0 0.2 0.06zm-0.2 -0.06c-0.03,-0.07 0.01,-0.15 0.08,-0.18 0.06,-0.03 0.15,0 0.18,0.07l-0.26 0.11zm-0.48 1.2l-0.27 0 0 0 0 -0.05 0 -0.05 0.01 -0.06 0 -0.05 0.01 -0.05 0.01 -0.05 0.01 -0.05 0.02 -0.05 0.01 -0.06 0.02 -0.04 0.02 -0.05 0.02 -0.05 0.02 -0.05 0.02 -0.05 0.02 -0.04 0.03 -0.05 0.03 -0.04 0.02 -0.05 0.03 -0.04 0.04 -0.04 0.03 -0.04 0.03 -0.04 0.04 -0.04 0.03 -0.04 0.04 -0.03 0.04 -0.04 0.04 -0.03 0.04 -0.03 0.05 -0.03 0.04 -0.03 0.05 -0.03 0.04 -0.03 0.14 0.24 -0.04 0.02 -0.04 0.03 -0.04 0.02 -0.03 0.03 -0.04 0.02 -0.03 0.03 -0.03 0.03 -0.03 0.03 -0.03 0.03 -0.03 0.03 -0.03 0.04 -0.03 0.03 -0.02 0.03 -0.03 0.04 -0.02 0.03 -0.03 0.04 -0.02 0.04 -0.02 0.04 -0.02 0.04 -0.01 0.04 -0.02 0.03 -0.01 0.05 -0.02 0.04 -0.01 0.04 -0.01 0.04 -0.01 0.04 -0.01 0.04 0 0.05 -0.01 0.04 0 0.05 -0.01 0.04 0 0.04 0 0zm0 0c0,0.08 -0.06,0.14 -0.13,0.14 -0.08,0 -0.14,-0.06 -0.14,-0.14l0.27 0zm0 0.04l-0.27 0.01 0 -0.01 0 0 0 0 0 0 0 0 0 0.01 0 0 0 -0.02 0 0 0 0 0 0 0 0 0 0 0 0 0 0 0 -0.01 0 0 0 0.02 0 0 0 -0.02 0 0 0 0 0 0 0 -0.01 0 0 0 0 0 0 0 0 0 0 0 0 0 0 0 0 0 -0.01 0.27 0 0 0.01 0 0 0 0 0 0 0 0 0 0 0 0 0 0 0 0 0 0.01 0 0 0 0 0 0 0 -0.02 0 0 0 0.02 0 0 0 0.01 0 0 0 0 0 0 0 0 0 0 0 0 0 0 0 -0.01 0 0 0 0.02 0 0 0 0 0 0 0 0 0 0zm0 0c0.01,0.07 -0.05,0.14 -0.13,0.14 -0.07,0 -0.14,-0.06 -0.14,-0.14l0.27 0zm1.72 1.54l0 0.27 0 0 -0.11 0 -0.11 -0.01 -0.11 -0.01 -0.11 -0.01 -0.1 -0.02 -0.1 -0.03 -0.1 -0.02 -0.09 -0.03 -0.09 -0.04 -0.09 -0.04 -0.08 -0.04 -0.08 -0.04 -0.08 -0.05 -0.07 -0.06 -0.07 -0.05 -0.06 -0.06 -0.06 -0.06 -0.06 -0.07 -0.06 -0.07 -0.05 -0.07 -0.04 -0.07 -0.05 -0.08 -0.04 -0.08 -0.03 -0.08 -0.03 -0.08 -0.03 -0.09 -0.02 -0.08 -0.02 -0.09 -0.02 -0.09 -0.01 -0.09 -0.01 -0.1 -0.01 -0.09 0.27 -0.01 0.01 0.08 0.01 0.08 0.01 0.08 0.01 0.08 0.02 0.08 0.02 0.07 0.03 0.08 0.02 0.07 0.03 0.07 0.04 0.06 0.03 0.07 0.04 0.06 0.04 0.06 0.05 0.05 0.05 0.06 0.05 0.05 0.05 0.05 0.06 0.05 0.06 0.04 0.06 0.04 0.07 0.04 0.07 0.04 0.07 0.03 0.08 0.03 0.08 0.02 0.09 0.03 0.08 0.02 0.09 0.02 0.1 0.01 0.1 0.01 0.1 0 0.1 0.01 0 0zm0 0c0.08,0 0.14,0.06 0.14,0.13 0,0.08 -0.06,0.14 -0.14,0.14l0 -0.27zm1.72 -1.54l0.28 0.01 0 0 -0.01 0.09 -0.01 0.09 -0.01 0.09 -0.02 0.09 -0.02 0.09 -0.02 0.08 -0.03 0.08 -0.03 0.09 -0.04 0.08 -0.04 0.07 -0.04 0.08 -0.05 0.07 -0.05 0.08 -0.05 0.06 -0.06 0.07 -0.06 0.06 -0.06 0.06 -0.07 0.06 -0.07 0.05 -0.08 0.05 -0.08 0.05 -0.08 0.04 -0.09 0.04 -0.09 0.04 -0.09 0.03 -0.1 0.03 -0.1 0.02 -0.1 0.02 -0.11 0.02 -0.11 0.01 -0.11 0.01 -0.12 0 0 -0.27 0.11 -0.01 0.1 0 0.1 -0.01 0.09 -0.02 0.09 -0.01 0.09 -0.02 0.09 -0.03 0.08 -0.03 0.07 -0.03 0.08 -0.03 0.07 -0.04 0.06 -0.04 0.07 -0.04 0.06 -0.05 0.06 -0.04 0.05 -0.05 0.05 -0.06 0.05 -0.05 0.04 -0.06 0.05 -0.06 0.04 -0.06 0.03 -0.06 0.04 -0.07 0.03 -0.07 0.02 -0.07 0.03 -0.07 0.02 -0.07 0.01 -0.08 0.02 -0.08 0.01 -0.07 0.01 -0.08 0 -0.08 0 0zm0 0c0.01,-0.08 0.07,-0.14 0.15,-0.14 0.07,0.01 0.13,0.07 0.13,0.15l-0.28 -0.01zm-2.1 -3.03l0.14 -0.23 -0.01 -0.01 0.13 0.07 0.13 0.07 0.13 0.07 0.13 0.08 0.12 0.08 0.12 0.09 0.11 0.09 0.11 0.09 0.1 0.09 0.1 0.1 0.1 0.1 0.09 0.1 0.09 0.1 0.08 0.11 0.08 0.11 0.07 0.1 0.07 0.11 0.07 0.12 0.06 0.11 0.06 0.11 0.05 0.12 0.04 0.11 0.05 0.12 0.03 0.11 0.04 0.12 0.02 0.11 0.03 0.12 0.02 0.12 0.01 0.11 0.01 0.11 0 0.12 0 0.11 -0.28 -0.01 0.01 -0.1 -0.01 -0.1 0 -0.11 -0.02 -0.1 -0.01 -0.1 -0.02 -0.11 -0.03 -0.1 -0.03 -0.11 -0.03 -0.1 -0.04 -0.11 -0.04 -0.1 -0.05 -0.11 -0.05 -0.11 -0.06 -0.1 -0.06 -0.1 -0.07 -0.11 -0.07 -0.1 -0.07 -0.1 -0.08 -0.09 -0.08 -0.1 -0.08 -0.1 -0.09 -0.09 -0.09 -0.09 -0.1 -0.09 -0.1 -0.08 -0.11 -0.08 -0.11 -0.08 -0.11 -0.08 -0.12 -0.07 -0.12 -0.07 -0.12 -0.07 -0.13 -0.06 -0.01 -0.01zm0.01 0.01c-0.07,-0.03 -0.1,-0.11 -0.07,-0.18 0.04,-0.07 0.12,-0.1 0.19,-0.07l-0.12 0.25z"/>
  </g>
  <g>
   <path id="Intersect" class="fil0" d="M123.49 3.89c0.06,0.57 0.52,1.03 1.09,1.09 0.42,0.05 0.85,0.09 1.3,0.09 0.44,0 0.87,-0.04 1.29,-0.09 0.57,-0.06 1.03,-0.52 1.09,-1.09 0.04,-0.42 0.08,-0.85 0.08,-1.29 0,-0.44 -0.04,-0.87 -0.08,-1.29 -0.06,-0.56 -0.52,-1.02 -1.09,-1.09 -0.42,-0.04 -0.85,-0.08 -1.29,-0.08 -0.45,0 -0.88,0.04 -1.3,0.08 -0.57,0.07 -1.03,0.53 -1.09,1.09 -0.04,0.42 -0.08,0.85 -0.08,1.29 0,0.44 0.04,0.87 0.08,1.29zm1.4 -1.04l0.72 0.74c0.33,-0.97 0.62,-1.39 1.25,-1.97l-1.97 1.23z"/>
   <path id="_1_1" class="fil2 str0" d="M123.49 3.89c0.06,0.57 0.52,1.03 1.09,1.09 0.42,0.05 0.85,0.09 1.3,0.09 0.44,0 0.87,-0.04 1.29,-0.09 0.57,-0.06 1.03,-0.52 1.09,-1.09 0.04,-0.42 0.08,-0.85 0.08,-1.29 0,-0.44 -0.04,-0.87 -0.08,-1.29 -0.06,-0.56 -0.52,-1.02 -1.09,-1.09 -0.42,-0.04 -0.85,-0.08 -1.29,-0.08 -0.45,0 -0.88,0.04 -1.3,0.08 -0.57,0.07 -1.03,0.53 -1.09,1.09 -0.04,0.42 -0.08,0.85 -0.08,1.29 0,0.44 0.04,0.87 0.08,1.29zm1.4 -1.04l0.72 0.74c0.33,-0.97 0.62,-1.39 1.25,-1.97"/>
  </g>
  <path id="Vector_2" class="fil2 str1" d="M131.55 3.89l0 0.4c0,0 0,0 0,0 0,0.43 0.35,0.78 0.78,0.78l3.54 0c0.43,0 0.78,-0.35 0.78,-0.78l0 -0.4m-1.26 -1.74c-0.26,0.51 -0.77,1.03 -1.29,1.28 -0.52,-0.25 -1.03,-0.77 -1.29,-1.29m1.29 -2l0 3.28"/>
  <g>
   <path id="Vector_3" class="fil0" d="M4.87 4.97l-0.84 -0.84 0.84 0.84zm-2.51 -0.28c1.43,0 2.23,-0.8 2.23,-2.23 0,-1.42 -0.8,-2.22 -2.23,-2.22 -1.42,0 -2.22,0.8 -2.22,2.22 0,1.43 0.8,2.23 2.22,2.23l0 0z"/>
   <path id="_1_3" class="fil2 str2" d="M4.87 4.97l-0.84 -0.84m-1.67 0.56c1.43,0 2.23,-0.8 2.23,-2.23 0,-1.42 -0.8,-2.22 -2.23,-2.22 -1.42,0 -2.22,0.8 -2.22,2.22 0,1.43 0.8,2.23 2.22,2.23l0 0z"/>
  </g>
  <g>
   <path id="Intersect_4" class="fil0" d="M108.23 0.86c0.03,-0.19 0.18,-0.33 0.36,-0.35 0.45,-0.04 0.92,-0.1 1.4,-0.1 0.48,0 0.95,0.06 1.39,0.1 0.19,0.02 0.34,0.16 0.36,0.35 0.05,0.36 0.11,0.73 0.11,1.12 0,0.38 -0.06,0.75 -0.11,1.11 -0.02,0.19 -0.17,0.33 -0.36,0.35l-3.15 -2.58zm2.39 3.49c-0.03,0.19 -0.18,0.33 -0.36,0.35 -0.45,0.04 -0.92,0.09 -1.4,0.09 -0.48,0 -0.94,-0.05 -1.39,-0.09 -0.19,-0.02 -0.34,-0.16 -0.36,-0.35 -0.05,-0.36 -0.1,-0.73 -0.1,-1.12 0,-0.38 0.05,-0.75 0.1,-1.11 0.02,-0.19 0.17,-0.33 0.36,-0.35 0.45,-0.04 0.91,-0.1 1.39,-0.1 0.48,0 0.95,0.06 1.4,0.1 0.18,0.02 0.33,0.16 0.36,0.35 0.05,0.36 0.1,0.73 0.1,1.11 0,0.39 -0.05,0.76 -0.1,1.12zm0.04 -0.32c-0.2,-0.23 -0.36,-0.39 -0.6,-0.55 -0.21,-0.16 -0.51,-0.17 -0.73,-0.02 -0.47,0.34 -0.88,0.83 -1.15,1.3l2.48 -0.73zm-2.43 -0.72c-0.3,0 -0.47,-0.17 -0.47,-0.47 0,-0.3 0.17,-0.47 0.47,-0.47 0.31,0 0.48,0.17 0.48,0.47 0,0.3 -0.17,0.47 -0.48,0.47z"/>
   <path id="_1_5" class="fil2 str3" d="M108.23 0.86c0.03,-0.19 0.18,-0.33 0.36,-0.35 0.45,-0.04 0.92,-0.1 1.4,-0.1 0.48,0 0.95,0.06 1.39,0.1 0.19,0.02 0.34,0.16 0.36,0.35 0.05,0.36 0.11,0.73 0.11,1.12 0,0.38 -0.06,0.75 -0.11,1.11 -0.02,0.19 -0.17,0.33 -0.36,0.35m-0.76 0.91c-0.03,0.19 -0.18,0.33 -0.36,0.35 -0.45,0.04 -0.92,0.09 -1.4,0.09 -0.48,0 -0.94,-0.05 -1.39,-0.09 -0.19,-0.02 -0.34,-0.16 -0.36,-0.35 -0.05,-0.36 -0.1,-0.73 -0.1,-1.12 0,-0.38 0.05,-0.75 0.1,-1.11 0.02,-0.19 0.17,-0.33 0.36,-0.35 0.45,-0.04 0.91,-0.1 1.39,-0.1 0.48,0 0.95,0.06 1.4,0.1 0.18,0.02 0.33,0.16 0.36,0.35 0.05,0.36 0.1,0.73 0.1,1.11 0,0.39 -0.05,0.76 -0.1,1.12zm0.04 -0.32c-0.2,-0.23 -0.36,-0.39 -0.6,-0.55 -0.21,-0.16 -0.51,-0.17 -0.73,-0.02 -0.47,0.34 -0.88,0.83 -1.15,1.3m0.05 -1.45c-0.3,0 -0.47,-0.17 -0.47,-0.47 0,-0.3 0.17,-0.47 0.47,-0.47 0.31,0 0.48,0.17 0.48,0.47 0,0.3 -0.17,0.47 -0.48,0.47z"/>
  </g>
  <g>
   <path id="Vector_x0020_1187" class="fil0" d="M117.17 2.22l0.19 0c0.21,0 0.38,0.17 0.38,0.38l0 1.06 -0.57 -1.44zm0 1.44l1.15 0 -1.15 0zm0.58 -2.33l0 0.13 0 -0.13zm-2.48 2.56c0.06,0.57 0.51,1.03 1.08,1.09 0.43,0.05 0.86,0.09 1.3,0.09 0.44,0 0.88,-0.04 1.3,-0.09 0.57,-0.06 1.02,-0.52 1.09,-1.09 0.04,-0.42 0.08,-0.85 0.08,-1.29 0,-0.44 -0.04,-0.87 -0.08,-1.29 -0.07,-0.56 -0.52,-1.02 -1.09,-1.09 -0.42,-0.04 -0.86,-0.08 -1.3,-0.08 -0.44,0 -0.87,0.04 -1.3,0.08 -0.57,0.07 -1.02,0.53 -1.08,1.09 -0.05,0.42 -0.09,0.85 -0.09,1.29 0,0.44 0.04,0.87 0.09,1.29z"/>
   <path id="_1_6" class="fil2 str4" d="M117.17 2.22l0.19 0c0.21,0 0.38,0.17 0.38,0.38l0 1.06m-0.57 0l1.15 0m-0.57 -2.33l0 0.13m-2.48 2.43c0.06,0.57 0.51,1.03 1.08,1.09 0.43,0.05 0.86,0.09 1.3,0.09 0.44,0 0.88,-0.04 1.3,-0.09 0.57,-0.06 1.02,-0.52 1.09,-1.09 0.04,-0.42 0.08,-0.85 0.08,-1.29 0,-0.44 -0.04,-0.87 -0.08,-1.29 -0.07,-0.56 -0.52,-1.02 -1.09,-1.09 -0.42,-0.04 -0.86,-0.08 -1.3,-0.08 -0.44,0 -0.87,0.04 -1.3,0.08 -0.57,0.07 -1.02,0.53 -1.08,1.09 -0.05,0.42 -0.09,0.85 -0.09,1.29 0,0.44 0.04,0.87 0.09,1.29z"/>
  </g>
  <g>
   <path id="Vector_7" class="fil0" d="M103.61 2.01c0.01,-0.07 0.01,-0.13 0.01,-0.2 -0.01,-1.1 -1.25,-2.12 -2.42,-0.68 -1.17,-1.44 -2.4,-0.42 -2.42,0.68 0,1.63 1.95,2.97 2.42,2.98l2.41 -2.78zm0.01 1.37c0,-0.79 -0.44,-1.24 -1.24,-1.24 -0.71,0 -1.23,0.51 -1.23,1.24 0,0.79 0.44,1.24 1.23,1.24 0.72,0 1.24,-0.52 1.24,-1.24zm-0.91 -0.36c0,0 -0.12,-0.14 -0.32,-0.12 -0.2,0.02 -0.3,0.14 -0.3,0.26 0,0.36 0.62,0.11 0.62,0.48 0,0.19 -0.41,0.33 -0.65,0.11l0.65 -0.73zm-0.3 -0.36l0 0.24 0 -0.24zm0 1.2l0 0.24 0 -0.24z"/>
   <path id="_1_8" class="fil2 str5" d="M103.61 2.01c0.01,-0.07 0.01,-0.13 0.01,-0.2 -0.01,-1.1 -1.25,-2.12 -2.42,-0.68 -1.17,-1.44 -2.4,-0.42 -2.42,0.68 0,1.63 1.95,2.97 2.42,2.98m2.42 -1.41c0,-0.79 -0.44,-1.24 -1.24,-1.24 -0.71,0 -1.23,0.51 -1.23,1.24 0,0.79 0.44,1.24 1.23,1.24 0.72,0 1.24,-0.52 1.24,-1.24zm-0.91 -0.36c0,0 -0.12,-0.14 -0.32,-0.12 -0.2,0.02 -0.3,0.14 -0.3,0.26 0,0.36 0.62,0.11 0.62,0.48 0,0.19 -0.41,0.33 -0.65,0.11m0.35 -1.09l0 0.24m0 0.96l0 0.24"/>
  </g>
  <path id="Intersect_9" class="fil0 str6" d="M65.92 3.89c0.06,0.57 0.52,1.03 1.09,1.09 0.42,0.05 0.85,0.09 1.29,0.09 0.44,0 0.88,-0.04 1.3,-0.09 0.57,-0.06 1.03,-0.52 1.09,-1.09 0.04,-0.42 0.08,-0.85 0.08,-1.29 0,-0.44 -0.04,-0.87 -0.08,-1.29 -0.06,-0.56 -0.52,-1.02 -1.09,-1.09 -0.42,-0.04 -0.86,-0.08 -1.3,-0.08 -0.44,0 -0.87,0.04 -1.29,0.08 -0.57,0.07 -1.03,0.53 -1.09,1.09 -0.05,0.42 -0.08,0.85 -0.08,1.29 0,0.44 0.03,0.87 0.08,1.29zm2.03 0.15l0.7 -0.01 0 -0.9 0.57 0 0 -0.7 -0.57 0 0 -0.28c0,-0.15 0.13,-0.28 0.28,-0.28l0.29 0 0 -0.42c0,-0.16 -0.13,-0.28 -0.29,-0.28l-0.14 0c-0.46,0 -0.84,0.38 -0.84,0.84l0 0.42 -0.56 0 0 0.7 0.56 0 0 0.91z"/>
  <g>
   <path id="Intersect_10" class="fil0" d="M74.14 3.89c0.06,0.57 0.52,1.03 1.09,1.09 0.42,0.05 0.86,0.09 1.3,0.09 0.44,0 0.87,-0.04 1.3,-0.09 0.56,-0.06 1.02,-0.52 1.08,-1.09 0.05,-0.42 0.08,-0.85 0.08,-1.29 0,-0.44 -0.03,-0.87 -0.08,-1.29 -0.06,-0.56 -0.52,-1.02 -1.08,-1.09 -0.43,-0.04 -0.86,-0.08 -1.3,-0.08 -0.44,0 -0.88,0.04 -1.3,0.08 -0.57,0.07 -1.03,0.53 -1.09,1.09 -0.04,0.42 -0.08,0.85 -0.08,1.29 0,0.44 0.04,0.87 0.08,1.29zm1.15 -2.72l0.6 0 2.02 2.69c0.03,0.04 0.03,0.08 0.01,0.12 -0.02,0.04 -0.05,0.06 -0.1,0.06l-0.59 0 -2.03 -2.69c-0.02,-0.04 -0.03,-0.08 -0.01,-0.12 0.02,-0.04 0.06,-0.06 0.1,-0.06zm2.41 0l-0.99 1.1 0.99 -1.1zm-1.43 1.59l-1.15 1.28 1.15 -1.28z"/>
   <path id="_1_11" class="fil2 str7" d="M74.14 3.89c0.06,0.57 0.52,1.03 1.09,1.09 0.42,0.05 0.86,0.09 1.3,0.09 0.44,0 0.87,-0.04 1.3,-0.09 0.56,-0.06 1.02,-0.52 1.08,-1.09 0.05,-0.42 0.08,-0.85 0.08,-1.29 0,-0.44 -0.03,-0.87 -0.08,-1.29 -0.06,-0.56 -0.52,-1.02 -1.08,-1.09 -0.43,-0.04 -0.86,-0.08 -1.3,-0.08 -0.44,0 -0.88,0.04 -1.3,0.08 -0.57,0.07 -1.03,0.53 -1.09,1.09 -0.04,0.42 -0.08,0.85 -0.08,1.29 0,0.44 0.04,0.87 0.08,1.29zm1.15 -2.72l0.6 0 2.02 2.69c0.03,0.04 0.03,0.08 0.01,0.12 -0.02,0.04 -0.05,0.06 -0.1,0.06l-0.59 0 -2.03 -2.69c-0.02,-0.04 -0.03,-0.08 -0.01,-0.12 0.02,-0.04 0.06,-0.06 0.1,-0.06zm2.41 0l-0.99 1.1m-0.44 0.49l-1.15 1.28"/>
  </g>
  <g>
   <path id="Intersect_12" class="fil0" d="M84.58 2.84c0.43,0.38 1.18,0.13 1.2,-0.73 0,-0.47 -0.32,-0.92 -0.98,-0.94 -0.66,-0.02 -1.03,0.4 -1.07,0.82 -0.02,0.21 0.04,0.37 0.1,0.47l0.75 0.38zm-0.28 -0.44c0,0 -0.2,0.81 -0.23,0.95 -0.02,0.14 -0.05,0.68 0,0.69 0.05,0.01 0.31,-0.38 0.36,-0.63 0.05,-0.25 0.31,-1.17 0.36,-1.37 0.05,-0.21 -0.04,-0.36 -0.21,-0.35 -0.16,0 -0.45,0.2 -0.28,0.71zm-1.93 1.49c0.06,0.57 0.52,1.03 1.08,1.09 0.43,0.05 0.86,0.09 1.3,0.09 0.44,0 0.88,-0.04 1.3,-0.09 0.57,-0.06 1.03,-0.52 1.09,-1.09 0.04,-0.42 0.08,-0.85 0.08,-1.29 0,-0.44 -0.04,-0.87 -0.08,-1.29 -0.06,-0.56 -0.52,-1.02 -1.09,-1.09 -0.42,-0.04 -0.86,-0.08 -1.3,-0.08 -0.44,0 -0.87,0.04 -1.3,0.08 -0.56,0.07 -1.02,0.53 -1.08,1.09 -0.05,0.42 -0.09,0.85 -0.09,1.29 0,0.44 0.04,0.87 0.09,1.29z"/>
   <path id="_1_13" class="fil2 str8" d="M84.58 2.84c0.43,0.38 1.18,0.13 1.2,-0.73 0,-0.47 -0.32,-0.92 -0.98,-0.94 -0.66,-0.02 -1.03,0.4 -1.07,0.82 -0.02,0.21 0.04,0.37 0.1,0.47m0.47 -0.06c0,0 -0.2,0.81 -0.23,0.95 -0.02,0.14 -0.05,0.68 0,0.69 0.05,0.01 0.31,-0.38 0.36,-0.63 0.05,-0.25 0.31,-1.17 0.36,-1.37 0.05,-0.21 -0.04,-0.36 -0.21,-0.35 -0.16,0 -0.45,0.2 -0.28,0.71zm-1.93 1.49c0.06,0.57 0.52,1.03 1.08,1.09 0.43,0.05 0.86,0.09 1.3,0.09 0.44,0 0.88,-0.04 1.3,-0.09 0.57,-0.06 1.03,-0.52 1.09,-1.09 0.04,-0.42 0.08,-0.85 0.08,-1.29 0,-0.44 -0.04,-0.87 -0.08,-1.29 -0.06,-0.56 -0.52,-1.02 -1.09,-1.09 -0.42,-0.04 -0.86,-0.08 -1.3,-0.08 -0.44,0 -0.87,0.04 -1.3,0.08 -0.56,0.07 -1.02,0.53 -1.08,1.09 -0.05,0.42 -0.09,0.85 -0.09,1.29 0,0.44 0.04,0.87 0.09,1.29z"/>
  </g>
  <path id="Intersect_14" class="fil0 str9" d="M24.8 3.89c0.06,0.57 0.52,1.03 1.08,1.09 0.43,0.05 0.86,0.09 1.3,0.09 0.44,0 0.88,-0.04 1.3,-0.09 0.57,-0.06 1.03,-0.52 1.09,-1.09 0.03,-0.29 0.06,-0.58 0.07,-0.88l-1.74 0 0 0.44 -1.51 0c0,-0.89 0,-0.71 0,-1.59l0.4 0 0 -1.72c-0.3,0.02 -0.61,0.05 -0.91,0.08 -0.56,0.06 -1.02,0.52 -1.08,1.09 -0.05,0.42 -0.08,0.85 -0.08,1.29 0,0.44 0.03,0.87 0.08,1.29zm4.84 -1.59c-0.01,-0.33 -0.04,-0.66 -0.07,-0.99 -0.06,-0.57 -0.52,-1.03 -1.09,-1.09 -0.32,-0.03 -0.65,-0.07 -0.98,-0.08l0 1.72 0.4 0 0 0.44 1.74 0z"/>
  <g>
   <path id="Vector_15" class="fil0" d="M90.59 3.89c0.06,0.57 0.52,1.03 1.09,1.09 0.42,0.05 0.85,0.09 1.3,0.09 0.44,0 0.87,-0.04 1.29,-0.09 0.57,-0.06 1.03,-0.52 1.09,-1.09 0.05,-0.42 0.08,-0.85 0.08,-1.29 0,-0.44 -0.03,-0.87 -0.08,-1.29 -0.06,-0.56 -0.52,-1.02 -1.09,-1.09 -0.42,-0.04 -0.85,-0.08 -1.29,-0.08 -0.45,0 -0.88,0.04 -1.3,0.08 -0.57,0.07 -1.03,0.53 -1.09,1.09 -0.04,0.42 -0.08,0.85 -0.08,1.29 0,0.44 0.04,0.87 0.08,1.29zm3.65 -2.55c0.23,0.23 0.23,0.61 0,0.84l-0.42 0.42c-0.23,0.24 -0.61,0.24 -0.84,0 -0.23,-0.23 -0.23,-0.6 0,-0.84l0.42 -0.42c0.23,-0.23 0.61,-0.23 0.84,0zm-1.26 1.26c0.23,0.24 0.23,0.61 0,0.84l-0.42 0.43c-0.24,0.23 -0.61,0.23 -0.85,0 -0.23,-0.23 -0.23,-0.61 0,-0.84l0.43 -0.43c0.23,-0.23 0.61,-0.23 0.84,0zm0.6 -0.6l-1.21 1.21 1.21 -1.21z"/>
   <path id="_1_16" class="fil2 str10" d="M90.59 3.89c0.06,0.57 0.52,1.03 1.09,1.09 0.42,0.05 0.85,0.09 1.3,0.09 0.44,0 0.87,-0.04 1.29,-0.09 0.57,-0.06 1.03,-0.52 1.09,-1.09 0.05,-0.42 0.08,-0.85 0.08,-1.29 0,-0.44 -0.03,-0.87 -0.08,-1.29 -0.06,-0.56 -0.52,-1.02 -1.09,-1.09 -0.42,-0.04 -0.85,-0.08 -1.29,-0.08 -0.45,0 -0.88,0.04 -1.3,0.08 -0.57,0.07 -1.03,0.53 -1.09,1.09 -0.04,0.42 -0.08,0.85 -0.08,1.29 0,0.44 0.04,0.87 0.08,1.29zm3.65 -2.55c0.23,0.23 0.23,0.61 0,0.84l-0.42 0.42c-0.23,0.24 -0.61,0.24 -0.84,0 -0.23,-0.23 -0.23,-0.6 0,-0.84l0.42 -0.42c0.23,-0.23 0.61,-0.23 0.84,0zm-1.26 1.26c0.23,0.24 0.23,0.61 0,0.84l-0.42 0.43c-0.24,0.23 -0.61,0.23 -0.85,0 -0.23,-0.23 -0.23,-0.61 0,-0.84l0.43 -0.43c0.23,-0.23 0.61,-0.23 0.84,0zm0.6 -0.6l-1.21 1.21"/>
  </g>
  <g>
   <path id="Intersect_17" class="fil0" d="M57.69 3.89c0.06,0.57 0.52,1.03 1.09,1.09 0.42,0.05 0.86,0.09 1.3,0.09 0.44,0 0.87,-0.04 1.3,-0.09 0.56,-0.06 1.02,-0.52 1.08,-1.09 0.05,-0.42 0.09,-0.85 0.09,-1.29 0,-0.44 -0.04,-0.87 -0.09,-1.29 -0.06,-0.56 -0.52,-1.02 -1.08,-1.09 -0.43,-0.04 -0.86,-0.08 -1.3,-0.08 -0.44,0 -0.88,0.04 -1.3,0.08 -0.57,0.07 -1.03,0.53 -1.09,1.09 -0.04,0.42 -0.08,0.85 -0.08,1.29 0,0.44 0.04,0.87 0.08,1.29zm3.88 -0.01c0.08,-0.04 0.13,-0.28 0.14,-0.58 0.01,-0.23 0.01,-0.46 0.01,-0.7 0,-0.23 0,-0.46 -0.01,-0.69 -0.01,-0.3 -0.06,-0.55 -0.14,-0.58l0 2.55zm-0.54 -1.1c0.03,-0.06 0.05,-0.12 0.05,-0.18 0,-0.05 -0.02,-0.11 -0.05,-0.17 -0.02,-0.02 -0.03,-0.04 -0.05,-0.06 -0.14,-0.17 -0.29,-0.34 -0.43,-0.5 -0.2,-0.23 -0.38,-0.36 -0.45,-0.33 -0.05,0.02 -0.1,0.04 -0.13,0.08 -0.03,0.05 -0.06,0.1 -0.07,0.16 -0.03,0.08 0.07,0.28 0.24,0.49 -0.13,0 -0.26,0 -0.38,0 -0.24,0 -0.47,0 -0.7,0.01 -0.3,0.01 -0.54,0.07 -0.58,0.15 -0.02,0.06 -0.05,0.11 -0.05,0.17 0,0.06 0.03,0.12 0.05,0.18 0.04,0.08 0.28,0.14 0.58,0.15 0.23,0 0.46,0.01 0.7,0.01 0.12,0 0.25,0 0.38,0 -0.17,0.21 -0.27,0.41 -0.24,0.49 0.01,0.06 0.04,0.11 0.07,0.16 0.03,0.04 0.08,0.06 0.13,0.08 0.07,0.03 0.25,-0.11 0.45,-0.33 0.14,-0.16 0.29,-0.33 0.43,-0.5 0.02,-0.02 0.03,-0.04 0.05,-0.06z"/>
   <path id="_1_18" class="fil2 str11" d="M57.69 3.89c0.06,0.57 0.52,1.03 1.09,1.09 0.42,0.05 0.86,0.09 1.3,0.09 0.44,0 0.87,-0.04 1.3,-0.09 0.56,-0.06 1.02,-0.52 1.08,-1.09 0.05,-0.42 0.09,-0.85 0.09,-1.29 0,-0.44 -0.04,-0.87 -0.09,-1.29 -0.06,-0.56 -0.52,-1.02 -1.08,-1.09 -0.43,-0.04 -0.86,-0.08 -1.3,-0.08 -0.44,0 -0.88,0.04 -1.3,0.08 -0.57,0.07 -1.03,0.53 -1.09,1.09 -0.04,0.42 -0.08,0.85 -0.08,1.29 0,0.44 0.04,0.87 0.08,1.29zm3.88 -0.01c0.08,-0.04 0.13,-0.28 0.14,-0.58 0.01,-0.23 0.01,-0.46 0.01,-0.7 0,-0.23 0,-0.46 -0.01,-0.69 -0.01,-0.3 -0.06,-0.55 -0.14,-0.58m-0.54 1.45c0.03,-0.06 0.05,-0.12 0.05,-0.18 0,-0.05 -0.02,-0.11 -0.05,-0.17 -0.02,-0.02 -0.03,-0.04 -0.05,-0.06 -0.14,-0.17 -0.29,-0.34 -0.43,-0.5 -0.2,-0.23 -0.38,-0.36 -0.45,-0.33 -0.05,0.02 -0.1,0.04 -0.13,0.08 -0.03,0.05 -0.06,0.1 -0.07,0.16 -0.03,0.08 0.07,0.28 0.24,0.49 -0.13,0 -0.26,0 -0.38,0 -0.24,0 -0.47,0 -0.7,0.01 -0.3,0.01 -0.54,0.07 -0.58,0.15 -0.02,0.06 -0.05,0.11 -0.05,0.17 0,0.06 0.03,0.12 0.05,0.18 0.04,0.08 0.28,0.14 0.58,0.15 0.23,0 0.46,0.01 0.7,0.01 0.12,0 0.25,0 0.38,0 -0.17,0.21 -0.27,0.41 -0.24,0.49 0.01,0.06 0.04,0.11 0.07,0.16 0.03,0.04 0.08,0.06 0.13,0.08 0.07,0.03 0.25,-0.11 0.45,-0.33 0.14,-0.16 0.29,-0.33 0.43,-0.5 0.02,-0.02 0.03,-0.04 0.05,-0.06z"/>
  </g>
  <path id="Rectangle_x0020_15" class="fil0 str12" d="M51.13 5.07l0 -1.32c0,-0.4 0.32,-0.73 0.72,-0.73 0.4,0 0.73,0.33 0.73,0.73l0 1.32 0.65 0c0.29,0 0.54,-0.21 0.58,-0.5 0.07,-0.46 0.09,-0.92 0.05,-1.38l0.54 0c0.17,0 0.27,-0.19 0.18,-0.34l-0.09 -0.14c-0.56,-0.87 -1.26,-1.64 -2.09,-2.27l-0.28 -0.21c-0.16,-0.12 -0.37,-0.12 -0.53,0l-0.29 0.21c-0.82,0.63 -1.53,1.4 -2.08,2.27l-0.09 0.14c-0.09,0.15 0.01,0.34 0.18,0.34l0.53 0c-0.03,0.46 -0.02,0.92 0.05,1.38 0.05,0.29 0.3,0.5 0.59,0.5l0.65 0z"/>
  <g>
   <path id="Intersect_19" class="fil0" d="M46.01 3.89c-0.06,0.57 -0.51,1.03 -1.08,1.09 -0.43,0.05 -0.86,0.09 -1.3,0.09 -0.44,0 -0.88,-0.04 -1.3,-0.09 -0.57,-0.06 -1.03,-0.52 -1.09,-1.09 -0.04,-0.42 -0.08,-0.85 -0.08,-1.29 0,-0.44 0.04,-0.87 0.08,-1.29 0.07,-0.56 0.52,-1.02 1.09,-1.09 0.42,-0.04 0.86,-0.08 1.3,-0.08 0.44,0 0.87,0.04 1.3,0.08 0.57,0.07 1.02,0.53 1.08,1.09 0.05,0.42 0.09,0.85 0.09,1.29 0,0.44 -0.04,0.87 -0.09,1.29zm-3.88 -0.01c-0.07,-0.04 -0.13,-0.28 -0.13,-0.58 -0.01,-0.23 -0.02,-0.46 -0.02,-0.7 0,-0.23 0.01,-0.46 0.02,-0.69 0,-0.3 0.06,-0.55 0.13,-0.58l0 2.55zm0.55 -1.1c-0.03,-0.06 -0.05,-0.12 -0.05,-0.18 0,-0.05 0.02,-0.11 0.05,-0.17 0.01,-0.02 0.03,-0.04 0.05,-0.06 0.14,-0.17 0.29,-0.34 0.43,-0.5 0.19,-0.23 0.38,-0.36 0.45,-0.33 0.04,0.02 0.09,0.04 0.13,0.08 0.03,0.05 0.05,0.1 0.07,0.16 0.02,0.08 -0.08,0.28 -0.24,0.49 0.13,0 0.25,0 0.38,0 0.24,0 0.47,0 0.69,0.01 0.31,0.01 0.55,0.07 0.59,0.15 0.02,0.06 0.04,0.11 0.04,0.17 0,0.06 -0.02,0.12 -0.04,0.18 -0.04,0.08 -0.28,0.14 -0.59,0.15 -0.22,0 -0.45,0.01 -0.69,0.01 -0.13,0 -0.25,0 -0.38,0 0.16,0.21 0.26,0.41 0.24,0.49 -0.02,0.06 -0.04,0.11 -0.07,0.16 -0.04,0.04 -0.09,0.06 -0.13,0.08 -0.07,0.03 -0.26,-0.11 -0.45,-0.33 -0.14,-0.16 -0.29,-0.33 -0.43,-0.5 -0.02,-0.02 -0.04,-0.04 -0.05,-0.06z"/>
   <path id="_1_20" class="fil2 str13" d="M46.01 3.89c-0.06,0.57 -0.51,1.03 -1.08,1.09 -0.43,0.05 -0.86,0.09 -1.3,0.09 -0.44,0 -0.88,-0.04 -1.3,-0.09 -0.57,-0.06 -1.03,-0.52 -1.09,-1.09 -0.04,-0.42 -0.08,-0.85 -0.08,-1.29 0,-0.44 0.04,-0.87 0.08,-1.29 0.07,-0.56 0.52,-1.02 1.09,-1.09 0.42,-0.04 0.86,-0.08 1.3,-0.08 0.44,0 0.87,0.04 1.3,0.08 0.57,0.07 1.02,0.53 1.08,1.09 0.05,0.42 0.09,0.85 0.09,1.29 0,0.44 -0.04,0.87 -0.09,1.29zm-3.88 -0.01c-0.07,-0.04 -0.13,-0.28 -0.13,-0.58 -0.01,-0.23 -0.02,-0.46 -0.02,-0.7 0,-0.23 0.01,-0.46 0.02,-0.69 0,-0.3 0.06,-0.55 0.13,-0.58m0.55 1.45c-0.03,-0.06 -0.05,-0.12 -0.05,-0.18 0,-0.05 0.02,-0.11 0.05,-0.17 0.01,-0.02 0.03,-0.04 0.05,-0.06 0.14,-0.17 0.29,-0.34 0.43,-0.5 0.19,-0.23 0.38,-0.36 0.45,-0.33 0.04,0.02 0.09,0.04 0.13,0.08 0.03,0.05 0.05,0.1 0.07,0.16 0.02,0.08 -0.08,0.28 -0.24,0.49 0.13,0 0.25,0 0.38,0 0.24,0 0.47,0 0.69,0.01 0.31,0.01 0.55,0.07 0.59,0.15 0.02,0.06 0.04,0.11 0.04,0.17 0,0.06 -0.02,0.12 -0.04,0.18 -0.04,0.08 -0.28,0.14 -0.59,0.15 -0.22,0 -0.45,0.01 -0.69,0.01 -0.13,0 -0.25,0 -0.38,0 0.16,0.21 0.26,0.41 0.24,0.49 -0.02,0.06 -0.04,0.11 -0.07,0.16 -0.04,0.04 -0.09,0.06 -0.13,0.08 -0.07,0.03 -0.26,-0.11 -0.45,-0.33 -0.14,-0.16 -0.29,-0.33 -0.43,-0.5 -0.02,-0.02 -0.04,-0.04 -0.05,-0.06z"/>
  </g>
 </g>
</svg>
