<?xml version="1.0" encoding="UTF-8"?>
<!DOCTYPE svg PUBLIC "-//W3C//DTD SVG 1.1//EN" "http://www.w3.org/Graphics/SVG/1.1/DTD/svg11.dtd">
<!-- Creator: CorelDRAW 2021 (64-Bit) -->
<svg xmlns="http://www.w3.org/2000/svg" xml:space="preserve" width="798px" height="63px" version="1.1" style="shape-rendering:geometricPrecision; text-rendering:geometricPrecision; image-rendering:optimizeQuality; fill-rule:evenodd; clip-rule:evenodd"
viewBox="0 0 490.05 38.78"
 xmlns:xlink="http://www.w3.org/1999/xlink"
 xmlns:xodm="http://www.corel.com/coreldraw/odm/2003">
 <defs>
  <style type="text/css">
   <![CDATA[
    .str2 {stroke:#373435;stroke-width:0.55;stroke-miterlimit:2.61313}
    .str1 {stroke:#373435;stroke-width:0.55;stroke-miterlimit:2.61313}
    .str0 {stroke:black;stroke-width:0.55;stroke-miterlimit:2.61313}
    .fil1 {fill:none;fill-rule:nonzero}
    .fil2 {fill:#FEFEFE}
    .fil3 {fill:#373435;fill-rule:nonzero}
    .fil0 {fill:black;fill-rule:nonzero}
   ]]>
  </style>
 </defs>
 <g id="Layer_x0020_1">
  <metadata id="CorelCorpID_0Corel-Layer"/>
  <g>
   <path id="Oval" class="fil0" d="M11.32 6.93l0 -1.71 0 0 0.58 0.02 0.57 0.04 0.57 0.07 0.56 0.1 0.55 0.13 0.53 0.15 0.53 0.18 0.51 0.2 0.51 0.23 0.48 0.25 0.48 0.27 0.46 0.29 0.44 0.32 0.43 0.34 0.41 0.35 0.39 0.38 0.38 0.39 0.35 0.41 0.34 0.43 0.31 0.44 0.3 0.46 0.27 0.47 0.25 0.49 0.23 0.5 0.2 0.52 0.18 0.52 0.15 0.54 0.13 0.55 0.1 0.56 0.07 0.56 0.04 0.58 0.02 0.58 -1.71 0 -0.02 -0.5 -0.03 -0.48 -0.06 -0.49 -0.09 -0.47 -0.11 -0.46 -0.13 -0.46 -0.15 -0.44 -0.17 -0.44 -0.19 -0.43 -0.21 -0.41 -0.23 -0.4 -0.25 -0.39 -0.27 -0.38 -0.29 -0.36 -0.3 -0.35 -0.32 -0.33 -0.33 -0.32 -0.35 -0.3 -0.36 -0.29 -0.38 -0.27 -0.39 -0.25 -0.4 -0.23 -0.42 -0.21 -0.42 -0.19 -0.44 -0.17 -0.44 -0.15 -0.46 -0.13 -0.46 -0.11 -0.48 -0.09 -0.48 -0.06 -0.49 -0.03 -0.49 -0.02 0 0zm0 0c-0.47,0 -0.86,-0.38 -0.86,-0.85 0,-0.47 0.39,-0.86 0.86,-0.86l0 1.71zm-9.61 9.61l-1.71 0 0 0 0.01 -0.58 0.05 -0.58 0.07 -0.56 0.1 -0.56 0.13 -0.55 0.15 -0.54 0.18 -0.52 0.2 -0.52 0.23 -0.5 0.25 -0.49 0.27 -0.47 0.29 -0.46 0.32 -0.44 0.34 -0.43 0.35 -0.41 0.38 -0.39 0.39 -0.38 0.41 -0.35 0.43 -0.34 0.44 -0.32 0.46 -0.29 0.47 -0.27 0.49 -0.25 0.5 -0.23 0.52 -0.2 0.52 -0.18 0.54 -0.15 0.55 -0.13 0.56 -0.1 0.56 -0.07 0.58 -0.04 0.58 -0.02 0 1.71 -0.5 0.02 -0.48 0.03 -0.49 0.06 -0.47 0.09 -0.46 0.11 -0.46 0.13 -0.44 0.15 -0.44 0.17 -0.42 0.19 -0.42 0.21 -0.4 0.23 -0.39 0.25 -0.38 0.27 -0.36 0.29 -0.35 0.3 -0.33 0.32 -0.32 0.33 -0.3 0.35 -0.29 0.36 -0.27 0.38 -0.25 0.39 -0.23 0.4 -0.21 0.41 -0.19 0.43 -0.18 0.44 -0.15 0.44 -0.13 0.46 -0.1 0.46 -0.09 0.47 -0.06 0.49 -0.03 0.48 -0.02 0.5 0 0zm0 0c0,0.47 -0.38,0.86 -0.85,0.86 -0.48,0 -0.86,-0.39 -0.86,-0.86l1.71 0zm9.61 9.6l0 1.72 0 0 -0.58 -0.02 -0.58 -0.04 -0.56 -0.07 -0.56 -0.1 -0.55 -0.13 -0.54 -0.15 -0.52 -0.18 -0.52 -0.2 -0.5 -0.23 -0.49 -0.25 -0.47 -0.27 -0.46 -0.3 -0.44 -0.31 -0.43 -0.34 -0.41 -0.35 -0.39 -0.38 -0.38 -0.39 -0.35 -0.41 -0.34 -0.43 -0.32 -0.44 -0.29 -0.46 -0.27 -0.48 -0.25 -0.48 -0.23 -0.5 -0.2 -0.52 -0.18 -0.52 -0.15 -0.54 -0.13 -0.55 -0.1 -0.56 -0.07 -0.56 -0.05 -0.58 -0.01 -0.58 1.71 0 0.02 0.5 0.03 0.48 0.06 0.48 0.09 0.48 0.1 0.46 0.13 0.46 0.15 0.44 0.18 0.44 0.19 0.42 0.21 0.42 0.23 0.4 0.25 0.39 0.27 0.38 0.29 0.36 0.3 0.35 0.32 0.33 0.33 0.32 0.35 0.3 0.36 0.29 0.38 0.26 0.39 0.25 0.4 0.24 0.42 0.21 0.42 0.19 0.44 0.17 0.44 0.15 0.46 0.13 0.46 0.11 0.47 0.08 0.49 0.06 0.48 0.04 0.5 0.01 0 0zm0 0c0.47,0 0.85,0.39 0.85,0.86 0,0.47 -0.38,0.86 -0.85,0.86l0 -1.72zm9.61 -9.6l1.71 0 0 0 -0.02 0.58 -0.04 0.58 -0.07 0.56 -0.1 0.56 -0.13 0.55 -0.15 0.54 -0.18 0.52 -0.2 0.52 -0.23 0.5 -0.25 0.48 -0.27 0.48 -0.3 0.46 -0.31 0.44 -0.34 0.43 -0.35 0.41 -0.38 0.39 -0.39 0.38 -0.41 0.35 -0.43 0.34 -0.44 0.31 -0.46 0.3 -0.48 0.27 -0.48 0.25 -0.51 0.23 -0.51 0.2 -0.53 0.18 -0.53 0.15 -0.55 0.13 -0.56 0.1 -0.57 0.07 -0.57 0.04 -0.58 0.02 0 -1.72 0.49 -0.01 0.49 -0.04 0.48 -0.06 0.48 -0.08 0.46 -0.11 0.46 -0.13 0.44 -0.15 0.44 -0.17 0.42 -0.19 0.42 -0.21 0.4 -0.24 0.39 -0.25 0.38 -0.26 0.36 -0.29 0.35 -0.3 0.33 -0.32 0.32 -0.33 0.3 -0.35 0.29 -0.36 0.27 -0.38 0.25 -0.39 0.23 -0.4 0.21 -0.42 0.19 -0.42 0.17 -0.44 0.15 -0.44 0.13 -0.46 0.11 -0.46 0.09 -0.48 0.06 -0.48 0.03 -0.48 0.02 -0.5 0 0zm0 0c0,-0.47 0.38,-0.86 0.85,-0.86 0.47,0 0.86,0.39 0.86,0.86l-1.71 0zm-1.66 9.16c-0.33,-0.33 -0.33,-0.87 0,-1.21 0.34,-0.33 0.88,-0.33 1.21,0l-1.21 1.21zm7.61 7.61l-7.61 -7.61 1.21 -1.21 7.61 7.61 -1.21 1.21zm1.21 -1.21c0.34,0.34 0.34,0.88 0,1.21 -0.33,0.34 -0.87,0.34 -1.21,0l1.21 -1.21z"/>
  </g>
  <g>
   <path id="Path" class="fil1 str0" d="M489.2 24.69l0 4.7c0,2.6 -2.11,4.7 -4.71,4.7l-28.23 0c-2.6,0 -4.7,-2.1 -4.7,-4.7l0 -4.7 0 0m27.13 -9.41l-8.31 8.31 -8.32 -8.31m8.32 5.88l0 -16.47"/>
  </g>
  <g>
   <path class="fil2" d="M116.25 9.77c-2.88,2.99 -4.65,7.05 -4.65,11.53 0,9.18 7.44,16.62 16.62,16.62 9.18,0 16.63,-7.44 16.63,-16.62 0,-6.2 -3.4,-11.61 -8.43,-14.47 -0.1,3.67 -1.72,6.96 -4.27,9.26 0.14,-0.75 0.21,-1.52 0.21,-2.3 0,-7.18 -5.81,-12.93 -12.97,-12.93 0.11,3.27 -1,6.43 -3.14,8.91z"/>
   <path id="_1" class="fil1 str1" d="M116.25 9.77c-2.88,2.99 -4.65,7.05 -4.65,11.53 0,9.18 7.44,16.62 16.62,16.62 9.18,0 16.63,-7.44 16.63,-16.62 0,-6.2 -3.4,-11.61 -8.43,-14.47 -0.1,3.67 -1.72,6.96 -4.27,9.26 0.14,-0.75 0.21,-1.52 0.21,-2.3 0,-7.18 -5.81,-12.93 -12.97,-12.93 0.11,3.27 -1,6.43 -3.14,8.91z"/>
  </g>
  <g>
   <path class="fil2" d="M80.7 9.62l-3.32 -1.82c-0.32,-0.18 -0.44,-0.59 -0.26,-0.91 0.06,-0.12 0.15,-0.21 0.26,-0.27l3.32 -1.82c0.12,-0.07 0.21,-0.16 0.27,-0.27l1.82 -3.32c0.18,-0.33 0.59,-0.45 0.92,-0.27 0.11,0.07 0.2,0.16 0.26,0.27l1.82 3.32c0.07,0.11 0.16,0.2 0.27,0.27l3.32 1.82c0.33,0.18 0.45,0.59 0.27,0.91 -0.07,0.12 -0.16,0.21 -0.27,0.27l-3.32 1.82c-0.11,0.06 -0.2,0.15 -0.27,0.27l-1.82 3.32c-0.18,0.32 -0.59,0.44 -0.91,0.26 -0.12,-0.06 -0.21,-0.15 -0.27,-0.26l-1.82 -3.32c-0.06,-0.12 -0.15,-0.21 -0.27,-0.27zm-18.62 18.21l-8.52 -4.68c-0.83,-0.45 -1.14,-1.51 -0.68,-2.34 0.16,-0.29 0.39,-0.53 0.68,-0.69l8.52 -4.67c0.29,-0.16 0.53,-0.39 0.68,-0.68l4.68 -8.52c0.46,-0.84 1.51,-1.14 2.34,-0.69 0.29,0.16 0.53,0.4 0.69,0.69l4.67 8.52c0.16,0.29 0.4,0.52 0.68,0.68l8.52 4.67c0.84,0.46 1.15,1.51 0.69,2.35 -0.16,0.29 -0.4,0.53 -0.69,0.68l-8.52 4.68c-0.28,0.16 -0.52,0.39 -0.68,0.68l-4.67 8.52c-0.46,0.83 -1.51,1.14 -2.35,0.68 -0.29,-0.16 -0.53,-0.39 -0.68,-0.68l-4.68 -8.52c-0.15,-0.29 -0.39,-0.52 -0.68,-0.68z"/>
   <path id="_1_0" class="fil3" d="M77.79 7.05l3.33 1.82 -0.83 1.5 -3.32 -1.82 0 0 0.82 -1.5zm-0.82 1.5c-0.41,-0.23 -0.57,-0.75 -0.34,-1.16 0.23,-0.42 0.75,-0.57 1.16,-0.34l-0.82 1.5zm-0.61 -2.07l1.51 0.81 0 0.01 0 0 0 -0.02 0.01 -0.01 0 -0.01 0 0 0 -0.01 0.01 -0.02 0 0 0 -0.01 0 -0.01 0 -0.01 0 -0.01 0 -0.01 0 -0.01 -0.01 -0.01 0 0 0 -0.01 0 -0.01 -0.01 -0.01 0 -0.01 -0.01 -0.01 0 0 0 0 -0.01 -0.01 -0.01 -0.01 -0.01 -0.01 0 0 0 -0.01 -0.01 -0.01 -0.01 0 -0.01 -0.01 0 0 -0.83 1.5 -0.07 -0.04 -0.06 -0.04 -0.07 -0.05 -0.06 -0.05 -0.05 -0.05 -0.05 -0.04 -0.05 -0.06 -0.05 -0.06 -0.05 -0.07 -0.04 -0.05 -0.04 -0.06 -0.03 -0.07 -0.04 -0.07 -0.02 -0.07 -0.03 -0.07 -0.02 -0.06 -0.02 -0.07 -0.02 -0.07 -0.01 -0.07 -0.01 -0.08 0 -0.07 0 -0.07 0 -0.08 0 -0.08 0.01 -0.07 0.02 -0.08 0.01 -0.07 0.02 -0.07 0.03 -0.07 0.03 -0.08 0.03 -0.07 0.04 -0.07 -0.01 0.01zm0.01 -0.01c0.22,-0.41 0.75,-0.56 1.16,-0.33 0.41,0.22 0.56,0.75 0.34,1.16l-1.5 -0.83zm0.6 -0.6l0.82 1.5 0 0 0 0 0 0 0.01 0 -0.01 0 0.02 -0.01 0 0 0.01 -0.01 0 0 0 0.01 -0.01 0 0 0 0.02 -0.02 0 0 0 0.01 0 -0.01 0.01 0 0 -0.01 0 0 0 0.01 0 -0.01 0.02 -0.02 0 0 -0.01 0.01 0 0.01 0 -0.01 0 0 0.01 -0.01 0.01 -0.02 0 0.01 0 0 0 -0.01 0 0 -1.51 -0.81 0.01 -0.02 0.02 -0.03 0.01 -0.02 0.01 -0.01 0.02 -0.04 0.02 -0.03 0.02 -0.03 0.02 -0.02 0.01 -0.01 0 -0.01 0.02 -0.02 0.03 -0.04 0.02 -0.02 0.01 -0.01 0.02 -0.02 0.02 -0.02 0.03 -0.02 0.02 -0.03 0.01 0 0.02 -0.02 0.04 -0.03 0.02 -0.02 0.01 -0.01 0.01 -0.01 0.02 -0.02 0.03 -0.02 0.03 -0.01 0.04 -0.03 0.01 -0.01 0.02 -0.01 0.03 -0.02 0.02 -0.01 -0.01 0.01zm0.01 -0.01c0.42,-0.22 0.94,-0.06 1.16,0.35 0.22,0.42 0.06,0.94 -0.35,1.16l-0.81 -1.51zm4.14 -0.31l-3.33 1.82 -0.82 -1.5 3.32 -1.82 0.83 1.49 0 0.01zm-0.83 -1.5c0.42,-0.23 0.94,-0.08 1.16,0.34 0.23,0.41 0.08,0.93 -0.33,1.16l-0.83 -1.5zm-0.07 0.07l1.5 0.82 0 0.01 -0.02 0.02 -0.01 0.03 -0.01 0.02 -0.02 0.03 -0.01 0.01 -0.02 0.02 -0.03 0.04 0 0.01 -0.01 0.01 -0.01 0.01 -0.03 0.04 -0.03 0.04 0 -0.01 -0.02 0.02 -0.03 0.04 -0.01 0.01 -0.02 0.02 -0.02 0.02 -0.01 0.01 -0.02 0.02 -0.03 0.02 -0.02 0.02 -0.02 0.02 -0.01 0 -0.03 0.02 -0.02 0.02 -0.01 0.01 -0.04 0.02 -0.03 0.02 0 0 -0.03 0.02 -0.03 0.01 -0.84 -1.49 0 0 -0.01 0.01 0.02 -0.01 -0.01 0 -0.02 0.01 0.01 0 -0.01 0 0 0.01 0.01 -0.01 0 0 -0.01 0.01 -0.01 0 0 0.01 0.01 -0.01 -0.01 0 0 0.01 0.01 -0.01 -0.02 0.02 0 0 0.02 -0.02 -0.02 0.02 -0.02 0.02 0.01 -0.01 0.01 -0.01 0.01 -0.01 -0.02 0.02 0 0 0 0 0 0.01 0 -0.01 0 0.01 0 0 -0.01 0.01zm0.01 -0.01c0.23,-0.41 0.75,-0.56 1.16,-0.33 0.41,0.24 0.56,0.76 0.33,1.17l-1.49 -0.84zm3.31 -2.49l-1.82 3.32 -1.5 -0.82 1.82 -3.32 0 -0.01 1.5 0.83zm-1.5 -0.82c0.23,-0.42 0.75,-0.57 1.16,-0.34 0.42,0.23 0.57,0.75 0.34,1.16l-1.5 -0.82zm2.08 -0.6l-0.83 1.49 0 0 0.01 0.01 0.01 0 0.01 0 0.01 0.01 0 0 0.02 0 0 0 0.01 0 0.02 0.01 0.01 0 0 0 0.01 0 0 -0.01 0.02 0 0.01 0 0 0 0.01 0 0.01 -0.01 0.02 0 0 0 0 -0.01 0.01 0 0.01 -0.01 0 0 0.01 -0.01 0.01 -0.01 0 0 0.01 -0.01 0.01 0 0 -0.01 0.01 -0.01 0 -0.01 -1.5 -0.83 0.04 -0.06 0.05 -0.07 0.04 -0.06 0.04 -0.06 0.06 -0.06 0.05 -0.05 0.05 -0.05 0.06 -0.05 0.06 -0.04 0.06 -0.04 0.07 -0.04 0.06 -0.04 0.06 -0.02 0.08 -0.04 0.07 -0.02 0.06 -0.03 0.07 -0.01 0.07 -0.02 0.08 -0.01 0.07 -0.01 0.07 0 0.08 -0.01 0.07 0.01 0.08 0 0.08 0.01 0.06 0.01 0.08 0.02 0.07 0.02 0.07 0.02 0.08 0.03 0.07 0.04 0.07 0.03 0 0.01zm0 -0.01c0.41,0.23 0.56,0.75 0.34,1.17 -0.23,0.41 -0.75,0.56 -1.17,0.33l0.83 -1.5zm0.6 0.61l-1.5 0.82 0 0 0 -0.01 0 0.01 0.01 0.01 -0.01 0 0 -0.01 0.01 0.02 0.02 0.02 -0.01 -0.01 -0.01 -0.01 0 -0.01 0.01 0.02 0.02 0.02 -0.02 -0.02 0 0 0.02 0.02 -0.01 -0.01 0.01 0.01 0 0 -0.01 -0.01 0.01 0.01 0.02 0.01 0 0.01 -0.01 -0.01 -0.01 -0.01 0.01 0.01 0 0 -0.01 0 0.02 0.01 0.01 0 -0.02 -0.01 0.01 0.01 0.01 0 0.83 -1.49 0.03 0.01 0.03 0.02 0 0 0.03 0.02 0.04 0.02 0.01 0.01 0.03 0.02 0.02 0.02 0.01 0 0.01 0.01 0.02 0.02 0.04 0.03 0.02 0.02 0.01 0.01 0.02 0.02 0.02 0.02 0.01 0.01 0.04 0.04 0.02 0.02 -0.01 -0.01 0.03 0.04 0.04 0.04 0 0.01 0.01 0.01 0.01 0.01 0.03 0.04 0.02 0.04 0.01 0.01 0.01 0.01 0.02 0.04 0.02 0.03 0.01 0.01 -0.01 0zm0.01 0c0.22,0.42 0.06,0.94 -0.35,1.16 -0.42,0.23 -0.94,0.07 -1.16,-0.34l1.51 -0.82zm0.31 4.14l-1.82 -3.32 1.5 -0.82 1.82 3.32 -1.49 0.83 -0.01 -0.01zm1.5 -0.82c0.23,0.41 0.08,0.93 -0.33,1.16 -0.42,0.23 -0.94,0.08 -1.17,-0.34l1.5 -0.82zm-0.07 -0.07l-0.82 1.5 -0.01 -0.01 -0.02 -0.01 -0.03 -0.02 -0.02 -0.01 -0.03 -0.01 -0.01 -0.02 -0.02 -0.01 -0.04 -0.03 -0.01 -0.01 -0.01 0 -0.01 -0.01 -0.04 -0.03 -0.04 -0.03 0.01 0 -0.02 -0.02 -0.04 -0.03 -0.01 -0.01 -0.01 -0.01 -0.03 -0.04 -0.02 -0.02 0 0.01 -0.03 -0.04 -0.03 -0.04 -0.01 -0.01 0 -0.01 -0.01 -0.01 -0.03 -0.04 -0.01 -0.02 -0.01 -0.01 -0.02 -0.03 -0.01 -0.02 -0.02 -0.03 -0.01 -0.02 1.49 -0.84 0 0 -0.01 -0.01 0.01 0.01 -0.01 -0.01 0 0 0 0 -0.01 -0.02 0 0.01 0.01 0.01 0.01 0.01 -0.02 -0.02 -0.01 -0.02 0.02 0.02 -0.01 0 -0.01 -0.02 0 0.01 0.01 0.01 -0.02 -0.02 0 -0.01 0.02 0.02 -0.02 -0.01 -0.02 -0.02 0.01 0.01 0.01 0.01 0.01 0 -0.02 -0.01 0 0 0 0 0 -0.01 0 0.01 -0.01 -0.01 0 0 -0.01 0zm0.01 0c0.41,0.23 0.56,0.76 0.33,1.17 -0.24,0.41 -0.76,0.56 -1.17,0.32l0.84 -1.49zm2.49 3.32l-3.32 -1.82 0.82 -1.5 3.32 1.82 0 0 -0.82 1.5zm0.82 -1.5c0.42,0.22 0.57,0.75 0.34,1.16 -0.23,0.41 -0.75,0.57 -1.16,0.34l0.82 -1.5zm0.61 2.07l-1.5 -0.82 0 0 -0.01 0.01 0 0 0 0.02 -0.01 0.01 0 0 0 0.01 0 0.01 0 0.01 -0.01 0.02 0 0 0 0.01 0 0 0.01 0.01 0 0.02 0 0 0 0.01 0 0.01 0.01 0.01 0 0.01 0.01 0.01 -0.01 -0.01 0.01 0.02 0.01 0.01 0 0 0.01 0.01 0 0 0.01 0.01 0.01 0.01 0 0 0.01 0.01 0.01 0 0.01 0.01 0.82 -1.5 0.07 0.04 0.07 0.04 0.06 0.05 0.06 0.04 0.06 0.06 0.05 0.05 0.05 0.05 0.05 0.06 0.04 0.05 0.04 0.07 0.05 0.07 0.03 0.06 0.03 0.06 0.03 0.07 0.02 0.07 0.03 0.07 0.01 0.07 0.02 0.07 0.01 0.08 0.01 0.07 0.01 0.07 0 0.07 0 0.07 -0.01 0.08 -0.01 0.08 -0.01 0.07 -0.02 0.08 -0.02 0.07 -0.02 0.07 -0.03 0.08 -0.03 0.06 -0.04 0.08 0 -0.01zm0 0.01c-0.23,0.41 -0.75,0.56 -1.17,0.33 -0.41,-0.23 -0.56,-0.75 -0.33,-1.16l1.5 0.83zm-0.61 0.6l-0.82 -1.5 0 0 0.01 -0.01 -0.01 0.01 -0.01 0.01 0.01 -0.01 -0.02 0.01 0 0 0 0 -0.01 0.01 0.01 -0.01 0.01 -0.01 -0.02 0.02 -0.02 0.02 0.02 -0.02 0 0 -0.02 0.02 0.02 -0.02 0 0 -0.03 0.03 0 -0.01 0.01 -0.01 0 0.01 -0.01 0.01 0 0 0 0 0 -0.01 0 0.01 0 0 -0.01 0.01 -0.01 0.02 0.02 -0.03 -0.01 0.01 0 0.01 1.5 0.82 -0.02 0.04 -0.02 0.02 0.01 0 -0.03 0.04 -0.02 0.02 -0.01 0.03 -0.02 0.02 -0.01 0.01 -0.01 0.03 -0.02 0.02 -0.02 0.02 -0.02 0.03 -0.01 0.01 -0.01 0 -0.04 0.05 -0.02 0.02 0 0 -0.04 0.03 -0.02 0.02 0.01 0 -0.04 0.03 -0.04 0.03 -0.01 0.01 -0.01 0.01 -0.02 0.02 -0.03 0.01 -0.02 0.02 -0.03 0.02 -0.01 0.01 -0.03 0.02 -0.04 0.01 -0.01 0.01 0 0zm0 0c-0.41,0.23 -0.93,0.07 -1.16,-0.34 -0.23,-0.42 -0.07,-0.94 0.34,-1.16l0.82 1.5zm-4.14 0.32l3.32 -1.82 0.82 1.5 -3.32 1.82 -0.83 -1.5 0.01 0zm0.82 1.5c-0.41,0.23 -0.93,0.08 -1.16,-0.34 -0.23,-0.41 -0.08,-0.93 0.34,-1.16l0.82 1.5zm0.07 -0.07l-1.5 -0.82 0.01 -0.01 0.01 -0.03 0.02 -0.03 0 0 0.02 -0.03 0.02 -0.04 0.01 -0.01 0.02 -0.02 0.02 -0.03 0 -0.01 0.02 -0.02 0.02 -0.02 0.02 -0.03 0.02 -0.02 0.01 -0.01 0.02 -0.02 0.02 -0.02 0.01 -0.01 0.04 -0.03 0.02 -0.02 -0.01 0 0.04 -0.03 0.04 -0.03 0.01 -0.01 0.01 -0.01 0.01 0 0.04 -0.03 0.02 -0.02 0.01 -0.01 0.03 -0.02 0.02 -0.01 0.03 -0.01 0.02 -0.02 0.84 1.5 0 -0.01 0.01 0 0 0 0 0 0 0 0 0 0.02 -0.02 -0.01 0.01 -0.01 0.01 -0.01 0.01 0.02 -0.02 0.02 -0.02 -0.02 0.02 0 0 0.02 -0.02 -0.01 0.01 0.01 0 0 -0.01 -0.01 0.01 0.01 0 0 -0.01 0.01 -0.01 0 0 -0.01 0.01 0.01 0 0 -0.01 0 0.01 0.01 -0.02 0 -0.01 -0.01 0.02 0.01 -0.01 0 0 0 -0.01zm0 0.01c-0.23,0.41 -0.75,0.56 -1.17,0.32 -0.41,-0.23 -0.56,-0.75 -0.32,-1.16l1.49 0.84zm-3.32 2.49l1.82 -3.32 1.5 0.82 -1.82 3.32 0 0 -1.5 -0.82zm1.5 0.82c-0.22,0.41 -0.75,0.57 -1.16,0.34 -0.41,-0.23 -0.57,-0.75 -0.34,-1.16l1.5 0.82zm-2.06 0.61l0.8 -1.51 0.01 0.01 0 -0.01 -0.01 0 -0.02 -0.01 0 0 -0.01 0 0 0 -0.03 -0.01 0 0 -0.01 0 -0.01 0 -0.01 0 0 0 -0.02 0 -0.01 0 0 0.01 -0.01 0 -0.01 0 -0.01 0 -0.01 0.01 0 0 -0.01 0.01 -0.01 0 0 0 -0.01 0.01 -0.01 0.01 -0.01 0 0 0.01 -0.01 0 0 0.01 -0.01 0.01 0 0.01 -0.01 0 1.5 0.83 -0.04 0.07 -0.04 0.06 -0.05 0.07 -0.05 0.06 -0.04 0.05 -0.05 0.05 -0.06 0.05 -0.06 0.05 -0.06 0.05 -0.06 0.04 -0.06 0.04 -0.07 0.03 -0.06 0.04 -0.07 0.03 -0.07 0.02 -0.07 0.02 -0.07 0.02 -0.07 0.02 -0.07 0.01 -0.08 0.01 -0.07 0 -0.07 0 -0.08 0 -0.07 0 -0.07 -0.01 -0.09 -0.02 -0.07 -0.01 -0.07 -0.02 -0.07 -0.03 -0.07 -0.03 -0.08 -0.03 -0.07 -0.04 0.02 0.01zm-0.02 -0.01c-0.41,-0.22 -0.56,-0.75 -0.33,-1.16 0.23,-0.41 0.75,-0.56 1.16,-0.33l-0.83 1.49zm-0.6 -0.6l1.5 -0.82 0 0 0.01 0 -0.01 0 0 -0.01 0.01 0.01 -0.03 -0.03 0.01 0.01 0.01 0.01 -0.02 -0.02 0.01 0.01 0.01 0 -0.01 0 -0.01 -0.02 -0.01 0 0.01 0 -0.01 0 0.01 0.01 0 -0.01 -0.03 -0.03 0.01 0.01 0.01 0.01 -0.01 0 -0.01 -0.01 -0.01 -0.01 0.01 0 0.02 0.02 -0.02 -0.01 -0.02 -0.02 -0.01 0 0 0 0.01 0 -0.01 0 0 0 -0.8 1.51 -0.03 -0.01 -0.03 -0.02 -0.01 0 -0.02 -0.02 -0.03 -0.02 -0.04 -0.02 -0.04 -0.03 0.01 0 -0.01 -0.01 -0.04 -0.02 -0.02 -0.02 -0.03 -0.02 0 -0.01 -0.01 -0.01 -0.05 -0.04 -0.02 -0.03 -0.01 -0.01 -0.02 -0.02 -0.01 -0.01 -0.02 -0.02 -0.03 -0.04 -0.02 -0.02 -0.01 -0.01 -0.01 -0.01 -0.03 -0.04 0 -0.01 -0.01 -0.01 -0.04 -0.06 0 -0.01 -0.02 -0.02 -0.01 -0.03 -0.01 -0.01 0 0zm0 0c-0.23,-0.42 -0.07,-0.94 0.34,-1.17 0.42,-0.22 0.94,-0.07 1.16,0.35l-1.5 0.82zm-0.32 -4.14l1.82 3.32 -1.5 0.82 -1.82 -3.32 1.5 -0.83 0 0.01zm-1.5 0.82c-0.23,-0.41 -0.08,-0.94 0.34,-1.16 0.41,-0.23 0.93,-0.08 1.16,0.34l-1.5 0.82zm0.07 0.07l0.83 -1.5 0 0 0.03 0.02 0.03 0.01 0 0.01 0.03 0.01 0.04 0.03 0.01 0.01 0.02 0.02 0.03 0.01 0.01 0.01 0.02 0.02 0.02 0.02 0.03 0.02 0.02 0.02 0.01 0.01 0.02 0.02 0.02 0.02 0.02 0.02 0.02 0.02 0.01 0.01 0.02 0.02 0.02 0.03 0.02 0.02 0.02 0.02 0.01 0.01 0.01 0.03 0.02 0.02 0.01 0.01 0.03 0.04 0.01 0.03 0.01 0 0.01 0.03 0.02 0.03 -1.5 0.84 0.01 0 0 0.01 -0.01 -0.02 0.01 0.01 0.01 0.02 -0.01 -0.01 0.01 0.01 0 0 -0.01 -0.01 0 0 0.01 0.01 0.01 0.01 0 0 -0.01 -0.01 0.01 0.01 0 0 0 0 0.01 0.01 -0.01 -0.01 0 0 0.01 0.01 0.01 0.01 0 0 -0.01 -0.01 0 0 0.01 0.01 -0.01 -0.01 0.02 0.01 0.01 0.01 -0.02 -0.01 0.01 0 0 0.01 0.01 0zm-0.01 0c-0.41,-0.23 -0.56,-0.76 -0.32,-1.17 0.23,-0.41 0.75,-0.56 1.16,-0.33l-0.84 1.5zm-26.31 12.03l8.52 4.67 -0.82 1.51 -8.52 -4.68 0.82 -1.5 0 0zm-0.82 1.5c-0.41,-0.22 -0.57,-0.74 -0.34,-1.16 0.23,-0.41 0.75,-0.56 1.16,-0.34l-0.82 1.5zm-1.02 -3.51l1.5 0.83 0 0 -0.02 0.04 -0.02 0.04 -0.02 0.04 -0.01 0.04 -0.01 0.04 -0.01 0.05 -0.01 0.04 0 0.04 -0.01 0.04 0 0.04 0 0.05 0 0.04 0.01 0.04 0.01 0.04 0.01 0.04 0.01 0.04 0.01 0.04 0.01 0.05 0.02 0.03 0.02 0.04 0.02 0.04 0.02 0.03 0.02 0.03 0.03 0.04 0.03 0.03 0.03 0.03 0.03 0.03 0.03 0.03 0.03 0.03 0.04 0.02 0.04 0.03 0.03 0.02 -0.82 1.51 -0.11 -0.07 -0.11 -0.07 -0.11 -0.08 -0.1 -0.08 -0.09 -0.09 -0.1 -0.09 -0.08 -0.09 -0.08 -0.1 -0.08 -0.1 -0.07 -0.1 -0.06 -0.11 -0.06 -0.11 -0.06 -0.11 -0.05 -0.12 -0.04 -0.11 -0.04 -0.12 -0.03 -0.11 -0.03 -0.13 -0.02 -0.12 -0.01 -0.12 -0.01 -0.13 0 -0.12 0 -0.13 0.01 -0.12 0.02 -0.13 0.02 -0.13 0.03 -0.12 0.03 -0.12 0.04 -0.13 0.05 -0.12 0.06 -0.11 0.06 -0.12 0 -0.01zm0 0.01c0.22,-0.42 0.74,-0.57 1.16,-0.34 0.41,0.22 0.57,0.74 0.34,1.16l-1.5 -0.82zm1.02 -1.03l0.82 1.5 0.01 0 -0.01 0.01 -0.02 0.01 -0.02 0.01 -0.01 0.01 -0.01 0 -0.02 0.01 0 0.01 -0.02 0.01 -0.01 0.01 -0.01 0 -0.01 0.02 -0.02 0.01 -0.01 0.01 -0.02 0.01 0 0.01 -0.01 0.01 -0.01 0.01 -0.01 0.01 -0.02 0.02 -0.01 0.01 0 0.01 -0.01 0.01 -0.02 0.02 -0.01 0.01 0 0 -0.01 0.02 -0.02 0.02 0 0.01 -0.01 0.01 -0.01 0.02 0 0.01 -0.01 0.01 -1.5 -0.83 0.02 -0.04 0.02 -0.04 0.03 -0.04 0.02 -0.04 0.03 -0.04 0.02 -0.02 0.02 -0.04 0.04 -0.05 0.03 -0.03 0.02 -0.03 0.03 -0.04 0.03 -0.04 0.03 -0.03 0.03 -0.03 0.03 -0.04 0.03 -0.02 0.03 -0.04 0.05 -0.04 0.03 -0.03 0.03 -0.03 0.03 -0.02 0.03 -0.02 0.05 -0.04 0.03 -0.03 0.03 -0.02 0.05 -0.03 0.03 -0.03 0.05 -0.03 0.04 -0.02 0.03 -0.02 0.04 -0.02 0.04 -0.03 0 0zm0 0c0.41,-0.23 0.94,-0.07 1.16,0.34 0.23,0.41 0.08,0.94 -0.33,1.16l-0.83 -1.5zm9.34 -3.17l-8.52 4.67 -0.82 -1.5 8.52 -4.67 0.83 1.5 -0.01 0zm-0.82 -1.5c0.41,-0.23 0.93,-0.07 1.16,0.34 0.23,0.42 0.08,0.94 -0.34,1.16l-0.82 -1.5zm0.34 -0.34l1.51 0.82 -0.01 0 -0.02 0.05 -0.02 0.03 -0.02 0.03 -0.03 0.05 -0.03 0.04 -0.02 0.03 -0.03 0.04 -0.03 0.04 -0.02 0.04 -0.03 0.03 -0.03 0.03 -0.03 0.04 -0.03 0.04 -0.03 0.02 -0.03 0.04 -0.03 0.03 -0.04 0.04 -0.03 0.03 -0.03 0.03 -0.04 0.03 -0.04 0.03 -0.02 0.02 -0.04 0.03 -0.04 0.03 -0.04 0.03 -0.04 0.03 -0.02 0.02 -0.04 0.03 -0.05 0.03 -0.04 0.02 -0.03 0.02 -0.04 0.02 -0.84 -1.5 0.01 0 0.02 -0.01 0.02 -0.01 0.01 -0.01 0.01 0 0.02 -0.02 0.01 -0.01 0.01 0 0.01 -0.01 0.01 -0.01 0.02 -0.02 0.01 0 0.01 -0.01 0.02 -0.02 0 -0.01 0.01 -0.01 0.02 -0.01 0 -0.01 0.02 -0.01 0.01 -0.01 0 -0.01 0.02 -0.02 0.01 -0.01 0.01 -0.01 0.01 -0.01 0 -0.01 0.02 -0.03 0.01 -0.01 0 0 0.01 -0.02 0.01 -0.02 0.01 -0.01 -0.01 0.01zm0.01 -0.01c0.23,-0.41 0.75,-0.56 1.16,-0.33 0.41,0.23 0.56,0.75 0.33,1.16l-1.49 -0.83zm6.17 -7.69l-4.67 8.52 -1.51 -0.82 4.68 -8.52 0 0 1.5 0.82zm-1.5 -0.82c0.22,-0.42 0.74,-0.57 1.16,-0.34 0.41,0.23 0.56,0.75 0.34,1.16l-1.5 -0.82zm3.51 -1.02l-0.83 1.49 0 0.01 -0.04 -0.03 -0.04 -0.02 -0.04 -0.01 -0.04 -0.01 -0.04 -0.01 -0.04 -0.01 -0.05 -0.01 -0.04 -0.01 -0.04 0 -0.04 0 -0.04 0 -0.05 0 -0.04 0.01 -0.04 0 -0.04 0.01 -0.04 0.01 -0.04 0.02 -0.04 0.01 -0.04 0.02 -0.04 0.02 -0.03 0.02 -0.04 0.02 -0.03 0.02 -0.04 0.03 -0.03 0.03 -0.03 0.02 -0.03 0.03 -0.03 0.04 -0.03 0.03 -0.02 0.03 -0.03 0.04 -0.02 0.04 -1.5 -0.82 0.06 -0.12 0.07 -0.1 0.08 -0.11 0.08 -0.1 0.09 -0.1 0.09 -0.09 0.09 -0.09 0.1 -0.08 0.1 -0.07 0.1 -0.07 0.11 -0.07 0.11 -0.06 0.11 -0.05 0.11 -0.05 0.12 -0.04 0.12 -0.04 0.12 -0.03 0.12 -0.03 0.12 -0.02 0.13 -0.01 0.12 -0.01 0.12 -0.01 0.13 0.01 0.13 0.01 0.12 0.01 0.12 0.03 0.13 0.02 0.12 0.04 0.13 0.04 0.12 0.05 0.12 0.05 0.11 0.06 0.01 0.01zm-0.01 -0.01c0.42,0.23 0.57,0.75 0.34,1.17 -0.22,0.41 -0.74,0.56 -1.16,0.34l0.82 -1.51zm1.03 1.03l-1.5 0.82 0 0 -0.01 -0.01 -0.01 -0.02 0 -0.01 -0.01 0 -0.01 -0.02 -0.02 -0.02 -0.01 -0.02 0 0 -0.01 -0.01 -0.01 -0.02 -0.01 -0.01 -0.01 -0.01 -0.01 -0.02 0 0 -0.02 -0.01 -0.01 -0.02 -0.02 -0.01 -0.01 -0.01 0 0 -0.01 -0.02 -0.02 -0.01 -0.01 -0.01 -0.02 -0.01 -0.01 -0.01 0 0 -0.02 -0.01 -0.02 -0.02 -0.01 0 -0.01 -0.01 -0.02 -0.01 -0.01 -0.01 -0.01 -0.01 0.83 -1.49 0.04 0.02 0.04 0.02 0.04 0.03 0.03 0.02 0.05 0.03 0.03 0.02 0.03 0.02 0.05 0.04 0.03 0.02 0.03 0.03 0.04 0.03 0.03 0.03 0.04 0.03 0.03 0.03 0.04 0.04 0.03 0.02 0.03 0.03 0.03 0.03 0.04 0.05 0.03 0.03 0.02 0.03 0.03 0.04 0.03 0.03 0.03 0.03 0.03 0.05 0.03 0.04 0.01 0.02 0.03 0.04 0.03 0.05 0.03 0.04 0.02 0.04 0.02 0.04 0 0zm0 0c0.23,0.41 0.07,0.93 -0.34,1.16 -0.41,0.23 -0.94,0.08 -1.16,-0.34l1.5 -0.82zm3.17 9.34l-4.67 -8.52 1.5 -0.82 4.67 8.52 -1.5 0.82 0 0zm1.5 -0.82c0.23,0.41 0.07,0.93 -0.34,1.16 -0.41,0.23 -0.94,0.07 -1.16,-0.34l1.5 -0.82zm0.34 0.34l-0.82 1.5 0 0 -0.05 -0.02 -0.03 -0.02 -0.03 -0.02 -0.05 -0.03 -0.04 -0.03 -0.03 -0.02 -0.04 -0.03 -0.04 -0.03 -0.04 -0.03 -0.03 -0.03 -0.03 -0.02 -0.04 -0.03 -0.04 -0.03 -0.02 -0.03 -0.04 -0.03 -0.03 -0.04 -0.04 -0.03 -0.03 -0.04 -0.03 -0.02 -0.03 -0.04 -0.03 -0.04 -0.02 -0.03 -0.03 -0.03 -0.03 -0.04 -0.03 -0.04 -0.03 -0.04 -0.02 -0.03 -0.03 -0.04 -0.03 -0.05 -0.01 -0.03 -0.03 -0.03 -0.02 -0.05 1.5 -0.83 0 0.01 0.01 0.02 0.02 0.02 0 0 0 0.01 0.02 0.03 0.01 0.01 0 0.01 0.01 0.01 0.01 0.01 0.02 0.02 0 0.01 0.01 0.01 0.02 0.01 0.01 0.01 0.01 0.01 0.01 0.01 0.01 0.01 0.01 0.02 0.01 0.01 0.01 0 0.02 0.02 0.01 0.01 0.02 0.01 0 0 0.01 0.01 0.03 0.02 0.01 0 0 0.01 0.02 0.01 0.02 0.01 0.01 0 -0.01 0zm0.01 0c0.41,0.23 0.56,0.76 0.33,1.17 -0.23,0.41 -0.75,0.56 -1.16,0.33l0.83 -1.5zm7.69 6.17l-8.52 -4.67 0.82 -1.5 8.52 4.67 0 0 -0.82 1.5zm0.82 -1.5c0.42,0.23 0.57,0.75 0.34,1.16 -0.23,0.42 -0.75,0.57 -1.16,0.34l0.82 -1.5zm1.02 3.52l-1.49 -0.83 -0.01 0 0.03 -0.04 0.02 -0.05 0.01 -0.03 0.01 -0.04 0.02 -0.04 0 -0.05 0.01 -0.04 0.01 -0.04 0 -0.04 0 -0.04 0 -0.05 0 -0.04 -0.01 -0.04 0 -0.04 -0.01 -0.04 -0.01 -0.04 -0.02 -0.05 -0.01 -0.03 -0.02 -0.04 -0.02 -0.04 -0.02 -0.04 -0.02 -0.03 -0.02 -0.04 -0.03 -0.03 -0.03 -0.04 -0.02 -0.03 -0.03 -0.03 -0.04 -0.03 -0.03 -0.02 -0.04 -0.03 -0.03 -0.02 -0.04 -0.03 0.82 -1.5 0.12 0.07 0.11 0.07 0.1 0.08 0.1 0.08 0.1 0.08 0.09 0.09 0.09 0.1 0.08 0.1 0.07 0.09 0.07 0.11 0.07 0.11 0.06 0.11 0.05 0.11 0.05 0.11 0.04 0.12 0.04 0.12 0.03 0.11 0.03 0.13 0.02 0.12 0.01 0.12 0.01 0.12 0.01 0.13 -0.01 0.13 -0.01 0.12 -0.01 0.13 -0.03 0.12 -0.02 0.13 -0.04 0.12 -0.04 0.13 -0.05 0.12 -0.05 0.12 -0.06 0.11 -0.01 0.01zm0.01 -0.01c-0.23,0.42 -0.75,0.57 -1.17,0.34 -0.41,-0.23 -0.56,-0.75 -0.34,-1.16l1.51 0.82zm-1.03 1.02l-0.82 -1.5 0 0 0.01 -0.01 0.02 0 0.01 -0.01 0.01 -0.01 0.01 -0.01 0.02 -0.01 0.01 0 0.02 -0.02 0 0 0.02 -0.02 0.01 0 0.01 -0.01 0.02 -0.02 0 0 0.01 -0.01 0.02 -0.02 0.01 -0.01 0 0 0.02 -0.02 0.01 -0.01 0.01 -0.01 0.01 -0.01 0.01 -0.02 0.01 -0.01 0 0 0.01 -0.02 0.02 -0.02 0.01 -0.01 0 -0.01 0.01 -0.02 0.01 -0.01 0.01 -0.01 1.49 0.83 -0.02 0.04 -0.02 0.04 -0.03 0.03 -0.02 0.05 -0.03 0.04 -0.02 0.02 -0.02 0.04 -0.04 0.05 -0.02 0.03 -0.03 0.03 -0.03 0.04 -0.03 0.03 -0.03 0.04 -0.03 0.03 -0.03 0.04 -0.04 0.03 -0.02 0.03 -0.04 0.03 -0.04 0.03 -0.02 0.03 -0.04 0.03 -0.04 0.03 -0.03 0.03 -0.04 0.03 -0.03 0.02 -0.05 0.03 -0.03 0.02 -0.04 0.03 -0.04 0.03 -0.04 0.02 -0.04 0.02 -0.04 0.03 0 -0.01zm0 0.01c-0.42,0.22 -0.94,0.07 -1.16,-0.35 -0.23,-0.41 -0.07,-0.93 0.34,-1.16l0.82 1.51zm-9.34 3.16l8.52 -4.67 0.82 1.5 -8.52 4.68 -0.82 -1.5 0 -0.01zm0.82 1.51c-0.41,0.22 -0.93,0.07 -1.16,-0.34 -0.23,-0.42 -0.07,-0.94 0.34,-1.17l0.82 1.51zm-0.34 0.34l-1.5 -0.82 0 -0.01 0.02 -0.04 0.03 -0.03 0.01 -0.04 0.03 -0.04 0.03 -0.04 0.02 -0.03 0.03 -0.04 0.03 -0.04 0.03 -0.04 0.03 -0.04 0.02 -0.02 0.03 -0.04 0.03 -0.04 0.03 -0.03 0.03 -0.03 0.04 -0.04 0.03 -0.03 0.04 -0.03 0.02 -0.03 0.04 -0.03 0.04 -0.03 0.03 -0.03 0.03 -0.02 0.04 -0.03 0.04 -0.03 0.04 -0.03 0.03 -0.02 0.04 -0.03 0.05 -0.03 0.03 -0.02 0.03 -0.02 0.05 -0.02 0.83 1.49 -0.01 0.01 -0.02 0.01 -0.02 0.01 0 0 -0.01 0.01 -0.03 0.02 -0.01 0 0 0.01 -0.02 0.01 -0.01 0.01 -0.02 0.02 -0.01 0 -0.01 0.01 -0.01 0.02 -0.01 0 -0.01 0.02 -0.01 0.01 -0.01 0 -0.02 0.02 -0.01 0.01 0 0.01 -0.02 0.02 -0.01 0.01 -0.01 0.01 0 0.01 -0.01 0.01 -0.02 0.02 0 0.02 0 0 -0.02 0.02 -0.01 0.02 0 0.01 0 -0.01zm0 0.01c-0.23,0.41 -0.76,0.56 -1.17,0.33 -0.41,-0.23 -0.56,-0.75 -0.33,-1.17l1.5 0.84zm-6.17 7.69l4.67 -8.52 1.5 0.82 -4.67 8.52 0 0 -1.5 -0.82zm1.5 0.82c-0.23,0.41 -0.75,0.57 -1.16,0.34 -0.42,-0.23 -0.57,-0.75 -0.34,-1.16l1.5 0.82zm-3.52 1.02l0.84 -1.5 -0.01 0 0.04 0.02 0.04 0.02 0.04 0.02 0.04 0.01 0.04 0.01 0.05 0.01 0.04 0.01 0.04 0 0.04 0.01 0.05 0 0.04 0 0.04 -0.01 0.04 0 0.04 -0.01 0.04 0 0.05 -0.02 0.04 -0.01 0.03 -0.01 0.04 -0.02 0.04 -0.02 0.04 -0.02 0.03 -0.02 0.04 -0.02 0.04 -0.03 0.03 -0.03 0.03 -0.02 0.03 -0.03 0.03 -0.04 0.02 -0.03 0.03 -0.04 0.02 -0.03 0.03 -0.04 1.5 0.82 -0.07 0.12 -0.07 0.11 -0.08 0.1 -0.08 0.1 -0.08 0.1 -0.09 0.09 -0.1 0.09 -0.1 0.08 -0.1 0.07 -0.1 0.07 -0.11 0.07 -0.11 0.05 -0.11 0.06 -0.11 0.05 -0.12 0.04 -0.12 0.04 -0.11 0.03 -0.13 0.03 -0.12 0.02 -0.12 0.01 -0.13 0.01 -0.12 0 -0.12 0 -0.13 -0.01 -0.13 -0.02 -0.12 -0.02 -0.13 -0.03 -0.12 -0.03 -0.12 -0.04 -0.12 -0.05 -0.12 -0.05 -0.12 -0.06 -0.01 -0.01zm0.01 0.01c-0.42,-0.23 -0.57,-0.75 -0.34,-1.17 0.22,-0.41 0.75,-0.56 1.16,-0.34l-0.82 1.51zm-1.02 -1.03l1.5 -0.82 0 0 0.01 0.01 0.01 0.02 0 0.01 0.01 0.01 0.01 0.01 0.01 0.02 0 0.01 0.02 0.01 0 0.01 0.02 0.02 0 0.01 0.01 0.01 0.02 0.01 0 0.01 0.01 0.01 0.02 0.02 0.01 0.01 0 0 0.02 0.02 0.01 0.01 0.01 0 0.01 0.01 0.02 0.02 0.01 0.01 0 0 0.02 0.01 0.02 0.02 0.01 0 0.01 0.01 0.02 0.01 0.01 0.01 0.02 0 -0.84 1.5 -0.03 -0.02 -0.05 -0.02 -0.03 -0.03 -0.05 -0.02 -0.04 -0.03 -0.02 -0.02 -0.04 -0.02 -0.05 -0.04 -0.03 -0.03 -0.03 -0.02 -0.04 -0.03 -0.03 -0.03 -0.04 -0.03 -0.03 -0.03 -0.03 -0.03 -0.04 -0.04 -0.03 -0.03 -0.03 -0.03 -0.03 -0.04 -0.03 -0.03 -0.03 -0.04 -0.03 -0.03 -0.02 -0.03 -0.04 -0.04 -0.02 -0.04 -0.03 -0.04 -0.02 -0.03 -0.03 -0.04 -0.03 -0.04 -0.02 -0.04 -0.02 -0.04 -0.03 -0.04 0.01 0zm-0.01 0c-0.22,-0.42 -0.07,-0.94 0.35,-1.16 0.41,-0.23 0.93,-0.08 1.16,0.34l-1.51 0.82zm-3.16 -9.34l4.67 8.52 -1.5 0.82 -4.68 -8.52 1.5 -0.83 0.01 0.01zm-1.51 0.82c-0.22,-0.41 -0.07,-0.93 0.34,-1.16 0.42,-0.23 0.94,-0.08 1.17,0.34l-1.51 0.82zm-0.34 -0.34l0.82 -1.51 0.01 0.01 0.04 0.02 0.03 0.02 0.04 0.02 0.05 0.03 0.04 0.03 0.02 0.02 0.04 0.03 0.04 0.03 0.04 0.03 0.04 0.02 0.02 0.03 0.04 0.03 0.04 0.03 0.03 0.03 0.03 0.03 0.04 0.03 0.03 0.04 0.03 0.03 0.03 0.03 0.03 0.04 0.03 0.04 0.03 0.02 0.03 0.04 0.02 0.04 0.03 0.04 0.03 0.04 0.02 0.03 0.03 0.04 0.03 0.04 0.02 0.04 0.02 0.03 0.02 0.04 -1.49 0.84 -0.01 -0.01 -0.01 -0.02 -0.01 -0.02 0 0 -0.01 -0.02 -0.02 -0.02 0 -0.01 -0.01 -0.01 -0.01 -0.01 -0.01 -0.01 -0.02 -0.02 0 -0.01 -0.01 -0.01 -0.02 -0.02 0 0 -0.02 -0.01 -0.01 -0.02 0 0 -0.02 -0.02 -0.01 -0.01 -0.01 0 -0.02 -0.02 -0.01 -0.01 -0.01 -0.01 -0.01 -0.01 -0.01 0 -0.02 -0.02 -0.01 -0.01 -0.01 0 -0.02 -0.01 -0.02 -0.01 -0.01 -0.01 0.01 0.01zm-0.01 -0.01c-0.41,-0.23 -0.56,-0.75 -0.33,-1.16 0.23,-0.41 0.75,-0.56 1.17,-0.33l-0.84 1.49z"/>
  </g>
  <g>
   <path class="fil2" d="M173.16 4.75l8.89 0 -8.89 0zm15.27 0l8.92 0 -8.92 0zm-18.49 -3.22c1.78,0 3.22,1.44 3.22,3.22 0,1.77 -1.44,3.21 -3.22,3.21 -1.77,0 -3.22,-1.44 -3.22,-3.21 0,-1.78 1.45,-3.22 3.22,-3.22zm30.63 0c-1.78,0 -3.22,1.44 -3.22,3.22 0,1.77 1.44,3.21 3.22,3.21 1.77,0 3.21,-1.44 3.21,-3.21 0,-1.78 -1.44,-3.22 -3.21,-3.22zm-17.49 0.03l4.32 0c0.57,0 1.03,0.46 1.03,1.02l0 4.33c0,0.56 -0.46,1.03 -1.03,1.03l-4.32 0c-0.57,0 -1.03,-0.47 -1.03,-1.03l0 -4.33c0,-0.56 0.46,-1.02 1.03,-1.02zm-15.33 15.31l4.32 0c0.56,0 1.03,0.46 1.03,1.03l0 4.32c0,0.57 -0.47,1.03 -1.03,1.03l-4.32 0c-0.57,0 -1.03,-0.46 -1.03,-1.03l0 -4.32c0,-0.57 0.46,-1.03 1.03,-1.03zm34.99 0l-4.32 0c-0.57,0 -1.03,0.46 -1.03,1.03l0 4.32c0,0.57 0.46,1.03 1.03,1.03l4.32 0c0.57,0 1.03,-0.46 1.03,-1.03l0 -4.32c0,-0.57 -0.46,-1.03 -1.03,-1.03zm-32.49 0c1.25,-5.9 5.9,-10.54 11.8,-11.79l-11.8 11.79zm18.18 -11.79c5.9,1.24 10.55,5.89 11.81,11.79l-11.81 -11.79zm-1.53 12.57l9.29 16.78c0.39,0.69 0.31,1.51 -0.19,2.12 -0.5,0.62 -1.29,0.85 -2.04,0.61l-8.72 -2.74 -8.72 2.74c-0.75,0.24 -1.54,0.01 -2.04,-0.61 -0.5,-0.61 -0.58,-1.43 -0.19,-2.12l9.29 -16.78c0.34,-0.62 0.95,-0.98 1.66,-0.98 0.71,0 1.32,0.36 1.66,0.98z"/>
   <path id="_1_1" class="fil3" d="M182.05 5.6l-8.89 0 0 -1.71 8.89 0 0 1.71zm15.3 0l-8.92 0 0 -1.71 8.92 0 0 1.71zm-23.34 -0.85l-1.71 0 0 0 0 -0.13 -0.01 -0.12 -0.02 -0.11 -0.02 -0.12 -0.02 -0.12 -0.04 -0.11 -0.03 -0.1 -0.04 -0.11 -0.05 -0.11 -0.05 -0.1 -0.06 -0.1 -0.06 -0.09 -0.07 -0.1 -0.07 -0.08 -0.07 -0.09 -0.08 -0.08 -0.08 -0.08 -0.09 -0.08 -0.09 -0.07 -0.09 -0.06 -0.1 -0.06 -0.09 -0.06 -0.11 -0.05 -0.1 -0.05 -0.11 -0.04 -0.11 -0.04 -0.11 -0.03 -0.11 -0.03 -0.12 -0.02 -0.12 -0.01 -0.12 -0.01 -0.12 0 0 -1.72 0.21 0.01 0.21 0.01 0.2 0.03 0.2 0.04 0.2 0.04 0.19 0.06 0.19 0.06 0.19 0.07 0.18 0.09 0.17 0.08 0.17 0.1 0.17 0.11 0.16 0.11 0.15 0.12 0.15 0.13 0.14 0.14 0.14 0.14 0.12 0.14 0.12 0.16 0.12 0.16 0.1 0.16 0.1 0.18 0.09 0.17 0.08 0.18 0.08 0.19 0.06 0.19 0.06 0.19 0.04 0.2 0.04 0.2 0.02 0.2 0.02 0.21 0 0.21 0 0zm-4.07 4.07l0 -1.71 0 0 0.12 -0.01 0.12 -0.01 0.12 -0.01 0.12 -0.02 0.11 -0.03 0.11 -0.03 0.11 -0.04 0.11 -0.04 0.1 -0.05 0.1 -0.05 0.1 -0.05 0.1 -0.07 0.09 -0.06 0.09 -0.07 0.09 -0.08 0.08 -0.08 0.08 -0.08 0.07 -0.08 0.07 -0.09 0.07 -0.1 0.06 -0.09 0.06 -0.1 0.05 -0.1 0.05 -0.11 0.04 -0.11 0.03 -0.1 0.04 -0.11 0.02 -0.12 0.02 -0.11 0.02 -0.12 0.01 -0.12 0 -0.12 1.71 0 0 0.2 -0.02 0.21 -0.02 0.2 -0.04 0.21 -0.05 0.19 -0.05 0.2 -0.06 0.19 -0.08 0.18 -0.08 0.18 -0.09 0.18 -0.1 0.17 -0.1 0.16 -0.12 0.16 -0.12 0.16 -0.12 0.14 -0.14 0.15 -0.14 0.13 -0.15 0.13 -0.15 0.12 -0.16 0.11 -0.17 0.11 -0.17 0.1 -0.17 0.09 -0.18 0.08 -0.19 0.07 -0.19 0.07 -0.19 0.05 -0.2 0.05 -0.2 0.03 -0.2 0.03 -0.21 0.01 -0.21 0.01 0 0zm-4.07 -4.07l1.71 0 0 0 0 0.12 0.01 0.12 0.02 0.12 0.02 0.11 0.03 0.11 0.03 0.12 0.04 0.11 0.04 0.1 0.04 0.11 0.06 0.1 0.05 0.1 0.07 0.09 0.06 0.1 0.07 0.08 0.08 0.09 0.07 0.08 0.09 0.08 0.08 0.08 0.09 0.07 0.09 0.06 0.1 0.07 0.1 0.05 0.1 0.05 0.1 0.05 0.11 0.04 0.11 0.04 0.11 0.03 0.12 0.03 0.11 0.02 0.12 0.01 0.12 0.01 0.12 0.01 0 1.71 -0.21 -0.01 -0.2 -0.01 -0.21 -0.03 -0.2 -0.03 -0.2 -0.05 -0.19 -0.05 -0.19 -0.07 -0.18 -0.07 -0.18 -0.08 -0.18 -0.09 -0.17 -0.1 -0.17 -0.11 -0.15 -0.11 -0.16 -0.12 -0.15 -0.13 -0.14 -0.13 -0.13 -0.15 -0.13 -0.14 -0.12 -0.16 -0.11 -0.16 -0.11 -0.16 -0.1 -0.17 -0.09 -0.18 -0.08 -0.18 -0.07 -0.18 -0.07 -0.19 -0.05 -0.2 -0.05 -0.19 -0.03 -0.21 -0.03 -0.2 -0.02 -0.21 0 -0.2 0 0zm4.07 -4.08l0 1.72 0 0 -0.12 0 -0.12 0.01 -0.12 0.01 -0.11 0.02 -0.12 0.03 -0.11 0.03 -0.11 0.04 -0.1 0.04 -0.11 0.05 -0.1 0.05 -0.1 0.06 -0.1 0.06 -0.09 0.06 -0.09 0.07 -0.08 0.08 -0.09 0.08 -0.07 0.08 -0.08 0.09 -0.07 0.08 -0.06 0.1 -0.07 0.09 -0.05 0.1 -0.06 0.1 -0.04 0.11 -0.04 0.1 -0.04 0.12 -0.03 0.11 -0.03 0.11 -0.02 0.12 -0.02 0.11 -0.01 0.12 0 0.13 -1.71 0 0 -0.21 0.02 -0.21 0.03 -0.2 0.03 -0.2 0.05 -0.2 0.05 -0.2 0.07 -0.18 0.07 -0.19 0.08 -0.18 0.09 -0.18 0.1 -0.17 0.11 -0.16 0.11 -0.16 0.12 -0.16 0.13 -0.14 0.13 -0.14 0.14 -0.14 0.15 -0.13 0.16 -0.12 0.15 -0.11 0.17 -0.11 0.17 -0.1 0.18 -0.09 0.18 -0.08 0.18 -0.07 0.19 -0.06 0.19 -0.06 0.2 -0.04 0.2 -0.04 0.21 -0.03 0.2 -0.01 0.21 -0.01 0 0zm28.27 4.08l-1.72 0 0 0 0.01 -0.21 0.01 -0.21 0.03 -0.2 0.04 -0.2 0.04 -0.2 0.06 -0.2 0.06 -0.18 0.07 -0.19 0.09 -0.18 0.09 -0.18 0.1 -0.17 0.1 -0.16 0.11 -0.16 0.13 -0.16 0.12 -0.14 0.14 -0.14 0.14 -0.14 0.15 -0.13 0.15 -0.12 0.16 -0.11 0.17 -0.11 0.17 -0.1 0.17 -0.09 0.18 -0.08 0.19 -0.07 0.19 -0.06 0.19 -0.06 0.2 -0.04 0.2 -0.04 0.2 -0.03 0.21 -0.01 0.21 -0.01 0 1.72 -0.12 0 -0.12 0.01 -0.12 0.01 -0.12 0.02 -0.11 0.03 -0.11 0.03 -0.11 0.04 -0.11 0.04 -0.1 0.05 -0.11 0.05 -0.1 0.06 -0.09 0.06 -0.09 0.06 -0.09 0.07 -0.09 0.08 -0.08 0.08 -0.08 0.08 -0.07 0.09 -0.07 0.08 -0.07 0.1 -0.06 0.09 -0.06 0.1 -0.05 0.1 -0.05 0.11 -0.04 0.1 -0.04 0.12 -0.03 0.11 -0.03 0.11 -0.02 0.12 -0.01 0.11 -0.01 0.12 0 0.13 0 0zm2.36 2.36l0 1.71 0 0 -0.21 -0.01 -0.21 -0.01 -0.2 -0.03 -0.2 -0.03 -0.2 -0.05 -0.19 -0.05 -0.19 -0.07 -0.19 -0.07 -0.18 -0.08 -0.17 -0.09 -0.17 -0.1 -0.17 -0.11 -0.16 -0.11 -0.15 -0.12 -0.15 -0.13 -0.14 -0.13 -0.14 -0.15 -0.12 -0.14 -0.13 -0.16 -0.11 -0.16 -0.1 -0.16 -0.1 -0.17 -0.09 -0.18 -0.09 -0.18 -0.07 -0.18 -0.06 -0.19 -0.06 -0.2 -0.04 -0.19 -0.04 -0.21 -0.03 -0.2 -0.01 -0.21 -0.01 -0.2 1.72 0 0 0.12 0.01 0.12 0.01 0.12 0.02 0.11 0.03 0.11 0.03 0.12 0.04 0.11 0.04 0.1 0.05 0.11 0.05 0.1 0.06 0.1 0.06 0.09 0.07 0.1 0.07 0.08 0.07 0.09 0.08 0.08 0.08 0.08 0.09 0.08 0.09 0.07 0.09 0.06 0.1 0.07 0.09 0.05 0.11 0.05 0.1 0.05 0.11 0.04 0.11 0.04 0.11 0.03 0.11 0.03 0.12 0.02 0.12 0.01 0.12 0.01 0.12 0.01 0 0zm2.36 -2.36l1.71 0 0 0 -0.01 0.2 -0.01 0.21 -0.03 0.2 -0.03 0.21 -0.05 0.19 -0.05 0.2 -0.07 0.19 -0.07 0.18 -0.08 0.18 -0.09 0.18 -0.1 0.17 -0.11 0.16 -0.11 0.16 -0.12 0.16 -0.13 0.14 -0.13 0.15 -0.14 0.13 -0.15 0.13 -0.16 0.12 -0.16 0.11 -0.16 0.11 -0.17 0.1 -0.18 0.09 -0.18 0.08 -0.18 0.07 -0.19 0.07 -0.2 0.05 -0.19 0.05 -0.2 0.03 -0.21 0.03 -0.2 0.01 -0.21 0.01 0 -1.71 0.12 -0.01 0.12 -0.01 0.12 -0.01 0.11 -0.02 0.12 -0.03 0.11 -0.03 0.11 -0.04 0.1 -0.04 0.11 -0.05 0.1 -0.05 0.1 -0.05 0.09 -0.07 0.1 -0.06 0.08 -0.07 0.09 -0.08 0.08 -0.08 0.08 -0.08 0.08 -0.08 0.07 -0.09 0.06 -0.1 0.07 -0.09 0.05 -0.1 0.05 -0.1 0.05 -0.11 0.04 -0.11 0.04 -0.1 0.03 -0.11 0.03 -0.12 0.02 -0.11 0.01 -0.12 0.01 -0.12 0.01 -0.12 0 0zm-2.36 -2.36l0 -1.72 0 0 0.21 0.01 0.2 0.01 0.21 0.03 0.2 0.04 0.19 0.04 0.2 0.06 0.19 0.06 0.18 0.07 0.18 0.08 0.18 0.09 0.17 0.1 0.16 0.11 0.16 0.11 0.16 0.12 0.15 0.13 0.14 0.14 0.13 0.14 0.13 0.14 0.12 0.16 0.11 0.16 0.11 0.16 0.1 0.17 0.09 0.18 0.08 0.18 0.07 0.19 0.07 0.19 0.05 0.19 0.05 0.2 0.03 0.2 0.03 0.2 0.01 0.21 0.01 0.21 -1.71 0 -0.01 -0.13 -0.01 -0.12 -0.01 -0.11 -0.02 -0.12 -0.03 -0.12 -0.03 -0.11 -0.04 -0.1 -0.04 -0.11 -0.05 -0.11 -0.05 -0.1 -0.05 -0.1 -0.07 -0.09 -0.06 -0.1 -0.07 -0.08 -0.08 -0.09 -0.08 -0.08 -0.08 -0.08 -0.09 -0.08 -0.08 -0.07 -0.1 -0.06 -0.09 -0.06 -0.1 -0.06 -0.1 -0.05 -0.11 -0.05 -0.1 -0.04 -0.11 -0.04 -0.11 -0.03 -0.12 -0.03 -0.11 -0.02 -0.12 -0.01 -0.12 -0.01 -0.12 0 0 0zm-13.17 0.02l-4.32 0 0 -1.71 4.32 0 0 0 0 1.71zm1.88 0.17l-1.71 0 0 0 0 -0.01 0 -0.01 0 0 0 -0.01 0 -0.01 -0.01 -0.01 0 0 0 -0.01 0 -0.01 -0.01 0 0 -0.01 -0.01 -0.01 -0.01 -0.01 0 0 0 -0.01 -0.01 -0.01 -0.01 0 0 -0.01 -0.01 0 0 -0.01 -0.01 0 -0.01 -0.01 -0.01 0 -0.01 -0.01 0 0 -0.01 0 -0.01 0 -0.01 -0.01 -0.01 0 0 0 -0.01 0 -0.01 0 0 -1.71 0.09 0 0.1 0.01 0.1 0.01 0.09 0.02 0.09 0.02 0.09 0.02 0.08 0.03 0.09 0.04 0.09 0.04 0.07 0.03 0.09 0.05 0.07 0.05 0.08 0.05 0.07 0.06 0.07 0.06 0.06 0.06 0.06 0.06 0.06 0.07 0.06 0.08 0.05 0.07 0.05 0.07 0.04 0.08 0.05 0.08 0.04 0.09 0.03 0.08 0.03 0.09 0.02 0.09 0.02 0.09 0.02 0.09 0.02 0.1 0 0.1 0 0.09 0 0zm-1.71 4.33l0 -4.33 1.71 0 0 4.33 0 0 -1.71 0zm-0.17 1.88l0 -1.71 0 0 0.01 0 0.01 0 0 0 0.01 0 0.01 -0.01 0.01 0 0.01 0 0 0 0.01 -0.01 0.01 0 0.01 -0.01 0 0 0.01 0 0.01 -0.01 0 -0.01 0.01 0 0.01 -0.01 0 0 0.01 -0.01 0 -0.01 0.01 -0.01 0 -0.01 0.01 0 0 -0.01 0 -0.01 0 0 0.01 -0.01 0 -0.01 0 -0.01 0 0 0 -0.01 0 -0.01 1.71 0 0 0.09 0 0.1 -0.02 0.1 -0.02 0.09 -0.02 0.09 -0.02 0.08 -0.03 0.1 -0.03 0.08 -0.04 0.08 -0.05 0.09 -0.04 0.07 -0.05 0.08 -0.05 0.07 -0.05 0.07 -0.07 0.07 -0.06 0.07 -0.06 0.06 -0.07 0.06 -0.07 0.05 -0.07 0.06 -0.08 0.05 -0.09 0.05 -0.07 0.03 -0.09 0.04 -0.08 0.04 -0.09 0.03 -0.09 0.02 -0.09 0.02 -0.09 0.02 -0.1 0.01 -0.1 0.01 -0.09 0 0 0zm-4.32 -1.71l4.32 0 0 1.71 -4.32 0 0 0 0 -1.71zm-1.89 -0.17l1.72 0 0 0 0 0.01 0 0.01 0 0 0 0.01 0 0.01 0 0.01 0.01 0 0 0.01 0 0.01 0.01 0 0 0.01 0.01 0.01 0 0.01 0.01 0.01 0 0 0.01 0.01 0 0 0.01 0.01 0.01 0.01 0.01 0 0 0 0 0.01 0.02 0 0 0.01 0.01 0 0.01 0 0.01 0 0.01 0.01 0 0 0.01 0 0.01 0 0.01 0 0 1.71 -0.1 0 -0.09 -0.01 -0.1 -0.01 -0.1 -0.02 -0.08 -0.02 -0.1 -0.02 -0.08 -0.03 -0.09 -0.04 -0.08 -0.04 -0.08 -0.03 -0.08 -0.05 -0.08 -0.05 -0.07 -0.06 -0.07 -0.05 -0.07 -0.06 -0.06 -0.06 -0.07 -0.07 -0.06 -0.07 -0.05 -0.07 -0.05 -0.07 -0.05 -0.08 -0.05 -0.07 -0.04 -0.09 -0.04 -0.08 -0.03 -0.08 -0.03 -0.1 -0.03 -0.08 -0.02 -0.09 -0.01 -0.09 -0.02 -0.1 0 -0.1 -0.01 -0.09 0 0zm1.72 -4.33l0 4.33 -1.72 0 0 -4.33 0 0 1.72 0zm0.17 -1.88l0 1.71 0 0 -0.01 0 -0.01 0 -0.01 0 0 0 -0.01 0.01 -0.01 0 -0.01 0 -0.01 0 0 0.01 -0.02 0 0 0.01 -0.01 0 -0.01 0.01 0 0 -0.01 0.01 0 0 -0.01 0.01 -0.01 0.01 0 0 0 0.01 -0.01 0.01 0 0.01 -0.01 0 0 0.01 0 0.01 -0.01 0 0 0.01 0 0.01 0 0.01 0 0 0 0.01 0 0.01 -1.72 0 0.01 -0.09 0 -0.1 0.01 -0.1 0.02 -0.09 0.02 -0.09 0.03 -0.09 0.03 -0.09 0.03 -0.08 0.04 -0.09 0.04 -0.08 0.05 -0.08 0.05 -0.07 0.04 -0.07 0.07 -0.08 0.06 -0.07 0.06 -0.06 0.06 -0.06 0.07 -0.06 0.07 -0.06 0.08 -0.05 0.07 -0.05 0.08 -0.05 0.08 -0.03 0.08 -0.04 0.09 -0.04 0.09 -0.03 0.09 -0.02 0.08 -0.02 0.1 -0.02 0.1 -0.01 0.09 -0.01 0.1 0 0 0zm-11.01 17.03l-4.32 0 0 -1.72 4.32 0 0 0 0 1.72zm1.88 0.17l-1.71 0 0 0 0 -0.01 0 -0.01 0 -0.01 0 0 -0.01 -0.01 0 -0.01 0 -0.01 0 -0.01 -0.01 0 0 -0.01 -0.01 -0.01 0 0 0 -0.01 -0.01 -0.01 -0.01 -0.01 0 0 -0.01 -0.01 0 -0.01 -0.01 0 -0.01 0 0 -0.01 -0.02 0 0 -0.01 -0.01 0 -0.01 0 0 -0.01 -0.01 0 -0.01 0 -0.01 0 0 0 -0.01 0 -0.01 0 0 -1.72 0.09 0.01 0.1 0 0.1 0.01 0.09 0.02 0.09 0.02 0.09 0.03 0.09 0.03 0.08 0.03 0.09 0.04 0.08 0.04 0.07 0.05 0.08 0.05 0.07 0.05 0.08 0.06 0.07 0.05 0.06 0.06 0.06 0.07 0.06 0.07 0.06 0.07 0.05 0.07 0.05 0.08 0.04 0.08 0.05 0.08 0.03 0.08 0.04 0.09 0.03 0.09 0.02 0.09 0.02 0.08 0.02 0.1 0.01 0.1 0.01 0.09 0 0.1 0 0zm-1.71 4.32l0 -4.32 1.71 0 0 4.32 0 0 -1.71 0zm-0.17 1.89l0 -1.72 0 0 0.01 0 0.01 0 0 0 0.01 0 0.01 0 0 0 0.01 -0.01 0.01 0 0.01 0 0 -0.01 0.01 0 0.01 -0.01 0.01 0 0.01 -0.01 0.01 0 0 -0.01 0 0 0.01 -0.01 0 -0.01 0.01 -0.01 0.01 0 0 -0.01 0 -0.01 0.01 -0.01 0 0 0 -0.01 0 -0.01 0.01 -0.01 0 -0.01 0 0 0 -0.01 0 -0.01 1.71 0 0 0.1 -0.01 0.09 -0.01 0.1 -0.02 0.09 -0.02 0.09 -0.02 0.09 -0.03 0.09 -0.04 0.09 -0.03 0.08 -0.05 0.08 -0.04 0.08 -0.05 0.08 -0.05 0.07 -0.06 0.07 -0.06 0.06 -0.06 0.07 -0.07 0.07 -0.06 0.05 -0.07 0.06 -0.08 0.05 -0.07 0.05 -0.08 0.05 -0.08 0.04 -0.09 0.04 -0.08 0.03 -0.09 0.03 -0.09 0.03 -0.09 0.02 -0.09 0.02 -0.1 0.01 -0.1 0 -0.09 0.01 0 0zm-4.32 -1.72l4.32 0 0 1.72 -4.32 0 0 0 0 -1.72zm-1.89 -0.17l1.71 0 0 0 0 0.01 0.01 0.01 0 0 0 0.01 0 0.01 0 0.01 0 0.01 0.01 0 0 0.01 0 0.01 0.01 0.01 0.01 0.01 0 0.01 0 0 0.01 0 0.01 0.01 0 0.01 0.01 0 0.01 0.01 0 0 0.01 0.01 0.01 0 0 0.01 0.01 0 0.01 0 0.01 0.01 0 0 0.02 0 0 0 0.01 0 0 0 0.02 0 0 1.72 -0.1 -0.01 -0.09 0 -0.1 -0.01 -0.1 -0.02 -0.08 -0.02 -0.1 -0.03 -0.08 -0.03 -0.09 -0.03 -0.08 -0.04 -0.08 -0.04 -0.09 -0.05 -0.07 -0.05 -0.07 -0.05 -0.07 -0.06 -0.07 -0.05 -0.07 -0.07 -0.06 -0.06 -0.06 -0.07 -0.06 -0.08 -0.05 -0.07 -0.04 -0.07 -0.05 -0.08 -0.04 -0.08 -0.04 -0.08 -0.03 -0.09 -0.03 -0.09 -0.03 -0.09 -0.02 -0.09 -0.02 -0.09 -0.01 -0.1 -0.01 -0.09 0 -0.1 0 0zm1.71 -4.32l0 4.32 -1.71 0 0 -4.32 0 0 1.71 0zm0.18 -1.89l0 1.72 0 0 -0.02 0 0 0 -0.01 0 0 0 -0.02 0 -0.01 0 0 0.01 -0.01 0 -0.01 0 0 0.01 -0.01 0 -0.01 0.01 -0.01 0 0 0 -0.01 0.01 0 0.01 -0.01 0 -0.01 0.01 0 0 0 0.01 -0.01 0.01 -0.01 0.01 0 0.01 0 0 -0.01 0.01 0 0.01 0 0.01 0 0.01 0 0 0 0.01 -0.01 0.01 0 0.01 -1.71 0 0 -0.1 0.01 -0.09 0.01 -0.1 0.02 -0.1 0.02 -0.08 0.03 -0.09 0.03 -0.09 0.03 -0.09 0.04 -0.08 0.04 -0.08 0.05 -0.08 0.04 -0.07 0.06 -0.08 0.05 -0.07 0.06 -0.07 0.06 -0.06 0.07 -0.07 0.07 -0.05 0.07 -0.06 0.07 -0.05 0.08 -0.05 0.08 -0.05 0.08 -0.04 0.08 -0.04 0.09 -0.03 0.09 -0.03 0.09 -0.03 0.08 -0.02 0.1 -0.02 0.1 -0.01 0.09 0 0.1 -0.01 0 0zm30.67 0l4.32 0 0 1.72 -4.32 0 0 0 0 -1.72zm-0.17 1.89l-1.71 0 0 0 0 -0.1 0.01 -0.09 0.01 -0.1 0.02 -0.1 0.02 -0.08 0.02 -0.09 0.03 -0.09 0.04 -0.09 0.03 -0.08 0.04 -0.08 0.05 -0.08 0.05 -0.07 0.05 -0.08 0.06 -0.07 0.06 -0.07 0.06 -0.06 0.06 -0.06 0.07 -0.06 0.08 -0.07 0.07 -0.04 0.07 -0.05 0.08 -0.05 0.08 -0.04 0.09 -0.04 0.08 -0.03 0.09 -0.03 0.09 -0.03 0.09 -0.02 0.09 -0.02 0.1 -0.01 0.1 0 0.09 -0.01 0 1.72 -0.01 0 -0.01 0 0 0 -0.01 0 -0.01 0 -0.01 0 -0.01 0.01 -0.01 0 0 0 -0.01 0.01 -0.01 0 -0.01 0.01 -0.01 0 0 0 0 0.01 -0.01 0.01 -0.01 0 0 0.01 -0.01 0 0 0.01 -0.01 0.01 0 0 0 0.02 -0.01 0 0 0.01 0 0.01 0 0.01 -0.01 0.01 0 0 0 0.01 0 0.01 0 0.01 0 0zm-1.71 4.32l0 -4.32 1.71 0 0 4.32 0 0 -1.71 0zm1.88 0.17l0 1.72 0 0 -0.09 -0.01 -0.1 0 -0.1 -0.01 -0.09 -0.02 -0.09 -0.02 -0.09 -0.03 -0.09 -0.03 -0.08 -0.03 -0.09 -0.04 -0.08 -0.04 -0.08 -0.05 -0.07 -0.05 -0.08 -0.05 -0.07 -0.06 -0.07 -0.06 -0.06 -0.06 -0.06 -0.06 -0.06 -0.07 -0.06 -0.08 -0.05 -0.07 -0.05 -0.07 -0.05 -0.08 -0.04 -0.08 -0.03 -0.08 -0.04 -0.1 -0.03 -0.08 -0.02 -0.09 -0.02 -0.09 -0.02 -0.09 -0.01 -0.1 -0.01 -0.09 0 -0.1 1.71 0 0 0.01 0 0.01 0 0 0 0.01 0.01 0.01 0 0.01 0 0.01 0 0 0.01 0.01 0 0.01 0 0.01 0.01 0.01 0.01 0.01 0 0 0 0 0.01 0.01 0.01 0.01 0 0 0.01 0.01 0 0 0.02 0.01 0 0 0.01 0.01 0 0 0.01 0 0.01 0.01 0.01 0 0.01 0 0.01 0 0 0 0.01 0 0.01 0 0 0zm4.32 1.72l-4.32 0 0 -1.72 4.32 0 0 0 0 1.72zm0.17 -1.89l1.72 0 0 0 0 0.1 -0.01 0.09 -0.01 0.1 -0.02 0.09 -0.02 0.09 -0.03 0.09 -0.03 0.09 -0.03 0.09 -0.04 0.08 -0.04 0.08 -0.05 0.08 -0.05 0.08 -0.05 0.07 -0.05 0.07 -0.06 0.06 -0.06 0.07 -0.07 0.07 -0.07 0.05 -0.07 0.06 -0.08 0.05 -0.06 0.05 -0.09 0.05 -0.08 0.04 -0.08 0.04 -0.09 0.03 -0.08 0.03 -0.1 0.03 -0.08 0.02 -0.1 0.02 -0.1 0.01 -0.09 0 -0.1 0.01 0 -1.72 0.01 0 0.01 0 0.01 0 0 0 0.02 0 0 0 0.01 -0.01 0.01 0 0 0 0.01 -0.01 0 0 0.02 -0.01 0.01 0 0 -0.01 0.01 0 0 -0.01 0.01 0 0 -0.01 0.01 -0.01 0.01 -0.01 0 0 0.01 -0.01 0 -0.01 0 -0.01 0.01 0 0 -0.01 0 -0.01 0 -0.01 0 -0.01 0 0 0 -0.01 0 -0.01 0 0zm1.72 -4.32l0 4.32 -1.72 0 0 -4.32 0 0 1.72 0zm-1.89 -0.17l0 -1.72 0 0 0.1 0.01 0.09 0 0.1 0.01 0.1 0.02 0.08 0.02 0.09 0.03 0.09 0.03 0.09 0.03 0.08 0.04 0.08 0.04 0.08 0.05 0.07 0.05 0.08 0.04 0.07 0.07 0.07 0.05 0.06 0.06 0.07 0.07 0.06 0.07 0.05 0.07 0.05 0.07 0.05 0.08 0.05 0.08 0.04 0.08 0.04 0.08 0.03 0.09 0.03 0.09 0.03 0.09 0.02 0.08 0.02 0.1 0.01 0.1 0.01 0.09 0 0.1 -1.72 0 0 -0.01 0 -0.01 0 -0.01 0 0 0 -0.01 0 -0.01 0 -0.01 -0.01 -0.01 0 0 0 -0.01 -0.01 -0.01 0 0 -0.01 -0.01 -0.01 -0.01 0 -0.01 0 0 -0.01 -0.01 -0.01 -0.01 0 0 -0.01 0 -0.01 -0.01 -0.01 0 -0.01 -0.01 0 0 -0.01 0 0 -0.01 -0.01 0 -0.02 0 0 0 -0.01 0 -0.01 0 -0.01 0 0 0zm-20.87 -13.49l0.36 1.68 -0.52 0.12 -0.51 0.13 -0.5 0.16 -0.5 0.18 -0.49 0.19 -0.47 0.2 -0.47 0.23 -0.46 0.24 -0.45 0.26 -0.44 0.27 -0.43 0.29 -0.42 0.3 -0.41 0.31 -0.39 0.33 -0.38 0.35 -0.38 0.36 -0.35 0.37 -0.35 0.38 -0.33 0.39 -0.32 0.41 -0.3 0.42 -0.29 0.43 -0.27 0.44 -0.26 0.45 -0.24 0.45 -0.22 0.47 -0.21 0.48 -0.2 0.49 -0.17 0.5 -0.16 0.5 -0.14 0.51 -0.12 0.52 -1.67 -0.36 0.13 -0.58 0.16 -0.57 0.17 -0.56 0.2 -0.56 0.22 -0.54 0.23 -0.54 0.25 -0.52 0.27 -0.52 0.29 -0.5 0.3 -0.49 0.33 -0.48 0.34 -0.47 0.35 -0.45 0.37 -0.44 0.38 -0.43 0.4 -0.42 0.42 -0.4 0.43 -0.38 0.44 -0.37 0.45 -0.35 0.47 -0.34 0.48 -0.32 0.49 -0.31 0.5 -0.28 0.52 -0.27 0.52 -0.25 0.54 -0.24 0.55 -0.21 0.55 -0.2 0.56 -0.17 0.57 -0.16 0.58 -0.13zm19.21 12.45l-1.68 0.36 -0.12 -0.52 -0.14 -0.51 -0.15 -0.51 -0.18 -0.49 -0.19 -0.49 -0.21 -0.48 -0.22 -0.47 -0.25 -0.46 -0.25 -0.45 -0.28 -0.44 -0.28 -0.42 -0.31 -0.42 -0.31 -0.41 -0.34 -0.39 -0.34 -0.39 -0.36 -0.37 -0.37 -0.35 -0.38 -0.35 -0.4 -0.33 -0.4 -0.32 -0.42 -0.3 -0.43 -0.29 -0.44 -0.27 -0.45 -0.25 -0.46 -0.24 -0.47 -0.23 -0.48 -0.21 -0.49 -0.19 -0.49 -0.17 -0.51 -0.16 -0.51 -0.14 -0.52 -0.12 0.36 -1.67 0.58 0.13 0.57 0.16 0.56 0.17 0.56 0.2 0.54 0.21 0.54 0.23 0.52 0.25 0.52 0.27 0.5 0.29 0.49 0.3 0.48 0.33 0.47 0.33 0.46 0.36 0.44 0.37 0.43 0.38 0.41 0.4 0.4 0.41 0.39 0.43 0.37 0.44 0.35 0.46 0.34 0.46 0.32 0.48 0.31 0.5 0.29 0.5 0.27 0.51 0.25 0.53 0.23 0.53 0.22 0.55 0.19 0.55 0.18 0.57 0.16 0.57 0.13 0.58zm-5.64 18.16l-9.29 -16.79 1.5 -0.83 9.29 16.79 0 0 -1.5 0.83zm1.22 2.24l-1.32 -1.08 0 0 0.02 -0.03 0.03 -0.04 0.02 -0.03 0.02 -0.03 0.02 -0.04 0.02 -0.04 0.02 -0.03 0.01 -0.04 0.02 -0.03 0.01 -0.04 0.01 -0.04 0.01 -0.03 0.01 -0.03 0.01 -0.04 0 -0.04 0.01 -0.04 0 -0.03 0 -0.04 0 -0.03 0 -0.05 -0.01 -0.03 0 -0.04 -0.01 -0.04 0 -0.03 -0.01 -0.04 -0.01 -0.04 -0.01 -0.04 -0.02 -0.03 -0.01 -0.04 -0.02 -0.04 -0.02 -0.04 -0.02 -0.03 1.5 -0.83 0.05 0.09 0.05 0.09 0.04 0.1 0.04 0.09 0.03 0.1 0.03 0.1 0.03 0.1 0.02 0.1 0.02 0.1 0.02 0.1 0.01 0.1 0.01 0.11 0 0.09 0 0.11 0 0.1 -0.01 0.1 -0.01 0.1 -0.01 0.1 -0.02 0.1 -0.03 0.1 -0.02 0.1 -0.03 0.09 -0.03 0.1 -0.04 0.1 -0.04 0.09 -0.05 0.09 -0.04 0.09 -0.05 0.09 -0.06 0.09 -0.06 0.09 -0.06 0.08 -0.06 0.08 -0.01 0zm0.01 0l-0.01 0 0.07 -0.07 -0.06 0.07zm-2.97 0.89l0.52 -1.63 0 0 0.04 0.01 0.04 0.01 0.04 0.01 0.04 0.01 0.04 0 0.03 0 0.04 0.01 0.04 0 0.04 0 0.04 0 0.04 -0.01 0.04 0 0.03 -0.01 0.04 0 0.04 -0.01 0.03 -0.01 0.03 -0.01 0.03 -0.02 0.04 -0.01 0.04 -0.02 0.03 -0.01 0.03 -0.02 0.04 -0.02 0.03 -0.02 0.03 -0.02 0.03 -0.02 0.03 -0.03 0.04 -0.03 0.02 -0.03 0.03 -0.02 0.03 -0.04 0.03 -0.03 1.32 1.08 -0.06 0.08 -0.07 0.08 -0.08 0.08 -0.08 0.07 -0.07 0.07 -0.08 0.06 -0.08 0.07 -0.09 0.05 -0.08 0.06 -0.09 0.05 -0.09 0.05 -0.09 0.04 -0.09 0.04 -0.1 0.04 -0.09 0.04 -0.1 0.03 -0.1 0.03 -0.1 0.02 -0.1 0.02 -0.1 0.02 -0.1 0.01 -0.1 0.01 -0.1 0 -0.1 0 -0.1 0 -0.11 -0.01 -0.1 -0.01 -0.11 -0.01 -0.1 -0.02 -0.1 -0.02 -0.1 -0.03 -0.1 -0.03 0 0zm-8.2 -4.38l8.72 2.75 -0.52 1.63 -8.72 -2.75 0 -1.63 0.52 0zm-0.52 0l0.26 -0.08 0.26 0.08 -0.52 0zm-8.72 2.75l8.72 -2.75 0.52 1.63 -8.72 2.75 -0.52 -1.63zm-2.45 0.74l1.33 -1.08 0 0 0.03 0.03 0.03 0.04 0.02 0.02 0.03 0.03 0.04 0.03 0.03 0.02 0.03 0.03 0.03 0.02 0.03 0.02 0.03 0.02 0.04 0.02 0.03 0.01 0.03 0.02 0.04 0.01 0.04 0.02 0.03 0.01 0.03 0.01 0.04 0.01 0.04 0 0.03 0.01 0.04 0 0.04 0.01 0.04 0 0.04 0 0.03 0 0.04 -0.01 0.04 0 0.04 0 0.04 -0.01 0.04 -0.01 0.04 -0.01 0.04 -0.01 0.52 1.63 -0.1 0.03 -0.1 0.03 -0.11 0.02 -0.1 0.02 -0.1 0.01 -0.1 0.01 -0.11 0.01 -0.1 0 -0.1 0 -0.1 0 -0.1 -0.01 -0.1 -0.01 -0.11 -0.02 -0.1 -0.02 -0.09 -0.02 -0.1 -0.03 -0.1 -0.03 -0.09 -0.04 -0.1 -0.04 -0.09 -0.04 -0.09 -0.04 -0.09 -0.05 -0.09 -0.05 -0.08 -0.06 -0.09 -0.05 -0.08 -0.07 -0.08 -0.06 -0.08 -0.07 -0.07 -0.07 -0.08 -0.08 -0.07 -0.07 -0.07 -0.08 0 -0.01zm0 0.01l0 -0.01 0.06 0.07 -0.06 -0.06zm-0.27 -3.08l1.5 0.83 0 0 -0.03 0.03 -0.01 0.04 -0.02 0.04 -0.01 0.04 -0.02 0.03 -0.01 0.04 -0.01 0.04 -0.01 0.04 -0.01 0.03 0 0.04 -0.01 0.04 0 0.03 0 0.05 0 0.03 0 0.04 0 0.03 0.01 0.04 0 0.04 0.01 0.04 0.01 0.03 0.01 0.03 0.01 0.04 0.01 0.04 0.01 0.03 0.02 0.04 0.02 0.03 0.01 0.04 0.03 0.04 0.02 0.03 0.02 0.03 0.03 0.04 0.02 0.03 -1.33 1.08 -0.06 -0.08 -0.06 -0.08 -0.06 -0.09 -0.06 -0.09 -0.05 -0.09 -0.04 -0.09 -0.05 -0.09 -0.04 -0.09 -0.04 -0.1 -0.03 -0.1 -0.03 -0.09 -0.03 -0.1 -0.02 -0.1 -0.02 -0.1 -0.01 -0.1 -0.01 -0.1 -0.01 -0.1 0 -0.1 0 -0.11 0 -0.09 0.01 -0.11 0.01 -0.1 0.02 -0.1 0.02 -0.1 0.02 -0.1 0.03 -0.1 0.03 -0.1 0.03 -0.1 0.04 -0.09 0.04 -0.1 0.05 -0.09 0.05 -0.09 0 0zm10.79 -15.96l-9.29 16.79 -1.5 -0.83 9.29 -16.79 1.5 0.83 0 0zm0 0l0 0 -0.08 0.14 0.08 -0.14zm0.91 -2.25l0 1.71 0 0 -0.04 0 -0.03 0.01 -0.04 0 -0.04 0 -0.04 0.01 -0.03 0 -0.03 0.01 -0.04 0.01 -0.03 0.01 -0.03 0.01 -0.03 0.01 -0.04 0.01 -0.03 0.02 -0.03 0.01 -0.02 0.02 -0.03 0.01 -0.03 0.02 -0.03 0.02 -0.03 0.02 -0.02 0.02 -0.02 0.01 -0.03 0.03 -0.03 0.02 -0.02 0.03 -0.02 0.02 -0.02 0.03 -0.03 0.02 -0.02 0.03 -0.02 0.03 -0.02 0.03 -0.02 0.03 -0.02 0.04 -1.5 -0.83 0.05 -0.08 0.05 -0.08 0.05 -0.08 0.05 -0.07 0.06 -0.07 0.06 -0.08 0.05 -0.06 0.07 -0.07 0.06 -0.07 0.07 -0.06 0.06 -0.06 0.08 -0.06 0.07 -0.05 0.07 -0.06 0.08 -0.04 0.08 -0.05 0.08 -0.05 0.08 -0.04 0.08 -0.04 0.08 -0.04 0.09 -0.03 0.08 -0.03 0.09 -0.03 0.09 -0.03 0.09 -0.02 0.09 -0.02 0.09 -0.01 0.09 -0.02 0.09 -0.01 0.09 0 0.1 -0.01 0.09 0 0 0zm2.41 1.42l-1.5 0.83 0 0 -0.02 -0.03 -0.02 -0.03 -0.02 -0.04 -0.02 -0.02 -0.02 -0.04 -0.02 -0.02 -0.02 -0.03 -0.03 -0.02 -0.02 -0.03 -0.03 -0.02 -0.03 -0.03 -0.02 -0.01 -0.03 -0.02 -0.02 -0.02 -0.03 -0.02 -0.03 -0.02 -0.02 -0.01 -0.03 -0.02 -0.03 -0.01 -0.03 -0.02 -0.03 -0.01 -0.04 -0.01 -0.03 -0.01 -0.03 -0.01 -0.03 -0.01 -0.04 -0.01 -0.03 0 -0.04 -0.01 -0.03 0 -0.04 0 -0.04 -0.01 -0.04 0 0 -1.71 0.1 0 0.09 0.01 0.09 0 0.09 0.01 0.09 0.02 0.09 0.01 0.1 0.02 0.08 0.02 0.09 0.03 0.09 0.03 0.08 0.03 0.09 0.03 0.08 0.04 0.08 0.04 0.08 0.04 0.08 0.05 0.08 0.04 0.08 0.05 0.07 0.06 0.07 0.05 0.08 0.06 0.06 0.06 0.07 0.06 0.07 0.07 0.05 0.06 0.07 0.07 0.06 0.08 0.05 0.07 0.05 0.07 0.05 0.08 0.05 0.08 0.05 0.08 0 0zm0 0l0 0 0.12 0.21 -0.12 -0.21z"/>
  </g>
  <g>
   <path class="fil2" d="M232.04 0.86l13.7 0c4.57,0 8.3,3.73 8.3,8.3l0 5.61c-1.52,0.31 -2.98,1.06 -4.16,2.23l-9.38 9.39c-1.32,1.32 -2.25,3.18 -2.36,5.02l-0.5 4.42c-0.08,0.74 0,1.45 0.23,2.09l-5.83 0c-4.57,0 -8.3,-3.73 -8.3,-8.3l0 -20.46c0,-4.57 3.73,-8.3 8.3,-8.3zm9.21 30.77c0.05,-0.96 0.54,-2.13 1.45,-3.04l9.39 -9.39c1.98,-1.99 5.24,-1.99 7.23,0 1.99,2 1.99,5.25 0,7.24l-9.38 9.38c-0.92,0.92 -2.1,1.41 -3.03,1.46l-4.61 0.52c-0.97,0.11 -1.68,-0.62 -1.57,-1.63l0.52 -4.54zm-11.17 -20.82l13.79 0c1.01,0 1.84,0.83 1.84,1.84 0,1.01 -0.83,1.84 -1.84,1.84l-13.79 0c-1.01,0 -1.84,-0.83 -1.84,-1.84 0,-1.01 0.83,-1.84 1.84,-1.84zm0 6.74l8.56 0c1.01,0 1.84,0.83 1.84,1.84 0,1.01 -0.82,1.84 -1.84,1.84l-8.56 0c-1.01,0 -1.84,-0.83 -1.84,-1.84 0,-1.01 0.83,-1.84 1.84,-1.84zm0 6.74l3.33 0c1.02,0 1.84,0.83 1.84,1.84 0,1.01 -0.82,1.84 -1.84,1.84l-3.33 0c-1.01,0 -1.84,-0.83 -1.84,-1.84 0,-1.01 0.83,-1.84 1.84,-1.84z"/>
   <path id="_1_2" class="fil1 str2" d="M232.04 0.86l13.7 0c4.57,0 8.3,3.73 8.3,8.3l0 5.61c-1.52,0.31 -2.98,1.06 -4.16,2.23l-9.38 9.39c-1.32,1.32 -2.25,3.18 -2.36,5.02l-0.5 4.42c-0.08,0.74 0,1.45 0.23,2.09l-5.83 0c-4.57,0 -8.3,-3.73 -8.3,-8.3l0 -20.46c0,-4.57 3.73,-8.3 8.3,-8.3zm9.21 30.77c0.05,-0.96 0.54,-2.13 1.45,-3.04l9.39 -9.39c1.98,-1.99 5.24,-1.99 7.23,0 1.99,2 1.99,5.25 0,7.24l-9.38 9.38c-0.92,0.92 -2.1,1.41 -3.03,1.46l-4.61 0.52c-0.97,0.11 -1.68,-0.62 -1.57,-1.63l0.52 -4.54zm-11.17 -20.82l13.79 0c1.01,0 1.84,0.83 1.84,1.84 0,1.01 -0.83,1.84 -1.84,1.84l-13.79 0c-1.01,0 -1.84,-0.83 -1.84,-1.84 0,-1.01 0.83,-1.84 1.84,-1.84zm0 6.74l8.56 0c1.01,0 1.84,0.83 1.84,1.84 0,1.01 -0.82,1.84 -1.84,1.84l-8.56 0c-1.01,0 -1.84,-0.83 -1.84,-1.84 0,-1.01 0.83,-1.84 1.84,-1.84zm0 6.74l3.33 0c1.02,0 1.84,0.83 1.84,1.84 0,1.01 -0.82,1.84 -1.84,1.84l-3.33 0c-1.01,0 -1.84,-0.83 -1.84,-1.84 0,-1.01 0.83,-1.84 1.84,-1.84z"/>
  </g>
  <g>
   <path id="Vector" class="fil0" d="M318.62 14.88c-0.05,0.47 -0.47,0.82 -0.94,0.78 -0.47,-0.05 -0.81,-0.47 -0.77,-0.94l1.71 0.16zm-1.64 -1.56l1.71 -0.03 0 0.02 0 0.04 0 0.06 0 0.05 0 0.04 0 0.05 0 0.06 0 0.05 0 0.04 -0.01 0.06 0 0.04 0 0.05 0 0.05 0 0.05 0 0.05 -0.01 0.04 0 0.06 0 0.05 0 0.04 -0.01 0.06 0 0.05 0 0.05 0 0.04 -0.01 0.06 0 0.04 0 0.05 -0.01 0.05 0 0.05 -0.01 0.05 0 0.05 0 0.04 -0.01 0.06 0 0.04 -1.71 -0.16 0.01 -0.04 0 -0.04 0 -0.05 0.01 -0.04 0 -0.04 0.01 -0.05 0 -0.04 0 -0.05 0 -0.04 0.01 -0.04 0 -0.05 0 -0.05 0.01 -0.04 0 -0.04 0 -0.05 0 -0.04 0 -0.04 0.01 -0.05 0 -0.05 0 -0.04 0 -0.04 0 -0.05 0 -0.05 0 -0.04 0.01 -0.04 0 -0.05 0 -0.03 0 -0.05 0 -0.05 0 -0.05 0 -0.04 0 -0.04 0 0.01zm0 -0.01c0,-0.48 0.38,-0.86 0.85,-0.86 0.48,0 0.86,0.38 0.86,0.86l-1.71 0zm-18.34 -4.7l1.32 -1.08 -1.32 0 0.87 -1.01 0.88 -0.91 0.88 -0.8 0.89 -0.7 0.88 -0.61 0.89 -0.51 0.89 -0.41 0.88 -0.33 0.87 -0.23 0.87 -0.15 0.85 -0.06 0.84 0.02 0.81 0.09 0.79 0.17 0.77 0.24 0.74 0.31 0.71 0.36 0.67 0.43 0.64 0.47 0.6 0.53 0.57 0.57 0.52 0.62 0.49 0.65 0.44 0.68 0.4 0.72 0.35 0.75 0.31 0.77 0.25 0.79 0.21 0.81 0.15 0.82 0.1 0.84 0.04 0.84 -1.71 0.03 -0.04 -0.73 -0.08 -0.72 -0.13 -0.72 -0.18 -0.7 -0.23 -0.68 -0.26 -0.67 -0.31 -0.65 -0.34 -0.62 -0.38 -0.59 -0.41 -0.56 -0.45 -0.52 -0.48 -0.48 -0.51 -0.44 -0.53 -0.4 -0.55 -0.35 -0.58 -0.3 -0.6 -0.25 -0.62 -0.19 -0.64 -0.14 -0.65 -0.08 -0.67 -0.01 -0.69 0.05 -0.71 0.12 -0.72 0.2 -0.74 0.27 -0.76 0.35 -0.77 0.44 -0.78 0.54 -0.79 0.62 -0.8 0.73 -0.81 0.83 -0.81 0.94 -1.32 0zm1.32 0c-0.29,0.37 -0.83,0.42 -1.2,0.12 -0.37,-0.29 -0.42,-0.83 -0.12,-1.2l1.32 1.08zm-18.34 4.7l-1.71 0 0 -0.02 0.04 -0.84 0.1 -0.84 0.15 -0.82 0.21 -0.81 0.26 -0.79 0.3 -0.77 0.35 -0.75 0.4 -0.72 0.44 -0.68 0.49 -0.65 0.52 -0.62 0.57 -0.57 0.6 -0.53 0.64 -0.47 0.67 -0.43 0.71 -0.36 0.74 -0.31 0.77 -0.24 0.79 -0.17 0.81 -0.09 0.84 -0.02 0.85 0.06 0.87 0.15 0.87 0.23 0.89 0.33 0.88 0.41 0.89 0.51 0.89 0.61 0.88 0.7 0.88 0.8 0.88 0.91 0.87 1.01 -1.32 1.08 -0.81 -0.94 -0.81 -0.83 -0.8 -0.73 -0.79 -0.62 -0.78 -0.54 -0.77 -0.44 -0.76 -0.35 -0.74 -0.27 -0.72 -0.2 -0.71 -0.12 -0.69 -0.05 -0.67 0.01 -0.65 0.08 -0.64 0.14 -0.62 0.19 -0.6 0.25 -0.58 0.3 -0.55 0.35 -0.53 0.4 -0.51 0.44 -0.48 0.48 -0.45 0.52 -0.41 0.56 -0.38 0.59 -0.34 0.62 -0.31 0.65 -0.26 0.67 -0.23 0.68 -0.17 0.7 -0.14 0.72 -0.08 0.72 -0.04 0.73 0 -0.01zm0 0.01c0,0.47 -0.39,0.85 -0.87,0.84 -0.47,0 -0.85,-0.39 -0.84,-0.87l1.71 0.03zm17.67 21.94l-0.01 1.72 -0.49 -0.05 -0.52 -0.1 -0.54 -0.17 -0.59 -0.22 -0.62 -0.28 -0.66 -0.32 -0.7 -0.38 -0.72 -0.43 -0.75 -0.47 -0.77 -0.52 -0.79 -0.57 -0.8 -0.61 -0.81 -0.65 -0.82 -0.7 -0.81 -0.73 -0.8 -0.78 -0.8 -0.81 -0.78 -0.85 -0.77 -0.88 -0.73 -0.92 -0.71 -0.95 -0.67 -0.98 -0.64 -1.02 -0.59 -1.04 -0.54 -1.07 -0.48 -1.1 -0.43 -1.12 -0.36 -1.15 -0.29 -1.17 -0.21 -1.19 -0.13 -1.21 -0.05 -1.23 1.71 0 0.04 1.1 0.12 1.09 0.2 1.08 0.26 1.07 0.33 1.05 0.39 1.03 0.45 1.02 0.5 0.99 0.55 0.98 0.6 0.95 0.63 0.92 0.67 0.9 0.7 0.87 0.72 0.84 0.75 0.81 0.76 0.78 0.77 0.74 0.78 0.7 0.77 0.66 0.78 0.62 0.76 0.59 0.75 0.53 0.73 0.5 0.7 0.44 0.68 0.4 0.63 0.35 0.6 0.29 0.55 0.24 0.49 0.19 0.43 0.13 0.34 0.07 0.24 0.02zm0 0c0.47,0.01 0.85,0.4 0.85,0.87 0,0.47 -0.39,0.85 -0.86,0.85l0.01 -1.72zm9.07 -18.55l0 -1.72 0 0 0.59 0.02 0.58 0.03 0.56 0.05 0.55 0.07 0.54 0.1 0.51 0.11 0.51 0.14 0.49 0.16 0.47 0.18 0.45 0.2 0.44 0.23 0.42 0.24 0.41 0.27 0.38 0.28 0.37 0.31 0.35 0.33 0.32 0.35 0.31 0.36 0.29 0.39 0.26 0.4 0.25 0.42 0.22 0.44 0.2 0.46 0.18 0.47 0.16 0.49 0.14 0.5 0.12 0.52 0.09 0.53 0.08 0.55 0.05 0.57 0.03 0.57 0.01 0.59 -1.71 0 -0.01 -0.52 -0.03 -0.52 -0.05 -0.49 -0.06 -0.48 -0.08 -0.46 -0.1 -0.44 -0.12 -0.43 -0.13 -0.41 -0.15 -0.39 -0.16 -0.37 -0.19 -0.36 -0.19 -0.34 -0.21 -0.32 -0.23 -0.31 -0.24 -0.29 -0.26 -0.27 -0.28 -0.26 -0.29 -0.24 -0.3 -0.23 -0.33 -0.21 -0.34 -0.2 -0.35 -0.18 -0.38 -0.17 -0.39 -0.15 -0.4 -0.13 -0.43 -0.11 -0.44 -0.1 -0.46 -0.09 -0.48 -0.06 -0.5 -0.05 -0.51 -0.02 -0.53 -0.01 0 0zm0 0c-0.47,0 -0.86,-0.39 -0.86,-0.86 0,-0.47 0.39,-0.86 0.86,-0.86l0 1.72zm-8.62 8.61l-1.71 0 0 0 0.01 -0.55 0.04 -0.54 0.06 -0.54 0.09 -0.52 0.11 -0.52 0.13 -0.5 0.15 -0.49 0.18 -0.48 0.2 -0.46 0.22 -0.45 0.24 -0.44 0.26 -0.42 0.28 -0.4 0.3 -0.39 0.32 -0.37 0.34 -0.35 0.35 -0.34 0.38 -0.32 0.39 -0.29 0.4 -0.28 0.42 -0.26 0.44 -0.24 0.44 -0.22 0.47 -0.2 0.47 -0.17 0.49 -0.15 0.5 -0.13 0.51 -0.11 0.52 -0.09 0.53 -0.06 0.54 -0.03 0.55 -0.02 0 1.72 -0.47 0.01 -0.46 0.03 -0.46 0.05 -0.44 0.07 -0.43 0.09 -0.42 0.11 -0.41 0.13 -0.39 0.15 -0.39 0.16 -0.37 0.18 -0.36 0.2 -0.34 0.21 -0.34 0.23 -0.32 0.24 -0.3 0.27 -0.29 0.27 -0.28 0.29 -0.26 0.3 -0.25 0.32 -0.23 0.34 -0.21 0.34 -0.2 0.36 -0.18 0.37 -0.17 0.39 -0.15 0.39 -0.13 0.41 -0.11 0.43 -0.09 0.43 -0.07 0.44 -0.05 0.46 -0.04 0.47 -0.01 0.47 0 0zm0 0c0,0.48 -0.38,0.86 -0.85,0.86 -0.47,0 -0.86,-0.38 -0.86,-0.86l1.71 0zm8.62 8.62l0 1.71 0 0 -0.59 -0.01 -0.58 -0.03 -0.56 -0.05 -0.55 -0.07 -0.53 -0.1 -0.52 -0.12 -0.5 -0.13 -0.49 -0.16 -0.47 -0.18 -0.46 -0.2 -0.44 -0.23 -0.42 -0.24 -0.4 -0.27 -0.39 -0.28 -0.37 -0.31 -0.34 -0.33 -0.33 -0.35 -0.31 -0.36 -0.29 -0.39 -0.26 -0.4 -0.25 -0.43 -0.22 -0.43 -0.2 -0.46 -0.18 -0.47 -0.16 -0.49 -0.14 -0.5 -0.11 -0.52 -0.1 -0.54 -0.07 -0.54 -0.06 -0.57 -0.03 -0.57 -0.01 -0.6 1.71 0 0.01 0.53 0.03 0.52 0.05 0.49 0.06 0.48 0.08 0.46 0.1 0.44 0.12 0.43 0.13 0.41 0.15 0.39 0.17 0.37 0.18 0.36 0.2 0.34 0.21 0.32 0.22 0.31 0.25 0.29 0.26 0.27 0.27 0.26 0.29 0.24 0.31 0.23 0.32 0.21 0.34 0.2 0.35 0.18 0.38 0.16 0.39 0.15 0.41 0.14 0.42 0.11 0.45 0.1 0.46 0.08 0.47 0.07 0.5 0.04 0.51 0.03 0.53 0.01 0 0zm0 0c0.47,0 0.86,0.39 0.86,0.86 0,0.47 -0.39,0.85 -0.86,0.85l0 -1.71zm8.62 -8.62l1.71 0 0 0 -0.01 0.56 -0.04 0.54 -0.06 0.54 -0.09 0.52 -0.1 0.52 -0.14 0.5 -0.15 0.49 -0.18 0.48 -0.2 0.46 -0.22 0.45 -0.24 0.43 -0.26 0.42 -0.28 0.41 -0.3 0.39 -0.32 0.37 -0.34 0.35 -0.35 0.34 -0.38 0.32 -0.39 0.29 -0.4 0.28 -0.42 0.26 -0.43 0.24 -0.45 0.22 -0.47 0.2 -0.47 0.17 -0.49 0.15 -0.5 0.13 -0.51 0.11 -0.52 0.09 -0.53 0.06 -0.54 0.03 -0.55 0.01 0 -1.71 0.47 -0.01 0.47 -0.03 0.45 -0.05 0.44 -0.07 0.43 -0.09 0.42 -0.11 0.41 -0.13 0.39 -0.15 0.39 -0.16 0.37 -0.18 0.36 -0.2 0.34 -0.21 0.34 -0.23 0.32 -0.25 0.3 -0.26 0.29 -0.27 0.28 -0.29 0.26 -0.31 0.25 -0.32 0.23 -0.33 0.22 -0.34 0.2 -0.36 0.18 -0.38 0.16 -0.38 0.15 -0.4 0.13 -0.41 0.11 -0.42 0.09 -0.43 0.07 -0.45 0.06 -0.45 0.03 -0.47 0.01 -0.48 0 0zm0 0c0,-0.47 0.38,-0.85 0.85,-0.85 0.48,0 0.86,0.38 0.86,0.85l-1.71 0zm-5.46 -3.31c0.31,0.35 0.28,0.89 -0.07,1.21 -0.35,0.31 -0.89,0.28 -1.21,-0.07l1.28 -1.14zm-3.05 0.5l-0.15 -1.71 0 0 0.19 -0.01 0.17 0 0.18 0 0.17 0.01 0.16 0.02 0.16 0.03 0.15 0.03 0.15 0.03 0.15 0.05 0.13 0.04 0.14 0.05 0.12 0.05 0.13 0.05 0.11 0.06 0.11 0.06 0.1 0.06 0.1 0.05 0.09 0.06 0.09 0.06 0.08 0.06 0.08 0.05 0.07 0.06 0.06 0.05 0.05 0.04 0.06 0.05 0.05 0.05 0.03 0.03 0.04 0.03 0.03 0.03 0.02 0.03 0.01 0.01 0.02 0.02 -1.28 1.14 0.01 0.01 -0.01 -0.01 0 0 0 -0.01 -0.02 -0.01 -0.02 -0.02 -0.02 -0.02 -0.03 -0.02 -0.03 -0.03 -0.04 -0.03 -0.04 -0.03 -0.04 -0.03 -0.05 -0.04 -0.05 -0.03 -0.05 -0.04 -0.06 -0.03 -0.06 -0.04 -0.07 -0.03 -0.07 -0.03 -0.07 -0.03 -0.07 -0.03 -0.08 -0.03 -0.07 -0.03 -0.08 -0.02 -0.09 -0.02 -0.08 -0.02 -0.09 -0.01 -0.1 -0.01 -0.09 -0.01 -0.1 0 -0.1 0 -0.1 0.01 0 0zm0 0c-0.47,0.04 -0.89,-0.31 -0.93,-0.78 -0.04,-0.47 0.31,-0.89 0.78,-0.93l0.15 1.71zm-1.49 1.17l-1.72 0 0 0 0.01 -0.13 0.01 -0.13 0.01 -0.13 0.03 -0.13 0.02 -0.13 0.04 -0.13 0.04 -0.13 0.05 -0.12 0.06 -0.12 0.06 -0.12 0.06 -0.12 0.08 -0.12 0.08 -0.11 0.08 -0.1 0.1 -0.11 0.09 -0.1 0.11 -0.1 0.11 -0.09 0.11 -0.09 0.12 -0.08 0.13 -0.08 0.12 -0.07 0.14 -0.07 0.14 -0.06 0.14 -0.06 0.15 -0.05 0.15 -0.05 0.16 -0.04 0.16 -0.04 0.16 -0.03 0.17 -0.02 0.17 -0.02 0.15 1.71 -0.11 0.01 -0.1 0.01 -0.1 0.02 -0.1 0.02 -0.09 0.03 -0.09 0.02 -0.07 0.03 -0.08 0.03 -0.07 0.03 -0.07 0.04 -0.06 0.03 -0.06 0.04 -0.05 0.03 -0.05 0.04 -0.04 0.04 -0.05 0.04 -0.04 0.04 -0.03 0.04 -0.03 0.04 -0.04 0.05 -0.02 0.04 -0.03 0.04 -0.02 0.05 -0.02 0.04 -0.02 0.05 -0.01 0.04 -0.01 0.04 -0.01 0.05 -0.01 0.05 -0.01 0.04 0 0.05 0 0.05 0 0zm0 0c0,0.47 -0.39,0.85 -0.86,0.85 -0.47,0 -0.86,-0.38 -0.86,-0.85l1.72 0zm4.76 3.67l-1.72 0 0 0 0 -0.15 -0.03 -0.12 -0.02 -0.09 -0.04 -0.07 -0.03 -0.05 -0.05 -0.05 -0.06 -0.05 -0.09 -0.06 -0.1 -0.06 -0.13 -0.05 -0.15 -0.05 -0.17 -0.05 -0.18 -0.05 -0.2 -0.04 -0.21 -0.04 -0.22 -0.04 -0.22 -0.04 -0.23 -0.05 -0.24 -0.05 -0.24 -0.06 -0.24 -0.06 -0.24 -0.09 -0.25 -0.1 -0.24 -0.12 -0.24 -0.15 -0.22 -0.18 -0.21 -0.22 -0.18 -0.26 -0.14 -0.29 -0.11 -0.31 -0.06 -0.33 -0.02 -0.34 1.72 0 0 0.14 0.03 0.11 0.02 0.08 0.03 0.06 0.04 0.05 0.04 0.05 0.06 0.05 0.09 0.05 0.1 0.06 0.13 0.05 0.15 0.05 0.17 0.05 0.19 0.04 0.2 0.05 0.21 0.04 0.22 0.04 0.23 0.04 0.23 0.05 0.24 0.05 0.24 0.06 0.24 0.07 0.24 0.08 0.25 0.11 0.24 0.13 0.24 0.15 0.22 0.19 0.21 0.23 0.18 0.26 0.14 0.29 0.1 0.31 0.06 0.34 0.02 0.34 0 0zm0 0c0,0.48 -0.39,0.86 -0.86,0.86 -0.47,0 -0.86,-0.38 -0.86,-0.86l1.72 0zm-6.48 1.41l1.16 -1.27 0.13 0.12 0.14 0.1 0.14 0.09 0.15 0.08 0.15 0.07 0.16 0.06 0.15 0.05 0.17 0.04 0.16 0.03 0.16 0.02 0.16 0.01 0.17 0.01 0.16 -0.01 0.16 -0.01 0.15 -0.03 0.15 -0.03 0.15 -0.03 0.14 -0.04 0.13 -0.05 0.12 -0.05 0.11 -0.06 0.11 -0.06 0.09 -0.06 0.07 -0.06 0.07 -0.06 0.05 -0.06 0.04 -0.05 0.03 -0.04 0.02 -0.04 0.01 -0.03 0 -0.02 0 -0.03 1.72 0 -0.02 0.25 -0.05 0.25 -0.08 0.22 -0.1 0.22 -0.12 0.2 -0.14 0.18 -0.15 0.16 -0.17 0.16 -0.18 0.13 -0.19 0.13 -0.19 0.12 -0.21 0.1 -0.21 0.09 -0.22 0.08 -0.23 0.07 -0.23 0.06 -0.24 0.04 -0.24 0.04 -0.25 0.02 -0.25 0.01 -0.25 -0.01 -0.26 -0.02 -0.26 -0.03 -0.26 -0.05 -0.26 -0.06 -0.26 -0.08 -0.25 -0.1 -0.26 -0.12 -0.24 -0.13 -0.24 -0.16 -0.24 -0.17 -0.23 -0.19zm0 0c-0.34,-0.32 -0.37,-0.86 -0.05,-1.21 0.32,-0.35 0.86,-0.37 1.21,-0.06l-1.16 1.27zm2.47 -8.96c0,-0.47 0.38,-0.86 0.86,-0.86 0.47,0 0.85,0.39 0.85,0.86l-1.71 0zm0 1.84l0 -1.84 1.71 0 0 1.84 -1.71 0zm1.71 0c0,0.47 -0.38,0.86 -0.85,0.86 -0.48,0 -0.86,-0.39 -0.86,-0.86l1.71 0zm-1.71 7.37c0,-0.48 0.38,-0.86 0.86,-0.86 0.47,0 0.85,0.38 0.85,0.86l-1.71 0zm0 1.84l0 -1.84 1.71 0 0 1.84 -1.71 0zm1.71 0c0,0.47 -0.38,0.86 -0.85,0.86 -0.48,0 -0.86,-0.39 -0.86,-0.86l1.71 0z"/>
  </g>
  <g>
   <path id="Intersect" class="fil0" d="M370.17 17.29c0,0.48 -0.38,0.86 -0.85,0.86 -0.48,0 -0.86,-0.38 -0.86,-0.86l1.71 0zm-2.06 -10.8l1.71 -0.11 0 0 0.02 0.36 0.02 0.35 0.02 0.35 0.02 0.35 0.02 0.34 0.02 0.34 0.02 0.33 0.01 0.33 0.02 0.33 0.02 0.33 0.01 0.33 0.02 0.33 0.01 0.32 0.01 0.33 0.01 0.32 0.02 0.33 0.01 0.32 0.01 0.33 0.01 0.33 0 0.33 0.01 0.33 0.01 0.33 0.01 0.34 0 0.34 0.01 0.35 0 0.35 0 0.35 0.01 0.36 0 0.36 0 0.37 0 0.37 0 0.38 -1.71 0 0 -0.37 0 -0.37 0 -0.37 -0.01 -0.36 0 -0.35 0 -0.35 -0.01 -0.35 0 -0.34 -0.01 -0.34 0 -0.33 -0.01 -0.33 -0.01 -0.33 -0.01 -0.33 -0.01 -0.32 -0.01 -0.32 -0.01 -0.33 -0.01 -0.32 -0.01 -0.32 -0.01 -0.32 -0.02 -0.32 -0.01 -0.32 -0.01 -0.33 -0.02 -0.32 -0.02 -0.33 -0.01 -0.33 -0.02 -0.33 -0.02 -0.34 -0.02 -0.34 -0.02 -0.34 -0.02 -0.34 -0.02 -0.36 -0.02 -0.35 0 0zm0 0c-0.03,-0.47 0.33,-0.88 0.8,-0.91 0.47,-0.03 0.88,0.33 0.91,0.8l-1.71 0.11zm-4.42 -4.43l0.12 -1.71 0 0 0.3 0.03 0.3 0.04 0.29 0.05 0.29 0.07 0.28 0.08 0.28 0.09 0.27 0.1 0.26 0.12 0.26 0.13 0.25 0.13 0.25 0.15 0.24 0.16 0.23 0.17 0.22 0.18 0.21 0.19 0.21 0.19 0.2 0.21 0.18 0.22 0.18 0.22 0.17 0.23 0.16 0.24 0.14 0.24 0.14 0.25 0.13 0.26 0.11 0.27 0.1 0.27 0.09 0.28 0.08 0.28 0.07 0.29 0.05 0.29 0.04 0.3 0.03 0.3 -1.71 0.11 -0.02 -0.22 -0.03 -0.22 -0.04 -0.22 -0.05 -0.21 -0.06 -0.21 -0.06 -0.2 -0.08 -0.2 -0.08 -0.19 -0.09 -0.19 -0.1 -0.19 -0.11 -0.18 -0.12 -0.17 -0.12 -0.17 -0.13 -0.17 -0.14 -0.16 -0.14 -0.15 -0.16 -0.14 -0.15 -0.14 -0.17 -0.13 -0.16 -0.13 -0.18 -0.11 -0.18 -0.11 -0.18 -0.1 -0.2 -0.1 -0.19 -0.08 -0.2 -0.08 -0.2 -0.06 -0.21 -0.06 -0.21 -0.05 -0.22 -0.04 -0.22 -0.03 -0.22 -0.02 0 0zm0 0c-0.47,-0.03 -0.83,-0.44 -0.79,-0.92 0.03,-0.47 0.44,-0.82 0.91,-0.79l-0.12 1.71zm-10.37 -0.35l0 -1.71 0 0 0.37 0 0.36 0 0.37 0 0.35 0.01 0.36 0 0.35 0 0.34 0.01 0.35 0 0.34 0.01 0.33 0.01 0.34 0 0.33 0.01 0.33 0.01 0.32 0.01 0.33 0.01 0.32 0.01 0.32 0.01 0.32 0.01 0.31 0.01 0.32 0.02 0.31 0.01 0.32 0.02 0.31 0.01 0.31 0.02 0.31 0.01 0.31 0.02 0.31 0.02 0.31 0.02 0.31 0.02 0.31 0.02 0.31 0.02 0.31 0.02 -0.12 1.71 -0.3 -0.02 -0.31 -0.02 -0.31 -0.02 -0.3 -0.02 -0.31 -0.02 -0.31 -0.02 -0.3 -0.01 -0.31 -0.02 -0.31 -0.02 -0.3 -0.01 -0.31 -0.02 -0.31 -0.01 -0.32 -0.01 -0.31 -0.02 -0.31 -0.01 -0.32 -0.01 -0.32 -0.01 -0.32 -0.01 -0.32 -0.01 -0.33 -0.01 -0.32 -0.01 -0.33 0 -0.34 -0.01 -0.33 0 -0.34 -0.01 -0.34 0 -0.35 -0.01 -0.35 0 -0.36 0 -0.35 0 -0.36 -0.01 -0.37 0 0 0zm0 0c-0.47,0 -0.86,-0.38 -0.86,-0.85 0,-0.48 0.39,-0.86 0.86,-0.86l0 1.71zm-3.68 0.04l-0.03 -1.71 0 0 0.11 0 0.11 -0.01 0.11 0 0.11 0 0.11 0 0.11 0 0.12 -0.01 0.11 0 0.11 0 0.12 0 0.11 0 0.11 0 0.12 -0.01 0.11 0 0.11 0 0.12 0 0.12 0 0.11 0 0.12 0 0.12 0 0.12 0 0.11 -0.01 0.12 0 0.12 0 0.12 0 0.12 0 0.12 0 0.12 0 0.12 0 0.12 0 0.13 0 0.12 0 0 1.71 -0.12 0 -0.13 0 -0.11 0 -0.12 0 -0.12 0 -0.12 0.01 -0.12 0 -0.12 0 -0.12 0 -0.12 0 -0.11 0 -0.12 0 -0.11 0 -0.12 0 -0.12 0 -0.11 0 -0.11 0.01 -0.12 0 -0.11 0 -0.12 0 -0.11 0 -0.11 0 -0.11 0 -0.12 0.01 -0.11 0 -0.11 0 -0.11 0 -0.11 0 -0.11 0 -0.11 0.01 -0.11 0 -0.11 0 0 0zm0 0c-0.47,0.01 -0.86,-0.36 -0.87,-0.84 -0.01,-0.47 0.36,-0.86 0.84,-0.87l0.03 1.71zm-2.72 0.95l-1.04 -1.36 0 0 0.1 -0.07 0.1 -0.08 0.11 -0.07 0.1 -0.07 0.11 -0.07 0.11 -0.06 0.11 -0.07 0.1 -0.06 0.11 -0.05 0.12 -0.06 0.11 -0.06 0.12 -0.05 0.11 -0.05 0.11 -0.04 0.12 -0.05 0.12 -0.04 0.12 -0.04 0.12 -0.04 0.12 -0.03 0.12 -0.03 0.12 -0.03 0.12 -0.03 0.13 -0.03 0.12 -0.02 0.12 -0.02 0.12 -0.02 0.13 -0.02 0.13 -0.01 0.12 -0.01 0.12 -0.01 0.13 -0.01 0.13 0 0.03 1.71 -0.09 0 -0.09 0.01 -0.09 0.01 -0.1 0 -0.09 0.01 -0.09 0.02 -0.09 0.01 -0.09 0.01 -0.09 0.02 -0.09 0.02 -0.09 0.02 -0.09 0.02 -0.09 0.03 -0.08 0.02 -0.09 0.03 -0.09 0.03 -0.08 0.03 -0.09 0.03 -0.08 0.04 -0.09 0.03 -0.08 0.04 -0.08 0.04 -0.08 0.04 -0.08 0.04 -0.09 0.05 -0.07 0.04 -0.08 0.05 -0.08 0.05 -0.07 0.05 -0.08 0.05 -0.07 0.05 -0.08 0.06 0 0zm0 0c-0.37,0.29 -0.91,0.22 -1.2,-0.16 -0.29,-0.37 -0.22,-0.91 0.16,-1.2l1.04 1.36zm-6.76 6.71l-1.35 -1.05 0 0 0.2 -0.26 0.2 -0.25 0.2 -0.25 0.2 -0.24 0.2 -0.24 0.2 -0.24 0.2 -0.23 0.2 -0.23 0.2 -0.23 0.2 -0.23 0.2 -0.22 0.2 -0.22 0.21 -0.22 0.21 -0.21 0.2 -0.21 0.22 -0.22 0.21 -0.21 0.22 -0.2 0.21 -0.21 0.23 -0.21 0.22 -0.21 0.23 -0.2 0.23 -0.21 0.24 -0.2 0.24 -0.21 0.24 -0.21 0.25 -0.2 0.25 -0.21 0.26 -0.21 0.26 -0.2 0.26 -0.22 0.28 -0.21 1.04 1.36 -0.26 0.2 -0.26 0.21 -0.25 0.2 -0.25 0.2 -0.24 0.2 -0.24 0.2 -0.23 0.19 -0.23 0.2 -0.23 0.2 -0.22 0.19 -0.22 0.2 -0.21 0.2 -0.21 0.19 -0.21 0.2 -0.2 0.2 -0.21 0.2 -0.2 0.2 -0.19 0.2 -0.2 0.21 -0.2 0.2 -0.19 0.21 -0.19 0.21 -0.19 0.22 -0.2 0.21 -0.19 0.22 -0.19 0.23 -0.19 0.22 -0.19 0.23 -0.19 0.24 -0.19 0.24 -0.19 0.24 -0.2 0.25 0 0zm0 0c-0.29,0.37 -0.83,0.44 -1.2,0.15 -0.37,-0.29 -0.44,-0.83 -0.15,-1.2l1.35 1.05zm-1.97 5.77l-1.71 -0.03 0 0 0 -0.23 0.01 -0.23 0.02 -0.23 0.02 -0.22 0.02 -0.23 0.03 -0.23 0.03 -0.22 0.04 -0.23 0.04 -0.22 0.04 -0.23 0.05 -0.22 0.05 -0.22 0.06 -0.22 0.06 -0.22 0.07 -0.21 0.07 -0.22 0.08 -0.22 0.08 -0.21 0.08 -0.21 0.09 -0.21 0.09 -0.21 0.1 -0.21 0.1 -0.2 0.1 -0.2 0.11 -0.2 0.11 -0.2 0.12 -0.2 0.13 -0.19 0.12 -0.19 0.13 -0.19 0.14 -0.19 0.14 -0.18 1.35 1.05 -0.11 0.15 -0.12 0.16 -0.11 0.16 -0.11 0.16 -0.1 0.16 -0.1 0.17 -0.09 0.16 -0.1 0.17 -0.08 0.17 -0.09 0.18 -0.08 0.17 -0.08 0.18 -0.07 0.18 -0.08 0.17 -0.06 0.18 -0.07 0.19 -0.06 0.18 -0.05 0.19 -0.06 0.18 -0.04 0.19 -0.05 0.19 -0.04 0.19 -0.04 0.19 -0.03 0.19 -0.04 0.19 -0.02 0.2 -0.03 0.19 -0.02 0.19 -0.01 0.2 -0.01 0.19 -0.01 0.2 -0.01 0.2 0 0zm0 0c-0.01,0.47 -0.4,0.85 -0.87,0.84 -0.47,-0.01 -0.85,-0.4 -0.84,-0.87l1.71 0.03zm-0.02 3.14l-1.72 0 0 0 0 -0.1 0 -0.1 0 -0.1 0 -0.1 0 -0.09 0 -0.11 0 -0.1 0 -0.09 0.01 -0.11 0 -0.09 0 -0.1 0 -0.1 0 -0.1 0 -0.1 0 -0.1 0 -0.1 0 -0.1 0 -0.1 0 -0.1 0 -0.09 0 -0.11 0.01 -0.09 0 -0.1 0 -0.1 0 -0.1 0 -0.1 0 -0.1 0 -0.09 0 -0.1 0.01 -0.1 0 -0.1 0 -0.1 1.71 0.03 0 0.09 0 0.1 0 0.1 0 0.1 0 0.1 -0.01 0.09 0 0.1 0 0.1 0 0.1 0 0.1 0 0.09 0 0.1 0 0.1 -0.01 0.1 0 0.1 0 0.09 0 0.1 0 0.1 0 0.1 0 0.1 0 0.09 0 0.1 0 0.11 0 0.09 0 0.1 0 0.1 0 0.1 0 0.1 0 0.1 0 0.09 0 0.1 0 0.1 0 0zm0 0c0,0.48 -0.39,0.86 -0.86,0.86 -0.47,0 -0.86,-0.38 -0.86,-0.86l1.72 0zm0.36 11.84l-1.71 0.1 0 0 -0.02 -0.36 -0.02 -0.36 -0.02 -0.36 -0.02 -0.37 -0.02 -0.36 -0.02 -0.37 -0.02 -0.37 -0.02 -0.36 -0.01 -0.37 -0.02 -0.37 -0.02 -0.37 -0.01 -0.37 -0.02 -0.37 -0.01 -0.38 -0.01 -0.37 -0.01 -0.37 -0.01 -0.37 -0.01 -0.38 -0.01 -0.37 -0.01 -0.38 -0.01 -0.37 -0.01 -0.38 -0.01 -0.38 0 -0.38 -0.01 -0.38 0 -0.38 -0.01 -0.38 0 -0.38 0 -0.38 -0.01 -0.38 0 -0.38 0 -0.39 1.72 0 0 0.38 0 0.38 0 0.38 0 0.38 0.01 0.38 0 0.37 0.01 0.38 0 0.38 0.01 0.37 0 0.37 0.01 0.38 0.01 0.37 0.01 0.37 0.01 0.38 0.01 0.37 0.01 0.37 0.01 0.37 0.01 0.37 0.02 0.36 0.01 0.37 0.02 0.37 0.01 0.37 0.02 0.36 0.01 0.37 0.02 0.36 0.02 0.36 0.02 0.37 0.02 0.36 0.02 0.36 0.02 0.36 0.02 0.36 0.02 0.36 0 0zm0 0c0.03,0.47 -0.33,0.88 -0.8,0.9 -0.47,0.03 -0.88,-0.32 -0.91,-0.8l1.71 -0.1zm4.41 4.43l-0.11 1.71 0 0 -0.3 -0.03 -0.3 -0.04 -0.29 -0.06 -0.29 -0.06 -0.28 -0.08 -0.28 -0.1 -0.27 -0.1 -0.27 -0.12 -0.26 -0.12 -0.25 -0.14 -0.24 -0.15 -0.24 -0.16 -0.23 -0.17 -0.22 -0.18 -0.22 -0.18 -0.2 -0.2 -0.2 -0.21 -0.18 -0.21 -0.18 -0.22 -0.17 -0.23 -0.16 -0.24 -0.15 -0.25 -0.13 -0.25 -0.13 -0.26 -0.11 -0.27 -0.11 -0.27 -0.09 -0.28 -0.07 -0.28 -0.07 -0.29 -0.05 -0.29 -0.04 -0.3 -0.03 -0.3 1.71 -0.1 0.02 0.22 0.03 0.22 0.04 0.21 0.05 0.21 0.05 0.21 0.07 0.2 0.08 0.2 0.08 0.2 0.09 0.19 0.1 0.18 0.11 0.18 0.12 0.18 0.12 0.17 0.13 0.16 0.14 0.16 0.14 0.15 0.15 0.15 0.16 0.13 0.16 0.14 0.17 0.12 0.18 0.12 0.18 0.11 0.18 0.1 0.19 0.09 0.2 0.08 0.2 0.08 0.2 0.07 0.21 0.06 0.21 0.05 0.21 0.04 0.22 0.03 0.22 0.02 0 0zm0 0c0.47,0.03 0.83,0.44 0.8,0.91 -0.03,0.47 -0.44,0.83 -0.91,0.8l0.11 -1.71zm9.92 0.32l-0.03 1.71 -0.25 -0.01 -0.27 0 -0.28 -0.01 -0.29 0 -0.3 -0.01 -0.31 0 -0.31 -0.01 -0.33 -0.01 -0.33 0 -0.33 -0.01 -0.34 -0.01 -0.34 -0.01 -0.35 -0.01 -0.35 -0.01 -0.34 -0.01 -0.35 -0.01 -0.35 -0.01 -0.35 -0.01 -0.34 -0.01 -0.35 -0.01 -0.33 -0.01 -0.33 -0.01 -0.33 -0.01 -0.32 -0.02 -0.31 -0.01 -0.31 -0.01 -0.3 -0.02 -0.28 -0.01 -0.28 -0.02 -0.26 -0.01 -0.26 -0.02 -0.23 -0.01 0.11 -1.71 0.23 0.01 0.25 0.02 0.26 0.01 0.27 0.02 0.28 0.01 0.29 0.01 0.3 0.02 0.31 0.01 0.31 0.01 0.33 0.02 0.33 0.01 0.33 0.01 0.34 0.01 0.34 0.01 0.35 0.01 0.34 0.01 0.35 0.01 0.35 0.01 0.35 0.01 0.34 0.01 0.34 0.01 0.34 0.01 0.33 0 0.33 0.01 0.32 0.01 0.32 0 0.31 0.01 0.29 0.01 0.29 0 0.28 0.01 0.27 0 0.25 0.01zm0 0c0.48,0 0.85,0.39 0.84,0.87 0,0.47 -0.39,0.85 -0.87,0.84l0.03 -1.71zm22.12 2.41c0.34,0.33 0.34,0.88 0,1.21 -0.33,0.33 -0.87,0.33 -1.21,0l1.21 -1.21zm-3.02 -3.03l3.02 3.03 -1.21 1.21 -3.02 -3.03 1.21 -1.21zm-1.21 1.21c-0.33,-0.33 -0.33,-0.87 0,-1.21 0.33,-0.33 0.88,-0.33 1.21,0l-1.21 1.21zm1.5 -5.86l1.71 0 0 0 0 0.45 -0.03 0.43 -0.04 0.43 -0.06 0.41 -0.07 0.41 -0.08 0.39 -0.11 0.38 -0.12 0.38 -0.14 0.36 -0.15 0.34 -0.17 0.34 -0.19 0.32 -0.2 0.31 -0.22 0.3 -0.24 0.28 -0.25 0.26 -0.27 0.26 -0.28 0.23 -0.29 0.22 -0.31 0.2 -0.33 0.19 -0.33 0.17 -0.35 0.16 -0.36 0.13 -0.37 0.12 -0.38 0.11 -0.39 0.09 -0.41 0.07 -0.41 0.05 -0.43 0.04 -0.43 0.03 -0.45 0.01 0 -1.72 0.38 0 0.38 -0.02 0.35 -0.04 0.35 -0.04 0.33 -0.06 0.32 -0.07 0.3 -0.09 0.29 -0.09 0.28 -0.11 0.26 -0.12 0.26 -0.12 0.24 -0.14 0.23 -0.15 0.21 -0.16 0.21 -0.18 0.19 -0.18 0.18 -0.19 0.17 -0.2 0.16 -0.22 0.15 -0.23 0.14 -0.24 0.13 -0.25 0.12 -0.27 0.1 -0.27 0.1 -0.3 0.08 -0.3 0.07 -0.32 0.06 -0.33 0.05 -0.34 0.03 -0.36 0.02 -0.37 0.01 -0.39 0 0zm0 0c0,-0.47 0.38,-0.85 0.86,-0.85 0.47,0 0.85,0.38 0.85,0.85l-1.71 0zm-6.15 -6.14l0 -1.72 0 0 0.45 0.01 0.43 0.03 0.43 0.03 0.41 0.06 0.41 0.07 0.39 0.09 0.38 0.1 0.37 0.13 0.36 0.13 0.35 0.16 0.33 0.17 0.33 0.18 0.31 0.21 0.29 0.22 0.28 0.23 0.27 0.25 0.25 0.27 0.24 0.28 0.22 0.3 0.2 0.31 0.19 0.32 0.17 0.34 0.15 0.34 0.14 0.36 0.12 0.37 0.11 0.39 0.08 0.39 0.07 0.4 0.06 0.42 0.04 0.42 0.03 0.44 0 0.44 -1.71 0 -0.01 -0.38 -0.02 -0.37 -0.03 -0.36 -0.05 -0.34 -0.06 -0.33 -0.07 -0.32 -0.08 -0.3 -0.1 -0.3 -0.1 -0.27 -0.12 -0.27 -0.13 -0.25 -0.14 -0.24 -0.15 -0.23 -0.16 -0.22 -0.17 -0.2 -0.18 -0.19 -0.19 -0.19 -0.21 -0.17 -0.21 -0.16 -0.23 -0.15 -0.24 -0.14 -0.26 -0.13 -0.26 -0.11 -0.28 -0.11 -0.29 -0.09 -0.3 -0.09 -0.32 -0.07 -0.33 -0.06 -0.35 -0.04 -0.35 -0.04 -0.38 -0.02 -0.38 0 0 0zm0 0c-0.47,0 -0.86,-0.39 -0.86,-0.86 0,-0.47 0.39,-0.86 0.86,-0.86l0 1.72zm-6.15 6.14l-1.71 0 0 0 0.01 -0.44 0.02 -0.44 0.04 -0.42 0.06 -0.42 0.07 -0.4 0.09 -0.39 0.1 -0.39 0.12 -0.37 0.14 -0.36 0.16 -0.34 0.17 -0.34 0.18 -0.32 0.21 -0.31 0.22 -0.3 0.23 -0.28 0.25 -0.27 0.27 -0.25 0.28 -0.23 0.3 -0.22 0.3 -0.21 0.33 -0.18 0.33 -0.17 0.35 -0.16 0.36 -0.13 0.37 -0.13 0.38 -0.1 0.4 -0.09 0.4 -0.07 0.42 -0.06 0.42 -0.03 0.44 -0.03 0.44 -0.01 0 1.72 -0.38 0 -0.37 0.02 -0.36 0.04 -0.34 0.04 -0.34 0.06 -0.31 0.07 -0.31 0.09 -0.29 0.09 -0.28 0.11 -0.26 0.12 -0.25 0.12 -0.25 0.14 -0.22 0.15 -0.22 0.16 -0.2 0.17 -0.2 0.19 -0.18 0.19 -0.17 0.2 -0.16 0.22 -0.15 0.23 -0.14 0.24 -0.13 0.25 -0.11 0.27 -0.11 0.27 -0.1 0.3 -0.08 0.3 -0.07 0.32 -0.06 0.33 -0.05 0.34 -0.03 0.36 -0.02 0.37 -0.01 0.38 0 0zm0 0c0,0.48 -0.38,0.86 -0.85,0.86 -0.48,0 -0.86,-0.38 -0.86,-0.86l1.71 0zm6.15 6.15l0 1.72 0 0 -0.44 -0.01 -0.44 -0.03 -0.42 -0.04 -0.42 -0.05 -0.4 -0.07 -0.4 -0.09 -0.38 -0.11 -0.37 -0.12 -0.36 -0.13 -0.35 -0.16 -0.33 -0.17 -0.33 -0.19 -0.3 -0.2 -0.3 -0.22 -0.28 -0.24 -0.27 -0.25 -0.25 -0.26 -0.23 -0.28 -0.22 -0.3 -0.21 -0.31 -0.18 -0.32 -0.17 -0.34 -0.16 -0.34 -0.14 -0.36 -0.12 -0.38 -0.1 -0.38 -0.09 -0.39 -0.07 -0.41 -0.06 -0.41 -0.04 -0.43 -0.02 -0.43 -0.01 -0.45 1.71 0 0.01 0.39 0.02 0.37 0.03 0.36 0.05 0.34 0.06 0.33 0.07 0.32 0.08 0.3 0.1 0.3 0.11 0.27 0.11 0.27 0.13 0.25 0.14 0.24 0.15 0.23 0.16 0.22 0.17 0.2 0.18 0.19 0.2 0.18 0.2 0.18 0.22 0.16 0.22 0.15 0.25 0.14 0.25 0.12 0.26 0.12 0.28 0.11 0.29 0.09 0.31 0.09 0.31 0.07 0.34 0.06 0.34 0.04 0.36 0.04 0.37 0.02 0.38 0 0 0zm0 0c0.47,0 0.86,0.39 0.86,0.86 0,0.47 -0.39,0.86 -0.86,0.86l0 -1.72zm-7.23 -18.28c0.47,0 0.85,0.38 0.85,0.85 0,0.48 -0.38,0.86 -0.85,0.86l0 -1.71zm-11.1 0l11.1 0 0 1.71 -11.1 0 0 -1.71zm0 1.71c-0.47,0 -0.86,-0.38 -0.86,-0.86 0,-0.47 0.39,-0.85 0.86,-0.85l0 1.71zm6.44 6.75c0.47,0 0.86,0.38 0.86,0.85 0,0.48 -0.39,0.86 -0.86,0.86l0 -1.71zm-6.4 0l6.4 0 0 1.71 -6.4 0 0 -1.71zm0 1.71c-0.48,0 -0.86,-0.38 -0.86,-0.86 0,-0.47 0.38,-0.85 0.86,-0.85l0 1.71zm11.06 -18.95c0.47,0 0.85,0.38 0.85,0.86 0,0.47 -0.38,0.85 -0.85,0.85l0 -1.71zm-6.7 0l6.7 0 0 1.71 -6.7 0 0 -1.71zm0 1.71c-0.47,0 -0.86,-0.38 -0.86,-0.85 0,-0.48 0.39,-0.86 0.86,-0.86l0 1.71z"/>
  </g>
  <g>
   <path id="Intersect_3" class="fil0" d="M419.69 28.59c-0.29,-0.38 -0.21,-0.92 0.17,-1.2 0.38,-0.28 0.92,-0.21 1.2,0.17l-1.37 1.03zm3.09 4.15l-3.09 -4.15 1.37 -1.03 3.1 4.16 0.05 0.94 -1.43 0.08zm1.38 -1.02c0.28,0.38 0.2,0.91 -0.18,1.2 -0.38,0.28 -0.92,0.2 -1.2,-0.18l1.38 -1.02zm7.25 -10.09l0.95 1.42 -0.36 0.25 -0.34 0.24 -0.33 0.23 -0.31 0.23 -0.3 0.23 -0.29 0.22 -0.28 0.22 -0.26 0.23 -0.26 0.22 -0.25 0.23 -0.24 0.23 -0.23 0.23 -0.23 0.24 -0.22 0.24 -0.22 0.25 -0.22 0.26 -0.22 0.26 -0.21 0.28 -0.22 0.28 -0.21 0.29 -0.22 0.31 -0.22 0.32 -0.22 0.34 -0.23 0.35 -0.23 0.36 -0.24 0.39 -0.24 0.4 -0.26 0.41 -0.25 0.44 -0.27 0.45 -0.28 0.48 -0.29 0.5 -1.48 -0.86 0.29 -0.5 0.28 -0.48 0.27 -0.46 0.27 -0.45 0.25 -0.42 0.25 -0.41 0.25 -0.4 0.24 -0.38 0.24 -0.36 0.23 -0.35 0.23 -0.34 0.24 -0.33 0.23 -0.32 0.23 -0.31 0.24 -0.3 0.23 -0.29 0.24 -0.28 0.25 -0.28 0.24 -0.27 0.26 -0.26 0.26 -0.26 0.27 -0.25 0.27 -0.25 0.28 -0.25 0.29 -0.25 0.3 -0.24 0.31 -0.24 0.33 -0.25 0.33 -0.24 0.35 -0.25 0.36 -0.25 0.37 -0.25zm0 0c0.39,-0.26 0.92,-0.16 1.19,0.24 0.26,0.39 0.15,0.92 -0.24,1.18l-0.95 -1.42zm-3.73 -4.34c0,0.48 -0.38,0.86 -0.86,0.86 -0.47,0 -0.85,-0.38 -0.85,-0.86l1.71 0zm-2.06 -10.8l1.7 -0.11 0 0 0.03 0.36 0.02 0.35 0.02 0.35 0.02 0.35 0.02 0.34 0.02 0.34 0.02 0.33 0.01 0.33 0.02 0.33 0.01 0.33 0.02 0.33 0.01 0.33 0.02 0.32 0.01 0.33 0.01 0.32 0.01 0.33 0.01 0.32 0.01 0.33 0.01 0.33 0.01 0.33 0.01 0.33 0.01 0.33 0 0.34 0.01 0.34 0 0.35 0.01 0.35 0 0.35 0.01 0.36 0 0.36 0 0.37 0 0.37 0 0.38 -1.71 0 0 -0.37 0 -0.37 0 -0.37 -0.01 -0.36 0 -0.35 0 -0.35 -0.01 -0.35 0 -0.34 -0.01 -0.34 -0.01 -0.33 0 -0.33 -0.01 -0.33 -0.01 -0.33 -0.01 -0.32 -0.01 -0.32 -0.01 -0.33 -0.01 -0.32 -0.01 -0.32 -0.01 -0.32 -0.02 -0.32 -0.01 -0.32 -0.02 -0.33 -0.01 -0.32 -0.02 -0.33 -0.02 -0.33 -0.01 -0.33 -0.02 -0.34 -0.02 -0.34 -0.02 -0.34 -0.02 -0.34 -0.02 -0.36 -0.02 -0.35 0 0zm0 0c-0.03,-0.47 0.32,-0.88 0.8,-0.91 0.47,-0.03 0.88,0.33 0.9,0.8l-1.7 0.11zm-4.42 -4.43l0.12 -1.71 0 0 0.3 0.03 0.29 0.04 0.3 0.05 0.29 0.07 0.28 0.08 0.28 0.09 0.27 0.1 0.26 0.12 0.26 0.13 0.25 0.13 0.25 0.15 0.24 0.16 0.23 0.17 0.22 0.18 0.21 0.19 0.21 0.19 0.19 0.21 0.19 0.22 0.18 0.22 0.17 0.23 0.15 0.24 0.15 0.24 0.14 0.25 0.13 0.26 0.11 0.27 0.1 0.27 0.09 0.28 0.08 0.28 0.07 0.29 0.05 0.29 0.04 0.3 0.02 0.3 -1.7 0.11 -0.02 -0.22 -0.03 -0.22 -0.04 -0.22 -0.05 -0.21 -0.06 -0.21 -0.06 -0.2 -0.08 -0.2 -0.08 -0.19 -0.09 -0.19 -0.11 -0.19 -0.1 -0.18 -0.12 -0.17 -0.12 -0.17 -0.13 -0.17 -0.14 -0.16 -0.15 -0.15 -0.15 -0.14 -0.15 -0.14 -0.17 -0.13 -0.17 -0.13 -0.17 -0.11 -0.18 -0.11 -0.19 -0.1 -0.19 -0.1 -0.19 -0.08 -0.2 -0.08 -0.2 -0.06 -0.21 -0.06 -0.21 -0.05 -0.22 -0.04 -0.22 -0.03 -0.22 -0.02 0 0zm0 0c-0.47,-0.03 -0.83,-0.44 -0.79,-0.92 0.03,-0.47 0.44,-0.82 0.91,-0.79l-0.12 1.71zm-10.37 -0.35l0 -1.71 0 0 0.37 0 0.36 0 0.36 0 0.36 0.01 0.35 0 0.35 0 0.35 0.01 0.34 0 0.34 0.01 0.34 0.01 0.33 0 0.34 0.01 0.33 0.01 0.32 0.01 0.33 0.01 0.32 0.01 0.32 0.01 0.32 0.01 0.31 0.01 0.32 0.02 0.31 0.01 0.32 0.02 0.31 0.01 0.31 0.02 0.31 0.01 0.31 0.02 0.31 0.02 0.31 0.02 0.31 0.02 0.31 0.02 0.31 0.02 0.31 0.02 -0.12 1.71 -0.31 -0.02 -0.3 -0.02 -0.31 -0.02 -0.3 -0.02 -0.31 -0.02 -0.31 -0.02 -0.3 -0.01 -0.31 -0.02 -0.31 -0.02 -0.31 -0.01 -0.31 -0.02 -0.3 -0.01 -0.32 -0.01 -0.31 -0.02 -0.31 -0.01 -0.32 -0.01 -0.32 -0.01 -0.32 -0.01 -0.32 -0.01 -0.33 -0.01 -0.32 -0.01 -0.33 0 -0.34 -0.01 -0.33 0 -0.34 -0.01 -0.35 0 -0.34 -0.01 -0.35 0 -0.36 0 -0.36 0 -0.36 -0.01 -0.36 0 0 0zm0 0c-0.48,0 -0.86,-0.38 -0.86,-0.85 0,-0.48 0.38,-0.86 0.86,-0.86l0 1.71zm-3.68 0.04l-0.04 -1.71 0 0 0.12 0 0.11 -0.01 0.11 0 0.11 0 0.11 0 0.11 0 0.11 -0.01 0.12 0 0.11 0 0.11 0 0.12 0 0.11 0 0.11 -0.01 0.12 0 0.11 0 0.12 0 0.12 0 0.11 0 0.12 0 0.11 0 0.12 0 0.12 -0.01 0.12 0 0.12 0 0.12 0 0.12 0 0.12 0 0.12 0 0.12 0 0.12 0 0.12 0 0.13 0 0 1.71 -0.13 0 -0.12 0 -0.12 0 -0.12 0 -0.12 0 -0.11 0.01 -0.13 0 -0.11 0 -0.12 0 -0.12 0 -0.12 0 -0.11 0 -0.12 0 -0.11 0 -0.12 0 -0.11 0 -0.12 0.01 -0.11 0 -0.11 0 -0.12 0 -0.11 0 -0.11 0 -0.11 0 -0.12 0.01 -0.11 0 -0.11 0 -0.11 0 -0.11 0 -0.11 0 -0.11 0.01 -0.11 0 -0.11 0 0 0zm0 0c-0.47,0.01 -0.86,-0.36 -0.87,-0.84 -0.01,-0.47 0.36,-0.86 0.83,-0.87l0.04 1.71zm-2.72 0.95l-1.04 -1.36 0 0 0.1 -0.07 0.1 -0.08 0.1 -0.07 0.11 -0.07 0.11 -0.07 0.1 -0.06 0.11 -0.07 0.11 -0.06 0.11 -0.05 0.11 -0.06 0.12 -0.06 0.11 -0.05 0.12 -0.05 0.11 -0.04 0.12 -0.05 0.12 -0.04 0.12 -0.04 0.11 -0.04 0.13 -0.03 0.12 -0.03 0.12 -0.03 0.12 -0.03 0.12 -0.03 0.13 -0.02 0.12 -0.02 0.12 -0.02 0.13 -0.02 0.12 -0.01 0.13 -0.01 0.12 -0.01 0.13 -0.01 0.12 0 0.04 1.71 -0.09 0 -0.09 0.01 -0.1 0.01 -0.09 0 -0.09 0.01 -0.09 0.02 -0.09 0.01 -0.09 0.01 -0.09 0.02 -0.09 0.02 -0.09 0.02 -0.09 0.02 -0.09 0.03 -0.08 0.02 -0.09 0.03 -0.09 0.03 -0.08 0.03 -0.09 0.03 -0.09 0.04 -0.08 0.03 -0.08 0.04 -0.08 0.04 -0.08 0.04 -0.08 0.04 -0.09 0.05 -0.07 0.04 -0.08 0.05 -0.08 0.05 -0.08 0.05 -0.07 0.05 -0.07 0.05 -0.08 0.06 0 0zm0 0c-0.37,0.29 -0.91,0.22 -1.2,-0.16 -0.29,-0.37 -0.22,-0.91 0.16,-1.2l1.04 1.36zm-6.76 6.71l-1.35 -1.05 0 0 0.2 -0.26 0.2 -0.25 0.2 -0.25 0.2 -0.24 0.2 -0.24 0.19 -0.24 0.2 -0.23 0.2 -0.23 0.2 -0.23 0.21 -0.23 0.2 -0.22 0.2 -0.22 0.21 -0.22 0.2 -0.21 0.21 -0.21 0.21 -0.22 0.22 -0.21 0.21 -0.2 0.22 -0.21 0.22 -0.21 0.23 -0.21 0.23 -0.2 0.23 -0.21 0.23 -0.2 0.24 -0.21 0.25 -0.21 0.25 -0.2 0.25 -0.21 0.25 -0.21 0.27 -0.2 0.26 -0.22 0.28 -0.21 1.04 1.36 -0.26 0.2 -0.26 0.21 -0.25 0.2 -0.25 0.2 -0.24 0.2 -0.24 0.2 -0.23 0.19 -0.23 0.2 -0.23 0.2 -0.22 0.19 -0.22 0.2 -0.21 0.2 -0.21 0.19 -0.21 0.2 -0.2 0.2 -0.21 0.2 -0.2 0.2 -0.2 0.2 -0.19 0.21 -0.2 0.2 -0.19 0.21 -0.19 0.21 -0.2 0.22 -0.19 0.21 -0.19 0.22 -0.19 0.23 -0.19 0.22 -0.19 0.23 -0.19 0.24 -0.19 0.24 -0.2 0.24 -0.19 0.25 0 0zm0 0c-0.29,0.37 -0.83,0.44 -1.2,0.15 -0.37,-0.29 -0.44,-0.83 -0.15,-1.2l1.35 1.05zm-1.97 5.77l-1.71 -0.03 0 0 0 -0.23 0.01 -0.23 0.02 -0.23 0.02 -0.22 0.02 -0.23 0.03 -0.23 0.03 -0.22 0.04 -0.23 0.04 -0.22 0.04 -0.23 0.05 -0.22 0.05 -0.22 0.06 -0.22 0.06 -0.22 0.07 -0.21 0.07 -0.22 0.07 -0.22 0.08 -0.21 0.09 -0.21 0.09 -0.21 0.09 -0.21 0.09 -0.21 0.1 -0.2 0.11 -0.2 0.11 -0.2 0.11 -0.2 0.12 -0.2 0.12 -0.19 0.13 -0.19 0.13 -0.19 0.14 -0.19 0.14 -0.18 1.35 1.05 -0.12 0.15 -0.11 0.16 -0.11 0.16 -0.11 0.16 -0.1 0.16 -0.1 0.17 -0.1 0.16 -0.09 0.17 -0.09 0.17 -0.08 0.18 -0.08 0.17 -0.08 0.18 -0.08 0.17 -0.07 0.18 -0.06 0.19 -0.07 0.18 -0.06 0.18 -0.05 0.19 -0.06 0.18 -0.05 0.19 -0.04 0.19 -0.04 0.19 -0.04 0.19 -0.04 0.19 -0.03 0.19 -0.02 0.2 -0.03 0.19 -0.02 0.19 -0.01 0.2 -0.02 0.19 0 0.2 -0.01 0.2 0 0zm0 0c-0.01,0.47 -0.4,0.85 -0.87,0.84 -0.47,-0.01 -0.85,-0.4 -0.84,-0.87l1.71 0.03zm-0.02 3.14l-1.72 0 0 0 0 -0.1 0 -0.1 0 -0.1 0 -0.1 0 -0.09 0 -0.11 0 -0.1 0 -0.09 0 -0.1 0 -0.1 0.01 -0.1 0 -0.1 0 -0.1 0 -0.1 0 -0.1 0 -0.1 0 -0.1 0 -0.1 0 -0.1 0 -0.1 0 -0.09 0 -0.1 0.01 -0.1 0 -0.1 0 -0.1 0 -0.1 0 -0.09 0 -0.11 0 -0.09 0 -0.1 0.01 -0.1 0 -0.1 1.71 0.03 0 0.09 0 0.1 0 0.1 -0.01 0.1 0 0.09 0 0.1 0 0.1 0 0.1 0 0.1 0 0.1 0 0.09 0 0.1 -0.01 0.1 0 0.1 0 0.1 0 0.09 0 0.1 0 0.1 0 0.1 0 0.1 0 0.1 0 0.09 0 0.1 0 0.1 0 0.1 0 0.1 0 0.1 0 0.1 0 0.1 0 0.09 0 0.1 0 0.1 0 0zm0 0c0,0.48 -0.39,0.86 -0.86,0.86 -0.47,0 -0.86,-0.38 -0.86,-0.86l1.72 0zm0.36 11.84l-1.71 0.1 0 0 -0.02 -0.36 -0.02 -0.36 -0.03 -0.36 -0.02 -0.37 -0.01 -0.36 -0.02 -0.37 -0.02 -0.37 -0.02 -0.36 -0.02 -0.37 -0.01 -0.37 -0.02 -0.37 -0.01 -0.37 -0.02 -0.37 -0.01 -0.37 -0.01 -0.38 -0.01 -0.37 -0.02 -0.37 -0.01 -0.38 -0.01 -0.37 0 -0.38 -0.01 -0.38 -0.01 -0.37 -0.01 -0.38 0 -0.38 -0.01 -0.38 0 -0.38 -0.01 -0.38 0 -0.38 0 -0.38 -0.01 -0.38 0 -0.38 0 -0.39 1.72 0 0 0.38 0 0.38 0 0.38 0 0.38 0.01 0.38 0 0.37 0 0.38 0.01 0.38 0 0.37 0.01 0.37 0.01 0.38 0.01 0.37 0.01 0.37 0.01 0.38 0.01 0.37 0.01 0.37 0.01 0.37 0.01 0.37 0.02 0.37 0.01 0.36 0.01 0.37 0.02 0.36 0.02 0.37 0.01 0.37 0.02 0.36 0.02 0.36 0.02 0.37 0.02 0.36 0.02 0.36 0.02 0.36 0.02 0.36 0.02 0.36 0 0zm0 0c0.03,0.47 -0.33,0.88 -0.8,0.9 -0.47,0.03 -0.88,-0.32 -0.91,-0.8l1.71 -0.1zm4.41 4.43l-0.12 1.71 0 0 -0.3 -0.03 -0.29 -0.04 -0.3 -0.06 -0.28 -0.06 -0.28 -0.08 -0.28 -0.1 -0.27 -0.1 -0.27 -0.12 -0.26 -0.12 -0.25 -0.14 -0.24 -0.15 -0.24 -0.16 -0.23 -0.17 -0.22 -0.18 -0.22 -0.18 -0.2 -0.2 -0.2 -0.21 -0.19 -0.21 -0.17 -0.22 -0.17 -0.23 -0.16 -0.24 -0.15 -0.25 -0.13 -0.25 -0.13 -0.26 -0.11 -0.27 -0.11 -0.27 -0.09 -0.28 -0.08 -0.28 -0.06 -0.29 -0.06 -0.29 -0.03 -0.3 -0.03 -0.3 1.71 -0.1 0.02 0.22 0.03 0.22 0.04 0.21 0.04 0.21 0.06 0.21 0.07 0.2 0.07 0.2 0.09 0.2 0.09 0.19 0.1 0.18 0.11 0.18 0.12 0.18 0.12 0.17 0.13 0.16 0.14 0.16 0.14 0.15 0.15 0.15 0.16 0.13 0.16 0.14 0.17 0.12 0.18 0.12 0.18 0.11 0.18 0.1 0.19 0.09 0.19 0.08 0.2 0.08 0.21 0.07 0.21 0.06 0.21 0.05 0.21 0.04 0.22 0.03 0.22 0.02 0 0zm0 0c0.47,0.03 0.83,0.44 0.8,0.91 -0.03,0.47 -0.44,0.83 -0.92,0.8l0.12 -1.71zm9.92 0.32l-0.03 1.71 -0.25 -0.01 -0.27 0 -0.28 -0.01 -0.29 0 -0.3 -0.01 -0.31 0 -0.32 -0.01 -0.32 -0.01 -0.33 0 -0.33 -0.01 -0.34 -0.01 -0.35 -0.01 -0.34 -0.01 -0.35 -0.01 -0.35 -0.01 -0.34 -0.01 -0.35 -0.01 -0.35 -0.01 -0.35 -0.01 -0.34 -0.01 -0.33 -0.01 -0.34 -0.01 -0.32 -0.01 -0.32 -0.02 -0.32 -0.01 -0.3 -0.01 -0.3 -0.02 -0.28 -0.01 -0.28 -0.02 -0.26 -0.01 -0.26 -0.02 -0.24 -0.01 0.12 -1.71 0.23 0.01 0.25 0.02 0.25 0.01 0.27 0.02 0.29 0.01 0.29 0.01 0.3 0.02 0.31 0.01 0.31 0.01 0.33 0.02 0.33 0.01 0.33 0.01 0.34 0.01 0.34 0.01 0.35 0.01 0.34 0.01 0.35 0.01 0.35 0.01 0.34 0.01 0.35 0.01 0.34 0.01 0.34 0.01 0.33 0 0.33 0.01 0.32 0.01 0.32 0 0.3 0.01 0.3 0.01 0.29 0 0.28 0.01 0.27 0 0.25 0.01zm0 0c0.47,0 0.85,0.39 0.84,0.87 0,0.47 -0.4,0.85 -0.87,0.84l0.03 -1.71zm22.12 2.41c0.34,0.33 0.34,0.88 0,1.21 -0.33,0.33 -0.88,0.33 -1.21,0l1.21 -1.21zm-3.02 -3.03l3.02 3.03 -1.21 1.21 -3.02 -3.03 1.21 -1.21zm-1.21 1.21c-0.34,-0.33 -0.34,-0.87 0,-1.21 0.33,-0.33 0.88,-0.33 1.21,0l-1.21 1.21zm1.5 -5.86l1.71 0 0 0 -0.01 0.45 -0.02 0.43 -0.04 0.43 -0.06 0.41 -0.07 0.41 -0.09 0.39 -0.1 0.38 -0.12 0.38 -0.14 0.36 -0.15 0.34 -0.17 0.34 -0.19 0.32 -0.21 0.31 -0.21 0.3 -0.24 0.28 -0.25 0.26 -0.27 0.26 -0.28 0.23 -0.29 0.22 -0.31 0.2 -0.33 0.19 -0.33 0.17 -0.35 0.16 -0.36 0.13 -0.37 0.12 -0.38 0.11 -0.4 0.09 -0.4 0.07 -0.42 0.05 -0.42 0.04 -0.43 0.03 -0.45 0.01 0 -1.72 0.38 0 0.37 -0.02 0.36 -0.04 0.35 -0.04 0.33 -0.06 0.31 -0.07 0.31 -0.09 0.29 -0.09 0.28 -0.11 0.26 -0.12 0.26 -0.12 0.24 -0.14 0.22 -0.15 0.22 -0.16 0.2 -0.18 0.2 -0.18 0.18 -0.19 0.17 -0.2 0.16 -0.22 0.15 -0.23 0.14 -0.24 0.13 -0.25 0.12 -0.27 0.1 -0.27 0.1 -0.3 0.08 -0.3 0.07 -0.32 0.06 -0.33 0.05 -0.34 0.03 -0.36 0.02 -0.37 0.01 -0.39 0 0zm0 0c0,-0.47 0.38,-0.85 0.85,-0.85 0.48,0 0.86,0.38 0.86,0.85l-1.71 0zm-6.15 -6.14l0 -1.72 0 0 0.45 0.01 0.43 0.03 0.42 0.03 0.42 0.06 0.4 0.07 0.4 0.09 0.38 0.1 0.37 0.13 0.36 0.13 0.35 0.16 0.33 0.17 0.33 0.18 0.31 0.21 0.29 0.22 0.28 0.23 0.27 0.25 0.25 0.27 0.24 0.28 0.21 0.3 0.21 0.31 0.19 0.32 0.17 0.34 0.15 0.34 0.14 0.36 0.12 0.37 0.1 0.39 0.09 0.39 0.07 0.4 0.06 0.42 0.04 0.42 0.02 0.44 0.01 0.44 -1.71 0 -0.01 -0.38 -0.02 -0.37 -0.03 -0.36 -0.05 -0.34 -0.06 -0.33 -0.07 -0.32 -0.08 -0.3 -0.1 -0.3 -0.1 -0.27 -0.12 -0.27 -0.13 -0.25 -0.14 -0.24 -0.15 -0.23 -0.16 -0.22 -0.17 -0.2 -0.18 -0.19 -0.2 -0.19 -0.2 -0.17 -0.22 -0.16 -0.22 -0.15 -0.24 -0.14 -0.26 -0.12 -0.26 -0.12 -0.28 -0.11 -0.29 -0.09 -0.31 -0.09 -0.31 -0.07 -0.33 -0.06 -0.35 -0.04 -0.36 -0.04 -0.37 -0.02 -0.38 0 0 0zm0 0c-0.47,0 -0.86,-0.39 -0.86,-0.86 0,-0.47 0.39,-0.86 0.86,-0.86l0 1.72zm-6.15 6.14l-1.71 0 0 0 0.01 -0.44 0.02 -0.44 0.04 -0.42 0.06 -0.42 0.07 -0.4 0.09 -0.39 0.1 -0.39 0.12 -0.37 0.14 -0.36 0.15 -0.34 0.17 -0.34 0.19 -0.32 0.2 -0.31 0.22 -0.3 0.24 -0.28 0.25 -0.26 0.27 -0.26 0.28 -0.23 0.29 -0.22 0.31 -0.21 0.33 -0.18 0.33 -0.17 0.35 -0.16 0.36 -0.13 0.37 -0.13 0.38 -0.1 0.4 -0.09 0.4 -0.07 0.42 -0.06 0.42 -0.03 0.43 -0.03 0.45 -0.01 0 1.72 -0.38 0 -0.37 0.02 -0.36 0.04 -0.35 0.04 -0.33 0.06 -0.31 0.07 -0.31 0.09 -0.29 0.09 -0.28 0.11 -0.26 0.11 -0.26 0.13 -0.24 0.14 -0.22 0.15 -0.22 0.16 -0.2 0.17 -0.2 0.19 -0.18 0.19 -0.17 0.2 -0.16 0.22 -0.15 0.23 -0.14 0.24 -0.13 0.25 -0.12 0.27 -0.1 0.27 -0.1 0.3 -0.08 0.3 -0.07 0.32 -0.06 0.33 -0.05 0.34 -0.03 0.36 -0.02 0.37 -0.01 0.38 0 0zm0 0c0,0.48 -0.38,0.86 -0.85,0.86 -0.48,0 -0.86,-0.38 -0.86,-0.86l1.71 0zm6.15 6.15l0 1.72 0 0 -0.45 -0.01 -0.43 -0.03 -0.42 -0.04 -0.42 -0.05 -0.4 -0.07 -0.4 -0.09 -0.38 -0.11 -0.37 -0.12 -0.36 -0.13 -0.35 -0.16 -0.33 -0.17 -0.33 -0.19 -0.31 -0.2 -0.29 -0.22 -0.28 -0.24 -0.27 -0.25 -0.25 -0.26 -0.24 -0.28 -0.22 -0.3 -0.2 -0.31 -0.19 -0.32 -0.17 -0.34 -0.15 -0.34 -0.14 -0.36 -0.12 -0.38 -0.1 -0.38 -0.09 -0.39 -0.07 -0.41 -0.06 -0.41 -0.04 -0.43 -0.02 -0.43 -0.01 -0.45 1.71 0 0.01 0.39 0.02 0.37 0.03 0.36 0.05 0.34 0.06 0.33 0.07 0.32 0.08 0.3 0.1 0.3 0.1 0.27 0.12 0.27 0.13 0.25 0.14 0.24 0.15 0.23 0.16 0.22 0.17 0.2 0.18 0.19 0.2 0.18 0.2 0.18 0.22 0.16 0.22 0.15 0.24 0.14 0.26 0.12 0.26 0.12 0.28 0.11 0.29 0.09 0.31 0.09 0.31 0.07 0.33 0.06 0.35 0.04 0.36 0.04 0.37 0.02 0.38 0 0 0zm0 0c0.47,0 0.86,0.39 0.86,0.86 0,0.47 -0.39,0.86 -0.86,0.86l0 -1.72zm-7.24 -18.28c0.48,0 0.86,0.38 0.86,0.85 0,0.48 -0.38,0.86 -0.86,0.86l0 -1.71zm-11.09 0l11.09 0 0 1.71 -11.09 0 0 -1.71zm0 1.71c-0.47,0 -0.86,-0.38 -0.86,-0.86 0,-0.47 0.39,-0.85 0.86,-0.85l0 1.71zm6.44 6.75c0.47,0 0.85,0.38 0.85,0.85 0,0.48 -0.38,0.86 -0.85,0.86l0 -1.71zm-6.4 0l6.4 0 0 1.71 -6.4 0 0 -1.71zm0 1.71c-0.48,0 -0.86,-0.38 -0.86,-0.86 0,-0.47 0.38,-0.85 0.86,-0.85l0 1.71zm11.05 -18.95c0.48,0 0.86,0.38 0.86,0.86 0,0.47 -0.38,0.85 -0.86,0.85l0 -1.71zm-6.69 0l6.69 0 0 1.71 -6.69 0 0 -1.71zm0 1.71c-0.47,0 -0.86,-0.38 -0.86,-0.85 0,-0.48 0.39,-0.86 0.86,-0.86l0 1.71z"/>
  </g>
 </g>
</svg>
