<!DOCTYPE svg PUBLIC "-//W3C//DTD SVG 1.1//EN" "http://www.w3.org/Graphics/SVG/1.1/DTD/svg11.dtd">

<!-- Creator: CorelDRAW 2021 (64-Bit) -->

<svg xmlns="http://www.w3.org/2000/svg" xml:space="preserve" width="798px" height="64px" version="1.1" style="shape-rendering:geometricPrecision; text-rendering:geometricPrecision; image-rendering:optimizeQuality; fill-rule:evenodd; clip-rule:evenodd"

viewBox="0 0 650 72"
preserveAspectRatio="xMidYMid meet"
 xmlns:xlink="http://www.w3.org/1999/xlink"

 xmlns:xodm="http://www.corel.com/coreldraw/odm/2003">

 <defs>

  <style type="text/css">

   <![CDATA[

    .fil1 {fill:#FEFEFE}

    .fil0 {fill:black;fill-rule:nonzero}

   ]]>

  </style>

 </defs>

 <g id="Layer_x0020_1">

  <metadata id="CorelCorpID_0Corel-Layer"/>

  <path class="fil0" d="M492.56 10.32c0.65,0 1.17,0.52 1.17,1.17 0,0.64 -0.52,1.17 -1.17,1.17l-7.92 0c-0.64,0 -1.16,-0.53 -1.16,-1.17 0,-0.65 0.52,-1.17 1.16,-1.17l7.92 0zm-5.51 20.38c0.65,0 1.17,0.53 1.17,1.17 0,0.65 -0.52,1.17 -1.17,1.17l-7.56 0c-0.65,0 -1.17,-0.52 -1.17,-1.17 0,-0.64 0.52,-1.17 1.17,-1.17l7.56 0zm5.51 -10c0.65,0 1.17,0.52 1.17,1.17 0,0.64 -0.52,1.17 -1.17,1.17l-13.12 0c-0.64,0 -1.16,-0.53 -1.16,-1.17 0,-0.65 0.52,-1.17 1.16,-1.17l13.12 0zm8.56 21.62c2.33,0 4.13,-0.61 5.31,-1.79 1.18,-1.2 1.81,-2.98 1.81,-5.32 0,-1.69 -0.33,-3.1 -0.97,-4.2 -0.28,0.3 -0.56,0.6 -0.82,0.93 -1.37,1.64 -2.64,3.72 -4.45,6.85 -0.08,0.17 -0.19,0.31 -0.34,0.41 -0.53,0.39 -1.26,0.29 -1.64,-0.23l-3.66 -4.92c-0.39,-0.51 -0.29,-1.24 0.24,-1.63 0.52,-0.38 1.25,-0.27 1.63,0.23l2.61 3.52c1.44,-2.45 2.58,-4.21 3.83,-5.72 0.33,-0.4 0.67,-0.79 1.03,-1.15 -1.15,-0.8 -2.69,-1.21 -4.58,-1.21 -2.33,0 -4.12,0.63 -5.31,1.81 -1.18,1.19 -1.8,2.98 -1.8,5.31 0,2.33 0.62,4.12 1.8,5.31 1.19,1.18 2.98,1.8 5.31,1.8l0 0zm6.07 0.61c-1.56,1.13 -3.6,1.74 -6.07,1.74 -2.98,0 -5.32,-0.87 -6.95,-2.5 -1.63,-1.63 -2.49,-3.98 -2.49,-6.96 0,-2.96 0.85,-5.31 2.48,-6.94l0.01 -0.01c1.63,-1.64 3.99,-2.5 6.95,-2.5 2.6,0 4.73,0.66 6.32,1.93 0.82,-0.68 1.75,-1.35 2.82,-2.08 0.53,-0.36 1.25,-0.22 1.61,0.32 0.37,0.53 0.22,1.26 -0.32,1.62 -0.97,0.65 -1.8,1.25 -2.53,1.85 1.02,1.53 1.55,3.48 1.55,5.81 0,2.47 -0.59,4.51 -1.74,6.07l2.91 2.9c0.45,0.46 0.45,1.2 -0.01,1.66 -0.45,0.45 -1.2,0.45 -1.65,-0.02l-2.89 -2.89 0 0zm-1.1 -22.32c0,0.63 -0.52,1.17 -1.16,1.17 -0.65,0 -1.17,-0.54 -1.17,-1.17 0,-2.47 -0.04,-4.54 -0.11,-6.49 -0.06,-1.99 -0.16,-3.99 -0.3,-6.28 -0.1,-1.37 -0.68,-2.6 -1.59,-3.51 -0.9,-0.9 -2.13,-1.49 -3.5,-1.59 -1.97,-0.14 -3.88,-0.23 -5.84,-0.3 -1.93,-0.07 -4.02,-0.1 -6.42,-0.1l-2.23 0 -2.11 0.04c-0.56,0.01 -1.13,0.11 -1.66,0.29 -0.52,0.19 -1.02,0.45 -1.47,0.79 -1.67,1.29 -3.05,2.49 -4.33,3.75 -1.25,1.26 -2.41,2.59 -3.64,4.16 -0.73,0.95 -1.29,2 -1.66,3.11 -0.41,1.17 -0.62,2.39 -0.63,3.62l-0.03 1.86 0 1.86c0,2.46 0.04,4.82 0.1,7.06 0.07,2.31 0.19,4.63 0.33,6.93 0.08,1.36 0.67,2.59 1.57,3.5 0.91,0.91 2.13,1.5 3.5,1.6 1.22,0.08 2.87,0.15 4.62,0.21 2.56,0.08 5.29,0.14 7.11,0.16 0.64,0.02 1.15,0.55 1.15,1.19 -0.02,0.64 -0.55,1.16 -1.19,1.14 -1.86,-0.03 -4.62,-0.09 -7.14,-0.17 -1.83,-0.05 -3.54,-0.13 -4.7,-0.2 -1.95,-0.15 -3.7,-0.99 -4.99,-2.29 -1.3,-1.3 -2.13,-3.05 -2.26,-5 -0.14,-2.25 -0.25,-4.6 -0.32,-7.01 -0.08,-2.42 -0.12,-4.8 -0.12,-7.11 0.02,-1.26 0.04,-2.51 0.04,-3.76 0.02,-1.48 0.27,-2.95 0.74,-4.33 0.48,-1.36 1.15,-2.65 2.05,-3.8 1.26,-1.63 2.48,-3.03 3.84,-4.37 1.34,-1.34 2.79,-2.59 4.54,-3.95 0.64,-0.5 1.36,-0.87 2.12,-1.15 0.75,-0.26 1.57,-0.4 2.39,-0.42l2.14 -0.04 2.24 -0.01c2.28,0 4.4,0.04 6.5,0.11 2.07,0.07 4,0.17 5.92,0.31 1.95,0.12 3.71,0.98 5,2.28 1.28,1.29 2.12,3.05 2.24,5 0.14,2.23 0.25,4.24 0.32,6.35 0.07,2.12 0.11,4.21 0.11,6.56l0 0zm-81.54 -10.29c0.65,0 1.17,0.52 1.17,1.17 0,0.64 -0.52,1.17 -1.17,1.17l-7.91 0c-0.65,0 -1.17,-0.53 -1.17,-1.17 0,-0.65 0.52,-1.17 1.17,-1.17l7.91 0zm-5.5 20.38c0.64,0 1.16,0.53 1.16,1.17 0,0.65 -0.52,1.17 -1.16,1.17l-7.58 0c-0.63,0 -1.17,-0.52 -1.17,-1.17 0,-0.64 0.54,-1.17 1.17,-1.17l7.58 0zm5.5 -10c0.65,0 1.17,0.52 1.17,1.17 0,0.64 -0.52,1.17 -1.17,1.17l-13.11 0c-0.65,0 -1.17,-0.53 -1.17,-1.17 0,-0.65 0.52,-1.17 1.17,-1.17l13.11 0zm8.56 21.62c2.33,0 4.13,-0.62 5.31,-1.8l0.06 -0.06c1.14,-1.19 1.75,-2.95 1.75,-5.25 0,-2.33 -0.63,-4.12 -1.81,-5.3 -1.18,-1.18 -2.98,-1.82 -5.31,-1.82 -2.33,0 -4.12,0.64 -5.31,1.82l-0.06 0.05c-1.13,1.19 -1.75,2.97 -1.75,5.25 0,2.33 0.63,4.12 1.81,5.31 1.19,1.18 2.98,1.8 5.31,1.8zm6.06 0.61c-1.54,1.13 -3.59,1.74 -6.06,1.74 -2.97,0 -5.32,-0.87 -6.95,-2.5 -1.63,-1.64 -2.5,-3.98 -2.5,-6.96 0,-2.92 0.84,-5.25 2.43,-6.88l0.07 -0.07c1.63,-1.64 3.98,-2.5 6.95,-2.5 2.98,0 5.32,0.86 6.96,2.5 1.62,1.64 2.5,3.98 2.5,6.95 0,2.47 -0.61,4.51 -1.74,6.07l2.9 2.9c0.45,0.46 0.45,1.2 -0.02,1.66 -0.45,0.45 -1.19,0.45 -1.64,-0.02l-2.9 -2.89 0 0zm-1.08 -22.32c0,0.63 -0.54,1.17 -1.17,1.17 -0.65,0 -1.17,-0.54 -1.17,-1.17 0,-2.47 -0.04,-4.54 -0.1,-6.49 -0.07,-1.99 -0.18,-3.99 -0.32,-6.28 -0.08,-1.37 -0.67,-2.6 -1.57,-3.51 -0.91,-0.9 -2.14,-1.49 -3.5,-1.59 -1.97,-0.14 -3.89,-0.23 -5.84,-0.3 -1.93,-0.07 -4.03,-0.1 -6.43,-0.1l-2.24 0 -2.1 0.04c-0.57,0.01 -1.14,0.11 -1.67,0.29 -0.52,0.19 -1.01,0.45 -1.45,0.79 -1.67,1.29 -3.06,2.49 -4.33,3.75 -1.26,1.26 -2.42,2.59 -3.64,4.16 -0.73,0.95 -1.29,2 -1.68,3.12l-0.01 0.05c-0.39,1.15 -0.59,2.36 -0.61,3.56l-0.03 1.86 0 1.86c0,2.46 0.04,4.82 0.11,7.05 0.07,2.31 0.18,4.62 0.32,6.94 0.08,1.36 0.67,2.59 1.57,3.5 0.91,0.91 2.14,1.5 3.5,1.6 1.22,0.08 2.88,0.15 4.62,0.21 2.55,0.08 5.29,0.14 7.11,0.16 0.63,0.02 1.15,0.55 1.14,1.19 -0.01,0.63 -0.54,1.16 -1.18,1.14 -1.86,-0.03 -4.62,-0.09 -7.14,-0.17 -1.83,-0.05 -3.55,-0.13 -4.7,-0.2 -1.96,-0.15 -3.71,-0.99 -4.99,-2.29 -1.29,-1.3 -2.13,-3.05 -2.26,-5 -0.14,-2.25 -0.25,-4.6 -0.32,-7.02 -0.07,-2.41 -0.12,-4.79 -0.12,-7.11 0.01,-1.25 0.04,-2.5 0.04,-3.75 0.02,-1.47 0.27,-2.91 0.73,-4.28l0.01 -0.05c0.47,-1.36 1.15,-2.65 2.05,-3.8 1.26,-1.63 2.49,-3.03 3.84,-4.37 1.33,-1.34 2.79,-2.59 4.54,-3.95 0.65,-0.5 1.36,-0.87 2.13,-1.15 0.75,-0.26 1.56,-0.4 2.37,-0.42l2.14 -0.04 2.25 -0.01c2.28,0 4.41,0.04 6.5,0.11 2.07,0.07 4,0.17 5.92,0.3 1.95,0.13 3.7,0.99 4.99,2.29 1.3,1.29 2.13,3.05 2.26,5 0.13,2.23 0.24,4.24 0.31,6.35 0.08,2.12 0.12,4.2 0.12,6.56l0 0zm-71.84 14.81l0 1.22c0,0.65 -0.52,1.17 -1.15,1.17 -0.65,0 -1.17,-0.52 -1.17,-1.17l0 -1.04c-1.01,-0.13 -2.01,-0.55 -2.87,-1.31 -0.47,-0.44 -0.5,-1.17 -0.08,-1.66 0.44,-0.47 1.17,-0.51 1.66,-0.07 0.58,0.53 1.32,0.74 2.03,0.74 0.43,0 0.83,-0.07 1.17,-0.2 0.3,-0.1 0.54,-0.26 0.7,-0.42 0.06,-0.07 0.1,-0.13 0.1,-0.18 0,-0.71 -0.94,-0.89 -1.89,-1.06 -1.88,-0.35 -3.75,-0.7 -3.75,-3.28 0,-0.92 0.38,-1.83 1.15,-2.52 0.46,-0.4 1.05,-0.72 1.78,-0.9l0 -1.18c0,-0.64 0.52,-1.16 1.17,-1.16 0.63,0 1.15,0.52 1.15,1.16l0 1.15c1.51,0.34 2.38,1.32 2.38,1.32 0.46,0.45 0.46,1.2 0,1.65 -0.45,0.46 -1.19,0.46 -1.65,0 0,0 -0.77,-0.85 -2.01,-0.76 -0.58,0.06 -1,0.22 -1.27,0.46 -0.24,0.23 -0.35,0.5 -0.35,0.78 0,0.65 0.91,0.82 1.83,0.99 1.89,0.35 3.79,0.7 3.79,3.35 0,0.66 -0.26,1.25 -0.71,1.74 -0.4,0.44 -0.95,0.8 -1.6,1.04l-0.41 0.14 0 0zm8.61 -5.32c0,-3.26 -0.89,-5.78 -2.56,-7.46l-0.06 -0.06c-1.68,-1.64 -4.19,-2.52 -7.42,-2.52 -2.93,0 -5.45,1.04 -7.22,2.82l-0.07 0.06c-1.71,1.76 -2.74,4.24 -2.74,7.16 0,3.26 0.9,5.79 2.57,7.47 1.68,1.68 4.2,2.57 7.46,2.57 2.95,0 5.47,-1.03 7.24,-2.8 1.76,-1.78 2.8,-4.28 2.8,-7.24zm-0.92 -9.12c2.13,2.13 3.26,5.22 3.26,9.12 0,3.61 -1.3,6.68 -3.5,8.88 -2.21,2.2 -5.29,3.5 -8.88,3.5 -3.9,0 -6.98,-1.14 -9.11,-3.25 -2.13,-2.13 -3.25,-5.22 -3.25,-9.13 0,-3.56 1.26,-6.61 3.41,-8.8l0.08 -0.07c2.21,-2.21 5.29,-3.5 8.87,-3.5 3.87,0 6.92,1.1 9.05,3.2l0.07 0.05zm3.17 -3.21c-0.06,0.64 -0.63,1.11 -1.27,1.05 -0.64,-0.06 -1.11,-0.63 -1.05,-1.26 0.05,-0.61 0.06,-1.14 0.07,-1.74 -0.05,-2.63 -0.95,-5.19 -2.42,-7.24 -1.16,-1.58 -2.67,-2.85 -4.4,-3.53 -1.7,-0.68 -3.64,-0.8 -5.7,-0.16 -2.34,0.75 -4.83,2.49 -7.33,5.54 -0.4,0.51 -1.13,0.58 -1.63,0.17 -0.07,-0.05 -0.13,-0.11 -0.18,-0.18 -2.49,-3.05 -4.99,-4.78 -7.32,-5.53 -2.05,-0.65 -3.99,-0.52 -5.69,0.16 -1.74,0.68 -3.24,1.95 -4.4,3.55 -1.49,2.05 -2.39,4.64 -2.44,7.29 0.01,5.54 2.66,10.73 6.1,14.99 5.31,6.53 12.32,10.81 14.65,10.83 0.64,0 1.16,0.53 1.16,1.17 -0.01,0.64 -0.53,1.16 -1.17,1.16 -2.78,-0.02 -10.71,-4.65 -16.43,-11.69 -3.75,-4.63 -6.64,-10.3 -6.64,-16.46l0.01 -0.01c0.04,-3.15 1.1,-6.23 2.87,-8.66 1.4,-1.93 3.26,-3.47 5.42,-4.33 2.19,-0.87 4.66,-1.04 7.26,-0.22 2.45,0.78 5.01,2.44 7.53,5.24 2.52,-2.8 5.07,-4.46 7.53,-5.24 2.59,-0.82 5.08,-0.65 7.26,0.22 2.15,0.86 4.02,2.4 5.42,4.33 1.75,2.4 2.8,5.44 2.87,8.55l0.01 0.12c-0.02,0.65 -0.05,1.23 -0.09,1.88l0 0zm180.2 11.05c-0.21,0.25 -0.53,0.41 -0.88,0.41 -0.32,0 -0.62,-0.14 -0.83,-0.35l-9.84 -9.83c-0.45,-0.46 -0.45,-1.2 0,-1.66 0.47,-0.45 1.2,-0.45 1.66,0l7.85 7.85 0 -19.54c0,-0.64 0.52,-1.16 1.16,-1.16 0.65,0 1.17,0.52 1.17,1.16l0 19.54 7.84 -7.84c0.46,-0.46 1.19,-0.46 1.64,-0.01 0.46,0.46 0.46,1.2 0.01,1.66l-9.78 9.77 0 0zm20.21 0.52c0,-0.64 0.52,-1.16 1.17,-1.16 0.64,0 1.16,0.52 1.16,1.16l0 5.57c0,1.86 -0.75,3.55 -1.96,4.77 -1.22,1.21 -2.91,1.96 -4.77,1.96l-33.39 0c-1.85,0 -3.53,-0.75 -4.75,-1.96 -1.22,-1.22 -1.97,-2.91 -1.97,-4.77l0 -5.57c0,-0.64 0.52,-1.16 1.17,-1.16 0.64,0 1.16,0.52 1.16,1.16l0 5.57c0,1.22 0.49,2.32 1.29,3.11 0.79,0.79 1.89,1.29 3.1,1.29l33.39 0c1.22,0 2.32,-0.5 3.11,-1.29 0.79,-0.79 1.29,-1.89 1.29,-3.11l0 -5.57 0 0zm-552.78 -9.62c0,-3.1 -1.25,-5.9 -3.27,-7.93 -2.03,-2.02 -4.84,-3.28 -7.93,-3.28 -3.09,0 -5.89,1.26 -7.92,3.28l-0.06 0.06c-2,2.02 -3.23,4.8 -3.23,7.87 0,3.09 1.25,5.89 3.29,7.92 2.03,2.02 4.83,3.28 7.92,3.28 3.09,0 5.91,-1.26 7.93,-3.28 2.02,-2.03 3.27,-4.82 3.27,-7.92zm-1.63 -9.58c2.45,2.45 3.97,5.84 3.97,9.58 0,3.31 -1.2,6.35 -3.18,8.71l9.58 9.58c0.46,0.45 0.46,1.19 0.01,1.64 -0.46,0.46 -1.19,0.46 -1.65,0.01l-9.59 -9.58c-2.35,1.97 -5.39,3.18 -8.71,3.18 -3.74,0 -7.12,-1.53 -9.58,-3.98 -2.45,-2.44 -3.96,-5.84 -3.96,-9.56 0,-3.7 1.49,-7.06 3.9,-9.51l0.06 -0.07c2.46,-2.44 5.84,-3.97 9.58,-3.97 3.74,0 7.12,1.53 9.57,3.97z"/>

  <g id="_3061614464592">

   <path id="Oval" class="fil1" d="M137.64 11.7c-3.41,3.54 -5.5,8.35 -5.5,13.65 0,10.85 8.79,19.66 19.66,19.66 10.85,0 19.66,-8.81 19.66,-19.66 0,-7.34 -4.02,-13.74 -9.98,-17.11 -0.11,4.34 -2.03,8.23 -5.05,10.94 0.17,-0.88 0.25,-1.79 0.25,-2.72 0,-8.48 -6.87,-15.29 -15.33,-15.29 0.13,3.87 -1.18,7.6 -3.71,10.53l0 0zm-42.05 -0.17l-3.92 -2.15c-0.39,-0.22 -0.53,-0.7 -0.32,-1.08 0.07,-0.13 0.19,-0.25 0.32,-0.32l3.92 -2.15c0.14,-0.07 0.24,-0.19 0.32,-0.32l2.16 -3.93c0.21,-0.37 0.69,-0.53 1.07,-0.31 0.14,0.08 0.25,0.19 0.32,0.31l2.15 3.93c0.07,0.13 0.19,0.25 0.32,0.32l3.93 2.15c0.39,0.21 0.53,0.7 0.32,1.08 -0.09,0.14 -0.19,0.25 -0.32,0.32l-3.93 2.15c-0.13,0.08 -0.25,0.19 -0.32,0.32l-2.15 3.92c-0.21,0.39 -0.7,0.53 -1.08,0.32 -0.14,-0.07 -0.24,-0.18 -0.31,-0.32l-2.16 -3.92c-0.08,-0.13 -0.19,-0.24 -0.32,-0.32zm-22.02 21.54l-10.07 -5.54c-1,-0.54 -1.35,-1.78 -0.81,-2.77 0.19,-0.33 0.46,-0.62 0.81,-0.81l10.07 -5.52c0.34,-0.19 0.63,-0.47 0.82,-0.81l5.52 -10.08c0.54,-0.98 1.78,-1.34 2.77,-0.8 0.34,0.19 0.62,0.46 0.81,0.8l5.52 10.08c0.19,0.34 0.47,0.62 0.82,0.81l10.07 5.52c0.98,0.55 1.35,1.79 0.8,2.78 -0.19,0.34 -0.46,0.62 -0.8,0.8l-10.07 5.54c-0.35,0.17 -0.63,0.46 -0.82,0.8l-5.52 10.07c-0.55,1 -1.79,1.35 -2.78,0.82 -0.33,-0.19 -0.61,-0.47 -0.8,-0.82l-5.52 -10.07c-0.19,-0.34 -0.48,-0.63 -0.82,-0.8zm131.36 -27.3l10.52 0 -10.52 0zm18.06 0l10.56 0 -10.56 0zm-21.86 -3.81c2.09,0 3.8,1.71 3.8,3.81 0,2.09 -1.71,3.81 -3.8,3.81 -2.1,0 -3.8,-1.72 -3.8,-3.81 0,-2.1 1.7,-3.81 3.8,-3.81zm36.21 0c-2.09,0 -3.79,1.71 -3.79,3.81 0,2.09 1.7,3.81 3.79,3.81 2.11,0 3.81,-1.72 3.81,-3.81 0,-2.1 -1.7,-3.81 -3.81,-3.81zm-20.67 0.04l5.1 0c0.68,0 1.22,0.54 1.22,1.2l0 5.12c0,0.67 -0.54,1.22 -1.22,1.22l-5.1 0c-0.68,0 -1.22,-0.55 -1.22,-1.22l0 -5.12c0,-0.66 0.54,-1.2 1.22,-1.2zm-18.14 18.11l5.12 0c0.66,0 1.21,0.54 1.21,1.21l0 5.12c0,0.66 -0.55,1.21 -1.21,1.21l-5.12 0c-0.66,0 -1.22,-0.55 -1.22,-1.21l0 -5.12c0,-0.67 0.56,-1.21 1.22,-1.21zm41.39 0l-5.11 0c-0.67,0 -1.21,0.54 -1.21,1.21l0 5.12c0,0.66 0.54,1.21 1.21,1.21l5.11 0c0.68,0 1.22,-0.55 1.22,-1.21l0 -5.12c0,-0.67 -0.54,-1.21 -1.22,-1.21zm-18.74 0.91l11 19.85c0.45,0.83 0.36,1.79 -0.23,2.52 -0.6,0.72 -1.52,0.99 -2.42,0.72l-10.31 -3.25 -10.31 3.25c-0.9,0.27 -1.82,0 -2.42,-0.72 -0.59,-0.73 -0.68,-1.69 -0.23,-2.52l11 -19.85c0.4,-0.73 1.12,-1.16 1.96,-1.16 0.84,0 1.56,0.43 1.96,1.16zm53.39 -19.85l16.2 0c5.4,0 9.82,4.42 9.82,9.81l0 6.64c-1.81,0.36 -3.52,1.25 -4.91,2.64l-11.11 11.09c-1.56,1.58 -2.66,3.77 -2.79,5.95l-0.59 5.23c-0.1,0.87 0,1.71 0.28,2.48l-6.9 0c-5.4,0 -9.82,-4.42 -9.82,-9.83l0 -24.2c0,-5.4 4.42,-9.81 9.82,-9.81l0 0zm10.89 36.39c0.06,-1.13 0.64,-2.52 1.71,-3.59l11.11 -11.11c2.35,-2.35 6.19,-2.35 8.56,0 2.35,2.36 2.35,6.21 0,8.56l-11.11 11.11c-1.07,1.07 -2.48,1.65 -3.58,1.71l-5.45 0.61c-1.14,0.13 -1.98,-0.73 -1.85,-1.91l0.61 -5.38 0 0zm-13.2 -24.63l16.3 0c1.2,0 2.17,0.99 2.17,2.18 0,1.21 -0.97,2.17 -2.17,2.17l-16.3 0c-1.2,0 -2.18,-0.96 -2.18,-2.17 0,-1.19 0.98,-2.18 2.18,-2.18zm0 7.98l10.12 0c1.19,0 2.17,0.97 2.17,2.17 0,1.19 -0.98,2.19 -2.17,2.19l-10.12 0c-1.2,0 -2.18,-0.99 -2.18,-2.18 0,-1.21 0.97,-2.18 2.18,-2.18zm0 7.97l3.93 0c1.2,0 2.18,0.97 2.18,2.18 0,1.19 -0.98,2.17 -2.18,2.17l-3.93 0c-1.2,0 -2.18,-0.98 -2.18,-2.17 0,-1.21 0.98,-2.18 2.18,-2.18z"/>

  </g>

  <path class="fil0" d="M138.47 12.51c-1.63,1.7 -2.94,3.7 -3.84,5.92 -0.85,2.13 -1.32,4.47 -1.32,6.92 0,5.1 2.07,9.73 5.41,13.07 3.34,3.35 7.96,5.42 13.08,5.42 5.11,0 9.73,-2.07 13.07,-5.42l0.06 -0.06c3.31,-3.34 5.36,-7.94 5.36,-13.01 0,-3.4 -0.91,-6.58 -2.51,-9.31 -1.33,-2.29 -3.14,-4.26 -5.31,-5.8 -0.22,1.57 -0.68,3.07 -1.32,4.47 -0.93,2.03 -2.28,3.85 -3.94,5.34 -0.47,0.43 -1.2,0.39 -1.64,-0.09 -0.26,-0.3 -0.34,-0.69 -0.26,-1.04 0.07,-0.41 0.12,-0.8 0.15,-1.19 0.04,-0.37 0.05,-0.8 0.05,-1.27 0,-3.92 -1.57,-7.44 -4.14,-9.99 -2.3,-2.31 -5.41,-3.81 -8.86,-4.09 -0.08,1.65 -0.38,3.26 -0.93,4.8 -0.67,1.91 -1.7,3.71 -3.07,5.29l-0.04 0.04 0 0zm-5.99 5.06c1.01,-2.5 2.47,-4.75 4.3,-6.66 1.15,-1.33 2.04,-2.87 2.6,-4.5 0.58,-1.62 0.86,-3.36 0.81,-5.11l-0.01 -0.13c0,-0.65 0.52,-1.17 1.17,-1.17 4.55,0 8.67,1.84 11.67,4.81 2.84,2.84 4.65,6.72 4.82,11.02 0.45,-0.66 0.85,-1.36 1.19,-2.09 0.78,-1.69 1.23,-3.56 1.29,-5.52 0,-0.19 0.05,-0.38 0.16,-0.56 0.3,-0.55 1.02,-0.76 1.58,-0.44 3.2,1.82 5.89,4.47 7.74,7.65 1.79,3.09 2.82,6.66 2.82,10.48 0,5.71 -2.3,10.89 -6.03,14.65l-0.07 0.07c-3.76,3.77 -8.98,6.1 -14.72,6.1 -5.75,0 -10.96,-2.33 -14.73,-6.1 -3.77,-3.77 -6.1,-8.98 -6.1,-14.72 0,-2.75 0.53,-5.38 1.51,-7.78l0 0zm-37.54 -5.07l-3.84 -2.1c-0.46,-0.26 -0.79,-0.69 -0.93,-1.18 -0.14,-0.47 -0.1,-1 0.16,-1.48 0.1,-0.17 0.2,-0.33 0.33,-0.45 0.12,-0.13 0.28,-0.23 0.45,-0.33l3.83 -2.1 2.11 -3.83 0.08 -0.13c0.26,-0.4 0.65,-0.69 1.09,-0.82 0.47,-0.13 1.02,-0.09 1.49,0.17l0.12 0.07c0.12,0.08 0.23,0.16 0.33,0.26 0.12,0.13 0.23,0.27 0.32,0.45l2.1 3.83 3.83 2.1 0.14 0.09c0.41,0.26 0.68,0.65 0.81,1.08l0.02 0.09c0.11,0.46 0.06,0.95 -0.19,1.4l-0.04 0.09c-0.09,0.14 -0.18,0.26 -0.29,0.36 -0.12,0.12 -0.27,0.23 -0.45,0.32l-3.83 2.11 -2.1 3.84 -0.07 0.12c-0.28,0.41 -0.67,0.68 -1.09,0.81 -0.49,0.14 -1.02,0.1 -1.5,-0.16 -0.17,-0.09 -0.32,-0.2 -0.44,-0.32 -0.13,-0.13 -0.25,-0.29 -0.33,-0.45l-2.11 -3.84 0 0zm-2.12 -3.82l3.34 1.84c0.18,0.1 0.32,0.2 0.44,0.32 0.11,0.11 0.2,0.24 0.28,0.37l1.88 3.41 1.84 -3.33c0.09,-0.18 0.21,-0.33 0.33,-0.45 0.11,-0.12 0.27,-0.24 0.42,-0.32l3.36 -1.84 -3.35 -1.83c-0.16,-0.1 -0.31,-0.22 -0.43,-0.34 -0.12,-0.11 -0.24,-0.26 -0.32,-0.42l-1.85 -3.36 -1.84 3.36c-0.08,0.16 -0.19,0.31 -0.32,0.42 -0.11,0.11 -0.22,0.21 -0.37,0.29l-3.41 1.88 0 0zm-19.81 25.4l-10.07 -5.52c-0.78,-0.42 -1.31,-1.13 -1.54,-1.92 -0.23,-0.78 -0.16,-1.66 0.26,-2.44l0.02 0c0.14,-0.27 0.33,-0.51 0.53,-0.72 0.21,-0.21 0.45,-0.39 0.73,-0.54l10.1 -5.54c0.05,-0.03 0.1,-0.09 0.16,-0.14 0.07,-0.07 0.12,-0.14 0.16,-0.2l5.58 -10.16c0.42,-0.73 1.1,-1.22 1.85,-1.45 0.8,-0.24 1.67,-0.17 2.45,0.26l0.06 0.05c0.25,0.14 0.48,0.3 0.67,0.51 0.2,0.2 0.39,0.45 0.55,0.72l5.53 10.09c0.04,0.06 0.08,0.12 0.14,0.18 0.06,0.06 0.13,0.11 0.19,0.16l10.07 5.52c0.78,0.42 1.32,1.12 1.54,1.91 0.24,0.79 0.17,1.67 -0.26,2.44l-0.05 0.07c-0.13,0.23 -0.3,0.46 -0.5,0.66 -0.21,0.2 -0.45,0.39 -0.73,0.53l-10.09 5.55c-0.06,0.03 -0.12,0.08 -0.17,0.14 -0.07,0.06 -0.12,0.13 -0.15,0.19l-5.52 10.08c-0.44,0.77 -1.14,1.3 -1.93,1.53 -0.78,0.23 -1.65,0.16 -2.43,-0.26l-0.02 0c-0.26,-0.16 -0.51,-0.33 -0.72,-0.55 -0.2,-0.2 -0.38,-0.45 -0.53,-0.73l-5.54 -10.08c-0.04,-0.06 -0.09,-0.12 -0.15,-0.18 -0.06,-0.07 -0.13,-0.12 -0.19,-0.16l0 0zm-8.96 -7.56l10.08 5.52c0.28,0.15 0.53,0.34 0.73,0.54 0.19,0.19 0.37,0.42 0.51,0.66l5.55 10.15c0.04,0.06 0.09,0.13 0.16,0.19 0.06,0.07 0.13,0.12 0.2,0.16 0.21,0.11 0.45,0.13 0.66,0.06 0.22,-0.06 0.41,-0.2 0.53,-0.41l5.52 -10.07c0.16,-0.29 0.35,-0.52 0.55,-0.74 0.19,-0.19 0.41,-0.36 0.66,-0.51l10.13 -5.55c0.07,-0.04 0.14,-0.09 0.2,-0.16 0.06,-0.04 0.11,-0.1 0.14,-0.16l0.02 -0.03c0.11,-0.21 0.14,-0.46 0.07,-0.67 -0.06,-0.21 -0.22,-0.41 -0.43,-0.53l-10.07 -5.52c-0.27,-0.16 -0.52,-0.33 -0.72,-0.55 -0.19,-0.19 -0.37,-0.41 -0.51,-0.66l-5.56 -10.13c-0.03,-0.07 -0.09,-0.14 -0.15,-0.2l-0.2 -0.16c-0.22,-0.11 -0.45,-0.12 -0.66,-0.07 -0.22,0.06 -0.41,0.21 -0.52,0.41l-5.54 10.09c-0.15,0.27 -0.34,0.52 -0.54,0.72 -0.19,0.19 -0.41,0.37 -0.66,0.51l-10.15 5.56c-0.06,0.03 -0.13,0.09 -0.19,0.15 -0.05,0.06 -0.11,0.13 -0.15,0.2 -0.12,0.22 -0.14,0.47 -0.07,0.68 0.06,0.21 0.2,0.4 0.41,0.52zm141.91 -21.92l8.32 0 0 -1.4c0,-0.65 0.27,-1.25 0.7,-1.67 0.43,-0.43 1.03,-0.7 1.69,-0.7l5.1 0c0.67,0 1.26,0.27 1.69,0.7 0.43,0.42 0.7,1.02 0.7,1.67l0 1.4 8.36 0c0.21,-0.9 0.67,-1.71 1.31,-2.35 0.9,-0.9 2.14,-1.46 3.51,-1.46 1.38,0 2.62,0.57 3.53,1.47 0.88,0.9 1.45,2.14 1.45,3.51 0,1.32 -0.53,2.54 -1.38,3.44l-0.07 0.07c-0.91,0.9 -2.15,1.45 -3.53,1.45 -1.32,0 -2.53,-0.52 -3.42,-1.38l-0.09 -0.07c-0.64,-0.64 -1.1,-1.44 -1.31,-2.34l-4.09 0c1.63,0.89 3.12,2 4.42,3.3 2.38,2.37 4.14,5.35 5.03,8.7l2.04 0c0.65,0 1.25,0.27 1.69,0.7 0.43,0.42 0.7,1.02 0.7,1.68l0 5.11c0,0.65 -0.27,1.26 -0.71,1.68 -0.43,0.44 -1.02,0.71 -1.68,0.71l-5.11 0c-0.66,0 -1.25,-0.27 -1.69,-0.71 -0.42,-0.42 -0.69,-1.03 -0.69,-1.68l0 -5.11c0,-0.66 0.27,-1.26 0.69,-1.68 0.44,-0.43 1.03,-0.7 1.69,-0.7l0.65 0c-0.82,-2.7 -2.3,-5.11 -4.24,-7.05 -1.95,-1.95 -4.36,-3.41 -7.06,-4.23l0 0.66c0,0.65 -0.27,1.26 -0.7,1.68 -0.43,0.44 -1.02,0.71 -1.69,0.71l-5.1 0c-0.67,0 -1.26,-0.27 -1.69,-0.7l-0.09 -0.1c-0.37,-0.42 -0.61,-0.98 -0.61,-1.59l0 -0.66c-2.7,0.83 -5.11,2.29 -7.05,4.23 -1.94,1.94 -3.41,4.35 -4.24,7.05l0.66 0c0.65,0 1.25,0.27 1.68,0.7 0.43,0.42 0.7,1.03 0.7,1.68l0 5.11c0,0.65 -0.27,1.26 -0.7,1.68 -0.44,0.44 -1.03,0.71 -1.68,0.71l-5.12 0c-0.65,0 -1.25,-0.27 -1.68,-0.71 -0.43,-0.42 -0.69,-1.03 -0.69,-1.68l0 -5.11c0,-0.65 0.26,-1.26 0.69,-1.68 0.43,-0.43 1.03,-0.7 1.68,-0.7l2.05 0c0.88,-3.34 2.63,-6.33 5.01,-8.69 1.31,-1.31 2.8,-2.42 4.43,-3.31l-4.06 0c-0.22,0.9 -0.68,1.7 -1.32,2.34l-0.08 0.07c-0.89,0.86 -2.1,1.39 -3.43,1.39 -1.37,0 -2.61,-0.56 -3.51,-1.46 -0.9,-0.9 -1.46,-2.14 -1.46,-3.51 0,-1.37 0.55,-2.61 1.46,-3.52 0.9,-0.9 2.14,-1.46 3.51,-1.46 1.37,0 2.62,0.57 3.51,1.47 0.64,0.64 1.1,1.44 1.32,2.34l0 0zm10.66 1.09c0.01,0.59 -0.09,2.62 0.05,2.68l5.1 0 0.04 -0.01 0.01 -0.04 0 -5.12 -0.01 -0.02 -0.04 -0.02 -5.1 0 -0.04 0.02 -0.01 0.02 0 2.49zm-13.63 -1.79c-0.47,-0.47 -1.12,-0.77 -1.86,-0.77 -0.73,0 -1.39,0.3 -1.87,0.77 -0.47,0.47 -0.76,1.14 -0.76,1.87 0,0.72 0.29,1.38 0.76,1.86 0.48,0.48 1.14,0.78 1.87,0.78 0.7,0 1.34,-0.28 1.81,-0.72l0.05 -0.05c0.48,-0.49 0.78,-1.15 0.78,-1.87 0,-0.73 -0.3,-1.4 -0.78,-1.87l0 0zm34.35 -0.77c-0.72,0 -1.38,0.3 -1.85,0.77 -0.49,0.47 -0.78,1.14 -0.78,1.87 0,0.72 0.29,1.38 0.78,1.86l0.05 0.06c0.47,0.44 1.11,0.72 1.8,0.72 0.74,0 1.4,-0.3 1.87,-0.77l0.05 -0.06c0.45,-0.47 0.72,-1.11 0.72,-1.81 0,-0.73 -0.29,-1.39 -0.77,-1.87 -0.47,-0.47 -1.13,-0.77 -1.87,-0.77l0 0zm-33.69 18.14l-5.12 0 -0.03 0.02 -0.02 0.03 0 5.12 0.02 0.03 0.03 0.01 5.12 0 0.02 -0.01 0.03 -0.03 0 -5.12 -0.03 -0.03 -0.02 -0.02zm36.27 0l-5.11 0 -0.03 0.02 -0.01 0.03 0 5.12 0 0.03 0.04 0.01 5.11 0 0.04 -0.01 0.01 -0.03 0 -5.12 -0.01 -0.03 -0.04 -0.02zm-17.68 -0.75l10.95 19.79c0.35,0.62 0.48,1.29 0.42,1.96 -0.06,0.66 -0.32,1.3 -0.76,1.85 -0.45,0.55 -1.03,0.94 -1.67,1.12 -0.63,0.19 -1.32,0.18 -1.99,-0.02l-9.97 -3.14 -9.97 3.14c-0.67,0.2 -1.36,0.21 -1.99,0.02 -0.64,-0.2 -1.22,-0.57 -1.67,-1.12l-0.06 -0.08c-0.41,-0.53 -0.64,-1.15 -0.7,-1.77l0 -0.04c-0.06,-0.65 0.09,-1.31 0.42,-1.92l10.99 -19.84c0.31,-0.56 0.73,-1 1.24,-1.31l0.1 -0.04c0.48,-0.27 1.05,-0.42 1.64,-0.42 0.63,0 1.22,0.17 1.74,0.46 0.51,0.31 0.93,0.75 1.24,1.29l0.04 0.07 0 0zm8.91 20.92l-10.98 -19.85c-0.1,-0.18 -0.24,-0.32 -0.39,-0.42 -0.16,-0.09 -0.35,-0.14 -0.56,-0.14 -0.19,0 -0.37,0.05 -0.51,0.12l-0.03 0.02c-0.17,0.1 -0.3,0.24 -0.39,0.42l-11 19.85c-0.12,0.2 -0.16,0.4 -0.15,0.6l0.01 0.01c0.01,0.19 0.08,0.38 0.2,0.55l0.05 0.04c0.14,0.18 0.33,0.31 0.52,0.37 0.2,0.06 0.42,0.05 0.65,-0.01l10.31 -3.25c0.21,-0.07 0.46,-0.07 0.68,0l10.32 3.25c0.22,0.06 0.44,0.07 0.64,0.01 0.2,-0.06 0.38,-0.19 0.52,-0.37 0.16,-0.17 0.24,-0.37 0.25,-0.59 0.02,-0.2 -0.02,-0.41 -0.14,-0.61l0 0zm43.42 -41.44l16.2 0c3.03,0 5.77,1.24 7.75,3.23l0.07 0.07c1.96,1.98 3.16,4.7 3.16,7.68l0 6.64c0,0.59 -0.44,1.08 -1.01,1.15 -0.77,0.17 -1.54,0.45 -2.25,0.83 -0.71,0.39 -1.38,0.89 -2,1.49l-11.09 11.09c-0.71,0.71 -1.31,1.56 -1.74,2.47 -0.4,0.86 -0.66,1.8 -0.72,2.71l-0.59 5.3c-0.03,0.34 -0.05,0.68 -0.01,1 0.04,0.33 0.12,0.66 0.22,0.96 0.21,0.6 -0.11,1.27 -0.72,1.49 -0.13,0.03 -0.26,0.06 -0.38,0.06l-6.89 0c-3.02,0 -5.77,-1.23 -7.76,-3.23l-0.08 -0.07c-1.95,-1.99 -3.15,-4.71 -3.15,-7.69l0 -24.2c0,-3.01 1.24,-5.77 3.24,-7.75 1.98,-2 4.73,-3.23 7.75,-3.23l0 0zm16.2 2.33l-16.2 0c-2.39,0 -4.55,0.98 -6.12,2.54 -1.56,1.57 -2.53,3.74 -2.53,6.11l0 24.2c0,2.36 0.94,4.5 2.47,6.06l0.07 0.06c1.57,1.57 3.74,2.54 6.11,2.54l5.45 0c-0.04,-0.48 -0.04,-0.96 0.01,-1.44l0.6 -5.21c0.07,-1.2 0.41,-2.41 0.93,-3.52 0.54,-1.17 1.3,-2.25 2.19,-3.13l11.1 -11.1c0.75,-0.76 1.62,-1.39 2.53,-1.88 0.66,-0.36 1.33,-0.64 2.04,-0.84l0 -5.74c0,-2.34 -0.94,-4.48 -2.48,-6.05l-0.06 -0.06c-1.57,-1.56 -3.73,-2.54 -6.11,-2.54l0 0zm-6.47 35.12c0.04,-0.73 0.25,-1.52 0.62,-2.29l0.06 -0.09c0.33,-0.68 0.79,-1.35 1.37,-1.93l11.1 -11.09c1.41,-1.42 3.25,-2.12 5.11,-2.12 1.84,0 3.68,0.71 5.09,2.11 1.41,1.4 2.12,3.26 2.12,5.1 0,1.85 -0.71,3.71 -2.12,5.11l-11.09 11.09c-0.6,0.62 -1.31,1.09 -2.03,1.44 -0.77,0.37 -1.56,0.58 -2.27,0.62l-5.47 0.61c-0.23,0.03 -0.45,0.03 -0.65,0 -0.67,-0.07 -1.23,-0.36 -1.67,-0.8 -0.43,-0.44 -0.71,-1.02 -0.78,-1.68l0 -0.05c-0.03,-0.21 -0.03,-0.45 0.01,-0.68l0.6 -5.35zm2.72 -1.28c-0.24,0.5 -0.38,1 -0.4,1.44 -0.11,1.37 -0.73,4.57 -0.62,5.67 0.02,0.13 0.06,0.24 0.14,0.3 0.05,0.07 0.15,0.1 0.25,0.12 1.68,0.02 3.94,-0.5 5.7,-0.62 0.43,-0.02 0.94,-0.15 1.43,-0.4 0.49,-0.23 0.96,-0.56 1.39,-0.98l11.1 -11.1c0.94,-0.95 1.42,-2.2 1.42,-3.46 0,-1.25 -0.48,-2.5 -1.42,-3.45 -0.95,-0.94 -2.2,-1.43 -3.45,-1.43 -1.26,0 -2.51,0.49 -3.46,1.43l-11.1 11.09c-0.4,0.4 -0.72,0.85 -0.94,1.31l-0.04 0.08 0 0zm-14.76 -24.39l16.3 0c0.92,0 1.76,0.36 2.36,0.98 0.61,0.6 0.98,1.43 0.98,2.35 0,0.92 -0.37,1.76 -0.98,2.36 -0.6,0.61 -1.44,0.99 -2.36,0.99l-16.3 0c-0.93,0 -1.77,-0.38 -2.37,-0.99l-0.07 -0.08c-0.57,-0.6 -0.91,-1.39 -0.91,-2.28 0,-0.92 0.38,-1.75 0.98,-2.35 0.6,-0.62 1.44,-0.98 2.37,-0.98l0 0zm16.3 2.32l-16.3 0c-0.28,0 -0.54,0.12 -0.71,0.3 -0.19,0.19 -0.3,0.44 -0.3,0.71 0,0.26 0.1,0.5 0.25,0.67l0.05 0.05c0.17,0.18 0.43,0.3 0.71,0.3l16.3 0c0.28,0 0.53,-0.12 0.71,-0.3 0.19,-0.19 0.29,-0.44 0.29,-0.72 0,-0.27 -0.1,-0.52 -0.29,-0.71 -0.18,-0.18 -0.43,-0.3 -0.71,-0.3zm-16.3 5.64l10.12 0c0.92,0 1.74,0.38 2.35,0.99 0.61,0.6 0.99,1.44 0.99,2.35 0,0.92 -0.38,1.76 -0.98,2.36 -0.6,0.61 -1.44,0.98 -2.36,0.98l-10.12 0c-0.93,0 -1.77,-0.37 -2.37,-0.98 -0.6,-0.6 -0.98,-1.43 -0.98,-2.35 0,-0.92 0.38,-1.76 0.98,-2.36 0.6,-0.61 1.44,-0.99 2.37,-0.99zm10.12 2.33l-10.12 0c-0.29,0 -0.54,0.12 -0.71,0.3 -0.19,0.18 -0.3,0.44 -0.3,0.72 0,0.27 0.11,0.52 0.3,0.71 0.17,0.18 0.42,0.29 0.71,0.29l10.12 0c0.28,0 0.53,-0.11 0.7,-0.29 0.19,-0.18 0.3,-0.44 0.3,-0.72 0,-0.27 -0.11,-0.52 -0.28,-0.71 -0.19,-0.18 -0.44,-0.3 -0.72,-0.3zm-10.12 5.64l3.93 0c0.92,0 1.76,0.38 2.37,0.98l0.07 0.09c0.57,0.6 0.91,1.4 0.91,2.28 0,0.92 -0.38,1.75 -0.98,2.36l-0.09 0.07c-0.6,0.56 -1.4,0.9 -2.28,0.9l-3.93 0c-0.93,0 -1.77,-0.36 -2.37,-0.97 -0.6,-0.61 -0.98,-1.44 -0.98,-2.36 0,-0.92 0.38,-1.75 0.98,-2.37 0.6,-0.6 1.44,-0.98 2.37,-0.98l0 0zm3.93 2.33l-3.93 0c-0.28,0 -0.54,0.12 -0.71,0.31 -0.19,0.18 -0.3,0.42 -0.3,0.71 0,0.27 0.11,0.53 0.3,0.71 0.17,0.17 0.43,0.29 0.71,0.29l3.93 0c0.26,0 0.5,-0.09 0.68,-0.25l0.03 -0.04c0.19,-0.18 0.3,-0.44 0.3,-0.71 0,-0.26 -0.1,-0.5 -0.25,-0.68l-0.05 -0.03c-0.18,-0.19 -0.44,-0.31 -0.71,-0.31z"/>

 </g>

</svg>
