<?xml version="1.0" encoding="UTF-8"?>
<!DOCTYPE svg PUBLIC "-//W3C//DTD SVG 1.1//EN" "http://www.w3.org/Graphics/SVG/1.1/DTD/svg11.dtd">
<svg xmlns="http://www.w3.org/2000/svg" xml:space="preserve" width="510px" height="30px" version="1.1" style="shape-rendering:geometricPrecision; text-rendering:geometricPrecision; image-rendering:optimizeQuality; fill-rule:evenodd; clip-rule:evenodd"
viewBox="-117.6 -123.59 9971.92 617.95"
preserveAspectRatio="xMidYMid meet"
 xmlns:xlink="http://www.w3.org/1999/xlink"
 xmlns:xodm="http://www.corel.com/coreldraw/odm/2003">
 <defs>
  <style type="text/css">
   <![CDATA[
    .str0 {stroke:black;stroke-width:19.51;stroke-linecap:round;stroke-linejoin:round;stroke-miterlimit:2.61313}
    .str1 {stroke:black;stroke-width:19.51;stroke-linecap:round;stroke-linejoin:round;stroke-miterlimit:2.61313}
    .fil2 {fill:none}
    .fil0 {fill:#FEFEFE}
    .fil1 {fill:black;fill-rule:nonzero}
   ]]>
  </style>
 </defs>
 <g id="Layer_x0020_1">
  <metadata id="CorelCorpID_0Corel-Layer"/>
  <g>
   <path id="Vector_x0020_2137" class="fil0" d="M696.84 118.44c4.21,-34.94 17.42,-65.55 37.05,-90.51 15.35,-19.54 44.44,-19.54 59.79,0 19.61,24.96 32.84,55.57 37.05,90.51 34.94,4.21 65.55,17.42 90.51,37.05 19.55,15.35 19.55,44.44 0,59.79 -24.96,19.61 -55.57,32.84 -90.51,37.05 -4.21,34.94 -17.42,65.55 -37.05,90.51 -15.35,19.55 -44.42,19.55 -59.79,0 -19.61,-24.96 -32.84,-55.57 -37.05,-90.51 -34.94,-4.21 -65.55,-17.42 -90.51,-37.05 -19.55,-15.35 -19.55,-44.44 0,-59.79 24.96,-19.61 55.57,-32.84 90.51,-37.05z"/>
   <path id="_1" class="fil1" d="M726.22 21.9l15.34 12.05 0 0.01 -1.72 2.23 -1.69 2.25 -1.64 2.29 -1.62 2.32 -1.57 2.35 -1.54 2.38 -1.5 2.41 -1.45 2.44 -1.42 2.46 -1.38 2.5 -1.35 2.53 -1.29 2.55 -1.27 2.59 -1.22 2.61 -1.17 2.64 -1.13 2.67 -1.1 2.7 -1.05 2.72 -1 2.76 -0.97 2.78 -0.91 2.81 -0.87 2.83 -0.83 2.87 -0.78 2.89 -0.74 2.91 -0.69 2.95 -0.64 2.97 -0.6 2.99 -0.54 3.02 -0.5 3.05 -0.45 3.08 -0.4 3.1 -19.37 -2.33 0.44 -3.43 0.5 -3.4 0.55 -3.37 0.6 -3.35 0.66 -3.33 0.72 -3.29 0.76 -3.27 0.82 -3.24 0.87 -3.21 0.92 -3.19 0.97 -3.15 1.02 -3.13 1.07 -3.1 1.13 -3.07 1.17 -3.04 1.21 -3 1.27 -2.98 1.31 -2.96 1.36 -2.91 1.41 -2.88 1.45 -2.86 1.5 -2.82 1.54 -2.79 1.59 -2.76 1.63 -2.72 1.67 -2.7 1.72 -2.65 1.76 -2.63 1.8 -2.58 1.84 -2.56 1.88 -2.52 1.92 -2.49 0 0zm0 0c3.33,-4.24 9.46,-4.97 13.7,-1.64 4.23,3.33 4.97,9.46 1.64,13.7l-15.34 -12.06zm75.13 0l-15.34 12.05 0 0 -1.12 -1.34 -1.17 -1.25 -1.21 -1.16 -1.27 -1.06 -1.3 -0.98 -1.34 -0.89 -1.37 -0.81 -1.41 -0.72 -1.44 -0.64 -1.46 -0.55 -1.49 -0.46 -1.5 -0.38 -1.52 -0.3 -1.54 -0.21 -1.54 -0.13 -1.54 -0.04 -1.55 0.04 -1.54 0.13 -1.54 0.21 -1.52 0.3 -1.5 0.38 -1.49 0.46 -1.46 0.55 -1.44 0.64 -1.41 0.72 -1.37 0.81 -1.34 0.89 -1.3 0.98 -1.26 1.06 -1.22 1.16 -1.17 1.25 -1.12 1.34 -15.34 -12.05 1.84 -2.2 1.93 -2.07 2.04 -1.94 2.12 -1.8 2.2 -1.65 2.27 -1.51 2.34 -1.37 2.39 -1.23 2.45 -1.08 2.49 -0.94 2.52 -0.79 2.56 -0.65 2.58 -0.51 2.6 -0.36 2.62 -0.21 2.62 -0.07 2.61 0.07 2.62 0.21 2.6 0.36 2.58 0.51 2.56 0.65 2.52 0.79 2.5 0.94 2.44 1.08 2.39 1.23 2.34 1.37 2.27 1.51 2.2 1.65 2.12 1.8 2.04 1.94 1.93 2.07 1.84 2.2 0 0zm0 0c3.33,4.24 2.59,10.37 -1.64,13.7 -4.24,3.33 -10.37,2.59 -13.7,-1.65l15.34 -12.05zm30.54 86.86l-2.33 19.37 -8.52 -8.52 -0.4 -3.1 -0.45 -3.08 -0.49 -3.04 -0.55 -3.03 -0.6 -2.99 -0.64 -2.97 -0.69 -2.95 -0.74 -2.91 -0.78 -2.89 -0.83 -2.87 -0.87 -2.83 -0.92 -2.81 -0.96 -2.78 -1.01 -2.76 -1.05 -2.72 -1.09 -2.7 -1.14 -2.67 -1.17 -2.64 -1.22 -2.61 -1.26 -2.59 -1.3 -2.55 -1.34 -2.53 -1.38 -2.5 -1.42 -2.47 -1.46 -2.43 -1.5 -2.41 -1.54 -2.38 -1.57 -2.35 -1.61 -2.32 -1.65 -2.29 -1.68 -2.26 -1.72 -2.23 15.34 -12.05 1.92 2.49 1.88 2.52 1.84 2.56 1.8 2.59 1.76 2.62 1.71 2.65 1.68 2.7 1.63 2.72 1.58 2.76 1.54 2.79 1.5 2.82 1.45 2.86 1.41 2.88 1.36 2.91 1.32 2.96 1.26 2.98 1.22 3 1.17 3.04 1.12 3.07 1.07 3.1 1.03 3.13 0.97 3.15 0.92 3.19 0.87 3.21 0.81 3.24 0.77 3.27 0.72 3.29 0.65 3.33 0.61 3.34 0.55 3.38 0.5 3.4 0.44 3.43 -8.52 -8.52zm8.52 8.52c0.65,5.34 -3.17,10.21 -8.52,10.85 -5.34,0.64 -10.2,-3.17 -10.85,-8.52l19.37 -2.33zm86.86 30.54l-12.06 15.34 0 0 -2.23 -1.72 -2.26 -1.69 -2.28 -1.65 -2.32 -1.61 -2.35 -1.57 -2.38 -1.54 -2.41 -1.5 -2.44 -1.46 -2.46 -1.42 -2.5 -1.38 -2.53 -1.34 -2.55 -1.3 -2.59 -1.26 -2.61 -1.21 -2.64 -1.18 -2.67 -1.14 -2.7 -1.09 -2.72 -1.05 -2.75 -1 -2.79 -0.96 -2.81 -0.92 -2.83 -0.88 -2.86 -0.82 -2.89 -0.78 -2.92 -0.74 -2.94 -0.69 -2.97 -0.64 -3 -0.6 -3.02 -0.54 -3.05 -0.5 -3.08 -0.45 -3.1 -0.4 2.33 -19.37 3.43 0.44 3.4 0.5 3.38 0.55 3.34 0.6 3.32 0.66 3.3 0.72 3.27 0.76 3.24 0.82 3.21 0.87 3.19 0.92 3.16 0.97 3.12 1.02 3.1 1.07 3.07 1.12 3.04 1.18 3.01 1.21 2.98 1.27 2.94 1.31 2.92 1.36 2.89 1.41 2.85 1.45 2.82 1.5 2.79 1.54 2.76 1.59 2.72 1.63 2.69 1.67 2.66 1.72 2.63 1.76 2.59 1.8 2.56 1.84 2.51 1.88 2.49 1.92 0 0zm0 0c4.24,3.33 4.97,9.46 1.64,13.7 -3.33,4.23 -9.46,4.97 -13.7,1.64l12.06 -15.34zm0 75.13l-12.06 -15.34 0 0 1.35 -1.12 1.25 -1.17 1.15 -1.21 1.07 -1.26 0.98 -1.31 0.89 -1.34 0.81 -1.37 0.72 -1.41 0.64 -1.44 0.55 -1.46 0.46 -1.48 0.38 -1.51 0.3 -1.53 0.22 -1.53 0.12 -1.54 0.04 -1.54 -0.04 -1.55 -0.12 -1.54 -0.22 -1.53 -0.3 -1.53 -0.38 -1.51 -0.46 -1.48 -0.55 -1.46 -0.64 -1.44 -0.72 -1.41 -0.81 -1.37 -0.89 -1.34 -0.98 -1.3 -1.07 -1.27 -1.15 -1.21 -1.25 -1.17 -1.35 -1.12 12.06 -15.34 2.2 1.83 2.08 1.94 1.93 2.04 1.8 2.12 1.65 2.19 1.51 2.28 1.37 2.34 1.23 2.39 1.08 2.44 0.94 2.5 0.79 2.53 0.65 2.55 0.51 2.58 0.36 2.6 0.21 2.62 0.08 2.62 -0.08 2.61 -0.21 2.62 -0.36 2.6 -0.51 2.58 -0.65 2.55 -0.79 2.53 -0.94 2.5 -1.08 2.44 -1.23 2.39 -1.37 2.34 -1.51 2.28 -1.65 2.19 -1.8 2.12 -1.93 2.04 -2.08 1.94 -2.2 1.83 0 0zm0 0c-4.24,3.33 -10.37,2.59 -13.7,-1.64 -3.33,-4.24 -2.59,-10.37 1.64,-13.7l12.06 15.34zm-86.86 30.54l-19.37 -2.33 8.52 -8.52 3.1 -0.4 3.08 -0.45 3.04 -0.5 3.03 -0.54 2.99 -0.6 2.97 -0.64 2.95 -0.69 2.92 -0.74 2.89 -0.78 2.86 -0.83 2.83 -0.87 2.81 -0.92 2.78 -0.96 2.76 -1.01 2.72 -1.05 2.7 -1.09 2.67 -1.14 2.64 -1.17 2.61 -1.22 2.59 -1.26 2.55 -1.3 2.53 -1.34 2.5 -1.38 2.46 -1.42 2.44 -1.46 2.42 -1.5 2.37 -1.53 2.35 -1.58 2.32 -1.61 2.29 -1.65 2.26 -1.68 2.22 -1.72 12.06 15.34 -2.49 1.92 -2.52 1.88 -2.55 1.84 -2.59 1.8 -2.63 1.76 -2.66 1.72 -2.69 1.67 -2.72 1.63 -2.76 1.58 -2.79 1.55 -2.82 1.49 -2.85 1.45 -2.89 1.41 -2.92 1.36 -2.94 1.31 -2.98 1.27 -3.01 1.22 -3.04 1.17 -3.07 1.12 -3.1 1.07 -3.12 1.03 -3.16 0.97 -3.19 0.92 -3.21 0.87 -3.24 0.81 -3.26 0.77 -3.3 0.72 -3.33 0.65 -3.34 0.61 -3.38 0.55 -3.4 0.5 -3.43 0.44 8.52 -8.52zm-8.52 8.52c-5.34,0.64 -10.2,-3.17 -10.85,-8.52 -0.64,-5.34 3.17,-10.21 8.52,-10.85l2.33 19.37zm-30.54 86.86l-15.34 -12.06 0 0 1.72 -2.23 1.69 -2.26 1.65 -2.28 1.61 -2.32 1.57 -2.35 1.54 -2.38 1.5 -2.41 1.45 -2.44 1.43 -2.47 1.38 -2.49 1.34 -2.53 1.3 -2.55 1.26 -2.59 1.22 -2.61 1.17 -2.64 1.14 -2.67 1.09 -2.7 1.05 -2.72 1 -2.76 0.97 -2.78 0.91 -2.8 0.87 -2.84 0.83 -2.86 0.78 -2.89 0.74 -2.92 0.69 -2.94 0.64 -2.98 0.6 -2.99 0.54 -3.03 0.5 -3.04 0.45 -3.08 0.4 -3.1 19.37 2.33 -0.44 3.43 -0.5 3.4 -0.55 3.37 -0.6 3.35 -0.66 3.32 -0.72 3.3 -0.76 3.27 -0.82 3.24 -0.87 3.21 -0.92 3.19 -0.97 3.15 -1.02 3.13 -1.07 3.1 -1.12 3.07 -1.17 3.04 -1.22 3.01 -1.27 2.97 -1.31 2.95 -1.36 2.92 -1.41 2.88 -1.45 2.86 -1.5 2.82 -1.54 2.79 -1.59 2.76 -1.63 2.72 -1.67 2.69 -1.72 2.66 -1.76 2.63 -1.8 2.59 -1.84 2.55 -1.88 2.52 -1.92 2.49 0 0zm0 0c-3.33,4.23 -9.47,4.97 -13.7,1.64 -4.23,-3.33 -4.97,-9.47 -1.64,-13.7l15.34 12.06zm-75.13 0l15.34 -12.06 0 0 1.12 1.35 1.17 1.25 1.22 1.15 1.26 1.07 1.3 0.98 1.34 0.89 1.37 0.81 1.41 0.72 1.44 0.64 1.47 0.55 1.48 0.46 1.51 0.38 1.52 0.3 1.54 0.21 1.54 0.13 1.54 0.04 1.55 -0.04 1.54 -0.13 1.53 -0.21 1.52 -0.3 1.51 -0.38 1.49 -0.46 1.46 -0.55 1.43 -0.64 1.41 -0.72 1.37 -0.81 1.34 -0.89 1.31 -0.98 1.25 -1.06 1.22 -1.16 1.17 -1.25 1.12 -1.35 15.34 12.06 -1.83 2.2 -1.94 2.07 -2.03 1.94 -2.13 1.8 -2.2 1.65 -2.27 1.51 -2.34 1.37 -2.39 1.23 -2.44 1.08 -2.49 0.94 -2.53 0.79 -2.55 0.65 -2.59 0.51 -2.6 0.36 -2.61 0.21 -2.62 0.07 -2.61 -0.07 -2.62 -0.21 -2.6 -0.36 -2.58 -0.51 -2.56 -0.65 -2.53 -0.79 -2.49 -0.94 -2.44 -1.08 -2.39 -1.23 -2.35 -1.37 -2.26 -1.51 -2.21 -1.65 -2.12 -1.8 -2.03 -1.93 -1.94 -2.08 -1.84 -2.2 0 0zm0 0c-3.33,-4.23 -2.59,-10.37 1.64,-13.7 4.23,-3.33 10.37,-2.59 13.7,1.64l-15.34 12.06zm-30.54 -86.86l2.33 -19.37 8.52 8.52 0.4 3.1 0.45 3.08 0.5 3.04 0.54 3.03 0.6 2.99 0.64 2.97 0.69 2.95 0.74 2.92 0.78 2.89 0.83 2.86 0.87 2.83 0.92 2.81 0.96 2.78 1.01 2.76 1.05 2.72 1.09 2.7 1.14 2.67 1.17 2.64 1.22 2.61 1.26 2.59 1.3 2.55 1.34 2.53 1.38 2.49 1.42 2.47 1.46 2.44 1.5 2.41 1.54 2.38 1.57 2.35 1.61 2.32 1.65 2.29 1.68 2.26 1.72 2.22 -15.34 12.06 -1.92 -2.49 -1.88 -2.52 -1.84 -2.56 -1.8 -2.59 -1.76 -2.62 -1.71 -2.66 -1.68 -2.69 -1.63 -2.72 -1.58 -2.76 -1.54 -2.79 -1.5 -2.82 -1.45 -2.86 -1.41 -2.88 -1.36 -2.92 -1.31 -2.95 -1.27 -2.97 -1.22 -3.01 -1.17 -3.04 -1.12 -3.07 -1.07 -3.1 -1.03 -3.13 -0.97 -3.15 -0.92 -3.19 -0.87 -3.21 -0.81 -3.24 -0.77 -3.27 -0.72 -3.3 -0.65 -3.32 -0.61 -3.34 -0.55 -3.38 -0.5 -3.4 -0.44 -3.43 8.52 8.52zm-8.52 -8.52c-0.64,-5.34 3.17,-10.21 8.52,-10.85 5.34,-0.64 10.2,3.17 10.85,8.52l-19.37 2.33zm-86.86 -30.54l12.06 -15.34 0 0 2.23 1.72 2.26 1.69 2.28 1.65 2.32 1.61 2.35 1.57 2.38 1.54 2.41 1.5 2.44 1.45 2.47 1.43 2.49 1.38 2.53 1.34 2.55 1.3 2.59 1.26 2.61 1.21 2.64 1.18 2.67 1.14 2.7 1.09 2.72 1.05 2.76 1 2.78 0.96 2.8 0.92 2.84 0.87 2.86 0.83 2.89 0.78 2.92 0.74 2.94 0.69 2.98 0.64 2.99 0.6 3.02 0.54 3.05 0.5 3.08 0.45 3.1 0.4 -2.33 19.37 -3.43 -0.44 -3.4 -0.5 -3.37 -0.55 -3.35 -0.61 -3.32 -0.65 -3.3 -0.72 -3.27 -0.76 -3.24 -0.82 -3.21 -0.87 -3.19 -0.92 -3.15 -0.97 -3.13 -1.02 -3.1 -1.07 -3.07 -1.13 -3.04 -1.16 -3.01 -1.22 -2.97 -1.27 -2.95 -1.31 -2.92 -1.36 -2.88 -1.41 -2.86 -1.45 -2.82 -1.5 -2.79 -1.54 -2.76 -1.59 -2.72 -1.63 -2.69 -1.67 -2.66 -1.72 -2.63 -1.76 -2.59 -1.8 -2.55 -1.84 -2.52 -1.88 -2.49 -1.92 0 0zm0 0c-4.23,-3.33 -4.97,-9.46 -1.64,-13.7 3.33,-4.23 9.46,-4.97 13.7,-1.64l-12.06 15.34zm0 -75.13l12.06 15.34 0 0 -1.35 1.12 -1.25 1.17 -1.16 1.21 -1.06 1.27 -0.98 1.3 -0.89 1.34 -0.81 1.37 -0.72 1.41 -0.64 1.44 -0.55 1.46 -0.46 1.49 -0.39 1.5 -0.29 1.52 -0.21 1.54 -0.13 1.54 -0.04 1.55 0.04 1.54 0.13 1.54 0.21 1.54 0.29 1.52 0.39 1.5 0.46 1.49 0.55 1.46 0.64 1.44 0.72 1.41 0.81 1.37 0.89 1.34 0.98 1.31 1.06 1.26 1.16 1.21 1.25 1.17 1.35 1.12 -12.06 15.34 -2.2 -1.83 -2.08 -1.94 -1.93 -2.04 -1.8 -2.12 -1.65 -2.2 -1.51 -2.27 -1.37 -2.34 -1.23 -2.39 -1.08 -2.44 -0.94 -2.5 -0.79 -2.52 -0.65 -2.56 -0.51 -2.58 -0.36 -2.6 -0.21 -2.62 -0.07 -2.61 0.07 -2.62 0.21 -2.62 0.36 -2.59 0.51 -2.59 0.65 -2.56 0.79 -2.52 0.94 -2.5 1.08 -2.44 1.23 -2.39 1.37 -2.34 1.51 -2.27 1.65 -2.2 1.8 -2.12 1.93 -2.04 2.08 -1.94 2.2 -1.83 0 0zm0 0c4.24,-3.33 10.37,-2.59 13.7,1.64 3.33,4.24 2.59,10.37 -1.64,13.7l-12.06 -15.34zm86.86 -30.54l19.37 2.33 -8.52 8.52 -3.1 0.4 -3.08 0.45 -3.05 0.5 -3.02 0.54 -2.99 0.6 -2.98 0.64 -2.94 0.69 -2.91 0.74 -2.89 0.78 -2.87 0.83 -2.83 0.87 -2.81 0.92 -2.78 0.96 -2.76 1.01 -2.72 1.05 -2.7 1.09 -2.67 1.14 -2.64 1.17 -2.61 1.22 -2.58 1.26 -2.56 1.3 -2.53 1.34 -2.49 1.38 -2.47 1.42 -2.44 1.46 -2.41 1.5 -2.38 1.53 -2.35 1.58 -2.32 1.61 -2.29 1.65 -2.26 1.68 -2.22 1.72 -12.06 -15.34 2.49 -1.92 2.52 -1.88 2.56 -1.84 2.58 -1.8 2.63 -1.76 2.66 -1.71 2.69 -1.68 2.72 -1.63 2.76 -1.58 2.79 -1.54 2.82 -1.5 2.85 -1.45 2.89 -1.41 2.92 -1.36 2.94 -1.31 2.98 -1.27 3.01 -1.22 3.04 -1.17 3.07 -1.12 3.1 -1.07 3.13 -1.02 3.15 -0.98 3.19 -0.92 3.21 -0.87 3.24 -0.82 3.27 -0.76 3.3 -0.71 3.32 -0.66 3.35 -0.61 3.37 -0.55 3.4 -0.5 3.43 -0.44 -8.52 8.52zm8.52 -8.52c5.34,-0.64 10.2,3.17 10.85,8.52 0.64,5.34 -3.17,10.21 -8.52,10.85l-2.33 -19.37z"/>
  </g>
  <g>
   <path id="Vector" class="fil0" d="M1326.65 14.73c-1.58,-0.96 -3.41,-1.46 -5.26,-1.46 -1.86,0 -3.69,0.5 -5.28,1.46 -1.64,1.3 -2.59,3.28 -2.59,5.37 0,1.27 0.36,2.52 1.02,3.61 23.56,40.79 33.63,92.3 20.51,133.66 -8.49,26.73 -43,28.28 -57.27,4.1 -2.94,-4.95 -5.62,-10.15 -7.93,-15.42 -32.62,18.12 -52.89,52.53 -52.89,89.86 0,0.88 0.02,1.78 0.04,2.65 2.78,68.76 47.04,118.94 132.16,118.94 85.11,0 129.25,-52.86 132.15,-118.94 3.4,-79.28 -52.88,-176.79 -154.66,-223.83z"/>
   <path id="_1_0" class="fil1" d="M1321.39 23.02l0 -19.51 0 0 0.33 0.01 0.34 0 0.34 0.02 0.34 0.02 0.34 0.02 0.33 0.04 0.34 0.03 0.29 0.04 0.39 0.05 0.33 0.06 0.29 0.05 0.38 0.07 0.34 0.08 0.28 0.06 0.34 0.09 0.33 0.09 0.32 0.09 0.33 0.1 0.35 0.11 0.33 0.11 0.26 0.1 0.32 0.12 0.34 0.14 0.32 0.13 0.32 0.14 0.27 0.13 0.31 0.14 0.33 0.17 0.33 0.17 0.3 0.17 0.25 0.15 0.32 0.19 -10.15 16.66 0.02 0.01 -0.04 -0.02 0 0 0.02 0.01 0.02 0.01 0 0 -0.04 -0.02 0 0 0.01 0 0.02 0.01 0 0 -0.07 -0.02 0.01 0 0.01 0 0 0 -0.01 0 0 0 0.01 0 -0.05 -0.01 -0.01 0 0.05 0.01 -0.06 -0.01 -0.01 0 0.05 0 -0.06 0 0 -0.01 -0.01 0 -0.01 0 0 0 -0.01 0 -0.01 0 -0.01 0 0 0zm0 0c-5.39,0 -9.76,-4.37 -9.76,-9.75 0,-5.39 4.37,-9.76 9.76,-9.76l0 19.51zm0.79 -0.66l-12.15 -15.26 1.05 -0.73 0.3 -0.18 0.27 -0.16 0.33 -0.17 0.28 -0.15 0.31 -0.16 0.34 -0.15 0.26 -0.13 0.32 -0.14 0.34 -0.14 0.32 -0.13 0.31 -0.11 0.28 -0.1 0.34 -0.12 0.32 -0.1 0.33 -0.1 0.33 -0.1 0.32 -0.08 0.35 -0.09 0.28 -0.06 0.32 -0.07 0.41 -0.08 0.27 -0.05 0.33 -0.06 0.4 -0.05 0.28 -0.04 0.34 -0.03 0.34 -0.04 0.33 -0.02 0.34 -0.02 0.34 -0.02 0.34 0 0.34 -0.01 0 19.51 -0.01 0 -0.01 0 -0.01 0 -0.01 0 -0.01 0 -0.01 0 0 0.01 -0.06 0 0.05 0 -0.01 0 -0.07 0.01 0.07 -0.01 -0.01 0 -0.07 0.01 0.02 0 -0.02 0 0 0 0.01 0 -0.02 0.01 0.02 -0.01 -0.05 0.02 -0.02 0.01 0 0 0.02 -0.01 0 0 -0.05 0.02 0.03 -0.01 0 0 -0.03 0.01 0.02 -0.01 -0.02 0.02 -0.01 0 1.05 -0.73zm-1.05 0.73c-4.61,2.77 -10.61,1.28 -13.38,-3.33 -2.78,-4.62 -1.29,-10.61 3.33,-13.39l10.05 16.72zm2.15 -2.99l-19.51 0 0 0 0 -0.49 0.03 -0.48 0.03 -0.44 0.04 -0.44 0.06 -0.45 0.07 -0.49 0.09 -0.48 0.1 -0.45 0.1 -0.43 0.13 -0.49 0.14 -0.43 0.15 -0.44 0.15 -0.43 0.17 -0.43 0.18 -0.42 0.18 -0.37 0.21 -0.44 0.24 -0.44 0.24 -0.42 0.22 -0.37 0.25 -0.38 0.26 -0.39 0.29 -0.39 0.29 -0.38 0.28 -0.34 0.29 -0.33 0.34 -0.37 0.35 -0.37 0.29 -0.28 0.35 -0.32 0.38 -0.33 0.36 -0.29 12.15 15.26 0.06 -0.05 0.09 -0.08 0.06 -0.05 0.01 -0.01 0.08 -0.09 0.08 -0.09 0.04 -0.04 0.04 -0.04 0.05 -0.08 0.06 -0.07 0.05 -0.07 0.04 -0.06 0.03 -0.05 0.04 -0.09 0.06 -0.1 0.04 -0.09 0.02 -0.03 0.03 -0.07 0.03 -0.07 0.02 -0.07 0.03 -0.07 0.02 -0.07 0.03 -0.12 0.01 -0.06 0.02 -0.07 0.02 -0.1 0.01 -0.11 0.01 -0.06 0.01 -0.05 0 -0.06 0.01 -0.09 0 -0.1 0 0zm0 0c0,5.39 -4.37,9.76 -9.76,9.76 -5.38,0 -9.75,-4.37 -9.75,-9.76l19.51 0zm-0.29 -1.27l-16.9 9.75 0.15 0.24 -0.16 -0.26 -0.15 -0.25 -0.11 -0.2 -0.17 -0.33 -0.14 -0.26 -0.1 -0.21 -0.11 -0.23 -0.12 -0.28 -0.12 -0.27 -0.11 -0.28 -0.11 -0.27 -0.09 -0.25 -0.09 -0.26 -0.1 -0.28 -0.08 -0.28 -0.09 -0.29 -0.07 -0.28 -0.07 -0.27 -0.07 -0.26 -0.05 -0.27 -0.06 -0.29 -0.07 -0.36 -0.04 -0.28 -0.03 -0.19 -0.04 -0.28 -0.03 -0.28 -0.03 -0.28 -0.03 -0.36 -0.01 -0.28 -0.01 -0.28 -0.01 -0.28 0 -0.28 19.51 0 0 -0.04 0 -0.04 0 -0.04 -0.01 -0.05 -0.01 -0.12 0 -0.04 -0.01 -0.05 0 -0.04 0 0.04 0 -0.04 -0.03 -0.13 -0.01 -0.06 -0.01 -0.04 0 -0.03 -0.01 -0.04 -0.02 -0.05 -0.02 -0.06 -0.01 -0.06 -0.02 -0.05 -0.01 -0.04 -0.02 -0.03 -0.02 -0.05 -0.02 -0.06 -0.02 -0.06 -0.03 -0.05 -0.01 -0.03 0 0.02 -0.02 -0.06 -0.06 -0.11 0 0.01 -0.03 -0.06 -0.03 -0.05 0.14 0.24zm-0.14 -0.24c2.82,4.58 1.4,10.6 -3.19,13.42 -4.58,2.83 -10.6,1.4 -13.42,-3.19l16.61 -10.23zm21.5 141.73l-18.59 -5.9 -0.01 0 1.06 -3.57 0.95 -3.64 0.82 -3.69 0.71 -3.75 0.59 -3.8 0.47 -3.84 0.36 -3.89 0.24 -3.93 0.13 -3.97 0.02 -3.99 -0.1 -4.03 -0.2 -4.05 -0.31 -4.07 -0.41 -4.09 -0.53 -4.09 -0.62 -4.11 -0.73 -4.11 -0.83 -4.1 -0.93 -4.11 -1.03 -4.09 -1.12 -4.08 -1.22 -4.06 -1.31 -4.04 -1.4 -4.02 -1.49 -3.99 -1.58 -3.95 -1.66 -3.92 -1.75 -3.87 -1.83 -3.82 -1.91 -3.78 -1.98 -3.72 -2.07 -3.67 16.9 -9.75 2.28 4.04 2.19 4.11 2.1 4.16 2.01 4.21 1.93 4.27 1.83 4.31 1.74 4.35 1.63 4.39 1.55 4.42 1.44 4.46 1.35 4.48 1.24 4.5 1.13 4.53 1.03 4.55 0.93 4.55 0.81 4.57 0.7 4.58 0.58 4.58 0.47 4.57 0.34 4.58 0.23 4.57 0.11 4.55 -0.02 4.55 -0.15 4.52 -0.28 4.5 -0.41 4.48 -0.55 4.45 -0.68 4.41 -0.83 4.38 -0.96 4.34 -1.12 4.29 -1.26 4.24 0 0zm0 0c-1.63,5.13 -7.11,7.98 -12.25,6.35 -5.13,-1.63 -7.97,-7.11 -6.35,-12.25l18.6 5.9zm-74.96 6.13l16.78 -9.95 0.01 0.02 1.04 1.63 1.11 1.5 1.17 1.37 1.23 1.26 1.28 1.14 1.33 1.03 1.37 0.91 1.4 0.81 1.44 0.69 1.47 0.59 1.48 0.48 1.5 0.38 1.5 0.27 1.51 0.17 1.49 0.06 1.49 -0.03 1.46 -0.15 1.43 -0.24 1.4 -0.34 1.36 -0.44 1.33 -0.53 1.27 -0.62 1.22 -0.72 1.17 -0.83 1.12 -0.91 1.05 -1.02 1.01 -1.12 0.93 -1.23 0.87 -1.35 0.79 -1.48 0.72 -1.62 0.64 -1.76 18.59 5.9 -1.11 3.1 -1.31 2.95 -1.51 2.8 -1.68 2.63 -1.86 2.44 -2.01 2.27 -2.16 2.07 -2.28 1.88 -2.4 1.68 -2.51 1.48 -2.58 1.27 -2.66 1.07 -2.71 0.87 -2.77 0.67 -2.79 0.48 -2.82 0.27 -2.84 0.08 -2.83 -0.13 -2.83 -0.31 -2.82 -0.51 -2.78 -0.7 -2.75 -0.9 -2.69 -1.08 -2.65 -1.28 -2.57 -1.47 -2.49 -1.67 -2.39 -1.85 -2.3 -2.04 -2.17 -2.22 -2.04 -2.4 -1.91 -2.59 -1.75 -2.75 0.01 0.02zm-0.01 -0.02c-2.73,-4.64 -1.19,-10.62 3.45,-13.36 4.63,-2.74 10.62,-1.19 13.35,3.45l-16.8 9.91zm5.2 -11.85l-9.47 -17.06 13.67 4.61 0.2 0.46 0.21 0.47 0.2 0.44 0.21 0.46 0.21 0.46 0.21 0.44 0.21 0.45 0.23 0.48 0.22 0.46 0.21 0.44 0.22 0.45 0.23 0.47 0.23 0.46 0.22 0.44 0.22 0.44 0.23 0.45 0.24 0.46 0.24 0.45 0.24 0.46 0.23 0.44 0.24 0.43 0.25 0.46 0.24 0.44 0.24 0.44 0.25 0.46 0.25 0.44 0.25 0.44 0.24 0.43 0.26 0.43 0.26 0.46 0.25 0.43 0.25 0.43 -16.78 9.95 -0.29 -0.5 -0.3 -0.51 -0.28 -0.48 -0.29 -0.5 -0.29 -0.51 -0.28 -0.5 -0.29 -0.51 -0.27 -0.5 -0.29 -0.51 -0.27 -0.51 -0.27 -0.5 -0.29 -0.52 -0.27 -0.52 -0.27 -0.51 -0.26 -0.51 -0.26 -0.5 -0.27 -0.52 -0.27 -0.53 -0.27 -0.53 -0.25 -0.51 -0.25 -0.51 -0.26 -0.53 -0.26 -0.54 -0.25 -0.51 -0.24 -0.51 -0.25 -0.52 -0.25 -0.54 -0.24 -0.52 -0.24 -0.53 -0.24 -0.55 -0.24 -0.52 -0.23 -0.52 13.67 4.61zm-13.67 -4.61c-2.16,-4.94 0.08,-10.69 5.02,-12.86 4.93,-2.16 10.69,0.09 12.85,5.02l-17.87 7.84zm-34.19 85.94l-19.52 0 0 0 0.07 -3.82 0.19 -3.8 0.32 -3.78 0.45 -3.74 0.57 -3.73 0.69 -3.69 0.81 -3.65 0.93 -3.62 1.05 -3.58 1.16 -3.53 1.28 -3.49 1.39 -3.44 1.5 -3.38 1.61 -3.34 1.72 -3.27 1.83 -3.22 1.92 -3.16 2.04 -3.09 2.13 -3.03 2.23 -2.96 2.34 -2.88 2.42 -2.81 2.53 -2.73 2.62 -2.65 2.7 -2.57 2.8 -2.48 2.89 -2.4 2.98 -2.3 3.06 -2.21 3.14 -2.11 3.23 -2.02 3.31 -1.91 9.47 17.06 -2.73 1.58 -2.67 1.66 -2.6 1.75 -2.53 1.83 -2.46 1.9 -2.39 1.98 -2.31 2.05 -2.24 2.12 -2.16 2.19 -2.09 2.26 -2.01 2.33 -1.92 2.38 -1.85 2.44 -1.77 2.51 -1.67 2.55 -1.6 2.62 -1.51 2.66 -1.42 2.71 -1.33 2.76 -1.24 2.8 -1.15 2.84 -1.06 2.88 -0.96 2.92 -0.87 2.96 -0.77 2.98 -0.67 3.02 -0.57 3.05 -0.47 3.07 -0.37 3.11 -0.26 3.12 -0.16 3.14 -0.05 3.16 0 0zm0 0c0,5.39 -4.37,9.76 -9.76,9.76 -5.39,0 -9.76,-4.37 -9.76,-9.76l19.52 0zm0.03 2.25l-19.49 0.79 -0.01 -0.15 0 -0.09 0 -0.08 -0.01 -0.09 0 -0.08 0 -0.08 0 -0.08 0 -0.09 -0.01 -0.08 0 -0.08 0 -0.08 0 -0.09 0 -0.08 -0.01 -0.08 0 -0.2 0 -0.09 0 0.04 0 -0.08 -0.01 -0.21 0 -0.08 0 0.04 0 -0.21 0 -0.08 0 -0.08 0 -0.08 0 -0.09 0 -0.19 0 0.03 -0.01 -0.08 0 -0.2 0 -0.09 0 -0.08 0 -0.08 19.52 0 0 0.08 0 0.08 0 0.09 0 -0.04 0 0.09 0 0.2 0 -0.04 0 0.09 0 0.08 0 0.08 0 0.09 0 -0.03 0 0.19 0 0.09 0 -0.03 0.01 0.08 0 0.2 0 0.08 0 -0.03 0 0.08 0 0.08 0.01 0.09 0 0.08 0 0.08 0 0.08 0 0.08 0.01 0.09 0 0.08 0 0.08 0 0.08 0 0.08 0 0.07 0 -0.15zm0 0.15c0.14,5.39 -4.12,9.86 -9.5,10 -5.39,0.13 -9.87,-4.13 -10,-9.51l19.5 -0.49zm122.41 109.44l0 19.51 0 0 -8.23 -0.16 -8 -0.45 -7.78 -0.76 -7.54 -1.05 -7.32 -1.34 -7.09 -1.63 -6.86 -1.91 -6.63 -2.19 -6.39 -2.46 -6.15 -2.73 -5.91 -3 -5.67 -3.25 -5.41 -3.51 -5.17 -3.75 -4.91 -3.99 -4.65 -4.22 -4.38 -4.45 -4.13 -4.65 -3.85 -4.86 -3.59 -5.06 -3.32 -5.24 -3.06 -5.42 -2.78 -5.59 -2.52 -5.75 -2.24 -5.91 -1.98 -6.04 -1.71 -6.19 -1.46 -6.32 -1.18 -6.44 -0.92 -6.55 -0.67 -6.67 -0.4 -6.77 19.49 -0.79 0.36 6.01 0.58 5.89 0.82 5.76 1.03 5.61 1.26 5.48 1.48 5.34 1.69 5.18 1.92 5.03 2.13 4.87 2.34 4.71 2.56 4.55 2.78 4.38 2.99 4.21 3.2 4.04 3.43 3.87 3.63 3.68 3.87 3.51 4.08 3.32 4.31 3.13 4.54 2.94 4.78 2.74 5 2.54 5.25 2.33 5.5 2.12 5.73 1.9 5.98 1.66 6.23 1.43 6.49 1.19 6.73 0.94 6.98 0.68 7.24 0.41 7.5 0.14 0 0zm0 0c5.38,0 9.75,4.37 9.75,9.75 0,5.39 -4.37,9.76 -9.75,9.76l0 -19.51zm122.4 -109.61l19.5 0.83 0 0.01 -0.42 6.55 -0.68 6.47 -0.93 6.38 -1.2 6.29 -1.45 6.19 -1.72 6.08 -1.99 5.96 -2.24 5.84 -2.52 5.7 -2.78 5.56 -3.04 5.41 -3.31 5.24 -3.58 5.07 -3.85 4.89 -4.1 4.69 -4.38 4.5 -4.63 4.28 -4.89 4.06 -5.15 3.83 -5.41 3.59 -5.65 3.34 -5.91 3.08 -6.14 2.83 -6.4 2.55 -6.62 2.27 -6.87 1.99 -7.1 1.7 -7.33 1.4 -7.56 1.1 -7.79 0.8 -8.02 0.48 -8.24 0.16 0 -19.51 7.47 -0.15 7.22 -0.43 6.97 -0.71 6.72 -0.98 6.46 -1.24 6.22 -1.48 5.97 -1.73 5.73 -1.97 5.48 -2.19 5.25 -2.41 5.01 -2.61 4.77 -2.82 4.55 -3.02 4.31 -3.21 4.1 -3.4 3.87 -3.58 3.65 -3.75 3.43 -3.92 3.21 -4.09 3 -4.25 2.79 -4.4 2.56 -4.56 2.36 -4.7 2.13 -4.85 1.92 -4.98 1.7 -5.11 1.48 -5.24 1.26 -5.35 1.04 -5.47 0.81 -5.58 0.6 -5.67 0.36 -5.77 0 0.01zm0 -0.01c0.24,-5.38 4.8,-9.55 10.18,-9.32 5.38,0.24 9.55,4.79 9.32,10.17l-19.5 -0.85zm-149.99 -215.07l10.15 -16.66 -0.98 -0.53 9.72 4.71 9.45 5 9.17 5.29 8.89 5.55 8.6 5.8 8.31 6.05 8.02 6.28 7.73 6.49 7.43 6.69 7.13 6.89 6.84 7.05 6.53 7.23 6.22 7.38 5.91 7.52 5.6 7.64 5.28 7.76 4.97 7.86 4.65 7.95 4.33 8.03 4 8.09 3.68 8.15 3.34 8.18 3.01 8.22 2.67 8.24 2.34 8.24 1.98 8.23 1.65 8.21 1.29 8.19 0.94 8.14 0.58 8.09 0.21 8.02 -0.15 7.93 -19.5 -0.83 0.14 -7.03 -0.19 -7.13 -0.52 -7.24 -0.84 -7.31 -1.17 -7.39 -1.49 -7.45 -1.8 -7.48 -2.13 -7.52 -2.45 -7.54 -2.76 -7.54 -3.08 -7.53 -3.39 -7.51 -3.69 -7.48 -4.01 -7.42 -4.31 -7.37 -4.61 -7.3 -4.9 -7.2 -5.21 -7.11 -5.5 -6.99 -5.79 -6.87 -6.08 -6.73 -6.37 -6.58 -6.65 -6.42 -6.93 -6.24 -7.21 -6.06 -7.49 -5.85 -7.76 -5.65 -8.03 -5.42 -8.3 -5.18 -8.57 -4.94 -8.82 -4.67 -9.09 -4.41 -0.99 -0.52zm0.99 0.52c-4.9,-2.26 -7.03,-8.05 -4.77,-12.94 2.26,-4.9 8.06,-7.03 12.95,-4.77l-8.18 17.71z"/>
  </g>
  <g>
   <path id="Intersect" class="fil0" d="M8789.96 277.23c4.34,40.49 36.89,73.04 77.35,77.56 30.06,3.35 60.93,6.22 92.39,6.22 31.45,0 62.32,-2.88 92.38,-6.22 40.46,-4.52 73.03,-37.07 77.35,-77.56 3.19,-29.88 5.89,-60.57 5.89,-91.85 0,-31.27 -2.7,-61.96 -5.89,-91.84 -4.34,-40.49 -36.89,-73.04 -77.35,-77.56 -30.06,-3.35 -60.93,-6.22 -92.38,-6.22 -31.46,0 -62.33,2.87 -92.39,6.22 -40.46,4.52 -73.01,37.07 -77.35,77.56 -3.2,29.88 -5.89,60.57 -5.89,91.84 0,31.28 2.69,61.97 5.89,91.85zm99.48 -74.28l51.09 52.69c24.05,-69.07 44.07,-99.37 89.42,-140.5l-140.51 87.81z"/>
   <path id="_1_1" class="fil2 str0" d="M8789.96 277.23c4.34,40.49 36.89,73.04 77.35,77.56 30.06,3.35 60.93,6.22 92.39,6.22 31.45,0 62.32,-2.88 92.38,-6.22 40.46,-4.52 73.03,-37.07 77.35,-77.56 3.19,-29.88 5.89,-60.57 5.89,-91.85 0,-31.27 -2.7,-61.96 -5.89,-91.84 -4.34,-40.49 -36.89,-73.04 -77.35,-77.56 -30.06,-3.35 -60.93,-6.22 -92.38,-6.22 -31.46,0 -62.33,2.87 -92.39,6.22 -40.46,4.52 -73.01,37.07 -77.35,77.56 -3.2,29.88 -5.89,60.57 -5.89,91.84 0,31.28 2.69,61.97 5.89,91.85zm99.48 -74.28l51.09 52.69c24.05,-69.07 44.07,-99.37 89.42,-140.5"/>
  </g>
  <path id="Vector_2" class="fil2 str0" d="M9363.27 277.07l0 27.98c0.01,-0.01 0.01,-0.01 0.01,-0.01 0,30.9 25.04,55.95 55.93,55.96l251.8 0.01c30.9,-0.01 55.96,-25.06 55.96,-55.97l0 -27.96m-90.13 -124.38c-18.32,36.63 -55.02,73.32 -91.71,91.68 -36.68,-18.36 -73.38,-55.03 -91.74,-91.75m91.71 -142.87l0 233.62"/>
  <g>
   <path id="Vector_3" class="fil0" d="M346.97 353.99l-60.31 -60.3 60.31 60.3zm-178.73 -20.23c101.44,0 158.5,-57.05 158.5,-158.5 0,-101.45 -57.05,-158.48 -158.5,-158.48 -101.45,0 -158.48,57.04 -158.48,158.48 0,101.44 57.04,158.5 158.49,158.5l-0.01 0z"/>
   <path id="_1_3" class="fil2 str0" d="M346.97 353.99l-60.31 -60.3m-118.42 40.07c101.44,0 158.5,-57.05 158.5,-158.5 0,-101.45 -57.05,-158.48 -158.5,-158.48 -101.45,0 -158.48,57.04 -158.48,158.48 0,101.44 57.04,158.5 158.49,158.5l-0.01 0z"/>
  </g>
  <g>
   <path id="Intersect_4" class="fil0" d="M7703.92 61.05c1.74,-13.16 12.41,-23.47 25.63,-24.72 31.85,-3.01 65.11,-6.8 99.32,-6.8 34.2,0 67.46,3.79 99.32,6.8 13.22,1.25 23.88,11.56 25.62,24.72 3.4,25.58 7.28,52.2 7.28,79.54 0,27.35 -3.88,53.97 -7.27,79.54 -1.75,13.17 -12.4,23.47 -25.62,24.72l-224.28 -183.8zm169.85 248.66c-1.75,13.17 -12.4,23.47 -25.62,24.72 -31.86,3.01 -65.12,6.81 -99.32,6.81 -34.21,0 -67.47,-3.8 -99.33,-6.81 -13.21,-1.25 -23.88,-11.55 -25.62,-24.72 -3.39,-25.57 -7.27,-52.19 -7.27,-79.53 0,-27.35 3.88,-53.97 7.27,-79.55 1.74,-13.16 12.41,-23.46 25.62,-24.71 31.86,-3.01 65.12,-6.81 99.33,-6.81 34.2,0 67.46,3.8 99.32,6.81 13.22,1.25 23.88,11.55 25.62,24.71 3.39,25.58 7.27,52.2 7.27,79.55 0,27.34 -3.88,53.96 -7.27,79.53zm2.77 -22.89c-13.83,-16.55 -25.58,-27.61 -42.21,-39.42 -15.59,-11.06 -36.45,-11.9 -52.05,-0.83 -34.02,24.19 -62.78,58.64 -82.29,92.52l176.55 -52.27zm-172.62 -50.99c-21.58,0 -33.73,-12.15 -33.73,-33.73 0,-21.58 12.15,-33.73 33.73,-33.73 21.58,0 33.73,12.15 33.73,33.73 0,21.58 -12.15,33.73 -33.73,33.73z"/>
   <path id="_1_5" class="fil2 str0" d="M7703.92 61.05c1.74,-13.16 12.41,-23.47 25.63,-24.72 31.85,-3.01 65.11,-6.8 99.32,-6.8 34.2,0 67.46,3.79 99.32,6.8 13.22,1.25 23.88,11.56 25.62,24.72 3.4,25.58 7.28,52.2 7.28,79.54 0,27.35 -3.88,53.97 -7.27,79.54 -1.75,13.17 -12.4,23.47 -25.62,24.72m-54.43 64.86c-1.75,13.17 -12.4,23.47 -25.62,24.72 -31.86,3.01 -65.12,6.81 -99.32,6.81 -34.21,0 -67.47,-3.8 -99.33,-6.81 -13.21,-1.25 -23.88,-11.55 -25.62,-24.72 -3.39,-25.57 -7.27,-52.19 -7.27,-79.53 0,-27.35 3.88,-53.97 7.27,-79.55 1.74,-13.16 12.41,-23.46 25.62,-24.71 31.86,-3.01 65.12,-6.81 99.33,-6.81 34.2,0 67.46,3.8 99.32,6.81 13.22,1.25 23.88,11.55 25.62,24.71 3.39,25.58 7.27,52.2 7.27,79.55 0,27.34 -3.88,53.96 -7.27,79.53zm2.77 -22.89c-13.83,-16.55 -25.58,-27.61 -42.21,-39.42 -15.59,-11.06 -36.45,-11.9 -52.05,-0.83 -34.02,24.19 -62.78,58.64 -82.29,92.52m3.93 -103.26c-21.58,0 -33.73,-12.15 -33.73,-33.73 0,-21.58 12.15,-33.73 33.73,-33.73 21.58,0 33.73,12.15 33.73,33.73 0,21.58 -12.15,33.73 -33.73,33.73z"/>
  </g>
  <g>
   <path id="Vector_x0020_1187" class="fil0" d="M8339.71 157.71l13.69 0c15.22,0 27.56,12.35 27.56,27.57l0 75.37 -41.25 -102.94zm0.41 102.95l82.08 0 -82.08 0zm41.25 -165.79l0 8.9 0 -8.9zm-176.83 182.36c4.33,40.49 36.89,73.04 77.35,77.56 30.06,3.35 60.92,6.22 92.38,6.22 31.46,0 62.33,-2.88 92.38,-6.22 40.47,-4.52 73.03,-37.07 77.36,-77.56 3.19,-29.88 5.89,-60.57 5.89,-91.85 0,-31.27 -2.7,-61.96 -5.89,-91.84 -4.34,-40.49 -36.89,-73.04 -77.36,-77.56 -30.05,-3.35 -60.92,-6.22 -92.38,-6.22 -31.46,0 -62.32,2.87 -92.38,6.22 -40.46,4.52 -73.02,37.07 -77.35,77.56 -3.2,29.88 -5.89,60.57 -5.89,91.84 0,31.28 2.69,61.97 5.89,91.85z"/>
   <path id="_1_6" class="fil2 str0" d="M8339.71 157.71l13.69 0c15.22,0 27.56,12.35 27.56,27.57l0 75.37m-40.84 0.01l82.08 0m-40.83 -165.79l0 8.9m-176.83 173.46c4.33,40.49 36.89,73.04 77.35,77.56 30.06,3.35 60.92,6.22 92.38,6.22 31.46,0 62.33,-2.88 92.38,-6.22 40.47,-4.52 73.03,-37.07 77.36,-77.56 3.19,-29.88 5.89,-60.57 5.89,-91.85 0,-31.27 -2.7,-61.96 -5.89,-91.84 -4.34,-40.49 -36.89,-73.04 -77.36,-77.56 -30.05,-3.35 -60.92,-6.22 -92.38,-6.22 -31.46,0 -62.32,2.87 -92.38,6.22 -40.46,4.52 -73.02,37.07 -77.35,77.56 -3.2,29.88 -5.89,60.57 -5.89,91.84 0,31.28 2.69,61.97 5.89,91.85z"/>
  </g>
  <g>
   <path id="Vector_7" class="fil0" d="M7375.02 142.76c0.43,-4.6 0.66,-9.24 0.66,-13.92 -1.16,-78.21 -89.03,-150.76 -172.25,-48.65 -83.23,-102.11 -171.09,-29.56 -172.25,48.65 0,116.28 138.93,211.75 172.1,212.02l171.74 -198.1zm0.66 97.77c0,-56.35 -31.7,-88.04 -88.05,-88.04 -51.08,0 -88.04,36.4 -88.04,88.04 0,56.35 31.7,88.04 88.04,88.04 51.06,0 88.05,-36.44 88.05,-88.04zm-64.63 -25.52c0,0 -8.8,-9.81 -23.08,-8.6 -14.27,1.24 -21.16,10.01 -21.16,18.81 0,25.63 44.24,7.86 44.24,34.18 0,13.55 -29.35,23.12 -46.83,7.18l46.83 -51.57zm-21.33 -25.84l0 17.14 0 -17.14zm0 85.58l0 17.15 0 -17.15z"/>
   <path id="_1_8" class="fil2 str0" d="M7375.02 142.76c0.43,-4.6 0.66,-9.24 0.66,-13.92 -1.16,-78.21 -89.03,-150.76 -172.25,-48.65 -83.23,-102.11 -171.09,-29.56 -172.25,48.65 0,116.28 138.93,211.75 172.1,212.02m172.4 -100.33c0,-56.35 -31.7,-88.04 -88.05,-88.04 -51.08,0 -88.04,36.4 -88.04,88.04 0,56.35 31.7,88.04 88.04,88.04 51.06,0 88.05,-36.44 88.05,-88.04zm-64.63 -25.52c0,0 -8.8,-9.81 -23.08,-8.6 -14.27,1.24 -21.16,10.01 -21.16,18.81 0,25.63 44.24,7.86 44.24,34.18 0,13.55 -29.35,23.12 -46.83,7.18m25.5 -77.41l0 17.14m0 68.44l0 17.15"/>
  </g>
  <path id="Intersect_9" class="fil0 str0" d="M4692.01 277.23c4.33,40.49 36.88,73.04 77.35,77.56 30.06,3.35 60.92,6.22 92.38,6.22 31.46,0 62.32,-2.88 92.38,-6.22 40.47,-4.52 73.03,-37.07 77.35,-77.56 3.2,-29.88 5.9,-60.57 5.9,-91.85 0,-31.27 -2.7,-61.96 -5.9,-91.84 -4.33,-40.49 -36.88,-73.04 -77.35,-77.56 -30.06,-3.35 -60.92,-6.22 -92.38,-6.22 -31.46,0 -62.32,2.87 -92.38,6.22 -40.47,4.52 -73.02,37.07 -77.35,77.56 -3.2,29.88 -5.9,60.57 -5.9,91.84 0,31.28 2.7,61.97 5.9,91.85zm144.75 10.33l49.97 -0.59 0 -63.86 39.97 0 0 -49.96 -39.97 0 0 -19.99c0,-11.04 8.94,-19.99 19.98,-19.99l19.99 0 0 -29.97c0,-11.04 -8.95,-19.99 -19.99,-19.99l-9.99 0c-33.11,0 -59.96,26.85 -59.96,59.96l0 29.98 -39.97 0 0 49.96 39.97 0 0 64.45z"/>
  <g>
   <path id="Intersect_10" class="fil0" d="M5277.43 277.23c4.33,40.49 36.89,73.04 77.35,77.56 30.06,3.35 60.92,6.22 92.38,6.22 31.46,0 62.33,-2.88 92.38,-6.22 40.47,-4.52 73.03,-37.07 77.35,-77.56 3.2,-29.88 5.9,-60.57 5.9,-91.85 0,-31.27 -2.7,-61.96 -5.9,-91.84 -4.33,-40.49 -36.88,-73.04 -77.35,-77.56 -30.05,-3.35 -60.92,-6.22 -92.38,-6.22 -31.46,0 -62.32,2.87 -92.38,6.22 -40.46,4.52 -73.02,37.07 -77.35,77.56 -3.2,29.88 -5.89,60.57 -5.89,91.84 0,31.28 2.69,61.97 5.89,91.85zm81.77 -194.02l42.34 0 144.1 191.8c1.83,2.44 2.11,5.49 0.75,8.21 -1.36,2.73 -3.97,4.34 -7.02,4.34l-42.34 0 -144.1 -191.8c-1.83,-2.44 -2.11,-5.49 -0.75,-8.22 1.37,-2.72 3.97,-4.33 7.02,-4.33zm171.46 0l-70.31 78.27 70.31 -78.27zm-101.92 113.45l-81.66 90.9 81.66 -90.9z"/>
   <path id="_1_11" class="fil2 str0" d="M5277.43 277.23c4.33,40.49 36.89,73.04 77.35,77.56 30.06,3.35 60.92,6.22 92.38,6.22 31.46,0 62.33,-2.88 92.38,-6.22 40.47,-4.52 73.03,-37.07 77.35,-77.56 3.2,-29.88 5.9,-60.57 5.9,-91.85 0,-31.27 -2.7,-61.96 -5.9,-91.84 -4.33,-40.49 -36.88,-73.04 -77.35,-77.56 -30.05,-3.35 -60.92,-6.22 -92.38,-6.22 -31.46,0 -62.32,2.87 -92.38,6.22 -40.46,4.52 -73.02,37.07 -77.35,77.56 -3.2,29.88 -5.89,60.57 -5.89,91.84 0,31.28 2.69,61.97 5.89,91.85zm81.77 -194.02l42.34 0 144.1 191.8c1.83,2.44 2.11,5.49 0.75,8.21 -1.36,2.73 -3.97,4.34 -7.02,4.34l-42.34 0 -144.1 -191.8c-1.83,-2.44 -2.11,-5.49 -0.75,-8.22 1.37,-2.72 3.97,-4.33 7.02,-4.33zm171.46 0l-70.31 78.27m-31.61 35.18l-81.66 90.9"/>
  </g>
  <g>
   <path id="Intersect_12" class="fil0" d="M6019.99 201.81c30.99,27.61 84.39,9.28 85.39,-51.26 0.57,-33.84 -22.43,-65.58 -69.37,-67.27 -46.94,-1.69 -73.16,28.61 -76.26,58.08 -1.59,15.1 2.67,26.49 7.2,34.02l53.04 26.43zm-19.66 -30.99c0,0 -14.46,57.78 -16.13,67.6 -1.67,9.83 -3.71,48.38 0,49.12 3.71,0.75 22.24,-27.06 25.58,-44.67 3.34,-17.61 21.9,-83.42 25.31,-97.88 3.42,-14.46 -3,-25.21 -14.74,-24.84 -11.75,0.37 -31.89,14.46 -20.02,50.67zm-137.48 106.41c4.33,40.49 36.89,73.04 77.35,77.56 30.06,3.35 60.93,6.22 92.38,6.22 31.46,0 62.33,-2.88 92.38,-6.22 40.47,-4.52 73.03,-37.07 77.36,-77.56 3.19,-29.88 5.89,-60.57 5.89,-91.85 0,-31.27 -2.7,-61.96 -5.89,-91.84 -4.34,-40.49 -36.89,-73.04 -77.36,-77.56 -30.05,-3.35 -60.92,-6.22 -92.38,-6.22 -31.45,0 -62.32,2.87 -92.38,6.22 -40.46,4.52 -73.02,37.07 -77.35,77.56 -3.2,29.88 -5.89,60.57 -5.89,91.84 0,31.28 2.69,61.97 5.89,91.85z"/>
   <path id="_1_13" class="fil2 str0" d="M6019.99 201.81c30.99,27.61 84.39,9.28 85.39,-51.26 0.57,-33.84 -22.43,-65.58 -69.37,-67.27 -46.94,-1.69 -73.16,28.61 -76.26,58.08 -1.59,15.1 2.67,26.49 7.2,34.02m33.38 -4.56c0,0 -14.46,57.78 -16.13,67.6 -1.67,9.83 -3.71,48.38 0,49.12 3.71,0.75 22.24,-27.06 25.58,-44.67 3.34,-17.61 21.9,-83.42 25.31,-97.88 3.42,-14.46 -3,-25.21 -14.74,-24.84 -11.75,0.37 -31.89,14.46 -20.02,50.67zm-137.48 106.41c4.33,40.49 36.89,73.04 77.35,77.56 30.06,3.35 60.93,6.22 92.38,6.22 31.46,0 62.33,-2.88 92.38,-6.22 40.47,-4.52 73.03,-37.07 77.36,-77.56 3.19,-29.88 5.89,-60.57 5.89,-91.85 0,-31.27 -2.7,-61.96 -5.89,-91.84 -4.34,-40.49 -36.89,-73.04 -77.36,-77.56 -30.05,-3.35 -60.92,-6.22 -92.38,-6.22 -31.45,0 -62.32,2.87 -92.38,6.22 -40.46,4.52 -73.02,37.07 -77.35,77.56 -3.2,29.88 -5.89,60.57 -5.89,91.84 0,31.28 2.69,61.97 5.89,91.85z"/>
  </g>
  <path id="Intersect_14" class="fil0 str0" d="M1765.09 277.01c4.34,40.49 36.89,73.04 77.36,77.55 30.05,3.36 60.92,6.23 92.38,6.23 31.46,0 62.32,-2.88 92.38,-6.23 40.46,-4.51 73.03,-37.06 77.35,-77.55 2.21,-20.67 4.18,-41.72 5.19,-63.09l-123.97 0 0 31.79 -107.27 0c0,-63.32 0,-50.41 0,-113.54l28.65 0 0 -121.95c-21.92,1.05 -43.52,3.17 -64.71,5.53 -40.47,4.52 -73.02,37.07 -77.36,77.56 -3.19,29.89 -5.89,60.57 -5.89,91.85 0,31.28 2.7,61.96 5.89,91.85zm344.97 -113.05c-0.86,-23.97 -3.03,-47.55 -5.5,-70.65 -4.33,-40.49 -36.89,-73.04 -77.35,-77.56 -22.92,-2.55 -46.32,-4.83 -70.09,-5.76l0 122.18 28.66 0 0 31.79 124.28 0z"/>
  <g>
   <path id="Vector_15" class="fil0" d="M6448.27 277.23c4.34,40.49 36.89,73.04 77.36,77.56 30.05,3.35 60.92,6.22 92.38,6.22 31.46,0 62.32,-2.88 92.38,-6.22 40.46,-4.52 73.03,-37.07 77.35,-77.56 3.2,-29.88 5.89,-60.57 5.89,-91.85 0,-31.27 -2.69,-61.96 -5.89,-91.84 -4.33,-40.49 -36.89,-73.04 -77.35,-77.56 -30.06,-3.35 -60.92,-6.22 -92.38,-6.22 -31.46,0 -62.33,2.87 -92.38,6.22 -40.47,4.52 -73.02,37.07 -77.36,77.56 -3.19,29.88 -5.89,60.57 -5.89,91.84 0,31.28 2.7,61.97 5.89,91.85zm259.57 -181.68c16.45,16.45 16.45,43.38 0,59.83l-30.01 30.01c-16.45,16.45 -43.37,16.45 -59.82,0 -16.46,-16.45 -16.46,-43.37 -0.01,-59.83l30.01 -30.01c16.46,-16.46 43.38,-16.45 59.83,0zm-89.83 89.84c16.45,16.45 16.45,43.37 0,59.82l-30.01 30.01c-16.45,16.45 -43.37,16.45 -59.82,0 -16.46,-16.45 -16.46,-43.36 0,-59.82l30 -30.01c16.46,-16.46 43.38,-16.45 59.83,0zm43.23 -43.24l-86.47 86.47 86.47 -86.47z"/>
   <path id="_1_16" class="fil2 str0" d="M6448.27 277.23c4.34,40.49 36.89,73.04 77.36,77.56 30.05,3.35 60.92,6.22 92.38,6.22 31.46,0 62.32,-2.88 92.38,-6.22 40.46,-4.52 73.03,-37.07 77.35,-77.56 3.2,-29.88 5.89,-60.57 5.89,-91.85 0,-31.27 -2.69,-61.96 -5.89,-91.84 -4.33,-40.49 -36.89,-73.04 -77.35,-77.56 -30.06,-3.35 -60.92,-6.22 -92.38,-6.22 -31.46,0 -62.33,2.87 -92.38,6.22 -40.47,4.52 -73.02,37.07 -77.36,77.56 -3.19,29.88 -5.89,60.57 -5.89,91.84 0,31.28 2.7,61.97 5.89,91.85zm259.57 -181.68c16.45,16.45 16.45,43.38 0,59.83l-30.01 30.01c-16.45,16.45 -43.37,16.45 -59.82,0 -16.46,-16.45 -16.46,-43.37 -0.01,-59.83l30.01 -30.01c16.46,-16.46 43.38,-16.45 59.83,0zm-89.83 89.84c16.45,16.45 16.45,43.37 0,59.82l-30.01 30.01c-16.45,16.45 -43.37,16.45 -59.82,0 -16.46,-16.45 -16.46,-43.36 0,-59.82l30 -30.01c16.46,-16.46 43.38,-16.45 59.83,0zm43.23 -43.24l-86.47 86.47"/>
  </g>
  <g>
   <path id="Intersect_17" class="fil0" d="M4106.58 277.23c4.34,40.49 36.89,73.04 77.36,77.56 30.05,3.35 60.92,6.22 92.38,6.22 31.46,0 62.32,-2.88 92.38,-6.22 40.46,-4.52 73.03,-37.07 77.35,-77.56 3.2,-29.88 5.9,-60.57 5.9,-91.85 0,-31.27 -2.7,-61.96 -5.9,-91.84 -4.33,-40.49 -36.89,-73.04 -77.35,-77.56 -30.06,-3.35 -60.92,-6.22 -92.38,-6.22 -31.46,0 -62.33,2.87 -92.38,6.22 -40.47,4.52 -73.02,37.07 -77.36,77.56 -3.19,29.88 -5.89,60.57 -5.89,91.84 0,31.28 2.7,61.97 5.89,91.85zm276.14 -1.13c5.16,-2.41 9.31,-19.85 9.86,-41.53 0.41,-16 0.75,-32.43 0.75,-49.18 0,-16.75 -0.34,-33.19 -0.75,-49.19 -0.55,-21.68 -4.7,-39.11 -9.86,-41.53l0 181.43zm-38.56 -78.35c1.75,-4.02 3.24,-8.15 3.24,-12.36 0,-4.21 -1.48,-8.34 -3.24,-12.36 -1.17,-1.43 -2.35,-2.85 -3.54,-4.28 -10.36,-12.44 -20.73,-24.38 -30.88,-35.96 -13.75,-15.69 -27.09,-25.55 -31.78,-23.51 -3.48,1.51 -6.87,3.29 -9.35,6.27 -2.48,2.98 -3.96,7.05 -5.22,11.22 -1.59,5.27 5.5,19.65 17.13,35 -8.95,-0.17 -18.01,-0.27 -27.17,-0.27 -16.75,0 -33.18,0.36 -49.18,0.8 -21.68,0.58 -39.12,5.02 -41.53,10.52 -1.8,4.09 -3.33,8.29 -3.33,12.57 0,4.28 1.54,8.48 3.33,12.56 2.41,5.51 19.85,9.94 41.53,10.53 16,0.43 32.43,0.8 49.18,0.8 9.16,0 18.22,-0.11 27.17,-0.28 -11.63,15.35 -18.72,29.73 -17.13,35 1.26,4.18 2.74,8.25 5.22,11.23 2.48,2.97 5.87,4.76 9.35,6.27 4.69,2.04 18.03,-7.82 31.78,-23.51 10.15,-11.59 20.52,-23.53 30.88,-35.97 1.19,-1.42 2.36,-2.85 3.54,-4.27z"/>
   <path id="_1_18" class="fil2 str0" d="M4106.58 277.23c4.34,40.49 36.89,73.04 77.36,77.56 30.05,3.35 60.92,6.22 92.38,6.22 31.46,0 62.32,-2.88 92.38,-6.22 40.46,-4.52 73.03,-37.07 77.35,-77.56 3.2,-29.88 5.9,-60.57 5.9,-91.85 0,-31.27 -2.7,-61.96 -5.9,-91.84 -4.33,-40.49 -36.89,-73.04 -77.35,-77.56 -30.06,-3.35 -60.92,-6.22 -92.38,-6.22 -31.46,0 -62.33,2.87 -92.38,6.22 -40.47,4.52 -73.02,37.07 -77.36,77.56 -3.19,29.88 -5.89,60.57 -5.89,91.84 0,31.28 2.7,61.97 5.89,91.85zm276.14 -1.13c5.16,-2.41 9.31,-19.85 9.86,-41.53 0.41,-16 0.75,-32.43 0.75,-49.18 0,-16.75 -0.34,-33.19 -0.75,-49.19 -0.55,-21.68 -4.7,-39.11 -9.86,-41.53m-38.56 103.08c1.75,-4.02 3.24,-8.15 3.24,-12.36 0,-4.21 -1.48,-8.34 -3.24,-12.36 -1.17,-1.43 -2.35,-2.85 -3.54,-4.28 -10.36,-12.44 -20.73,-24.38 -30.88,-35.96 -13.75,-15.69 -27.09,-25.55 -31.78,-23.51 -3.48,1.51 -6.87,3.29 -9.35,6.27 -2.48,2.98 -3.96,7.05 -5.22,11.22 -1.59,5.27 5.5,19.65 17.13,35 -8.95,-0.17 -18.01,-0.27 -27.17,-0.27 -16.75,0 -33.18,0.36 -49.18,0.8 -21.68,0.58 -39.12,5.02 -41.53,10.52 -1.8,4.09 -3.33,8.29 -3.33,12.57 0,4.28 1.54,8.48 3.33,12.56 2.41,5.51 19.85,9.94 41.53,10.53 16,0.43 32.43,0.8 49.18,0.8 9.16,0 18.22,-0.11 27.17,-0.28 -11.63,15.35 -18.72,29.73 -17.13,35 1.26,4.18 2.74,8.25 5.22,11.23 2.48,2.97 5.87,4.76 9.35,6.27 4.69,2.04 18.03,-7.82 31.78,-23.51 10.15,-11.59 20.52,-23.53 30.88,-35.97 1.19,-1.42 2.36,-2.85 3.54,-4.27z"/>
  </g>
  <path id="Rectangle_x0020_15" class="fil0 str0" d="M3639.23 361l0 -94.18c0,-28.54 23.13,-51.66 51.66,-51.66 28.54,0 51.66,23.12 51.66,51.66l0 94.18 46.35 0.01c20.74,0 38.38,-15.13 41.53,-35.63 5.01,-32.58 6.18,-65.61 3.48,-98.41l37.91 0c12.22,0 19.63,-13.48 13.08,-23.79l-6.55 -10.33c-39.46,-62.13 -89.66,-116.72 -148.27,-161.24l-20.44 -15.53c-11.08,-8.42 -26.41,-8.42 -37.48,0l-20.46 15.53c-58.6,44.52 -108.8,99.11 -148.25,161.24l-6.56 10.33c-6.54,10.31 0.86,23.79 13.08,23.79l37.9 0c-2.69,32.8 -1.53,65.82 3.48,98.41 3.16,20.5 20.8,35.63 41.55,35.63l46.33 -0.01z"/>
  <g>
   <path id="Intersect_19" class="fil0" d="M3275.21 277.23c-4.33,40.49 -36.89,73.04 -77.35,77.56 -30.06,3.35 -60.93,6.22 -92.38,6.22 -31.46,0 -62.33,-2.88 -92.38,-6.22 -40.47,-4.52 -73.03,-37.07 -77.36,-77.56 -3.19,-29.88 -5.89,-60.57 -5.89,-91.85 0,-31.27 2.7,-61.96 5.89,-91.84 4.34,-40.49 36.89,-73.04 77.36,-77.56 30.05,-3.35 60.92,-6.22 92.38,-6.22 31.45,0 62.32,2.87 92.38,6.22 40.46,4.52 73.02,37.07 77.35,77.56 3.2,29.88 5.89,60.57 5.89,91.84 0,31.28 -2.69,61.97 -5.89,91.85zm-276.13 -1.13c-5.16,-2.41 -9.32,-19.85 -9.87,-41.53 -0.41,-16 -0.75,-32.43 -0.75,-49.18 0,-16.75 0.34,-33.19 0.75,-49.19 0.55,-21.68 4.71,-39.11 9.87,-41.53l0 181.43zm38.55 -78.35c-1.75,-4.02 -3.24,-8.15 -3.24,-12.36 0,-4.21 1.49,-8.34 3.24,-12.36 1.18,-1.43 2.36,-2.85 3.54,-4.28 10.36,-12.44 20.73,-24.38 30.88,-35.96 13.75,-15.69 27.1,-25.55 31.78,-23.51 3.49,1.51 6.87,3.29 9.35,6.27 2.48,2.98 3.96,7.05 5.23,11.22 1.58,5.27 -5.51,19.65 -17.14,35 8.95,-0.17 18.01,-0.27 27.17,-0.27 16.75,0 33.18,0.36 49.19,0.8 21.68,0.58 39.11,5.02 41.53,10.52 1.79,4.09 3.33,8.29 3.33,12.57 0,4.28 -1.54,8.48 -3.33,12.56 -2.42,5.51 -19.85,9.94 -41.53,10.53 -16.01,0.43 -32.44,0.8 -49.19,0.8 -9.16,0 -18.22,-0.11 -27.17,-0.28 11.63,15.35 18.72,29.73 17.14,35 -1.27,4.18 -2.75,8.25 -5.23,11.23 -2.48,2.97 -5.86,4.76 -9.35,6.27 -4.68,2.04 -18.03,-7.82 -31.78,-23.51 -10.15,-11.59 -20.52,-23.53 -30.88,-35.97 -1.18,-1.42 -2.36,-2.85 -3.54,-4.27z"/>
   <path id="_1_20" class="fil2 str1" d="M3275.21 277.23c-4.33,40.49 -36.89,73.04 -77.35,77.56 -30.06,3.35 -60.93,6.22 -92.38,6.22 -31.46,0 -62.33,-2.88 -92.38,-6.22 -40.47,-4.52 -73.03,-37.07 -77.36,-77.56 -3.19,-29.88 -5.89,-60.57 -5.89,-91.85 0,-31.27 2.7,-61.96 5.89,-91.84 4.34,-40.49 36.89,-73.04 77.36,-77.56 30.05,-3.35 60.92,-6.22 92.38,-6.22 31.45,0 62.32,2.87 92.38,6.22 40.46,4.52 73.02,37.07 77.35,77.56 3.2,29.88 5.89,60.57 5.89,91.84 0,31.28 -2.69,61.97 -5.89,91.85zm-276.13 -1.13c-5.16,-2.41 -9.32,-19.85 -9.87,-41.53 -0.41,-16 -0.75,-32.43 -0.75,-49.18 0,-16.75 0.34,-33.19 0.75,-49.19 0.55,-21.68 4.71,-39.11 9.87,-41.53m38.55 103.08c-1.75,-4.02 -3.24,-8.15 -3.24,-12.36 0,-4.21 1.49,-8.34 3.24,-12.36 1.18,-1.43 2.36,-2.85 3.54,-4.28 10.36,-12.44 20.73,-24.38 30.88,-35.96 13.75,-15.69 27.1,-25.55 31.78,-23.51 3.49,1.51 6.87,3.29 9.35,6.27 2.48,2.98 3.96,7.05 5.23,11.22 1.58,5.27 -5.51,19.65 -17.14,35 8.95,-0.17 18.01,-0.27 27.17,-0.27 16.75,0 33.18,0.36 49.19,0.8 21.68,0.58 39.11,5.02 41.53,10.52 1.79,4.09 3.33,8.29 3.33,12.57 0,4.28 -1.54,8.48 -3.33,12.56 -2.42,5.51 -19.85,9.94 -41.53,10.53 -16.01,0.43 -32.44,0.8 -49.19,0.8 -9.16,0 -18.22,-0.11 -27.17,-0.28 11.63,15.35 18.72,29.73 17.14,35 -1.27,4.18 -2.75,8.25 -5.23,11.23 -2.48,2.97 -5.86,4.76 -9.35,6.27 -4.68,2.04 -18.03,-7.82 -31.78,-23.51 -10.15,-11.59 -20.52,-23.53 -30.88,-35.97 -1.18,-1.42 -2.36,-2.85 -3.54,-4.27z"/>
  </g>
 </g>
</svg>
