<?xml version="1.0" encoding="UTF-8"?>
<!DOCTYPE svg PUBLIC "-//W3C//DTD SVG 1.1//EN" "http://www.w3.org/Graphics/SVG/1.1/DTD/svg11.dtd">
<!-- Creator: CorelDRAW 2021 (64-Bit) -->
<svg xmlns="http://www.w3.org/2000/svg" xml:space="preserve" width="270px" height="30px" version="1.1" style="shape-rendering:geometricPrecision; text-rendering:geometricPrecision; image-rendering:optimizeQuality; fill-rule:evenodd; clip-rule:evenodd"
viewBox="0 0 40.32 4.49"
 xmlns:xlink="http://www.w3.org/1999/xlink"
 xmlns:xodm="http://www.corel.com/coreldraw/odm/2003">
 <defs>
  <style type="text/css">
   <![CDATA[
    .str0 {stroke:#373435;stroke-width:0.01;stroke-miterlimit:2.61313}
    .str4 {stroke:#373435;stroke-width:0.13;stroke-miterlimit:2.61313}
    .str3 {stroke:#373435;stroke-width:0.13;stroke-miterlimit:2.61313}
    .str1 {stroke:black;stroke-width:0.13;stroke-miterlimit:2.61313}
    .str2 {stroke:#373435;stroke-width:0.13;stroke-linecap:round;stroke-linejoin:round;stroke-miterlimit:2.61313}
    .str5 {stroke:black;stroke-width:0.13;stroke-linecap:round;stroke-linejoin:round;stroke-miterlimit:2.61313}
    .str6 {stroke:black;stroke-width:0.15;stroke-linecap:round;stroke-linejoin:round;stroke-miterlimit:2.61313}
    .fil0 {fill:none}
    .fil2 {fill:none;fill-rule:nonzero}
    .fil1 {fill:black;fill-rule:nonzero}
   ]]>
  </style>
 </defs>
 <g id="Layer_x0020_1">
  <metadata id="CorelCorpID_0Corel-Layer"/>
  <rect class="fil0 str0" width="4.48" height="4.48"/>
  <rect class="fil0 str0" x="4.48" width="4.48" height="4.48"/>
  <rect class="fil0 str0" x="8.96" width="4.48" height="4.48"/>
  <rect class="fil0 str0" x="13.44" width="4.48" height="4.48"/>
  <rect class="fil0 str0" x="17.92" width="4.48" height="4.48"/>
  <rect class="fil0 str0" x="22.4" width="4.48" height="4.48"/>
  <rect class="fil0 str0" x="26.84" width="4.48" height="4.48"/>
  <rect class="fil0 str0" x="31.36" width="4.48" height="4.48"/>
  <rect class="fil0 str0" x="35.84" width="4.48" height="4.48"/>
  <g>
   <path id="Oval" class="fil1" d="M2.02 1.27l0 -0.14 0 0 0.05 0 0.04 0.01 0.05 0 0.04 0.01 0.04 0.01 0.04 0.01 0.05 0.01 0.04 0.02 0.04 0.02 0.03 0.02 0.04 0.02 0.04 0.02 0.03 0.03 0.04 0.02 0.03 0.03 0.03 0.03 0.03 0.03 0.03 0.03 0.02 0.04 0.03 0.03 0.02 0.04 0.02 0.04 0.02 0.03 0.02 0.04 0.02 0.04 0.01 0.05 0.01 0.04 0.01 0.04 0.01 0.04 0 0.05 0.01 0.04 0 0.05 -0.14 0 0 -0.04 0 -0.04 0 -0.04 -0.01 -0.03 -0.01 -0.04 -0.01 -0.03 -0.01 -0.04 -0.01 -0.03 -0.02 -0.04 -0.02 -0.03 -0.01 -0.03 -0.02 -0.03 -0.03 -0.03 -0.02 -0.03 -0.02 -0.03 -0.03 -0.02 -0.02 -0.03 -0.03 -0.02 -0.03 -0.02 -0.03 -0.03 -0.03 -0.02 -0.03 -0.01 -0.03 -0.02 -0.04 -0.02 -0.03 -0.01 -0.04 -0.01 -0.03 -0.01 -0.04 -0.01 -0.04 -0.01 -0.03 0 -0.04 0 -0.04 0 0 0zm0 0c-0.04,0 -0.07,-0.03 -0.07,-0.07 0,-0.04 0.03,-0.07 0.07,-0.07l0 0.14zm-0.75 0.75l-0.14 0 0 0 0 -0.05 0.01 -0.04 0 -0.05 0.01 -0.04 0.01 -0.04 0.01 -0.04 0.01 -0.05 0.02 -0.04 0.02 -0.04 0.02 -0.03 0.02 -0.04 0.02 -0.04 0.03 -0.03 0.02 -0.04 0.03 -0.03 0.03 -0.03 0.03 -0.03 0.03 -0.03 0.04 -0.02 0.03 -0.03 0.04 -0.02 0.04 -0.02 0.03 -0.02 0.04 -0.02 0.04 -0.02 0.05 -0.01 0.04 -0.01 0.04 -0.01 0.04 -0.01 0.05 0 0.04 -0.01 0.05 0 0 0.14 -0.04 0 -0.04 0 -0.04 0 -0.03 0.01 -0.04 0.01 -0.03 0.01 -0.04 0.01 -0.03 0.01 -0.04 0.02 -0.03 0.02 -0.03 0.01 -0.03 0.02 -0.03 0.03 -0.03 0.02 -0.03 0.02 -0.02 0.03 -0.03 0.02 -0.02 0.03 -0.02 0.03 -0.03 0.03 -0.02 0.03 -0.01 0.03 -0.02 0.03 -0.02 0.04 -0.01 0.03 -0.01 0.04 -0.01 0.03 -0.01 0.04 -0.01 0.03 0 0.04 0 0.04 0 0.04 0 0zm0 0c0,0.04 -0.03,0.07 -0.07,0.07 -0.04,0 -0.07,-0.03 -0.07,-0.07l0.14 0zm0.75 0.75l0 0.14 0 0 -0.05 0 -0.04 -0.01 -0.05 0 -0.04 -0.01 -0.04 -0.01 -0.04 -0.01 -0.05 -0.02 -0.04 -0.01 -0.04 -0.02 -0.03 -0.02 -0.04 -0.02 -0.04 -0.02 -0.03 -0.03 -0.04 -0.02 -0.03 -0.03 -0.03 -0.03 -0.03 -0.03 -0.03 -0.03 -0.02 -0.04 -0.03 -0.03 -0.02 -0.04 -0.02 -0.04 -0.02 -0.03 -0.02 -0.04 -0.02 -0.04 -0.01 -0.05 -0.01 -0.04 -0.01 -0.04 -0.01 -0.04 0 -0.05 -0.01 -0.04 0 -0.05 0.14 0 0 0.04 0 0.04 0 0.03 0.01 0.04 0.01 0.04 0.01 0.03 0.01 0.04 0.01 0.03 0.02 0.04 0.02 0.03 0.01 0.03 0.02 0.03 0.03 0.03 0.02 0.03 0.02 0.03 0.03 0.02 0.02 0.03 0.03 0.02 0.03 0.02 0.03 0.03 0.03 0.02 0.03 0.01 0.03 0.02 0.04 0.02 0.03 0.01 0.04 0.01 0.03 0.01 0.04 0.01 0.03 0.01 0.04 0 0.04 0 0.04 0 0 0zm0 0c0.04,0 0.07,0.03 0.07,0.07 0,0.04 -0.03,0.07 -0.07,0.07l0 -0.14zm0.75 -0.75l0.14 0 0 0 0 0.05 -0.01 0.04 0 0.05 -0.01 0.04 -0.01 0.04 -0.01 0.04 -0.01 0.05 -0.02 0.04 -0.02 0.04 -0.02 0.03 -0.02 0.04 -0.02 0.04 -0.03 0.03 -0.02 0.04 -0.03 0.03 -0.03 0.03 -0.03 0.03 -0.03 0.03 -0.04 0.02 -0.03 0.03 -0.04 0.02 -0.04 0.02 -0.03 0.02 -0.04 0.02 -0.04 0.01 -0.05 0.02 -0.04 0.01 -0.04 0.01 -0.04 0.01 -0.05 0 -0.04 0.01 -0.05 0 0 -0.14 0.04 0 0.04 0 0.03 0 0.04 -0.01 0.04 -0.01 0.03 -0.01 0.04 -0.01 0.03 -0.01 0.04 -0.02 0.03 -0.02 0.03 -0.01 0.03 -0.02 0.03 -0.03 0.03 -0.02 0.03 -0.02 0.02 -0.03 0.03 -0.02 0.02 -0.03 0.02 -0.03 0.03 -0.03 0.02 -0.03 0.01 -0.03 0.02 -0.03 0.02 -0.04 0.01 -0.03 0.01 -0.04 0.01 -0.03 0.01 -0.04 0.01 -0.04 0 -0.03 0 -0.04 0 -0.04 0 0zm0 0c0,-0.04 0.03,-0.07 0.07,-0.07 0.04,0 0.07,0.03 0.07,0.07l-0.14 0zm-0.13 0.72c-0.02,-0.03 -0.02,-0.07 0,-0.1 0.03,-0.02 0.07,-0.02 0.1,0l-0.1 0.1zm0.6 0.6l-0.6 -0.6 0.1 -0.1 0.6 0.6 -0.1 0.1zm0.1 -0.1c0.02,0.03 0.02,0.07 0,0.1 -0.03,0.02 -0.07,0.02 -0.1,0l0.1 -0.1z"/>
  </g>
  <g>
   <path id="Path" class="fil2 str1" d="M39.56 2.66l0 0.37c0,0.2 -0.17,0.37 -0.37,0.37l-2.22 0c-0.21,0 -0.37,-0.17 -0.37,-0.37l0 -0.37 0 0m2.13 -0.74l-0.65 0.65 -0.66 -0.65m0.66 0.46l0 -1.29"/>
  </g>
  <path class="fil0 str2" d="M10.26 1.49c-0.22,0.23 -0.36,0.55 -0.36,0.9 0,0.72 0.58,1.31 1.3,1.31 0.72,0 1.31,-0.59 1.31,-1.31 0,-0.48 -0.27,-0.91 -0.66,-1.13 -0.01,0.29 -0.14,0.54 -0.34,0.72 0.01,-0.05 0.02,-0.11 0.02,-0.18 0,-0.56 -0.46,-1.01 -1.02,-1.01 0.01,0.26 -0.08,0.5 -0.25,0.7z"/>
  <path class="fil0 str2" d="M7.47 1.48l-0.26 -0.15c-0.03,-0.01 -0.04,-0.04 -0.02,-0.07 0,-0.01 0.01,-0.01 0.02,-0.02l0.26 -0.14c0.01,-0.01 0.02,-0.01 0.02,-0.02l0.14 -0.26c0.02,-0.03 0.05,-0.04 0.08,-0.03 0,0.01 0.01,0.02 0.02,0.03l0.14 0.26c0,0.01 0.01,0.01 0.02,0.02l0.26 0.14c0.03,0.01 0.04,0.05 0.02,0.07 0,0.01 -0.01,0.02 -0.02,0.02l-0.26 0.15c-0.01,0 -0.02,0.01 -0.02,0.02l-0.14 0.26c-0.02,0.02 -0.05,0.03 -0.08,0.02 0,-0.01 -0.01,-0.01 -0.02,-0.02l-0.14 -0.26c0,-0.01 -0.01,-0.02 -0.02,-0.02zm-1.46 1.43l-0.67 -0.37c-0.07,-0.04 -0.09,-0.12 -0.06,-0.18 0.02,-0.03 0.04,-0.05 0.06,-0.06l0.67 -0.37c0.02,-0.01 0.04,-0.03 0.05,-0.05l0.37 -0.67c0.03,-0.06 0.12,-0.09 0.18,-0.05 0.02,0.01 0.04,0.03 0.06,0.05l0.36 0.67c0.02,0.02 0.03,0.04 0.06,0.05l0.67 0.37c0.06,0.04 0.09,0.12 0.05,0.19 -0.01,0.02 -0.03,0.04 -0.05,0.05l-0.67 0.37c-0.03,0.01 -0.04,0.03 -0.06,0.05l-0.36 0.67c-0.04,0.06 -0.12,0.09 -0.19,0.05 -0.02,-0.01 -0.04,-0.03 -0.05,-0.05l-0.37 -0.67c-0.01,-0.02 -0.03,-0.04 -0.05,-0.05z"/>
  <path class="fil0 str3" d="M14.73 1.09l0.7 0m0.5 0l0.7 0m-2.15 -0.25c0.14,0 0.25,0.11 0.25,0.25 0,0.14 -0.11,0.26 -0.25,0.26 -0.14,0 -0.25,-0.12 -0.25,-0.26 0,-0.14 0.11,-0.25 0.25,-0.25zm2.4 0c-0.13,0 -0.25,0.11 -0.25,0.25 0,0.14 0.12,0.26 0.25,0.26 0.14,0 0.26,-0.12 0.26,-0.26 0,-0.14 -0.12,-0.25 -0.26,-0.25zm-1.37 0l0.34 0c0.04,0 0.08,0.04 0.08,0.08l0 0.34c0,0.05 -0.04,0.08 -0.08,0.08l-0.34 0c-0.04,0 -0.08,-0.03 -0.08,-0.08l0 -0.34c0,-0.04 0.04,-0.08 0.08,-0.08zm-1.2 1.21l0.34 0c0.04,0 0.08,0.03 0.08,0.08l0 0.34c0,0.04 -0.04,0.08 -0.08,0.08l-0.34 0c-0.05,0 -0.08,-0.04 -0.08,-0.08l0 -0.34c0,-0.05 0.03,-0.08 0.08,-0.08zm2.75 0l-0.34 0c-0.05,0 -0.08,0.03 -0.08,0.08l0 0.34c0,0.04 0.03,0.08 0.08,0.08l0.34 0c0.04,0 0.08,-0.04 0.08,-0.08l0 -0.34c0,-0.05 -0.04,-0.08 -0.08,-0.08zm-2.56 0c0.1,-0.47 0.47,-0.83 0.93,-0.93m0.5 0c0.47,0.1 0.83,0.46 0.93,0.93m-1.05 0.06l0.73 1.32c0.03,0.05 0.03,0.11 -0.01,0.16 -0.04,0.05 -0.11,0.07 -0.16,0.05l-0.69 -0.22 -0.68 0.22c-0.06,0.02 -0.12,0 -0.16,-0.05 -0.04,-0.05 -0.05,-0.11 -0.02,-0.16l0.73 -1.32c0.03,-0.05 0.08,-0.08 0.13,-0.08 0.06,0 0.1,0.03 0.13,0.08z"/>
  <path class="fil0 str4" d="M19.36 0.79l1.07 0c0.36,0 0.66,0.29 0.66,0.65l0 0.44c-0.12,0.03 -0.24,0.08 -0.33,0.18l-0.74 0.73c-0.1,0.11 -0.18,0.25 -0.18,0.4l-0.04 0.34c-0.01,0.06 0,0.12 0.01,0.17l-0.45 0c-0.36,0 -0.66,-0.29 -0.66,-0.65l0 -1.61c0,-0.36 0.3,-0.65 0.66,-0.65zm0.72 2.41c0,-0.07 0.04,-0.16 0.11,-0.23l0.74 -0.74c0.16,-0.16 0.41,-0.16 0.57,0 0.16,0.16 0.16,0.41 0,0.57l-0.74 0.73c-0.07,0.08 -0.16,0.12 -0.24,0.12l-0.36 0.04c-0.07,0.01 -0.13,-0.05 -0.12,-0.13l0.04 -0.36zm-0.88 -1.63l1.09 0c0.08,0 0.14,0.06 0.14,0.14 0,0.08 -0.06,0.15 -0.14,0.15l-1.09 0c-0.08,0 -0.14,-0.07 -0.14,-0.15 0,-0.08 0.06,-0.14 0.14,-0.14zm0 0.53l0.68 0c0.07,0 0.14,0.06 0.14,0.14 0,0.08 -0.06,0.15 -0.14,0.15l-0.68 0c-0.08,0 -0.14,-0.07 -0.14,-0.15 0,-0.08 0.06,-0.14 0.14,-0.14zm0 0.53l0.26 0c0.08,0 0.15,0.06 0.15,0.14 0,0.08 -0.07,0.15 -0.15,0.15l-0.26 0c-0.08,0 -0.14,-0.07 -0.14,-0.15 0,-0.08 0.06,-0.14 0.14,-0.14z"/>
  <g>
   <path id="Vector" class="fil1" d="M26.16 1.89c-0.01,0.04 -0.04,0.06 -0.08,0.06 -0.03,0 -0.06,-0.04 -0.06,-0.07l0.14 0.01zm-0.13 -0.12l0.13 -0.01 0 0.01 0 0 0 0 0 0.01 0 0 0 0.01 0 0 0 0 0 0.01 0 0 0 0.01 0 0 0 0 0 0.01 0 0 0 0 0 0.01 0 0 0 0.01 0 0 0 0 0 0.01 0 0 0 0 0 0.01 0 0 0 0.01 0 0 0 0 0 0.01 0 0 0 0.01 0 0 -0.14 -0.01 0 -0.01 0 0 0 0 0 -0.01 0.01 0 0 0 0 -0.01 0 0 0 0 0 -0.01 0 0 0 0 0 -0.01 0 0 0 0 0 -0.01 0 0 0 -0.01 0 0 0 0 0 0 0 -0.01 0 0 0 -0.01 0 0 0 0 0 -0.01 0 0 0 0 0 -0.01 0 0 0 0 0 0zm0 0c0,-0.04 0.03,-0.07 0.07,-0.07 0.03,0 0.06,0.03 0.06,0.07l-0.13 0zm-1.44 -0.37l0.1 -0.09 -0.1 0 0.07 -0.08 0.07 -0.07 0.06 -0.06 0.07 -0.06 0.07 -0.04 0.07 -0.04 0.07 -0.04 0.07 -0.02 0.07 -0.02 0.07 -0.01 0.07 -0.01 0.06 0 0.07 0.01 0.06 0.02 0.06 0.01 0.06 0.03 0.05 0.03 0.05 0.03 0.06 0.04 0.04 0.04 0.05 0.04 0.04 0.05 0.04 0.05 0.03 0.06 0.03 0.05 0.03 0.06 0.02 0.06 0.02 0.06 0.02 0.07 0.01 0.06 0.01 0.07 0 0.06 -0.13 0.01 0 -0.06 -0.01 -0.06 -0.01 -0.05 -0.02 -0.06 -0.01 -0.05 -0.02 -0.05 -0.03 -0.06 -0.02 -0.04 -0.03 -0.05 -0.04 -0.04 -0.03 -0.05 -0.04 -0.03 -0.04 -0.04 -0.04 -0.03 -0.04 -0.03 -0.05 -0.02 -0.05 -0.02 -0.05 -0.02 -0.05 -0.01 -0.05 0 -0.05 0 -0.05 0 -0.06 0.01 -0.06 0.02 -0.06 0.02 -0.05 0.03 -0.06 0.03 -0.07 0.04 -0.06 0.05 -0.06 0.06 -0.06 0.06 -0.07 0.08 -0.1 0zm0.1 0c-0.02,0.03 -0.06,0.03 -0.09,0.01 -0.03,-0.03 -0.04,-0.07 -0.01,-0.1l0.1 0.09zm-1.44 0.37l-0.13 0 0 -0.01 0 -0.06 0.01 -0.07 0.01 -0.06 0.02 -0.07 0.02 -0.06 0.02 -0.06 0.03 -0.06 0.03 -0.05 0.03 -0.06 0.04 -0.05 0.04 -0.05 0.05 -0.04 0.05 -0.04 0.05 -0.04 0.05 -0.03 0.05 -0.03 0.06 -0.03 0.06 -0.01 0.06 -0.02 0.07 -0.01 0.06 0 0.07 0.01 0.07 0.01 0.07 0.02 0.07 0.02 0.07 0.04 0.07 0.04 0.07 0.04 0.07 0.06 0.06 0.06 0.07 0.07 0.07 0.08 -0.1 0.09 -0.07 -0.08 -0.06 -0.06 -0.06 -0.06 -0.06 -0.05 -0.07 -0.04 -0.06 -0.03 -0.06 -0.03 -0.05 -0.02 -0.06 -0.02 -0.06 -0.01 -0.05 0 -0.05 0 -0.05 0 -0.05 0.01 -0.05 0.02 -0.05 0.02 -0.05 0.02 -0.04 0.03 -0.04 0.03 -0.04 0.04 -0.04 0.03 -0.03 0.05 -0.04 0.04 -0.03 0.05 -0.02 0.04 -0.03 0.06 -0.02 0.05 -0.01 0.05 -0.02 0.06 -0.01 0.05 -0.01 0.06 0 0.06 0 0zm0 0c0,0.03 -0.03,0.06 -0.07,0.06 -0.03,0 -0.06,-0.03 -0.06,-0.07l0.13 0.01zm1.39 1.72l0 0.13 -0.04 0 -0.04 -0.01 -0.04 -0.01 -0.05 -0.02 -0.05 -0.02 -0.05 -0.02 -0.05 -0.03 -0.06 -0.04 -0.06 -0.03 -0.06 -0.05 -0.06 -0.04 -0.07 -0.05 -0.06 -0.05 -0.06 -0.05 -0.07 -0.06 -0.06 -0.06 -0.06 -0.07 -0.06 -0.06 -0.06 -0.07 -0.06 -0.07 -0.06 -0.08 -0.05 -0.08 -0.05 -0.08 -0.05 -0.08 -0.04 -0.08 -0.04 -0.09 -0.03 -0.09 -0.03 -0.09 -0.02 -0.09 -0.02 -0.09 -0.01 -0.1 0 -0.09 0.13 0 0 0.08 0.01 0.09 0.02 0.08 0.02 0.09 0.03 0.08 0.03 0.08 0.03 0.08 0.04 0.08 0.04 0.08 0.05 0.07 0.05 0.07 0.05 0.07 0.06 0.07 0.06 0.07 0.05 0.06 0.06 0.06 0.06 0.06 0.07 0.06 0.06 0.05 0.06 0.05 0.06 0.04 0.06 0.04 0.05 0.04 0.06 0.04 0.05 0.03 0.05 0.03 0.05 0.02 0.04 0.02 0.04 0.01 0.03 0.01 0.03 0.01 0.02 0zm0 0c0.04,0 0.07,0.03 0.07,0.07 0,0.04 -0.03,0.07 -0.07,0.06l0 -0.13zm0.71 -1.46l0 -0.13 0 0 0.05 0 0.04 0 0.05 0.01 0.04 0 0.04 0.01 0.04 0.01 0.04 0.01 0.04 0.01 0.04 0.02 0.03 0.01 0.04 0.02 0.03 0.02 0.03 0.02 0.03 0.02 0.03 0.03 0.03 0.02 0.03 0.03 0.02 0.03 0.02 0.03 0.02 0.03 0.02 0.03 0.02 0.04 0.02 0.03 0.01 0.04 0.01 0.04 0.01 0.04 0.01 0.04 0.01 0.04 0.01 0.04 0 0.05 0 0.04 0 0.05 -0.13 0 0 -0.04 0 -0.04 -0.01 -0.04 0 -0.04 -0.01 -0.03 -0.01 -0.04 -0.01 -0.03 -0.01 -0.03 -0.01 -0.04 -0.01 -0.02 -0.02 -0.03 -0.01 -0.03 -0.02 -0.02 -0.02 -0.03 -0.01 -0.02 -0.03 -0.02 -0.02 -0.02 -0.02 -0.02 -0.02 -0.02 -0.03 -0.02 -0.03 -0.01 -0.02 -0.02 -0.03 -0.01 -0.03 -0.01 -0.04 -0.01 -0.03 -0.01 -0.03 -0.01 -0.04 -0.01 -0.04 0 -0.04 0 -0.04 -0.01 -0.04 0 0 0zm0 0c-0.04,0 -0.07,-0.03 -0.07,-0.06 0,-0.04 0.03,-0.07 0.07,-0.07l0 0.13zm-0.68 0.68l-0.13 0 0 0 0 -0.04 0 -0.05 0.01 -0.04 0.01 -0.04 0 -0.04 0.01 -0.04 0.02 -0.04 0.01 -0.04 0.02 -0.03 0.01 -0.04 0.02 -0.03 0.02 -0.03 0.03 -0.04 0.02 -0.03 0.02 -0.03 0.03 -0.02 0.03 -0.03 0.03 -0.02 0.03 -0.03 0.03 -0.02 0.03 -0.02 0.04 -0.02 0.03 -0.02 0.04 -0.01 0.04 -0.02 0.03 -0.01 0.04 -0.01 0.04 -0.01 0.04 0 0.05 -0.01 0.04 0 0.04 0 0 0.13 -0.04 0 -0.03 0.01 -0.04 0 -0.03 0.01 -0.04 0 -0.03 0.01 -0.03 0.01 -0.03 0.01 -0.03 0.02 -0.03 0.01 -0.03 0.02 -0.03 0.01 -0.02 0.02 -0.03 0.02 -0.02 0.02 -0.02 0.02 -0.03 0.02 -0.02 0.03 -0.02 0.02 -0.01 0.03 -0.02 0.03 -0.02 0.03 -0.01 0.02 -0.01 0.03 -0.02 0.04 -0.01 0.03 0 0.03 -0.01 0.03 -0.01 0.04 0 0.04 0 0.03 -0.01 0.04 0 0zm0 0c0,0.04 -0.03,0.07 -0.06,0.07 -0.04,0 -0.07,-0.03 -0.07,-0.07l0.13 0zm0.68 0.68l0 0.13 0 0 -0.04 0 -0.05 0 -0.04 -0.01 -0.05 0 -0.04 -0.01 -0.04 -0.01 -0.04 -0.01 -0.04 -0.01 -0.03 -0.02 -0.04 -0.01 -0.04 -0.02 -0.03 -0.02 -0.03 -0.02 -0.03 -0.02 -0.03 -0.03 -0.03 -0.02 -0.02 -0.03 -0.03 -0.03 -0.02 -0.03 -0.02 -0.03 -0.02 -0.03 -0.02 -0.04 -0.01 -0.03 -0.02 -0.04 -0.01 -0.04 -0.01 -0.04 -0.01 -0.04 -0.01 -0.04 0 -0.04 -0.01 -0.05 0 -0.04 0 -0.05 0.13 0 0.01 0.04 0 0.04 0 0.04 0.01 0.04 0 0.03 0.01 0.04 0.01 0.03 0.01 0.03 0.01 0.04 0.01 0.02 0.02 0.03 0.01 0.03 0.02 0.02 0.02 0.03 0.02 0.02 0.02 0.02 0.02 0.02 0.02 0.02 0.03 0.02 0.02 0.02 0.03 0.01 0.03 0.02 0.03 0.01 0.03 0.01 0.03 0.01 0.03 0.01 0.04 0.01 0.03 0.01 0.04 0 0.04 0 0.04 0.01 0.04 0 0 0zm0 0c0.04,0 0.07,0.03 0.07,0.06 0,0.04 -0.03,0.07 -0.07,0.07l0 -0.13zm0.68 -0.68l0.13 0 0 0 0 0.04 0 0.05 -0.01 0.04 0 0.04 -0.01 0.04 -0.01 0.04 -0.01 0.04 -0.02 0.04 -0.01 0.03 -0.02 0.04 -0.02 0.03 -0.02 0.03 -0.02 0.04 -0.03 0.03 -0.02 0.03 -0.03 0.02 -0.02 0.03 -0.03 0.02 -0.03 0.03 -0.04 0.02 -0.03 0.02 -0.03 0.02 -0.04 0.02 -0.03 0.01 -0.04 0.02 -0.04 0.01 -0.04 0.01 -0.04 0.01 -0.04 0 -0.04 0.01 -0.05 0 -0.04 0 0 -0.13 0.04 0 0.04 -0.01 0.03 0 0.04 -0.01 0.03 0 0.03 -0.01 0.03 -0.01 0.04 -0.01 0.03 -0.02 0.02 -0.01 0.03 -0.02 0.03 -0.01 0.03 -0.02 0.02 -0.02 0.03 -0.02 0.02 -0.02 0.02 -0.02 0.02 -0.03 0.02 -0.02 0.02 -0.03 0.01 -0.03 0.02 -0.03 0.01 -0.02 0.02 -0.03 0.01 -0.04 0.01 -0.03 0.01 -0.03 0.01 -0.04 0 -0.03 0.01 -0.04 0 -0.03 0 -0.04 0 0zm0 0c0,-0.04 0.03,-0.07 0.07,-0.07 0.03,0 0.06,0.03 0.06,0.07l-0.13 0zm-0.43 -0.26c0.02,0.03 0.02,0.07 -0.01,0.09 -0.02,0.03 -0.07,0.03 -0.09,0l0.1 -0.09zm-0.24 0.04l-0.01 -0.14 0 0 0.01 0 0.02 0 0.01 0 0.01 0 0.02 0.01 0.01 0 0.01 0 0.01 0 0.01 0.01 0.02 0 0.01 0 0.01 0.01 0 0 0.01 0.01 0.01 0 0.01 0.01 0.01 0 0.01 0 0 0.01 0.01 0 0.01 0.01 0 0 0 0.01 0.01 0 0 0 0.01 0.01 0 0 0 0 0.01 0.01 0 0 0 0 0 0 -0.1 0.09 0 0 0 0 0 0 0 0 0 0 0 0 -0.01 -0.01 0 0 0 0 0 0 -0.01 0 0 -0.01 0 0 -0.01 0 0 -0.01 -0.01 0 0 0 -0.01 0 0 -0.01 -0.01 0 0 0 -0.01 0 0 0 -0.01 -0.01 -0.01 0 0 0 -0.01 0 -0.01 0 -0.01 0 0 0 -0.01 0 -0.01 0 0 0zm0 0c-0.04,0 -0.07,-0.03 -0.07,-0.06 -0.01,-0.04 0.02,-0.07 0.06,-0.08l0.01 0.14zm-0.12 0.09l-0.13 0 0 0 0 -0.01 0 -0.01 0 -0.01 0 -0.01 0 -0.01 0.01 -0.01 0 -0.01 0 -0.01 0.01 -0.01 0 -0.01 0.01 -0.01 0 -0.01 0.01 -0.01 0.01 0 0.01 -0.01 0 -0.01 0.01 -0.01 0.01 -0.01 0.01 0 0.01 -0.01 0.01 -0.01 0.01 0 0.01 -0.01 0.01 0 0.01 -0.01 0.01 0 0.01 0 0.02 -0.01 0.01 0 0.01 0 0.02 0 0.01 -0.01 0.01 0.14 -0.01 0 -0.01 0 0 0 -0.01 0 -0.01 0.01 -0.01 0 0 0 -0.01 0 0 0 -0.01 0.01 0 0 -0.01 0 0 0.01 -0.01 0 0 0 0 0 -0.01 0.01 0 0 0 0 0 0.01 -0.01 0 0 0 0 0.01 0 0 0 0 0 0.01 0 0 -0.01 0.01 0 0 0 0 0 0.01 0 0 0 0zm0 0c0,0.04 -0.03,0.07 -0.06,0.07 -0.04,0 -0.07,-0.03 -0.07,-0.07l0.13 0zm0.38 0.29l-0.14 0 0 0 0 -0.01 0 -0.01 0 -0.01 0 0 -0.01 -0.01 0 0 -0.01 -0.01 0 0 -0.01 -0.01 -0.01 0 -0.01 0 -0.02 -0.01 -0.01 0 -0.02 0 -0.01 -0.01 -0.02 0 -0.02 0 -0.02 -0.01 -0.01 0 -0.02 -0.01 -0.02 0 -0.02 -0.01 -0.02 -0.01 -0.02 -0.01 -0.02 -0.01 -0.02 -0.01 -0.01 -0.02 -0.02 -0.02 -0.01 -0.02 -0.01 -0.03 0 -0.02 0 -0.03 0.13 0 0 0.01 0.01 0.01 0 0.01 0 0 0 0.01 0.01 0 0 0 0.01 0.01 0.01 0 0.01 0.01 0.01 0 0.01 0 0.02 0.01 0.01 0 0.02 0 0.02 0.01 0.01 0 0.02 0 0.02 0.01 0.02 0 0.02 0.01 0.02 0 0.02 0.01 0.02 0.01 0.01 0.02 0.02 0.01 0.02 0.02 0.01 0.02 0.01 0.02 0.01 0.03 0.01 0.02 0 0.03 0 0zm0 0c0,0.04 -0.03,0.07 -0.07,0.07 -0.04,0 -0.07,-0.03 -0.07,-0.07l0.14 0zm-0.51 0.11l0.09 -0.1 0.01 0.01 0.01 0.01 0.01 0 0.01 0.01 0.02 0.01 0.01 0 0.01 0 0.01 0.01 0.01 0 0.02 0 0.01 0 0.01 0 0.02 0 0.01 0 0.01 0 0.01 0 0.01 -0.01 0.01 0 0.02 0 0.01 -0.01 0 0 0.01 -0.01 0.01 0 0.01 -0.01 0 0 0 0 0.01 -0.01 0 0 0 0 0 -0.01 0 0 0 0 0.14 0 0 0.02 -0.01 0.02 0 0.02 -0.01 0.01 -0.01 0.02 -0.01 0.01 -0.02 0.02 -0.01 0.01 -0.01 0.01 -0.02 0.01 -0.01 0.01 -0.02 0.01 -0.01 0 -0.02 0.01 -0.02 0 -0.02 0.01 -0.02 0 -0.02 0.01 -0.02 0 -0.02 0 -0.02 0 -0.02 0 -0.02 -0.01 -0.02 0 -0.02 -0.01 -0.02 0 -0.02 -0.01 -0.02 -0.01 -0.02 -0.01 -0.02 -0.01 -0.01 -0.02 -0.02 -0.01zm0 0c-0.03,-0.02 -0.03,-0.07 -0.01,-0.1 0.03,-0.02 0.07,-0.02 0.1,0l-0.09 0.1zm0.19 -0.7c0,-0.04 0.03,-0.07 0.07,-0.07 0.04,0 0.07,0.03 0.07,0.07l-0.14 0zm0 0.14l0 -0.14 0.14 0 0 0.14 -0.14 0zm0.14 0c0,0.04 -0.03,0.07 -0.07,0.07 -0.04,0 -0.07,-0.03 -0.07,-0.07l0.14 0zm-0.14 0.58c0,-0.04 0.03,-0.07 0.07,-0.07 0.04,0 0.07,0.03 0.07,0.07l-0.14 0zm0 0.14l0 -0.14 0.14 0 0 0.14 -0.14 0zm0.14 0c0,0.04 -0.03,0.07 -0.07,0.07 -0.04,0 -0.07,-0.03 -0.07,-0.07l0.14 0z"/>
  </g>
  <path id="Intersect" class="fil0 str5" d="M30.14 2.08c0,-0.32 -0.01,-0.55 -0.03,-0.85 -0.01,-0.22 -0.19,-0.4 -0.41,-0.41 -0.26,-0.02 -0.51,-0.03 -0.82,-0.03 -0.1,0 -0.2,0 -0.29,0 -0.09,0 -0.18,0.03 -0.25,0.09 -0.23,0.17 -0.38,0.33 -0.54,0.54 -0.11,0.14 -0.17,0.31 -0.17,0.49 0,0.08 0,0.17 0,0.25 0,0.32 0.01,0.63 0.02,0.93 0.02,0.22 0.19,0.4 0.41,0.41 0.19,0.02 0.58,0.03 0.79,0.03m1.69 0.17l-0.24 -0.24m-0.41 0.14c0.35,0 0.55,-0.2 0.55,-0.55 0,-0.35 -0.2,-0.55 -0.55,-0.55 -0.36,0 -0.55,0.2 -0.55,0.55 0,0.35 0.19,0.55 0.55,0.55zm-0.57 -1.44l-0.87 0m0.5 0.67l-0.5 0m0.87 -1.36l-0.53 0"/>
  <path id="Intersect_0" class="fil0 str6" d="M34.15 2.93l0.24 0.32c0.25,-0.42 0.35,-0.56 0.66,-0.77m-0.39 -0.4c0,-0.32 -0.01,-0.55 -0.03,-0.85 -0.02,-0.22 -0.19,-0.4 -0.41,-0.41 -0.26,-0.02 -0.51,-0.03 -0.82,-0.03 -0.1,0 -0.2,0 -0.29,0 -0.09,0 -0.18,0.03 -0.25,0.09 -0.23,0.17 -0.38,0.33 -0.55,0.54 -0.11,0.14 -0.16,0.31 -0.17,0.49 0,0.08 0,0.17 0,0.25 0,0.32 0.01,0.63 0.03,0.93 0.02,0.22 0.19,0.4 0.41,0.41 0.19,0.02 0.57,0.03 0.78,0.03m1.69 0.17l-0.23 -0.24m-0.42 0.14c0.36,0 0.55,-0.2 0.55,-0.55 0,-0.35 -0.19,-0.55 -0.55,-0.55 -0.35,0 -0.55,0.2 -0.55,0.55 0,0.35 0.2,0.55 0.55,0.55zm-0.56 -1.44l-0.88 0m0.51 0.67l-0.5 0m0.87 -1.36l-0.53 0"/>
 </g>
</svg>
